<?xml version="1.0" encoding="UTF-8"?><svg id="Lag_1" xmlns="http://www.w3.org/2000/svg" viewBox="0 0 413.54 252.74"><defs><style>.cls-1{fill:#fff;stroke-width:0px;}</style></defs><path class="cls-1" d="M123.88,222.04c2.71,2.07,3.65,4.85,3.18,8.15-.51,3.64-2.53,5.47-6.25,5.7-.8.05-1.6.01-2.23.01-2.14.12-4.06-.25-6-.49-.74-.09-1.09-.34-1.06-1.19.1-3.12.06-3.14,3.1-2.85,1.32.13,2.63.25,3.95.2,1.1-.05,2.23-.17,2.71-1.35.53-1.3.46-2.58-.53-3.7-1.54-1.75-3.44-3.08-5.26-4.51-1.83-1.44-3.36-3.09-3.63-5.55-.16-1.36-.1-2.71.27-4.04.56-1.99,1.91-3.2,3.88-3.68,3.36-.82,6.73-.62,10.09.06.59.12.82.41.83,1.06.01,3.24.04,3.21-3.11,2.87-1.22-.13-2.47-.11-3.71-.11-1.06,0-2.12.14-2.56,1.33-.44,1.24-.39,2.43.53,3.48,1.06,1.22,2.44,2.05,3.69,3.03.69.54,1.41,1.05,2.11,1.58Z"/><path class="cls-1" d="M151.92,211.99c.45.17.39.41.2.73-.47.74-.88,1.52-1.4,2.23-.54.73-.5,1.3-.09,2.15,2.48,5.13,2.37,10.34.08,15.5-.93,2.09-2.85,2.94-4.99,3.27-2.06.32-4.14.32-6.2-.1-.62-.13-.93.02-1.24.57-.31.53-.44,1.36-1.13,1.45-1.02.15-2.07.09-3.11.04-.5-.02-.37-.39-.21-.7.61-1.12,1.81-2.12,1.77-3.32-.04-1.13-1.11-2.16-1.45-3.35-1.15-4.15-1.23-8.28.43-12.33,1.14-2.79,3.37-4.02,6.27-4.22.72-.05,1.44-.07,2.15-.1,1.05.01,2.1-.04,3.1.28.76.24,1.15.04,1.54-.62.81-1.38,2.81-2.02,4.28-1.48ZM146.55,229.53c.38-1.59.53-3.22.49-4.86.03-1.48-.09-2.94-.46-4.38-.47-1.83-1.21-2.46-3.09-2.53-.63-.03-1.27.04-1.9.09-1.22.12-1.94.8-2.27,1.97-.95,3.38-.83,6.76,0,10.14.32,1.32,1.23,1.9,2.47,2.06.55.08,1.11.04,1.67.03,1.87-.05,2.65-.68,3.08-2.52Z"/><path class="cls-1" d="M176.67,234.74c.01.72-.26.99-.99.96-1.08-.05-2.16-.07-3.23,0-.88.05-1.09-.32-1.09-1.12.02-4.16,0-8.31-.01-12.47,0-.28,0-.56-.01-.84-.1-2.6-.82-3.3-3.42-3.36q-3.63-.07-3.63,3.52v12.72q0,1.53-1.59,1.53c-.84.01-1.68-.06-2.52.02-.99.1-1.2-.33-1.18-1.23.04-3.12.02-6.24.02-9.36s0-6.24-.01-9.36c-.01-.62.05-1.06.81-1.17,3.77-.53,7.52-1.08,11.33-.53,3.67.52,5.33,2.23,5.41,5.93.11,4.92.07,9.84.11,14.76Z"/><path class="cls-1" d="M200.4,206.1c.94-.07,1.13.33,1.12,1.18-.03,4.44-.01,8.87-.01,13.3s-.02,8.87.02,13.31c0,.81-.21,1.27-1.05,1.43-3.67.7-7.38.96-11.06.24-3.47-.68-5.16-2.53-5.72-6.03-.58-3.57-.69-7.14.47-10.65,1.08-3.25,3.49-4.74,6.73-5.02,1.39-.12,2.8-.08,4.19.05.95.1,1.17-.21,1.15-1.09-.05-1.88.02-3.76-.04-5.63-.03-.85.26-1.13,1.09-1.09,1.04.06,2.08.08,3.11,0ZM194.91,232.08c.94.03,1.36-.29,1.33-1.32-.07-1.99-.02-3.99-.02-5.99s-.01-4,0-6c0-.56-.05-1.04-.79-1.08-1.16-.05-2.32-.14-3.47.05-1.38.23-2.36,1-2.69,2.4-.75,3.2-.73,6.41-.01,9.61.25,1.11.99,1.78,2.08,2.11,1.17.36,2.37.18,3.57.22Z"/><path class="cls-1" d="M226.11,220.19c.25,1.7.28,3.42.12,5.14-.08.91-.51,1.25-1.39,1.23-1.72-.03-3.44-.01-5.16-.01-1.71.01-3.43.02-5.15,0-.61-.01-.81.18-.81.82-.02,2.76,1.54,4.47,4.36,4.69,2.17.16,4.31-.03,6.39-.67.84-.26,1.13-.04,1.21.83.26,2.75.17,2.93-2.6,3.46-2.65.51-5.31.64-7.96.02-3.4-.8-5.51-2.89-6.24-6.33-.69-3.26-.72-6.5.29-9.7.91-2.88,2.77-4.82,5.76-5.52,2.13-.5,4.28-.5,6.39.1,2.99.84,4.37,3.04,4.79,5.94ZM219.23,223.27c2.62-.01,2.89-.34,2.33-2.98-.28-1.27-.79-2.3-2.24-2.64-3.54-.86-6.04,1.32-5.66,4.96.06.56.33.65.78.65h3.23c.52.01,1.04.01,1.56.01Z"/><path class="cls-1" d="M243.44,213.87c.8.06,1.17.26,1.05,1.13-.1.75-.1,1.52-.07,2.28.03.77-.31.96-1.02.87-1.14-.14-2.29-.21-3.46-.14-1.19.07-1.6.52-1.58,1.77.08,4.83,0,9.66.05,14.5.01,1.03-.2,1.58-1.38,1.42-1.25-.17-2.87.54-3.68-.29-.75-.78-.2-2.37-.22-3.59-.03-2.24-.01-4.48-.01-6.71,0-3.12.02-6.23,0-9.35-.01-.7.16-1.1.92-1.23,3.12-.53,6.24-.86,9.41-.66Z"/><path class="cls-1" d="M254.99,208.55c-.02,2.48.36,2.12-2.15,2.14-3.38.02-3.38,0-3.38-3.09q-.01-1.71,1.74-1.71h1.08c2.71,0,2.73,0,2.71,2.66Z"/><path class="cls-1" d="M377.56,233.86c.01.9-.28,1.35-1.13,1.5-3.64.64-7.29.88-10.95.22-3.34-.6-5.23-2.67-5.75-6.02-.51-3.3-.63-6.59.22-9.86.96-3.65,3.44-5.7,7.21-5.86,1.31-.06,2.64-.06,3.94.07,1.02.1,1.23-.25,1.19-1.17-.06-1.75.06-3.52-.05-5.27-.07-1.16.36-1.46,1.43-1.37.91.09,1.84.07,2.75,0s1.15.27,1.14,1.16c-.04,4.47-.02,8.95-.02,13.42s-.03,8.79.02,13.18ZM371.11,232.07c.91.02,1.22-.42,1.19-1.33-.06-1.92-.02-3.83-.02-5.75,0-2.07-.01-4.15.01-6.22,0-.6-.13-1.02-.81-1.06-1.2-.08-2.4-.16-3.58.04-1.34.24-2.27,1.03-2.58,2.35-.77,3.23-.76,6.48,0,9.71.26,1.08.99,1.76,2.1,2.07,1.22.34,2.46.17,3.69.19Z"/><path class="cls-1" d="M377.07,197.17c.01.59-.15.88-.8.84-.88-.04-1.76-.05-2.64.01-.77.05-.92-.3-.91-.99.02-3.43.02-6.87.01-10.3-.02-2.81-.56-3.33-3.4-3.33-.24,0-.48,0-.72.02q-1.68.13-1.68,1.83c0,3.87-.02,7.75.02,11.62.01.87-.22,1.17-1.14,1.16-3.21-.02-3.21.01-3.21-3.26v-5.39h.01c0-2.51.02-5.03-.02-7.55-.01-.8.22-1.07,1.05-1.18,2.85-.39,5.68-.76,8.57-.45,3.2.34,4.71,1.76,4.8,4.99.11,3.99.04,7.98.06,11.98Z"/><path class="cls-1" d="M376.83,92.88c.01,15.99.02,31.99.02,47.98,0,1.81-.15,1.95-2.02,1.95h-13.79c-1.89,0-2.11-.23-2.12-2.16,0-11.39-.01-22.79-.02-34.18,0-4.2,0-8.4-.05-12.6-.02-1.39-.13-2.79-.31-4.18-.57-4.34-2.84-6.68-7.28-7.3-4.82-.67-9.65-.56-14.45.23-2.06.34-2.24.63-2.24,2.76,0,18.4.01,36.79.02,55.18,0,2.09-.16,2.25-2.26,2.25h-13.55c-1.92,0-2.16-.22-2.16-2.11v-33.82h-.03c0-11.24,0-22.47.01-33.71,0-1.68.19-1.97,1.81-2.23,10.85-1.71,21.73-3.2,32.77-2.7,4.9.23,9.78.71,14.43,2.54,5.73,2.26,9.01,6.5,10.23,12.46.65,3.18.99,6.39.99,9.64Z"/><path class="cls-1" d="M356.18,184.66c.42,1.43.59,2.89.53,4.38.06,1.73-.19,3.42-.72,5.08-.73,2.33-2.27,3.7-4.68,4.04-1.55.23-3.12.23-4.66.02-2.1-.3-3.61-1.4-4.41-3.41-1.51-3.81-1.57-7.63.04-11.41.83-1.93,2.4-2.91,4.47-3.14,1.36-.14,2.7-.2,4.06-.04,3,.35,4.54,1.6,5.37,4.48ZM351.84,193.41c.73-2.83.77-5.68.01-8.51-.25-.93-.89-1.49-1.9-1.53-.56-.02-1.12,0-1.68-.02-1.2-.02-1.91.61-2.28,1.72-.43,1.32-.41,2.67-.44,4.28.03.63.02,1.51.12,2.38.32,2.81,1.6,3.71,4.4,3.22.94-.16,1.54-.66,1.77-1.54Z"/><path class="cls-1" d="M352.67,234.61c.01.81-.24,1.15-1.09,1.09-1.04-.06-2.08-.07-3.12,0-1,.07-1.07-.47-1.07-1.24.02-4.04.02-8.07,0-12.11-.02-3.95-.59-4.5-4.51-4.44q-2.56.04-2.56,2.58c0,4.64-.02,9.28.02,13.91.01.97-.23,1.39-1.26,1.3-.95-.07-1.92-.08-2.87.01-1.01.08-1.18-.37-1.17-1.25.04-3.12.02-6.24.02-9.36s.01-6.23-.02-9.35c0-.63.09-1.08.83-1.18,3.84-.52,7.67-1.1,11.56-.5,3.34.51,5.05,2.21,5.14,5.55.13,5,.05,9.99.1,14.99Z"/><path class="cls-1" d="M333.28,173.55q2.24-.01,2.23,2.2,0,1.77-1.85,1.76c-2.7-.01-2.66-.01-2.71-2.7-.02-.97.22-1.43,1.25-1.27.35.05.72.01,1.08.01Z"/><path class="cls-1" d="M335.39,196.8c.01.89-.18,1.25-1.18,1.23-3.17-.04-3.17.01-3.17-3.19,0-4.35.03-8.71-.02-13.07-.01-1.01.19-1.41,1.3-1.38,3.04.05,3.05,0,3.05,3.09v5.64c0,2.56-.03,5.12.02,7.68Z"/><path class="cls-1" d="M327.45,234.14c.01.83-.25,1.23-1.09,1.36-4.13.67-8.26.97-12.36-.06-2.18-.54-3.21-1.89-3.39-4.11-.44-5.34,1.09-7.21,6.41-7.86,1.47-.18,2.93-.39,4.4-.53.66-.06.87-.34.91-.97.19-2.87-.61-3.78-3.51-3.87-1.76-.04-3.52,0-5.26.29-.73.13-1.08-.05-1.14-.87-.3-3.7-.59-2.88,2.52-3.38,2.76-.45,5.57-.64,8.33.16s4.08,2.55,4.15,5.44c.02,1.2.01,2.4.01,3.6v3.48c0,2.44-.03,4.88.02,7.32ZM322.34,226.9c.02-.56-.18-.8-.76-.78-1.35.03-2.71-.07-4.06.17-.88.15-1.42.62-1.68,1.48-1.01,3.34.08,4.89,3.51,4.94.16,0,.32.01.48,0q2.5-.06,2.5-2.57c.01-.28,0-.56.01-.84,0-.8-.02-1.6,0-2.4Z"/><path class="cls-1" d="M324.31,180.44c2.46.02,2.44.05,2.26,2.51-.05.62-.27.79-.87.81-2.39.1-2.39.12-2.39,2.5s.04,4.8-.01,7.19c-.03,1.2.48,1.68,1.63,1.65.46-.01,1.23-.2,1.05.66-.18.81.66,2.05-.84,2.36-1.21.26-2.46.32-3.68.06-1.53-.33-2.42-1.45-2.47-3.1-.04-1.72-.01-3.44-.01-5.16h-.01c0-1.71-.02-3.43.01-5.15.02-.76-.23-1.07-1.03-1.04-.57.02-1.41.32-1.66-.26-.36-.83-.22-1.82-.06-2.71.11-.55.75-.32,1.15-.33,1.82-.04,1.52.1,1.61-1.64.04-.97-.51-2.32.25-2.83.89-.61,2.24-.18,3.39-.2.61-.02.7.39.69.88-.02.92.02,1.84-.03,2.76-.04.77.22,1.04,1.02,1.04Z"/><path class="cls-1" d="M311.86,196.67c.02.75-.26,1.12-.97,1.23-3.25.49-6.52.69-9.76.03-1.98-.41-2.78-1.41-3.1-3.45-.18-1.17-.08-2.33.19-3.45.38-1.53,1.6-2.22,3-2.61,1.74-.48,3.53-.66,5.32-.82.96-.09,1.17-.55,1.14-1.39-.09-1.91-.7-2.56-2.65-2.62-1.52-.05-3.03-.05-4.53.24-.63.11-.91-.04-.97-.77-.22-2.75-.68-2.31,2.12-2.74,2.25-.34,4.53-.51,6.77.15,2.27.66,3.36,2.09,3.41,4.46.02,1,.01,2,.01,3v2.87h.01c0,1.96-.03,3.92.01,5.87ZM307.67,192.84c-.08-3.16.64-2.63-2.82-2.66-.4-.01-.8.06-1.19.13-.54.09-.94.39-1.2.88-1.21,2.22-.04,4.33,2.43,4.39q2.78.07,2.78-2.74Z"/><path class="cls-1" d="M305.3,232.01c.97-.02,1.12.33,1.08,1.19-.14,2.56-.2,2.65-2.84,2.72-.16.01-.32.01-.48.01-3.97.03-5.27-1.23-5.29-5.18-.03-3.84-.01-7.68-.01-11.52h.01c0-3.96.03-7.92-.03-11.87-.01-1.04.33-1.33,1.31-1.26.99.07,2,.06,2.99,0,.8-.04,1.03.25,1.02,1.03-.03,3.72-.01,7.43-.01,11.15s0,7.6,0,11.4c.01,2.02.3,2.37,2.25,2.33Z"/><path class="cls-1" d="M295.3,42.13c5.21.12,9.37,4.39,9.31,9.59-.06,5.19-4.36,9.38-9.55,9.32-5.25-.07-9.43-4.3-9.37-9.5.05-5.26,4.41-9.52,9.61-9.41Z"/><path class="cls-1" d="M304.37,110.53c0,10.99.02,21.98-.02,32.98-.01,4.59-.17,9.19-1.29,13.68-1.5,5.98-5.53,9.12-11.45,10.08-6.08,1-12.16.99-18.24,0-.59-.1-1.16-.28-1.73-.46-.76-.23-1-.74-.96-1.55.16-2.99.26-5.99.36-8.98.07-1.89.46-2.22,2.36-1.9,2.57.44,5.16.56,7.76.29,2.59-.27,3.94-1.85,4.51-4.26.56-2.36.54-4.76.54-7.15,0-21.63,0-43.26-.01-64.88,0-2.44-.01-4.88,0-7.32.01-1.5.31-1.84,1.83-1.85,4.87-.03,9.74-.03,14.62-.01,1.4,0,1.69.38,1.69,1.98.01,13.11.01,26.22.01,39.34h.02Z"/><path class="cls-1" d="M291.96,232.02c.8,0,1.12.24.98,1.03-.02.11-.02.24-.02.36-.11,2.33-.2,2.43-2.53,2.5-.71.03-1.43.04-2.15,0-2.33-.17-3.59-1.34-3.79-3.67-.29-3.26-.07-6.54-.12-9.81-.02-1.04-.01-2.08-.01-3.12,0-3.99.03-7.98-.01-11.98-.01-.9.2-1.3,1.19-1.22,1.03.09,2.07.07,3.11.01.82-.06,1.02.29,1.01,1.03-.03,2.16,0,4.32,0,6.47v16.05c0,2.06.25,2.35,2.34,2.36Z"/><path class="cls-1" d="M292.65,197.18c.01.6-.18.81-.82.84-3.52.18-3.51.19-3.52-3.29,0-2.84.02-5.68-.02-8.51-.03-2.15-.66-2.74-2.82-2.81q-2.97-.09-2.97,2.85c0,3.52-.02,7.04.03,10.56.01.93-.24,1.23-1.21,1.21-3.14-.04-3.14,0-3.14-3.09v-5.52c0-2.56.02-5.12-.01-7.68,0-.67.15-.97.9-1.07,2.89-.4,5.77-.79,8.71-.47,3.21.35,4.71,1.75,4.81,4.98.11,4,.04,8,.06,12Z"/><path class="cls-1" d="M277.6,214.25c1.56,0,1.62.05,1.25,1.52-.82,3.25-1.62,6.51-2.51,9.73-1.07,3.88-2,7.81-3.49,11.56-2.09,5.22-4.9,6.05-10.14,5.78-.62-.03-.98-.31-1.03-1.04-.16-2.44-.19-2.52,2.24-2.64,2.2-.11,3.54-1.2,4.33-3.17.28-.71.18-1-.65-1.03-2.06-.08-2.05-.11-2.67-2.09-1.72-5.57-3.23-11.19-4.54-16.86-.4-1.75-.39-1.76,1.38-1.75h1.08c2.71,0,2.7,0,3.27,2.63.92,4.25,1.84,8.5,2.76,12.74.06.28.14.54.19.82.08.37.18.69.67.69s.59-.33.67-.69c.53-2.26,1.09-4.5,1.57-6.76.61-2.81,1.17-5.63,1.7-8.45.13-.72.41-1.04,1.17-1,.91.05,1.83.01,2.75.01Z"/><path class="cls-1" d="M276.92,100.79c.5,9.18-.25,18.21-3.44,26.91-1.91,5.22-4.68,9.79-9.7,12.64-3.47,1.97-7.26,2.91-11.16,3.37-5.69.67-11.38.6-17.09-.12-9.51-1.18-15.84-6.29-19.37-15.14-3.59-8.98-4.49-18.3-4.01-27.87.28-5.7.34-11.42-1.06-17.05-1.58-6.36-5.55-10.53-11.55-12.94-4.21-1.69-8.62-2.3-13.12-2.39-8.31-.17-16.51.6-24.43,3.32-.59.2-1.17.24-1.74-.08-3.82-2.21-8.08-2.68-12.34-2.99-11.95-.87-23.77.44-35.53,2.43-1.82.3-2.02.59-2.02,2.44,0,22.36,0,44.71,0,67.07,0,2.28.14,2.41,2.47,2.41h13.31c1.92,0,2.17-.23,2.17-2.11-.01-18.35-.02-36.71-.02-55.07,0-2.45.21-2.76,2.6-3.06,4.53-.56,9.07-.93,13.61-.22.86.14,1.72.36,2.54.66,3.1,1.12,4.51,2.97,4.58,6.28.09,3.8.06,7.6.07,11.4.02,13.27.03,26.55.05,39.82,0,2.19.11,2.3,2.33,2.3h13.55c1.82,0,2-.16,2-1.98,0-18.52-.01-37.03-.02-55.55,0-1.87.25-2.29,2.09-2.56,4.99-.76,10-1.24,15-.13,4.2.93,6.48,3.65,7.14,7.85.24,1.51.27,3.02.27,4.54.02,15.44.03,30.87.07,46.31,0,.55-.21.87-.56,1.23-7.31,7.54-15.32,14.25-23.82,20.37-15.98,11.51-33.25,20.72-51.24,28.61-2.78,1.22-5.6,2.35-8.37,3.58-1.1.5-2.07.46-3.18-.05-8.41-3.88-16.74-7.93-24.72-12.65-13.96-8.25-27.24-17.43-39.04-28.63-13.41-12.73-24.16-27.33-31.11-44.54-3.31-8.2-5.33-16.73-5.13-25.67.52-22.48,14.04-43.19,35.52-51.17,14.84-5.52,29.33-4.17,43.32,3.02,6.98,3.59,12.62,8.91,17.96,14.56.3.31.59.63.96,1.01.86-1.86,1.63-3.65,2.51-5.38,7.28-14.23,18.04-24.86,32.64-31.46,24.95-11.29,53.83-4.75,71.52,16.24,9.51,11.27,14.56,24.35,15.29,39.09,0,.28.04.56.04.84.02.66.32.67.85.46,7.14-2.81,14.6-2.76,22.08-2.44,3.44.14,6.84.61,10.13,1.68,6.85,2.21,10.89,7.2,13.49,13.66,2.21,5.51,3.27,11.25,3.6,17.15ZM258.82,105.58c.07-2.56-.05-5.12-.28-7.66-.32-3.55-.8-7.06-2.09-10.42-1.15-2.96-3.07-5.07-6.34-5.54-3.81-.56-7.65-.63-11.44.13-2.4.47-4.19,1.83-5.33,4.06-1.27,2.48-1.9,5.15-2.33,7.88-1.01,6.47-.96,12.99-.42,19.49.31,3.78.88,7.53,2.26,11.11,1.18,3.07,3.38,4.85,6.58,5.44,2.7.5,5.41.38,8.13.27,5.2-.2,7.81-2.22,9.32-7.19.09-.3.18-.61.25-.92,1.33-5.47,1.67-11.04,1.69-16.65Z"/><path class="cls-1" d="M271.82,196.93c.01.81-.19,1.09-1.05,1.1-3.29.01-3.29.04-3.29-3.29v-5.62c0-2.56.02-5.11-.02-7.66-.01-.77.23-1.03,1.02-1.06,3.32-.13,3.32-.15,3.32,3.13,0,4.47,0,8.93.02,13.4Z"/><path class="cls-1" d="M271.95,175.76q-.01,1.73-1.75,1.75c-2.81.03-2.77.03-2.8-2.72-.02-.99.26-1.4,1.26-1.26.36.05.72.01,1.08.01q2.21.01,2.21,2.22Z"/><path class="cls-1" d="M261.29,180.41q1.74.01,1.75,1.73t-1.63,1.6-1.66,1.69c0,2.68.02,5.35-.01,8.03-.01.8.15,1.41.99,1.66.56.04,1.39-.34,1.62.23.31.73.16,1.63-.05,2.44-.07.27-.37.24-.61.23l-.05.04-.06-.04c-1.28.39-2.56.49-3.84,0-1.5-.36-2.27-1.32-2.29-3.02-.03-3.32-.06-6.63.01-9.94.02-1.06-.27-1.43-1.33-1.35-.49.04-1.3.35-1.45-.38-.19-.87-.27-1.84.07-2.7.15-.39.72-.2,1.1-.21,1.63-.03,1.58.29,1.58-1.63,0-3.43.01-3.42,3.53-3.07.62.07.81.33.8.92-.03.99.02,1.99-.02,2.99-.02.63.21.88.84.8.23-.04.48-.03.71-.03Z"/><path class="cls-1" d="M253.43,214.23c1.13-.12,1.54.23,1.51,1.42-.07,3.72-.02,7.43-.02,11.92-.08,3.02.15,6.82-.15,10.61-.27,3.52-1.61,4.8-5.16,4.92-1.24.04-2.47.06-3.71-.14-.68-.11-.99-.44-.89-1.13.01-.08.01-.16.01-.24q.12-2.3,2.39-2.33c1.42-.02,1.99-.47,2.05-1.9.09-2.27.11-4.55.12-6.82.02-4.96.04-9.91-.02-14.86-.02-1.18.34-1.57,1.48-1.44.79.09,1.6.08,2.39,0Z"/><path class="cls-1" d="M247.87,180.29c.68.07.91.38.87,1.1-.12,2.38-.09,2.39-2.45,2.12-.87-.1-1.75-.15-2.62-.02-.55.08-1.17.1-1.35.78-.2.73-.16,1.45.47,1.98.55.45,1.13.88,1.73,1.27.93.62,1.86,1.23,2.74,1.91,2.3,1.78,2.03,4.77,1.24,6.55-.7,1.56-2.15,2.05-3.71,2.23-.91.11-1.83.11-2.38.14-1.52-.12-2.68-.09-3.83-.27-.69-.11-.82-.39-.8-1.02.08-2.36.06-2.37,2.38-2.11.95.11,1.91.21,2.86.09.59-.07,1.26-.1,1.48-.81.23-.75.26-1.49-.31-2.14-.64-.73-1.44-1.26-2.22-1.82-.64-.46-1.29-.93-1.95-1.37-2.34-1.59-2.5-3.79-1.7-6.27.5-1.53,1.89-2.08,3.35-2.35,2.07-.4,4.14-.19,6.2.01Z"/><path class="cls-1" d="M233.27,188.92c0,1.21-.48,1.73-1.73,1.63-1.23-.09-2.48-.02-3.71-.02h0c-1.36.01-2.72.03-4.07,0-.62,0-.84.18-.81.83.09,2.01,1.04,3.17,3.02,3.58,1.93.41,3.82.06,5.67-.42.85-.22,1.02,0,1.09.8.2,2.23.21,2.25-2,2.68-1.82.36-3.65.4-5.48.23-3.45-.32-5.56-2.24-6.34-5.67-.57-2.5-.52-5.01.22-7.45,1.15-3.83,3.8-5.32,8.17-4.99,3.93.29,5.51,2.07,5.9,6.05.09.92.06,1.83.07,2.75ZM229.42,187.55c.64-1.09-.45-3.86-1.69-4.29-2.78-.96-5.28,1.11-4.89,4.02.07.49.3.59.71.59.88,0,1.76,0,2.64,0,.8,0,1.59,0,2.39,0,.32,0,.64.04.84-.31Z"/><path class="cls-1" d="M212.7,181.5c.85,3.55.83,7.14,0,10.68-.89,3.75-3.59,5.8-7.45,5.82-2.51.01-5.03-.03-7.54.02-.84.02-1.09-.24-1.08-1.08.04-3.39.02-6.79.02-10.18s.05-6.55-.03-9.83c-.02-1.1.35-1.34,1.37-1.31,2.43.07,4.87.01,7.3.04,3.87.03,6.52,2.08,7.42,5.84ZM208.33,191.27c.63-2.95.64-5.96.05-8.92-.48-2.39-1.79-3.32-4.24-3.33-.76,0-1.52.04-2.27-.01-.7-.04-.88.26-.87.92.03,2.27.01,4.55.01,6.82v4.79q0,3.11,3.1,3.08c2.48-.02,3.69-.89,4.22-3.35Z"/></svg>