<?xml version="1.0" encoding="UTF-8"?><svg id="Lag_1" xmlns="http://www.w3.org/2000/svg" viewBox="0 0 286.8 247.8"><defs><style>.cls-1{fill:#f4f3df;}.cls-1,.cls-2,.cls-3,.cls-4,.cls-5,.cls-6,.cls-7,.cls-8,.cls-9,.cls-10,.cls-11,.cls-12,.cls-13,.cls-14,.cls-15,.cls-16{stroke-width:0px;}.cls-2{fill:#e5d5b5;}.cls-3{fill:#fefdef;}.cls-4{fill:#fefae9;}.cls-5{fill:#d3c8a6;}.cls-6{fill:#57624a;}.cls-7{fill:#e4e3cb;}.cls-8{fill:#a7785c;}.cls-9{fill:#fbf7e5;}.cls-10{fill:#7d775c;}.cls-11{fill:#30443c;}.cls-12{fill:#ededd7;}.cls-13{fill:#ebebd5;}.cls-14{fill:#6b6b51;}.cls-15{fill:#eaead3;}.cls-16{fill:#b8ac8d;}</style></defs><path class="cls-3" d="M286.74,247.06c-.54,1.24-1.62.56-2.39.56-18.74.05-37.47.04-56.21.04-75.15,0-150.29-.01-225.44.06-2.13,0-2.61-.4-2.61-2.59C.16,164.23.14,83.34.18,2.45c0-.77-.67-1.85.56-2.39,0,18.14.02,36.28.02,54.41,0,5.78,0,11.57,0,17.35,0,4.59,0,9.17,0,13.76,0,6.78.09,13.55-.06,20.32-.05,2.34.62,3.06,3.02,3.05,25.99-.05,51.98-.18,77.97.45,6.03.14,12.1-.5,18.16-.54,4.19-.03,8.29.75,12.49.7,17.92-.21,35.83-.78,53.75-.71,40.22.17,80.44.05,120.65.05v78.94c-1.42-.28-2.4.7-3.52,1.26-2.82-.48-5.53.93-8.35.51-.25-3.76-.38-7.54-.79-11.28-.44-4.03-.78-8.1-2.04-12-.3-.94-.72-2.06-1.84-2.14-1.23-.09-1.54,1.14-1.86,2.04-1,2.81-1.58,5.74-1.92,8.7-.62,5.51-1.17,11.03-1.75,16.54-3.02.39-6.03.79-9.05,1.18-4.96.59-9.93,1.18-14.89,1.76-.09-1.63-.28-3.22-1.53-4.45-.37-.86-1.11-1.58-1.05-2.62.45-2.61-1.99-2.8-3.22-2.94-5.7-.62-9-3.99-11.21-8.85-.75-1.64-1.74-3.05-2.97-4.4-2.26-2.46-4.6-4.89-4.72-8.65-.05-1.5-.83-3.06-2.33-3.95.24-1.85.3-3.88,2.36-4.7,1.17-.47,2.79-.32,1.97-2.31-.49-1.2,1.07-2.5-.26-3.59-1.24-1.02-1.17-2.39-1.04-3.78.83-.87,1.27-1.96.6-2.96-.65-.97-1.56.29-2.41.12-.57-.12-1.21-.12-1.78.02-1.91.47-3.93.74-5.66,1.59-3.28,1.61-3.22,5.59.41,10.09-.24.88-.47,1.76-.71,2.64-1.48.09-2.86,2.01-4,1.26-2.17-1.45-4.43-1.29-6.74-1.43-.72-1.42-1.99-1.09-3.1-.86-3.07.63-4.97,3.23-5.2,6.95q-1.79,1.31-1.18,2.24c-.45,2.2-.9,4.41-1.35,6.61-.63.99-3.6.62-1.77,3.05.58,2.4-.95,5.11,1.04,7.31.82,1.55.65,3.91,3.28,3.96-.08.34-.15.69-.23,1.03-.3,0-.6-.02-.89.03-1.45.27-3.87-1.27-4.18.52-.36,2.05,2.34,2.19,3.97,2.77.46.16.97.25,1.46.3,1.21.11,2,.64,2.35,1.88.86,3.04,1.8,6.06,2.71,9.09-8.18-.12-16.43.74-24.43-1.8-.48-.61-.46-1.56-1.33-1.89-.1-.15-.24-.25-.41-.31v.05c-.43-.64-.87-1.29-1.31-1.93-.02-2.02-.58-4.08,2.6-4.64,1.7-.3,2.43-2.28,1.55-4.06-.5-1.02-.54-2.09-.9-3.1.24-2.46-1.36-4.11-4.21-4.37-3.14-.28-5.8,2.25-9.47.69-2.25-.96-4.07,2.6-3.7,6.14.14,1.37,1.42,2.88-.64,4.2-1.4.9,1.61.83.91,2.15-.23.43.77.62,1.06.23,1.29-1.7,4.17-1.57,4.58-4.5,1.35,1.66,2.93,2.2,4.59,2.57.32.98-.33,1.74-.61,2.58-2.54-.38-4.37,2.61-7.06,1.49-3.55-1.33-6.91-1.59-9.63,1.72-6.16.5-11.96-1.69-17.96-2.4.33-3.64-.66-6.61-4.19-8.31-1.21-.45-1.73-2.38-3.5-1.64-3.38-.83-5.95-2.95-8.42-5.27-1.21-1.13-2.17-2.55-3.7-3.32-.04-.17-.04-.34,0-.52l-.23-.71c-.68-1.68-3.4-2.22-2.61-4.71,1.89-.94,1.64-2.71,1.66-4.35,0-.84-.49-1.55-.05-2.54,1.35-3.12-.04-5.13-3.57-5.5-.25-.21-.49-.43-.74-.64.69-2.19.84-4.54,3.9-5.28,1.38-.34,2.2-2.36,1.78-4.12-.2-.84-.72-1.61-.6-2.54,1.44-1.41.59-2.53-.53-3.5-3.98-3.45-11-1.06-12.13,4.14-.26,1.2-.57,2.35-1.44,3.21-1.7,1.68-1.8,3.21.24,4.69.46.34,1.14.69.89,1.38-.22.6-.88.67-1.52.71-.58.04-1.15.28-1.72.42-.79-2.79-1.78-5.49-4.1-7.41-2.57-2.13-6.44-2.06-8.73.1-2.09,1.97-2.22,4.95-.25,7.8.58.84,1.26,1.57.5,2.62,0,0,.03.04.03.04-2.92,3.4-3.47,6.19-1.8,9.05.36.17.71.34,1.07.51.09,1.58.1,3.15-.29,4.69-.63.29-1,.64-.29,1.25l.17.67c-.34.77-.33,1.55-.12,2.35-.11,3.4,1.18,4.9,4.55,5.11,2.26.14,4.55-.12,6.77.5.17.76.79.89,1.42.99-.05.57-.1,1.15-.15,1.72-3.65.16-7.3.29-10.93-.25-.99-.15-1.76-.2-2.12.91-12.5-2.85-24.75-6.59-36.78-10.95-12.03-4.36-23.88-9.24-35.79-13.93-1.94-.76-2.99-.96-2.97,1.85.13,16.24.08,32.49.09,48.73-.02,10.61-.05,21.22-.04,31.83,0,3.6.53,4.08,3.79,3.93,1.9.01,3.8.02,5.7.03.83-.17,1.65-.35,2.48-.52.21,0,.43.01.64.02,2.16,1.16,4.34.7,6.53.09.84.77,1.88.48,2.84.48,4.25.02,8.51,0,12.76,0,1.75-.02,3.5-.04,5.25-.06.41,0,.83.02,1.24.03.63-.18,1.26-.35,1.89-.53,1.84,1.26,3.86.37,5.79.51,2.72-.02,5.45-.04,8.17-.06,2.14-.06,4.34.83,6.39-.46,2.19.87,4.38.73,6.58.02,2.4,1.29,4.91.41,7.38.42,13.91.03,27.82.06,41.74.1,2.14-.22,4.39.82,6.44-.52,2.22.8,4.45.75,6.67,0,2.22,1.25,4.59.38,6.88.47,5.89.02,11.78.04,17.67.07,4.92,0,9.83,0,14.75,0,.44.01.88.02,1.32.03,1.09.15,2.1-.14,3.09-.56,1.61,1.26,3.4.4,5.12.43.66.04,1.32.07,1.98.11.95,0,1.89-.02,2.84-.03,15.87-.02,31.74-.05,47.61-.07,2.12-.06,4.3.81,6.34-.45,2.25.63,4.49.98,6.75.04,2.69,1.14,5.47.47,8.22.39.16.02.31.04.47.07,2.65.02,5.31.05,7.96.07.4.01.8.03,1.21.04,4.07-.06,8.14-.11,12.21-.17.48.04.97.08,1.45.12,2.61.01,5.22.02,7.83.03ZM109.3,119.71c2.27.39,4.4,1,6,2.7,1.57,1.67,3.05,1.4,4.57-.15,1.61-1.64,4.32-3.12,5.81-2.22,3.87,2.34,5.81-1.71,8.83-1.54-1.4-1.03-2.79-.79-3.93-.01-1.63,1.11-2.85.81-4.56-.05-1.87-.93-4.04-1.14-5.62,1.26-1.33,2.02-3.14,2.79-5.38.83-1.59-1.39-3.52-1.98-5.73-.81ZM55.89,168.58c-3.92-.07-6.67-4.34-10.98-3.01,3.95-.05,6.5,4.95,10.98,3.01Z"/><path class="cls-12" d="M.77,54.47c0-18.14-.02-36.28-.02-54.41C95.18.06,189.61.07,284.05,0c2.24,0,2.77.5,2.75,2.75-.11,16.84-.06,33.69-.06,50.54-2.09,0-4.19.02-6.28-.02-1.05-.02-2.17-.24-1.78-1.68.55-2.02-.68-2.04-1.95-1.79-6.79,1.37-13.69.47-20.51.72-5.59.2-11.32-.02-16.98-.17-1.87-.05-4.02-.78-5.46,1.37-.39.58-.99.16-1.5-.27-2.19-1.8-4.43-1.87-6.59.06-.83.74-1.18.49-1.81-.36-1.96-2.61-4.05-2.66-5.95-.11-.96,1.28-2.03,1.7-3.55,1.69-6.18-.05-12.36-.03-18.55-.01-1.13,0-2-.14-2.8-1.22-1.35-1.82-7.69-1.69-9.17,0-.9,1.03-6.8,1.8-7.82.99-.21-.16-.48-.53-.42-.7.77-2.38-1.12-2.45-2.45-2.58-1.62-.15-3.4-.26-4.31,1.72-1.02,2.22-3.34,1.03-4.99,1.68-1.27.5-1.53-.77-1.63-1.84-.08-.9-.8-1.01-1.54-1.04-4.77-.19-9.53-.47-14.3-.54-1.28-.02-2.87.05-3.28,1.89-.26,1.19-1.27,1.53-2.27,1.58-4.86.25-9.72.5-14.58.6-1.32.03-2.73-.13-3.53-1.66-.97-1.87-2.26-1.74-3.45-.15-.58.77-1.35,1.73-2.02.55-1.17-2.07-2.96-1.6-4.7-1.69-2.28-.12-4.55-.1-6.83-.3-4.92-.44-9.86-1.48-14.83-.69-3.47.55-6.88.35-10.36.05-3.61-.3-7.33-.11-10.22,2.74-1.07,1.05-5.83.86-5.93-.28-.23-2.5-1.87-2.1-3.42-2.11-2.09-.01-4.19-.03-6.28.01-.87.02-1.94-.38-2.57.34-.93,1.07,1.47,1.24.81,2.43-1.15.25-2.41-.14-2.99-.85-1.15-1.4-2.51-1.35-4.01-1.35-9.87.01-19.74,0-29.61.02-.89,0-2.08-.21-2.61.27-3.73,3.32-8.66,2.43-12.9,3.9Z"/><path class="cls-4" d="M286.74,108.9c-40.22,0-80.44.11-120.65-.05-17.92-.07-35.83.5-53.75.71-4.2.05-8.3-.73-12.49-.7-6.06.05-12.14.69-18.16.54-25.99-.62-51.98-.49-77.97-.45-2.4,0-3.07-.72-3.02-3.05.14-6.77.05-13.55.06-20.32,3.57,2.05,7.24,2.45,11.05.67.17-.08.39-.05.59-.05,8.37,0,16.9-.97,25.06.36,4.93.8,9.22-.8,13.86-.61,3.31.14,6.56-.6,9.91.62,1.69.62,3.73.89,5.75-.13,1.33-.67,3.1-1.39,4.61-.76,5.84,2.41,12.06.23,17.97,1.67.65.16,1.55.22,2.06-.1,3.07-1.94,6.21-.39,9.28-.21,1.49.09,2.93-.04,4.37,0,4.45.11,8.79-.78,13.16-1.21,3.18-.31,6.09,1.52,9.27.42,1.31-.45,2.78-.48,4.34-.24,2.69.42,5.51.36,8.24.1,11.05-1.06,22.09-.52,33.14-.11,4.48.16,9.06.68,13.43,0,5.19-.8,10.22.29,15.32.13,4.67-.14,9.33-.31,14-.46,6.5-.21,12.98.09,19.48.58,3.67.28,7.44-1.37,11.11.38.06.03.19-.05.26-.12,1.43-1.28,3.18-.92,4.85-.93,6.48-.02,12.96-.04,19.43,0,2.32.02,4.79-.59,6.73,1.48.56.6,1.52.28,2.27-.06,2.06-.94,4.26-.9,6.45-.84v22.73Z"/><path class="cls-1" d="M.77,54.47c4.24-1.47,9.17-.59,12.9-3.9.53-.47,1.73-.26,2.61-.27,9.87-.02,19.74,0,29.61-.02,1.5,0,2.86-.05,4.01,1.35.58.71,1.84,1.1,2.99.85.66-1.19-1.74-1.37-.81-2.43.63-.72,1.7-.32,2.57-.34,2.09-.04,4.19-.02,6.28-.01,1.55,0,3.19-.39,3.42,2.11.11,1.14,4.86,1.34,5.93.28,2.89-2.85,6.62-3.04,10.22-2.74,3.48.29,6.89.5,10.36-.05,4.97-.79,9.91.25,14.83.69,2.29.2,4.56.18,6.83.3,1.74.09,3.53-.38,4.7,1.69.67,1.19,1.45.22,2.02-.55,1.19-1.59,2.48-1.72,3.45.15.8,1.53,2.21,1.69,3.53,1.66,4.86-.1,9.72-.35,14.58-.6,1.01-.05,2.01-.39,2.27-1.58.41-1.85,2-1.91,3.28-1.89,4.77.07,9.53.35,14.3.54.74.03,1.46.14,1.54,1.04.1,1.07.37,2.34,1.63,1.84,1.65-.65,3.97.54,4.99-1.68.91-1.99,2.7-1.87,4.31-1.72,1.33.12,3.22.2,2.45,2.58-.06.18.21.54.42.7,1.03.81,6.92.04,7.82-.99,1.48-1.69,7.82-1.82,9.17,0,.8,1.07,1.67,1.22,2.8,1.22,6.18-.02,12.36-.04,18.55.01,1.52.01,2.59-.4,3.55-1.69,1.9-2.55,3.99-2.5,5.95.11.64.85.98,1.1,1.81.36,2.16-1.92,4.41-1.85,6.59-.06.52.43,1.11.85,1.5.27,1.44-2.15,3.59-1.42,5.46-1.37,5.66.15,11.38.37,16.98.17,6.82-.25,13.72.65,20.51-.72,1.27-.26,2.5-.23,1.95,1.79-.4,1.45.72,1.66,1.78,1.68,2.09.04,4.19.02,6.28.02v19.14c-3.18.05-6.29-.71-9.5-.65-8.74.15-17.52.58-26.21-.1-11.32-.88-22.67-.59-33.96-.7-6.94-.07-14,.23-21.01.25-5.38.01-10.77.16-16.15-.05-6.83-.28-13.5-.7-20.45.3-8.06,1.15-16.46.87-24.71-.09-3.83-.45-7.71-.3-11.57-.48-3.28-.15-6.59.77-9.9.9-10.34.41-20.68-.28-31.04.52-9.21.71-18.49-.05-27.73-.51-.68-.03-1.42-.16-2-.47-1.33-.72-2.57-.64-4-.22-5.33,1.53-10.91.99-16.26.91-5.7-.09-11.5-.27-17.22-.49-4.67-.18-9.51.06-14.27.29,0-5.78,0-11.57,0-17.35ZM172.57,52.65c.35-.1.86-.08.74-.64-.09-.44-.53-.51-.92-.46-.36.05-.87.07-.75.62.09.44.53.47.93.47ZM150,52.09c-.07-.52-.47-.54-.85-.54-.38,0-.84.02-.84.54,0,.52.46.54.84.54.38,0,.78-.03.85-.54Z"/><path class="cls-9" d="M.76,71.82c4.76-.23,9.6-.47,14.27-.29,5.72.22,11.52.4,17.22.49,5.36.08,10.94.62,16.26-.91,1.43-.41,2.67-.5,4,.22.58.32,1.32.44,2,.47,9.24.46,18.52,1.22,27.73.51,10.36-.8,20.7-.12,31.04-.52,3.31-.13,6.62-1.05,9.9-.9,3.86.18,7.74.03,11.57.48,8.25.96,16.66,1.24,24.71.09,6.95-.99,13.63-.57,20.45-.3,5.38.22,10.77.07,16.15.05,7.01-.02,14.07-.32,21.01-.25,11.29.11,22.64-.18,33.96.7,8.69.68,17.47.25,26.21.1,3.21-.06,6.31.7,9.5.65v13.76c-2.19-.06-4.38-.1-6.45.84-.75.34-1.71.66-2.27.06-1.95-2.07-4.41-1.47-6.73-1.48-6.48-.04-12.96-.03-19.43,0-1.66,0-3.42-.36-4.85.93-.07.06-.21.14-.26.12-3.67-1.74-7.44-.1-11.11-.38-6.5-.49-12.97-.79-19.48-.58-4.67.15-9.33.31-14,.46-5.1.16-10.12-.94-15.32-.13-4.37.67-8.95.15-13.43,0-11.05-.4-22.09-.94-33.14.11-2.73.26-5.55.32-8.24-.1-1.56-.24-3.04-.21-4.34.24-3.18,1.1-6.09-.73-9.27-.42-4.37.43-8.71,1.32-13.16,1.21-1.44-.04-2.88.09-4.37,0-3.07-.18-6.21-1.73-9.28.21-.51.32-1.41.26-2.06.1-5.9-1.44-12.13.74-17.97-1.67-1.51-.62-3.29.09-4.61.76-2.02,1.02-4.06.75-5.75.13-3.35-1.23-6.6-.49-9.91-.62-4.63-.19-8.93,1.41-13.86.61-8.16-1.33-16.69-.36-25.06-.36-.2,0-.42-.03-.59.05-3.81,1.78-7.48,1.38-11.05-.67,0-4.59,0-9.17,0-13.76Z"/><path class="cls-13" d="M274.86,189.61c2.82.42,5.53-.99,8.35-.51-.31.73-.68,1.44-.9,2.19-1.09,3.65-.63,9.74,4.43,11.5v25.72c-1.79-.64-3.22-2.07-3.75-3.59-1.05-3.04-2.24-2.43-3.41-.44-2.88,4.89-7.12,6.56-12.55,5.81,1.63-14.49-11.25-25.97-25.71-23.29-.22,0-.44-.01-.66-.02,0,0,0,0,0,0,0-.2,0-.4,0-.6-.02-.5-.11-.96-.59-1.24-.49-1.55-1.64-2.93-1.22-4.72-.08-.44-.06-1.04-.71-.9-.21.04-.31.58-.46.9,0,.19,0,.39-.01.58-.42.2-.84.41-1.26.61-1.32-1.92-1.71-4.16-2.19-6.37.74-.08,1.49-.16,2.23-.23,0,.66,0,1.33.02,1.99.09,2.31,1.02,1.02,1.79.41.2,0,.41,0,.61,0,.4-.39.8-.79,1.2-1.18.69,0,1.44.16,2.07-.04,2.44-.77,4.66-.93,7.33-.17,3.41.96,5.84-.86,6.15-3.35,3.02-.39,6.03-.79,9.05-1.19-.02,4.02-.42,8.08.03,12.04.48,4.26.5,8.94,4.71,11.82.08,2.08-.38,4.22.27,6.22.33-.02.66-.04.99-.06v-6.66c3.66-1.06,3.9-4.24,4.02-7.14.25-6.02.14-12.06.18-18.09Z"/><path class="cls-14" d="M267.03,230.3c5.43.75,9.66-.93,12.55-5.81,1.17-1.99,2.37-2.6,3.41.44.53,1.53,1.96,2.96,3.75,3.59v2.99c-2.35.01-4.26.44-4.32,3.47-.02.87-.71,1.88-1.36,2.56-1.04,1.08-.65,1.69.14,2.71,1.3,1.67,3.35,2.79,3.87,5.05-3.08-.62-4.54-4.1-7.83-4.69-.23,2.53,1.56,4.25,1.67,6.42-.48-.04-.97-.08-1.45-.12-.81-1.99-1.12-4.84-2.92-5.57-2.4-.97-4.9-1.99-7.48-2.57-2.36-.36-3.58.94-4.28,2.97-1.94,1.51-4.54,1.99-6.19,3.95-.28-.71-.48-1.46-1.2-1.88.23-.93.84-1.34,1.7-1.81,4.01-2.18,4.2-8.05.44-10.55-.26-.58-.53-1.16-.79-1.74-.18-2.68-.02-5.21,2.97-6.76.04,7.47.3,7.84,4.88,7.36.82,0,1.64,0,2.45,0Z"/><path class="cls-7" d="M285.06,245.3c-.52-2.26-2.57-3.38-3.87-5.05-.79-1.02-1.18-1.63-.14-2.71.66-.68,1.35-1.69,1.36-2.56.06-3.04,1.97-3.46,4.32-3.47v13.76c-.56.01-1.12.02-1.68.04Z"/><path class="cls-5" d="M286.74,202.8c-5.06-1.76-5.51-7.86-4.43-11.5.22-.75.6-1.46.9-2.19,1.13-.56,2.1-1.54,3.52-1.26v14.95Z"/><path class="cls-15" d="M285.06,245.3c.56-.01,1.12-.02,1.68-.04v1.79c-2.61-.01-5.22-.02-7.83-.03-.11-2.17-1.9-3.89-1.67-6.42,3.29.6,4.75,4.07,7.83,4.69Z"/><path class="cls-13" d="M.79,211.17c-.01-16.24.04-32.49-.09-48.73-.02-2.81,1.02-2.61,2.97-1.85,11.91,4.69,23.75,9.58,35.79,13.93,12.03,4.36,24.29,8.09,36.78,10.95,1.15,1.65,2.77,2.58,4.72,2.84,1.86.26,2.73,1.3,3.11,3.07.67,3.11,1.23,6.28,2.3,9.25,1.43,3.98,1.2,6.98-2.72,9.55-1.73,1.13-2.57,1.59-4.48.43-12.66-7.62-29.15-.35-31.49,14.02-.53,3.25-.5,5.73-4.76,4.29-.66-.22-1.32.12-1.95.5-.38.22-1.05.29-1.43.1-1.65-.8-2.64-7.54-1.3-8.91,1.69-1.73,2.25-3.48.46-5.46-.52-.73-1.09-1.41-2.02-1.65-.33-1.66-1.67-1.96-3.03-2.21-.98-.88-1.78-1.89-2.31-3.1-.05-2.73-.02-5.49-2.67-7.26-.07-.19-.14-.38-.21-.57.44-1.08.8-2.18,1.96-2.78,3.02-1.56,3.3-3.24,1.12-6.28.74-.66,1.39-1.32,1.56-2.41.51-3.16-1.86-2.96-3.76-3.33-4.64-.9-9.5,2.84-8.9,6.89.37,2.51,2.7,3.49,4.22,5.1,0,.27,0,.55,0,.82-1.74.34-3.74.24-4.21,2.62l.04-.03c-2.24.16-4.46-1.12-6.71-.11-2.12.31-3.73,1.67-3.82,3.6-.12,2.52-1.29,4.53-2.11,6.73-2.35,0-4.71,0-7.06,0Z"/><path class="cls-13" d="M133.04,246.47c-2.22.74-4.45.8-6.67,0-7.45-1.35-13.19-6.92-14.72-14.29-1.54-7.42,1.74-15.14,8.02-19.22,1.9-1.24,2.81-1.13,3.52,1.19,1.27,4.13,2.79,8.19,4.21,12.27-.42.5-.91.89-1.61.89-.46-1.07-1.36-1.26-2.38-1.2-.26-.48-.7-.59-1.19-.6-.09-.08-.17-.16-.26-.23.08.09.16.17.23.26.26.48.71.58,1.2.6.47,1.05,1.52,1.3,2.42,1.76.02.21.04.42.06.63-3.7,1.14-7.4,2.28-11.1,3.42.08.25.16.51.24.76,4.07-.61,7.8-2.72,11.95-2.97.75,2.62.42,5.2.25,7.88-.15,2.49-1.38,5.15-.05,8.39,1.34-5.16.7-9.84,2.1-14.5,1.81,2.2,1.81,5.08,3.9,6.73-.36-1.67-.84-3.29-1.64-4.72-1.1-1.97-.15-2.17,1.47-2.03.07,1.19.91,1.23,1.79,1.2.2.2.4.4.6.6.08,1.18.92,1.22,1.8,1.19.2.2.4.4.6.6.14,1.18.94,1.46,2.09,1.67-.48-1.15-1.16-1.59-2.1-1.66-.2-.2-.4-.4-.6-.6-.34-.78-.94-1.17-1.79-1.2-.2-.2-.4-.4-.6-.6-.35-.78-.95-1.17-1.8-1.19,0-.6.02-1.19.03-1.79,1.6-.02,3.19-.04,4.79-.06,2.05-.13,4.18.44,6.82-.68-2.7-.69-4.76-.35-6.8-.38-1.59-.07-3.2-.33-4.73.4-.25-.88.26-2.22-1.36-2.28-.19-.14-.38-.29-.57-.43.95-4.01,2.5-7.93,2.03-12.19-.92,2.66-1.4,5.41-2.06,8.12-.26,1.05-.17,2.5-1.79,2.73-.55-.46-.66-1.11-.74-1.77,1.69-3.86.59-7.73.29-11.59-1,1.07-.53,2.28-.68,3.42-.25,1.9.61,3.92-.59,5.72-.98-2.71-1.93-5.43-2.95-8.12-.57-1.48-.11-2.09,1.42-2.45,9.67-2.3,20.23,4.67,22.16,14.69,1.97,10.21-5.1,20.28-15.18,21.61ZM125.79,232.09c.05-.08.1-.15.15-.23-.04.08-.09.16-.13.24-.2.2-.4.4-.6.6-.2.2-.4.4-.6.6-.2.2-.4.4-.6.6-.2.2-.4.4-.6.6-.69.07-1.33.24-1.52,1.03-.08.34.14.56.48.48.78-.19.96-.82,1.02-1.52.2-.2.4-.4.6-.6.2-.2.4-.4.6-.6.2-.2.4-.4.6-.6.2-.2.4-.4.6-.6ZM136.54,223.7c-.2.2-.39.41-.59.61-.2.2-.4.4-.6.6-.04.09-.09.18-.13.28.05-.08.11-.16.16-.25.2-.2.4-.4.6-.6.2-.2.41-.39.61-.59.2-.19.4-.39.6-.58.44-.09.92-.14.88-.77,0-.07-.12-.18-.19-.18-.63-.04-.68.44-.77.88l-.58.6ZM121,224.4c-.4-.29-.6-.5-.83-.57-.14-.04-.34.12-.52.19.15.22.26.53.47.63.15.08.44-.11.88-.24Z"/><path class="cls-13" d="M234.31,246.92c-15.87.02-31.74.05-47.61.07,3.42-2.65,6.45-5.65,8.6-9.46,2.25-.33,4.49-.65,6.74-.98,3.49.38,6.62-.83,6.79-3.25.17-2.43.87-4.48,2.01-6.5,3.22-4.55,6.43-9.1,9.65-13.65,3.28-3.59,6.31-7.36,8.89-11.49,1.37-.8,1.51-3.37,2.95-3.21,1.47.16,1.14,2.68,2.26,3.78-.04.87.17,1.67.67,2.38,1.57,2.66,1.24,4.62-1.9,5.82-.95.36-1.86,1.09-2.4,2.09-.79.58-1.48,1.24-2.12,2.02-6.85,8.35-7.77,23.84,5.47,32.38Z"/><path class="cls-15" d="M70.81,246.47c-2.2.7-4.39.84-6.58-.02-.57-.17-1.15-.31-1.72-.52-4.6-1.65-9.29-3.14-9.58-9.34-.05-1.18-.84-2.52-1.68-3.43-1.59-1.72-1.76-3.68-1.66-5.81.67-13.8,16.47-22.06,28.29-14.84,1.61.98,1.49,1.67.38,2.91-2.78,3.12-5.47,6.32-8.19,9.5-.18.16-.36.32-.54.48-.38.15-.77.3-1.15.45-1.74-1.42-2.27,1.18-3.61,1.08-.2-.32-.38-.9-.62-.93-1.61-.2-2.42,1.29-3.66,1.9-.53.26-.66.99-.16,1.53.89.98,1.96.58,3.01.32.28-.07.59,0,.88,0-.44,1.31-2.47,2.9-.99,3.85,2.69,1.75-.18,2.23-.49,3.26,1.29.75,2.59.48,3.82.65h0v7.63c.22,0,.45,0,.67-.01v-7.03c.8.05,1.53-.14,2.18-.6h12.51c-1.72-.29-3.19-.97-4.6-1.81,0,0,0,0,0,0-.2-.2-.41-.41-.61-.61h.02c-.36-.75-.97-1.14-1.81-1.2h.02c-.8-.9-1.83-1.23-3.01-1.2l.02.02c.37-1.19-1.93-1.06-1.19-2.42,4.64.39,9.27.84,13.92,1.13,1.94.12,2.13,1.04,1.5,2.52-2.92,6.88-7.5,11.73-15.38,12.53ZM68.3,223.7c1.46-1.75,1.93-3.7,1.36-5.85-.45,1.95-.91,3.9-1.36,5.85Z"/><path class="cls-11" d="M68.39,225.85c.38-.15.77-.3,1.15-.45.37.06.51-.15.54-.48,2.72-3.17,5.41-6.38,8.19-9.5,1.11-1.24,1.23-1.93-.38-2.91-11.82-7.22-27.62,1.04-28.29,14.84-.1,2.13.07,4.09,1.66,5.81.84.91,1.63,2.25,1.68,3.43.29,6.2,4.97,7.69,9.58,9.34.56.2,1.14.35,1.72.52-2.05,1.3-4.25.4-6.39.46-.48-.35-.94-.72-1.43-1.04q-3.7-2.45-6.74,1.1c-1.93-.14-3.96.75-5.79-.51.38-.04.76-.08,1.14-.13,1.13-.32,2.2-.76,3-1.67,2.54-2.21,3.2-5.01,2.05-8.04-.94-2.47-2.49-4.56-5.63-4.43-.85-.27-1.61-.04-2.34.41-.27-.65-.51-.47-.75.02-2.5-1.54-2.23.9-2.9,2.01-.52-.54-.71-1.71-1.86-.43-2.07,2.3-2.49,6.04-.88,8.89,1.15,2.05,3.22,2.78,5.04,3.89-1.75.02-3.5.04-5.25.06-3.92-3.75-4.45-8.07-2.19-12.87,1.01-1.09,2.01-2.17,3.02-3.26.54-.58.64-1.29.25-1.91-.59-.94-1.16.4-1.79.12-.08-1.81,2.44-3.9-.59-5.39,1.01-.03,1.7-.39,1.64-1.55-.06-1.09.47-1.81,1.34-2.41,1.74-1.2,1.56-2.48.04-3.74.31-.6.92-.67,1.47-.84,1.8,1.98,1.24,3.73-.46,5.46-1.34,1.37-.35,8.11,1.3,8.91.38.19,1.05.12,1.43-.1.63-.37,1.29-.72,1.95-.5,4.25,1.44,4.23-1.03,4.76-4.29,2.34-14.37,18.83-21.64,31.49-14.02,1.92,1.15,2.75.7,4.48-.43,3.93-2.57,4.16-5.57,2.72-9.55-1.07-2.98-1.63-6.15-2.3-9.25-.38-1.77-1.24-2.82-3.11-3.07-1.95-.27-3.57-1.2-4.72-2.84.36-1.12,1.14-1.06,2.12-.91,3.63.54,7.28.41,10.93.25,0,.85-.01,1.71-.02,2.56-3.68,1.03-4.02,1.59-3.15,5.12.71,2.88,1.38,5.78,2.04,8.67q1.12,4.97,5.89,3.29c.02.46.03.92.05,1.37-.44.22-.86.52-1.32.64-2.38.63-2.85,1.86-2.19,4.32.92,3.46,1.77,6.75,5.32,8.46-.12.73.28,1.62-.64,2.1-.65-.4-.86-1.71-2.12-.99.51,1.96,1.01,3.92,1.52,5.87-.32,1.06.99,1.94.35,3.06-.8-.1-1.59-1.17-2.33-.07-.24.36-.39.93-.3,1.35.29,1.34,1.2.45,1.85.4.88-.06,1.08.7,1.52,1.17.03.39.06.77.08,1.16-.83.02-1.37.47-1.74,1.16-1.23.26-1.2.91-.55,1.75-.26.26-.52.51-.79.77-.3-.07-.6-.14-.9-.21-.12-1.94-1.58-2.88-2.81-4.07-.84,1.36-.91,2.73-1.15,4.05-2.55,4.03-5.44,7.74-9.7,10.13-2.47-.01-4.99.87-7.38-.42,7.87-.81,12.46-5.66,15.38-12.53.62-1.47.44-2.39-1.5-2.52-4.64-.3-9.28-.75-13.92-1.13-1.28-.35-2.89-1.42-2.8,1.26.83,2.29-1.53,3.83-1.39,5.96-1.23-.17-2.54.11-3.82-.65.31-1.03,3.18-1.52.49-3.26-1.47-.96.56-2.55.99-3.85l.1.16.18-.04c1.44-1.2,3.04-2.24,3.88-4.01ZM86.22,223.73c-.32-3.02-2.06-5.31-3.87-7.58-.8-1-1.43-1.2-2.33-.09-2.26,2.77-4.59,5.49-6.89,8.23-.48.49-.95,1-1.44,1.48-.57.56-1.37,1.17-1.03,1.98.35.82,1.4.56,2.16.65,3.45.44,6.9.87,10.35,1.27,4.34.51,4.86-.1,3.72-4.31-.15-.56-.44-1.09-.66-1.63ZM89.58,228.19c.61-1.33,3.2-.69,2.84-2.47-1.08-5.33-2.48-10.59-3.74-15.88-.26-1.11-.81-1.29-1.67-.57-.76.64-1.46,1.36-2.26,1.94-1.75,1.28-1.74,2.35-.21,4.02,3.27,3.56,4.75,7.93,5.04,12.95Z"/><path class="cls-13" d="M257.52,231.45c3.77,2.5,3.58,8.36-.44,10.55-.86.47-1.48.88-1.7,1.81-2.54,1.28-5,2.77-8,2.69-2.25.95-4.5.59-6.75-.04-5.01-.88-8.79-3.61-11.46-7.84-4.65-7.39-3.69-15.82,2.6-23.74,1.97-1.23,3.56-3.06,5.9-3.71.09.28.19.56.27.85,1.7,5.57,4.52,10.75,5.69,16.51-4.27.29-8.69-.8-12.76,1.4,3.37-.87,6.85.36,10.22-.65,1.72-.52,2.29.63,2.45,2.09.08.7-.95,1.36.18,2.36.51-1.51,1.29-2.74,1.1-4.29l1.21-.36c.27,1.19,1.69,2.16,2,1.22.59-1.76,1.27-.8,2.1-.71,2.55.27,4.75,1.9,7.37,1.87ZM234.71,223.11c-.09-.08-.18-.15-.27-.23.08.09.15.18.23.27.22.15.44.29.67.43,0,0,.1-.14.16-.21-.26-.08-.52-.17-.78-.25ZM238.3,234.52c1.74-.42,2.69-1.63,3.68-3.71-2.09.98-3.32,1.9-3.74,3.65-.31.15-.62.31-.93.46.08.12.16.23.24.35.25-.25.49-.5.74-.75ZM255.01,236.18c-.41-1.35-.9-2.01-2.17-2.04.11,1.27.71,1.8,2.17,2.04ZM250.09,231.56c-.15.08-.6.22-.59.31.08.66.58,1.01,1.16,1.19.33.1.58-.15.53-.49-.07-.55-.47-.83-1.1-1ZM243.11,235.52c-.19-.26-.32-.44-.46-.63-.19.18-.46.33-.53.55-.04.15.22.38.34.58.19-.15.39-.3.65-.5ZM241.64,226.63c.17.12.32.23.47.33.03-.17.09-.33.09-.5,0-.05-.18-.16-.22-.14-.12.07-.22.19-.34.3Z"/><path class="cls-2" d="M213.71,158.55c1.5.89,2.28,2.45,2.33,3.95.13,3.76,2.47,6.19,4.72,8.65,1.23,1.35,2.22,2.76,2.97,4.4,2.21,4.86,5.51,8.23,11.21,8.85,1.22.13,3.67.33,3.22,2.94-.58.03-1.17.07-1.75.1-2.05-.46-4.09-.93-6.14-1.39-4.79-2.36-9.76-4.28-14.79-6.08-1.71-.61-2.29-.27-2.37,1.58-.12,2.97-.48,5.93-.74,8.89-.49-.08-1.02-.32-1.45-.2-5.17,1.4-10.22.91-15.22-.78-.27-.23-.54-.47-.82-.7-.88-1.43-2.92.75-3.68-1.12.98-.88,2.6-.15,3.33-1.48.03-.41.07-.82.1-1.23.46-1.44,1.67-1.74,2.95-2.12,4.36-1.29,8.27-3.38,11.45-6.71.69-.73,1.06-1.48.2-2.32-.94-.92-1.41.06-1.92.55-2.58,2.48-5.7,3.95-9.1,4.89-.85.23-1.98.63-1.59-1.03,1.28-5.5,1.89-11.2,4.62-16.27,1.17-2.18,2.84-3.96,5.62-3.72,2.72.24,4.07,2.16,5.12,4.45.45.98.32,2.36,1.77,3.02.42-2.49-.59-4.45-1.46-6.44.48-.22.96-.45,1.44-.67ZM207.13,171.74c.11.08.23.16.34.24-.08-.11-.16-.22-.24-.33,0-.86-.13-1.64-1.16-1.85-.13-.07-.26-.14-.39-.21.07.14.13.27.2.41.11.8.53,1.39,1.25,1.76ZM208.83,182.81c-.77,1.66-1.53,3.32-2.3,4.98,2.18-.95,2.82-2.68,2.3-4.98ZM205.38,168.4c-.71-1.58-.86-2.62-2.54-3.38.57,1.49.75,2.48,2.54,3.38ZM210.72,178.57c-.09-.15-.18-.29-.27-.43-.08.15-.22.29-.22.44,0,.15.15.29.24.43.08-.15.17-.29.25-.44ZM211.13,176.31c-.06.01-.16,0-.18.04-.04.06-.03.15-.05.22.1-.02.21-.04.31-.06-.03-.07-.05-.14-.08-.21Z"/><path class="cls-6" d="M95.25,221.35c.93-.48.52-1.37.64-2.1.33-1.26-1-2.37-.26-3.71,2-3.61.47-6.71-1.55-9.71-.02-.46-.03-.92-.05-1.37-.12-.88-.21-1.76-.36-2.63-.86-5-3.03-9.61-4.42-14.45,0-.85.01-1.71.02-2.56.05-.57.1-1.15.15-1.72,3.82,1.3,7.77,1.34,11.74,1.18.92,2.49,3.39,3.25,5.26,4.69,2.09,1.82,4.18,3.63,6.27,5.45.9,1.56,2.03,2.72,4.04,2.4.23.25.45.49.68.74-.57.71-1.97.41-2.01,1.84-.06,2.36-1.63,3.95-3.1,5.57-3.46,3.81-7.15,7.42-10.14,11.64-.14,1.28-.87,2.63.48,3.71-.62.82-.61,1.86-.99,2.75-.87,2.09-.19,4.57-1.72,6.46-1.82.21-4.68-1.25-4.2,2.63-.44-.47-.65-1.23-1.52-1.17-.65.05-1.56.94-1.85-.4-.09-.41.05-.99.3-1.35.75-1.1,1.53-.03,2.33.07.63-1.12-.67-2-.35-3.06,2.27-1.37,1.13-3.17.61-4.89ZM107.19,199.44c-1.42-1.76-3.44-2.47-5.3-3.72-.31,6.25-.22,6.32,5.3,3.72ZM102.6,208.14l.69.28c.76-1.47,1.54-2.94,2.28-4.43.25-.49.79-1.04.24-1.57-.49-.48-1.13-.15-1.68.05-3.44,1.21-.98,3.79-1.53,5.68Z"/><path class="cls-15" d="M99.94,229.51c1.53-1.89.85-4.37,1.72-6.46.37-.89.37-1.93.99-2.75,5.41-5.9,10.82-11.8,16.55-18.05.49,1.78.68,3.06,1.19,4.19,1.02,2.27.29,3.42-1.83,4.66-4.56,2.66-7.52,6.74-8.9,11.88-2.47,9.25,1.03,17.39,10.27,24-13.91-.03-27.82-.06-41.74-.1,4.26-2.39,7.15-6.1,9.7-10.13,1.32,0,2.64.01,3.96.02.3.07.6.14.9.21,2.1,2.05,4.07,4.28,6.79,5.55,1.25.58,2.54,1.7,4.03.42.05-.2.1-.41.15-.61.7-3.01-2.56-4.17-3.1-6.6-.23-2.08-.46-4.16-.69-6.24Z"/><path class="cls-16" d="M274.86,189.61c-.04,6.03.07,12.07-.18,18.09-.12,2.89-.35,6.07-4.02,7.14-.42.16-.84.33-1.25.5-4.21-2.88-4.23-7.56-4.71-11.82-.45-3.97-.06-8.03-.03-12.04.58-5.51,1.13-11.03,1.75-16.54.33-2.96.91-5.88,1.92-8.7.32-.89.62-2.12,1.86-2.04,1.12.08,1.54,1.19,1.84,2.14,1.26,3.9,1.6,7.97,2.04,12,.41,3.74.54,7.52.79,11.28Z"/><path class="cls-11" d="M119.93,246.99c-9.24-6.61-12.74-14.75-10.27-24,1.37-5.14,4.33-9.22,8.9-11.88,2.12-1.24,2.85-2.39,1.83-4.66-.51-1.13-.7-2.41-1.19-4.19-5.73,6.25-11.14,12.15-16.55,18.05-1.35-1.09-.61-2.44-.48-3.71,1.46.55,2.18-.47,2.99-1.37,4-4.44,7.92-8.97,12.08-13.26,1.62-1.66,1.71-2.88.18-4.43-.23-.25-.45-.49-.68-.74.51-.83,1.11-1.65.21-2.59-.21-.76-.41-1.53-.62-2.29.34-.36.68-.72,1.02-1.08.42.6.84,1.19,1.26,1.79.43,1.05-.65,3.04,1.77,2.86,0,.42,0,.83,0,1.25-.89,4.19,1.04,7.59,3.06,10.97.71.74,1.29.56,1.79-.24,2.76.13,5.52.21,8.28.39,3.57.22,6.38,2.54,9.63,3.64.61,1.74,1.28,3.41,3.6,3.28.18.56.28,1.15.55,1.66,6.46,12.6,4.1,22.37-7.37,30.5-2.3-.09-4.66.78-6.88-.47,10.08-1.33,17.15-11.4,15.18-21.61-1.93-10.02-12.49-16.99-22.16-14.69-1.53.36-1.99.97-1.42,2.45,1.03,2.69,1.97,5.41,2.95,8.12,0,.95.36,1.75.98,2.45.08.66.19,1.31.74,1.77.04,1.22.75,1.53,1.83,1.34.19.14.38.29.57.43.6,3.05-.22,4.02-2.93,3.39-2.28-.53-.39-2.66-1.38-3.7-1.42-4.09-2.95-8.14-4.21-12.27-.71-2.32-1.62-2.43-3.52-1.19-6.28,4.08-9.56,11.8-8.02,19.22,1.53,7.37,7.27,12.94,14.72,14.29-2.05,1.34-4.3.3-6.44.52Z"/><path class="cls-8" d="M101.18,184.27c-3.97.16-7.92.12-11.74-1.18-.63-.1-1.25-.22-1.42-.99.32-1.42.9-2.8.71-4.3,3.05-1.88,6.02-3.87,8.4-6.59.48-.55,1.31-1.26.57-2.05-.88-.94-1.34.24-1.92.63-1.23.83-2.4,1.76-3.65,2.56-1.05.67-1.71.38-1.62-.97.34-4.85.66-9.72,1.86-14.44.59-2.33,2.85-2.83,4.67-1.26,1.22,1.06,2.04,2.4,2.62,3.93.44,1.15.32,2.66,1.77,3.28.04,1.1-.83,2.51.52,3.19,1.55.77,1.39-1.59,2.69-1.79.66,1.56-.17,3-.3,4.47-.79,2.49,1.93,3.04,2.61,4.71.08.24.15.47.23.71-.03.17-.03.34,0,.52-.57,1-1.14,1.99-1.71,2.99-1.92-.37-2.53.44-2.66,2.35-.1,1.46.67,3.51-1.61,4.24Z"/><path class="cls-15" d="M123.44,207.71c-2.02-3.38-3.95-6.78-3.06-10.97,1.56-.97,2.54-2.38,3.02-4.14,0,0,.27-.09.27-.09.65.03,1.31.06,1.96.08.25.63.78.68,1.34.63,6,.7,11.8,2.89,17.96,2.4.35,2.51.6,4.99-.67,7.38-.56,1.05-.57,2.27-.35,3.46-.04.57-.09,1.13-.13,1.7-.9.98-.6,2.19-.63,3.33-3.26-1.1-6.06-3.42-9.63-3.64-2.76-.17-5.52-.26-8.28-.39.01-.61-.01-1.4-.74-1.36-.79.05-.61,1.11-1.05,1.6Z"/><path class="cls-11" d="M195.29,237.52c-2.14,3.81-5.17,6.82-8.6,9.46-.95,0-1.89.02-2.84.03,1.67-2.07,4.63-2.76,5.8-5.38.82-.84,1.57-1.73,1.98-2.86.53-.27.62-.76.67-1.28.22-.34.44-.69.66-1.03.32-.49.7-.95.96-1.47,1.61-3.24,1.61-3.27-1.91-3.63-4.9-.5-9.8-.94-14.7-1.41q-2.73-1.19-.74-3.93c.05-.07.03-.19.04-.28.82-.2,1.29-.86,1.83-1.42.24.26.48.51.72.77-.03.16-.1.3-.21.42-.57.83-1.71,1.47-1.39,2.62.16.6.98.36,1.52.1,2.54.25,5.09.51,7.63.76,1.84.67,3.71.98,5.65.49.34.04.68.08,1.02.12.3.65.69.71,1.18.18,2.37-.85.02-1.58-.06-2.37.28-.27.56-.54.84-.81,2.13,1.76,4.13,3.76,7.09,4.08-3.64-2.42-6.37-5.89-10.01-8.24-.02-.29-.13-.62-.03-.85.82-1.86-.62-4.87-3.07-6.61-2.23-1.58-2.47.97-3.61,1.65-.23-.22-.47-.44-.7-.66.15-.94.14-1.89.7-2.77.87-1.36-.27-1.35-1.14-1.47-1.31-1.03-2.69-1.53-4.29-.64-.42-.7-.91-1.25-1.85-1-.4-.16-.81-.31-1.21-.47l-1.18-.03c-.41.01-.81.02-1.22.03-.19-.08-.39-.17-.58-.25l.55-1.27c.73-1.3,1.58-2.58.6-4.12.68-.11,1.36-.23,2.04-.34-.03.36-.05.72-.08,1.07.35.19.7.38,1.05.57l.31.89c1.7,1.95,4.31,1.5,6.42,2.44,3.96,1.76,4.33,1.52,6.57-2.14.73-.85,1.47-1.7,2.2-2.55.66.24.66.83.73,1.38-.25.31-.52.6-.74.93-1.11,1.62-3.12,3-3.11,4.88,0,1.12,2.08,2.18,3.08,3.38.82.98,1.42,2.14,2.11,3.23-1.62,2.6-1.14,3.83,1.91,4.8,1.04.33,2.11.56,3.17.84-.45,4.06,2.42,3.32,4.79,3.31.29.25.58.5.87.75.14,1.47.92,1.07,1.8.66.8-.37,1.12-1.6,2.29-1.27-1.14,2.02-1.84,4.06-2.01,6.5-.17,2.42-3.3,3.63-6.79,3.25,0,0-.12-.09-.12-.09.02-.69-.51-1-.92-1.43q-3.46-3.59-5.05,1.23c-.21.43-.43.85-.64,1.28ZM207.69,231.78c-.11-.53-.4-.86-.98-.74-.58.11-.71.57-.72,1.07-.01.53.2,1.02.78.94.63-.09.91-.62.92-1.26Z"/><path class="cls-15" d="M.79,211.17c2.35,0,4.71,0,7.06,0,.26.99-.09,2.11.66,2.99.16.43.33.86.49,1.29.63,2.05,1.1,4.22,3.75,4.63.61.35,1.25.52,1.94.27,0,0-.03-.03-.03-.03,2.1,2.13,4.2,4.26,6.31,6.39.69,2.03-.88,3.48-1.27,5.27-4.65-4.03-11.08-3.97-15.09.07-4.2,4.24-4.23,9.93-.08,14.89-3.26.16-3.78-.32-3.79-3.93-.01-10.61.02-21.22.04-31.83Z"/><path class="cls-11" d="M101.4,162.87c-1.45-.62-1.33-2.13-1.77-3.28-.58-1.53-1.4-2.87-2.62-3.93-1.82-1.57-4.08-1.07-4.67,1.26-1.2,4.72-1.52,9.59-1.86,14.44-.09,1.35.57,1.64,1.62.97,1.25-.79,2.42-1.72,3.65-2.56.58-.39,1.04-1.57,1.92-.63.74.79-.08,1.5-.57,2.05-2.38,2.72-5.35,4.71-8.4,6.59-3.81-2.24-8.01-1.01-12.03-1.31-.21-.8-.21-1.58.12-2.35,3.74.87,7.52.37,11.28.38.16-.15.31-.29.47-.44l.05-2.36q.32-4.79-4.5-4.81c-1.27,0-2.54.02-3.81.03-.88-.15-1.75-.3-2.63-.46,0-.31.02-.62.03-.92,2.85.03,5.7-.06,8.54.12,2.25.14,3.06-.48,3.14-2.92.09-2.84-.69-4.06-3.58-3.58-1.28.21-2.87-.59-3.63,1.19-.12.29-.38.92-.58.14-.61-2.33-2.41-.99-3.67-1.3,0-.42.01-.83.02-1.25,0,0-.03-.04-.03-.04,2.72,0,5.47-.2,8.17.07,2.62.26,4.09-.53,4.41-3.18.57-.15,1.14-.39,1.72-.42.64-.04,1.29-.11,1.52-.71.25-.69-.43-1.04-.89-1.38-2.04-1.47-1.94-3-.24-4.69.88-.87,1.18-2.02,1.44-3.21,1.13-5.2,8.15-7.59,12.13-4.14,1.12.98,1.98,2.09.53,3.5-.84-.97-1.64-2.41-2.58-.05-.17.42-.68,1.08-.95,1.04-3.56-.55-2.91,2.1-3.21,4.08-.18,1.21-.74,2.3-1.69,3.08-1.46,1.2-.41,1.79.5,2.45.23.19.47.39.7.58,0,0,0-.01,0-.01.63,2.34,2.25,4.31,2.57,6.76-.21.39-.43.78-.64,1.17Z"/><path class="cls-11" d="M212.27,159.22c.87,1.99,1.87,3.95,1.46,6.44-1.45-.66-1.31-2.03-1.77-3.02-1.05-2.28-2.4-4.21-5.12-4.45-2.79-.24-4.45,1.54-5.62,3.72-2.73,5.07-3.34,10.77-4.62,16.27-.38,1.65.74,1.26,1.59,1.03,3.4-.93,6.52-2.41,9.1-4.89.51-.49.99-1.47,1.92-.55.85.84.49,1.59-.2,2.32-3.17,3.34-7.09,5.43-11.45,6.71-1.28.38-2.49.68-2.95,2.12-2.16-.05-4.31-.1-6.47-.15-2.62-.06-2.46-2.42-3.28-3.96,1.35.38,2.69.82,4.06,1.13,4.82,1.12,6.69-.85,6.35-6.52-.07-1.17-.38-1.72-1.65-1.95-3.29-.6-6.53-1.85-9.8.02-1.83-2.42,1.14-2.06,1.77-3.05,1.41,1.08,3.19.85,4.77,1.14,5.68,1.03,5.71.93,6.54-4.79.03-.19.05-.39.07-.59.11-.88-.1-1.63-1.1-1.77-2.96-.41-5.88-1.66-8.94-.61q-.6-.94,1.18-2.24c2.19.36,4.43.21,6.6.86,1.19.36,2.71,1.07,3.51-.82.73-1.71.6-3.21-.74-4.6-.42-.44-1.76-.31-1.06-1.54,2.31.13,4.57-.02,6.74,1.43,1.13.76,2.52-1.17,4-1.26,2.06.66,3.69,1.94,5.08,3.56Z"/><path class="cls-15" d="M139.92,246.94c11.47-8.13,13.83-17.9,7.37-30.5-.26-.51-.37-1.11-.54-1.66.6.19,1.2.38,1.79.57,1.97,1.38,4.19,1.5,6.48,1.33-.13,1.12,1.06,1.12,1.5,1.76-2.76,5.84-3.21,11.79-.82,17.86.61,1.99,1.21,3.97,1.82,5.96,0,1.01,0,2.02,0,3.02.02.57.05,1.15.07,1.72-5.89-.02-11.78-.04-17.67-.07Z"/><path class="cls-11" d="M4.54,246.93c-4.16-4.95-4.13-10.65.08-14.89,4.01-4.04,10.44-4.1,15.09-.07.39-1.79,1.97-3.24,1.27-5.27,2.66.55,3.15,3.68,5.47,4.73l-4.22-1.06h.02c-.1-.1-.2-.22-.31-.34-.05.16-.09.32-.14.48-.37,1.6.06,3.28-.6,4.88-.89,2.16.23,2.82,2.24,2.64-.54,1.29,1.92,2.16.51,3.58-1.88.49-2.29,1.7-1.68,3.41l-1.15-.19c-.87-.08-1.74-.15-3.08-.27,1.21.8,1.98,1.35,3.01,1.36-.14.65-.76.45-1.16.63-2.18.61-4.37,1.07-6.53-.09,1.62-.17,3.32-.22,3.67-2.36,1.5-.81,2.42-2.04,1.53-3.65-.67-1.2-.34-2.26-.27-3.4,2.22-1,.37-1.82-.19-2.55-.79-1.02-1.61-1.13-2.01.39-.82.91-2,1.58-1.34,3.22.68,1.7.54,3.52-1.47,4.13-2.17.65-3.57-.5-4.02-2.73l-.13-.25c.02-.2-.07-.3-.27-.29,0,0,.14-.12.14-.12.27-.12.54-.24.8-.36.56.39.83-.04,1.13-.39.19.43.45.84.54,1.29.13.66-.01,1.45.93,1.56.52.06.96-.21,1.2-.68.37-.75.5-1.53-.29-2.09-.46-.33-1.04-.49-1.57-.73-.03-.11-.06-.22-.1-.33.78-1.02,2.06-1.37,2.91-2.41,1.59-1.94.9-2.61-1.19-2.98-4.45-.8-8.03,1.98-8.81,6.91-.45,3.78.96,6.16,4.37,7.26.63.2,1.03.51,1.31,1.07-1.9-.01-3.8-.02-5.71-.03Z"/><path class="cls-11" d="M162.24,189.83c-1.66-.37-3.24-.92-4.59-2.57-.41,2.92-3.28,2.8-4.58,4.5-.29.38-1.29.2-1.06-.23.7-1.32-2.31-1.25-.91-2.15,2.06-1.32.78-2.83.64-4.2-.37-3.55,1.45-7.1,3.7-6.14,3.66,1.56,6.33-.97,9.47-.69,2.84.26,4.44,1.91,4.21,4.37-.75.15-1.87-.11-2.09.79-.52,2.09-4.58,2.04-3.12,5.33.18.42-.98.83-1.66.99Z"/><path class="cls-10" d="M90.5,154.82c-.32,2.65-1.79,3.45-4.41,3.18-2.7-.27-5.44-.07-8.17-.07.76-1.06.08-1.78-.5-2.62-1.97-2.85-1.84-5.83.25-7.8,2.29-2.16,6.16-2.23,8.73-.1,2.33,1.93,3.32,4.62,4.1,7.41Z"/><path class="cls-11" d="M155.01,216.68c-2.29.17-4.51.05-6.48-1.33.75-.96,1.84-.41,2.76-.64,2.29-.57,1.91-2.41,1.98-4.06.05-1.12-.21-1.89-1.57-1.95-2.65-.12-5.29-.36-7.94-.54.04-.57.09-1.13.13-1.7,2.44.54,4.91.61,7.4.57,1.07-.02,2.08-.1,2.05-1.5-.02-1.43,1.39-3.03.04-4.22-.93-.82-2.32.01-3.37.49-.53.24-.82,1.04-1.39,1.82.18-1.47-.87-2.04-1.77-2.66.8-.87,1.66-.56,2.4-.7q5.28-1.01,5.28-6.37c2.7,1.12,4.52-1.87,7.06-1.49,1.41.7,2.82,1.4,4.23,2.1.44.64.87,1.29,1.31,1.93,0,0-.2-.03-.2-.03l.2-.02c.17.06.3.16.41.31.09,2.11.74,4.2-.24,6.31-.52,1.13-1.16,1.88-2.42,1.52-1.82-.52-.1-1.54-.23-2.32-.06-.37.08-.77.12-1.16.99-1.14.74-2.49.34-3.66-.64-1.9-2.11-3.14-4.13-3.43-1.28-.18-2.45.41-2.92,1.61-1.72,4.3-2.52,8.76-2.44,13.99,1.42-1.21,2.31-1.96,3.2-2.72.51.57,1.03,1.13,1.54,1.7-.85.83-1.6,1.82-2.57,2.47-2.05,1.39-3.34,3.04-2.79,5.66Z"/><path class="cls-10" d="M154.56,193.9q0,5.38-5.28,6.37c-.74.14-1.6-.17-2.4.7.9.62,1.95,1.19,1.77,2.66.57-.79.85-1.58,1.39-1.82,1.05-.48,2.44-1.3,3.37-.49,1.35,1.18-.06,2.79-.04,4.22.02,1.4-.98,1.48-2.05,1.5-2.49.04-4.96-.03-7.4-.57-.23-1.19-.21-2.42.35-3.46,1.28-2.39,1.02-4.87.67-7.38,2.72-3.31,6.08-3.05,9.63-1.72Z"/><path class="cls-11" d="M231.78,214.89c-6.29,7.91-7.26,16.35-2.6,23.74,2.67,4.23,6.45,6.96,11.46,7.84-2.03,1.26-4.22.39-6.34.45-13.24-8.53-12.32-24.03-5.47-32.38.64-.78,1.33-1.43,2.12-2.02.28.79.55,1.57.83,2.36Z"/><path class="cls-13" d="M173.67,247.03c-.44-.01-.88-.02-1.32-.03-3.84-.96-6.91-3.27-9.96-5.63-.02-1.49-.34-2.98.07-4.47,2.92-.02,4.74-2.83,7.6-3,1.01,1.77,2.02,3.55,3.03,5.32.19,2.61.39,5.21.58,7.82Z"/><path class="cls-10" d="M183.84,173.5c3.27-1.87,6.51-.62,9.8-.02,1.27.23,1.58.78,1.65,1.95.34,5.67-1.53,7.64-6.35,6.52-1.37-.32-2.71-.75-4.06-1.13-1.99-2.21-.46-4.91-1.04-7.31Z"/><path class="cls-15" d="M177.45,203.63c-.68.11-1.36.23-2.05.34-4.96.04-6.37-1.13-6.51-5.38,8,2.54,16.25,1.68,24.43,1.8.26.79.52,1.58.79,2.37-.06.38-.12.77-.18,1.15-.73.85-1.47,1.7-2.2,2.55-.47-.03-.95-.06-1.42-.1.1-.47.23-.94-.24-1.3-.15-1.05-.48-2.09-1.81-1.71-1.77.5-4.09-1.35-5.35,1.24-.78-.49-1.55-.52-2.33,0-.44-2.27-1.98-.97-3.12-.96Z"/><path class="cls-11" d="M207.9,153.03c-3.62-4.49-3.69-8.48-.41-10.09,1.73-.85,3.75-1.13,5.66-1.59.56-.14,1.21-.14,1.78-.02.85.18,1.76-1.09,2.41-.12.67,1,.23,2.1-.6,2.96-1.71.38-3.14.88-2.88,3.19.09.83.05,2.44-1.83,1.22-1.26-.81-1.39.05-1.17,1.2.42,2.28-.43,3.55-2.94,3.25Z"/><path class="cls-5" d="M168.9,198.6c.13,4.25,1.54,5.41,6.51,5.38.98,1.55.13,2.83-.6,4.12-1.23-1.93-2.66-3.09-4.86-1.23-3.09,1.09-6.25,1.84-9.56,1.69-.51-.57-1.03-1.13-1.54-1.7.12-5.94,1.07-6.86,5.96-5.79-.05.39-.19.79-.12,1.16.13.78-1.6,1.8.23,2.32,1.27.36,1.9-.4,2.42-1.52.98-2.1.33-4.2.24-6.31.87.33.85,1.28,1.33,1.89Z"/><path class="cls-15" d="M19.89,246.55c.4-.19,1.01.02,1.16-.63.02-.36.05-.73.07-1.09.38.06.76.13,1.15.19,1.01.49,1.84.65,1.9-.91.03-.68.6-.58,1.06-.61.17.95.8,1.58,1.54.79.8-.86-.13-1.54-.83-2.09h0c.53-2.18,1.07-4.29,3.08-5.74,1.25-.9,2.24-2.17,3.35-3.27.31.32.62.63.93.95-2.26,4.8-1.73,9.12,2.19,12.87-4.25,0-8.51.03-12.76,0-.96,0-2,.28-2.84-.48Z"/><path class="cls-10" d="M186.96,163.84c3.06-1.06,5.98.2,8.94.61.99.14,1.2.89,1.1,1.77-.02.2-.05.39-.07.59-.83,5.71-.86,5.81-6.54,4.79-1.59-.29-3.36-.06-4.77-1.14.45-2.2.9-4.41,1.35-6.61Z"/><path class="cls-5" d="M207.9,153.03c2.51.3,3.36-.97,2.94-3.25-.21-1.15-.08-2.01,1.17-1.2,1.88,1.22,1.93-.39,1.83-1.22-.25-2.3,1.18-2.81,2.88-3.19-.13,1.39-.2,2.76,1.04,3.78,1.33,1.09-.23,2.39.26,3.59.82,1.99-.79,1.84-1.97,2.31-2.06.82-2.11,2.85-2.36,4.7-.48.22-.96.45-1.44.67-1.39-1.61-3.02-2.89-5.08-3.56.24-.88.47-1.76.71-2.64Z"/><path class="cls-16" d="M18.3,237.06c-.08,1.14-.4,2.19.27,3.4.89,1.61-.03,2.84-1.53,3.65-1.21-1.76-1.29,1.13-2.52.59-1.07-.47-1.88.45-1.8,1.75-.83.17-1.65.35-2.48.52-.28-.55-.68-.87-1.31-1.07-3.41-1.09-4.82-3.48-4.37-7.26,1.44.11,2.88.23,4.31.34.2,0,.3.09.27.29-.09.04-.17.08-.26.12.04.08.07.21.13.23.07.02.17-.06.25-.09.45,2.23,1.85,3.38,4.02,2.73,2.01-.61,2.15-2.43,1.47-4.13-.66-1.65.52-2.31,1.34-3.22.58.88.87,2.05,2.2,2.16Z"/><path class="cls-15" d="M267.06,238.77c2.59.58,5.08,1.6,7.48,2.57,1.81.73,2.12,3.58,2.92,5.57-4.07.06-8.14.11-12.21.17.26-1.1-.24-2.04-.63-3,.98-1.69,2.41-3.17,2.43-5.3Z"/><path class="cls-10" d="M196.45,155.5c-.7,1.22.64,1.1,1.06,1.54,1.34,1.38,1.48,2.89.74,4.6-.81,1.89-2.32,1.18-3.51.82-2.17-.66-4.41-.5-6.6-.86.23-3.72,2.13-6.33,5.2-6.95,1.12-.23,2.39-.56,3.1.86Z"/><path class="cls-5" d="M98.78,154.37c-.91-.66-1.96-1.25-.5-2.45.95-.78,1.51-1.87,1.69-3.08.29-1.98-.36-4.62,3.21-4.08.26.04.78-.62.95-1.04.94-2.36,1.74-.92,2.58.05-.12.93.39,1.7.6,2.54.42,1.76-.4,3.78-1.78,4.12-3.06.75-3.21,3.1-3.9,5.28-.71-.26-1.43-.52-2.14-.78,0,0,0,.01,0,.01-.07-.39-.33-.56-.7-.58Z"/><path class="cls-11" d="M194.12,202.76c-.26-.79-.52-1.58-.79-2.37-.91-3.03-1.85-6.05-2.71-9.09-.35-1.25-1.14-1.77-2.35-1.88-.49-.05-.99-.13-1.46-.3-1.63-.57-4.32-.72-3.97-2.77.31-1.79,2.73-.25,4.18-.52.29-.05.59-.02.89-.03,2.2.12,4.4.23,6.6.35-.72,1.33-2.35.6-3.33,1.48.76,1.87,2.8-.31,3.68,1.13-2.72.58-2.99,2.15-1.97,4.46.79,1.79,1.32,3.68,1.96,5.53.31,1.14.62,2.28.94,3.43-.56.19-1.12.38-1.68.58Z"/><path class="cls-10" d="M76.69,176.49c4.03.29,8.22-.93,12.03,1.31.19,1.5-.39,2.88-.71,4.3-2.22-.63-4.51-.36-6.77-.5-3.37-.21-4.66-1.71-4.55-5.11Z"/><path class="cls-5" d="M40.74,246.97c-1.82-1.11-3.89-1.84-5.04-3.89-1.6-2.85-1.19-6.59.88-8.89,1.15-1.27,1.34-.11,1.86.43-.05.11-.07.22-.04.34.08,2.83.91,5.35,3.02,7.35.69,1.5,1.26,3.01.56,4.68-.41,0-.83-.02-1.24-.03Z"/><path class="cls-10" d="M88.61,171.73c-.02.79-.03,1.57-.05,2.36-.15.15-.31.29-.47.44-3.76,0-7.55.49-11.28-.38-.06-.22-.11-.45-.17-.67.42-.34.53-.75.29-1.25.39-1.55.38-3.12.29-4.69.15-.35.31-.7.46-1.04.88.15,1.75.3,2.63.46-.31,2.57.64,3.98,3.37,4.44,1.66.28,3.3.17,4.94.34Z"/><path class="cls-2" d="M105.45,177.67c.57-1,1.14-1.99,1.71-2.99,1.54.77,2.5,2.19,3.7,3.32,2.46,2.31,5.03,4.44,8.42,5.27.94,2.17-1.73,1.63-2.11,2.82-4.07-2.58-8.44-4.74-11.72-8.42Z"/><path class="cls-5" d="M165.86,194.51c-1.41-.7-2.82-1.4-4.23-2.1.28-.84.94-1.59.61-2.58.68-.17,1.84-.58,1.66-.99-1.46-3.3,2.6-3.25,3.12-5.33.22-.9,1.34-.64,2.09-.79.36,1.01.4,2.08.9,3.1.88,1.78.14,3.76-1.55,4.06-3.18.56-2.62,2.62-2.6,4.64Z"/><path class="cls-5" d="M109.3,119.71c2.21-1.17,4.14-.59,5.73.81,2.24,1.97,4.05,1.19,5.38-.83,1.57-2.4,3.75-2.19,5.62-1.26,1.71.86,2.93,1.16,4.56.05,1.14-.77,2.53-1.02,3.93.01-3.02-.17-4.96,3.89-8.83,1.54-1.49-.9-4.2.58-5.81,2.22-1.51,1.55-2.99,1.82-4.57.15-1.61-1.7-3.73-2.31-6-2.7Z"/><path class="cls-5" d="M101.4,162.87c.21-.39.43-.78.64-1.17,2.6-1.68,2.64-2.46.31-5.34,3.53.36,4.92,2.38,3.57,5.5-.43,1,.06,1.7.05,2.54-.01,1.64.23,3.41-1.66,4.35.13-1.47.96-2.91.3-4.47-1.3.2-1.14,2.56-2.69,1.79-1.35-.67-.48-2.09-.52-3.19Z"/><path class="cls-6" d="M117.17,186.09c.38-1.18,3.05-.65,2.11-2.82,1.77-.74,2.29,1.18,3.5,1.64.02.57.04,1.15.07,1.72-.02.24-.04.49-.07.73-1.75.97-3.5,1.93-5.23,2.93-.13.07-.13.36-.19.55-.34.36-.68.72-1.02,1.08-.3-.96-.6-1.92-.9-2.89-.15-1.41,1-2.05,1.73-2.94Z"/><path class="cls-15" d="M255.63,192.66c-.31,2.5-2.73,4.32-6.15,3.35-2.67-.75-4.89-.6-7.33.17-.63.2-1.37.04-2.07.04,0-.2-.01-.4-.01-.59.22-.4.44-.81.67-1.21,4.96-.59,9.93-1.18,14.89-1.76Z"/><path class="cls-11" d="M162.39,241.37c3.04,2.36,6.12,4.67,9.96,5.63-4.92,0-9.83,0-14.75,0-.02-.57-.05-1.15-.07-1.72,1.45-.04,2.92.05,4.34-.16.76-.12,2.13-.37,1.05-1.8-.15-.16-.3-.32-.46-.49-.05-.21-.09-.42-.14-.63.02-.28.04-.56.07-.84Z"/><path class="cls-6" d="M181.87,246.91c-1.72-.03-3.51.82-5.12-.43.64,0,1.3.09,1.73-.54,1.59-.48,2.9-1.22,2.93-3.14,2.13.15,4.04-.3,5.47-2.04.93-.23,1.83-.4,2.04.94-2.25,1.89-5,3.09-7.06,5.23Z"/><path class="cls-15" d="M256.59,245.69c1.65-1.96,4.25-2.44,6.19-3.95.14.84.29,1.67.43,2.51.28.93.56,1.85.84,2.78-2.65-.02-5.31-.05-7.96-.07.12-.15.16-.32.13-.5.13-.25.25-.51.38-.76Z"/><path class="cls-7" d="M178.49,245.93c-.44.63-1.1.55-1.73.54-.99.41-2,.7-3.09.56-.19-2.61-.39-5.21-.58-7.82,1.66,1.21,2.31,3.61,4.7,3.95.24.92.47,1.85.71,2.77Z"/><path class="cls-7" d="M49.67,246.97q3.03-3.55,6.74-1.1c.49.33.96.69,1.43,1.04-2.72.02-5.45.04-8.17.06Z"/><path class="cls-8" d="M102.35,156.36c2.33,2.88,2.29,3.66-.31,5.34-.32-2.46-1.94-4.42-2.57-6.76.71.26,1.43.52,2.14.78.25.21.49.43.74.64Z"/><path class="cls-5" d="M55.89,168.58c-4.48,1.93-7.03-3.06-10.98-3.01,4.31-1.33,7.06,2.94,10.98,3.01Z"/><path class="cls-11" d="M256.59,245.69c-.13.25-.25.51-.38.76-.2.15-.4.29-.6.44-2.75.08-5.53.75-8.22-.39,2.99.08,5.46-1.41,8-2.69.72.42.93,1.17,1.2,1.88Z"/><path class="cls-16" d="M122.85,186.63c-.02-.57-.04-1.15-.07-1.72,3.52,1.7,4.51,4.67,4.19,8.31-.57.05-1.09,0-1.34-.63-.36-1.65.54-3.8-1.83-4.67-.15.01-.3,0-.44-.07l.02.03c-.04-.48-.06-.96-.54-1.25Z"/><path class="cls-7" d="M41.98,247c.7-1.67.13-3.18-.56-4.68.8-.01,1.61-.03,2.41-.04.57,1.3,1.58,2.48,1.18,4.06-.38.04-.76.08-1.14.13-.63.18-1.26.35-1.89.53Z"/><path class="cls-5" d="M181.87,246.91c2.06-2.14,4.81-3.34,7.06-5.23.24-.01.49-.03.73-.04-1.17,2.62-4.13,3.3-5.8,5.38-.66-.04-1.32-.07-1.98-.11Z"/><path class="cls-7" d="M77.68,166.49c-.15.35-.31.7-.46,1.04-.36-.17-.71-.34-1.07-.51.34-2.1-1.18-4.74,1.77-6.08-.1,1.54-.83,3.05-.21,4.62,0,.31-.02.62-.03.92Z"/><path class="cls-6" d="M77.92,160.95c-2.96,1.34-1.44,3.98-1.77,6.08-1.67-2.86-1.12-5.65,1.8-9.05,0,.42-.01.83-.02,1.25,0,.57,0,1.15,0,1.72Z"/><path class="cls-16" d="M194.52,186.16c-2.2-.12-4.4-.23-6.6-.35.08-.34.15-.69.23-1.03,2.16.05,4.31.1,6.47.15-.03.41-.07.82-.1,1.23Z"/><path class="cls-2" d="M12.73,246.44c-.08-1.31.73-2.23,1.8-1.75,1.22.54,1.31-2.34,2.52-.59-.35,2.15-2.05,2.19-3.67,2.36-.21,0-.43-.01-.64-.02Z"/><path class="cls-10" d="M240.74,194.42c-.22.4-.44.81-.67,1.21-.74-1.7-.07-3.74-1.26-5.33.14-.11.27-.22.4-.33,1.25,1.23,1.44,2.82,1.53,4.45Z"/><path class="cls-10" d="M264.04,247.03c-.28-.93-.56-1.85-.84-2.78.47-.06.95-.12,1.42-.18.39.96.89,1.9.63,3-.4-.01-.8-.03-1.21-.04Z"/><path class="cls-10" d="M236.4,187.45c.58-.03,1.17-.07,1.75-.1-.07,1.04.68,1.76,1.05,2.62-.13.11-.26.22-.4.33-.79-.41-1.17-1.55-2.33-1.28-.02-.52-.05-1.04-.07-1.57Z"/><path class="cls-7" d="M76.93,172.23c.24.49.14.91-.29,1.25-.72-.6-.34-.95.29-1.25Z"/><path class="cls-2" d="M107.16,174.17c-.08-.24-.15-.47-.23-.71.08.24.15.47.23.71Z"/><polygon class="cls-5" points="167.16 196.39 166.97 196.41 167.17 196.44 167.16 196.39"/><path class="cls-14" d="M255.61,246.89c.2-.15.4-.29.6-.44.03.19-.01.36-.13.5-.16-.03-.31-.05-.47-.07Z"/><path class="cls-12" d="M172.57,52.64c-.4,0-.83-.03-.93-.47-.12-.56.39-.58.75-.62.39-.05.83.02.92.46.12.56-.39.54-.75.63Z"/><path class="cls-12" d="M150,52.09c-.07.51-.47.54-.85.54-.38,0-.84-.02-.84-.54,0-.51.46-.54.84-.54.38,0,.79.02.85.54Z"/><path class="cls-11" d="M267.03,230.3c-.82,0-1.64,0-2.45,0,1.73-14.14-11.17-23.14-22.42-20.87-.76.15-1.58.04-2.36.05.02-.64.05-1.29.07-1.93.27-.18.53-.37.8-.55,0,0,0,0,0,0,.14.14.28.28.43.41.08-.13.16-.26.24-.4,14.46-2.68,27.34,8.79,25.71,23.29Z"/><path class="cls-10" d="M234.58,202.23c-1.13-1.1-.8-3.62-2.26-3.78-1.44-.16-1.58,2.41-2.95,3.21-.45-.11-.9-.23-1.35-.34.7-1.42,1.56-2.74,2.67-3.88.72-.74,1.46-1.66.79-2.59-.64-.88-1.79-.48-2.74-.21-3.38.96-6.76,1.92-10.14,2.87-.03-.41-.06-.82-.09-1.23,4.01-1.95,8.49-2.49,12.56-4.28l1.54-.07c.95.9.36,2.56,1.63,3.31.49,2.21.87,4.45,2.19,6.37-.02.21-.05.43-.07.64-.59-.01-1.18-.02-1.77-.03Z"/><path class="cls-1" d="M234.23,195.25c-1.27-.75-.68-2.41-1.63-3.31-.07-2.44,1.55-2.44,3.28-2.26.05,1.11,1.58,1.62,1.18,2.91-.86.64-.45,1.6-.61,2.42-.74.08-1.49.16-2.23.23Z"/><path class="cls-12" d="M237.06,192.59c.39-1.29-1.14-1.8-1.18-2.91.2-.22.39-.44.59-.67,1.16-.26,1.54.87,2.33,1.28,1.19,1.59.52,3.63,1.26,5.33,0,.2,0,.4.01.59-.4.39-.8.79-1.2,1.18-.37-.61.88-2.25-1.15-1.81-.22-1,.35-2.18-.67-3.01Z"/><path class="cls-5" d="M269.42,215.33c.42-.17.83-.33,1.25-.5,0,2.22,0,4.44,0,6.66-.33.02-.66.04-.99.06-.64-2-.19-4.15-.27-6.22Z"/><path class="cls-2" d="M238.86,200.43c-.42,1.79.73,3.17,1.22,4.72-.39.01-.78.02-1.17.03-.46.01-.92.03-1.38.04l-.43-.63c0-.6,0-1.19-.01-1.79,1.5-.17.95-1.02.59-1.8.01-.19.02-.39.01-.58.39,0,.78,0,1.17,0Z"/><path class="cls-2" d="M237.06,192.59c1.02.82.45,2,.67,3.01.18.6.35,1.21.53,1.81-.77.62-1.69,1.9-1.79-.41-.03-.66-.02-1.33-.02-1.99.15-.82-.25-1.78.6-2.42Z"/><path class="cls-15" d="M237.68,201.01c.35.78.91,1.63-.59,1.8-.24-.18-.49-.37-.73-.55.02-.21.05-.43.07-.64.42-.2.84-.41,1.26-.61Z"/><path class="cls-5" d="M238.91,205.19c.39-.01.78-.02,1.17-.03.48.28.57.74.59,1.24-.6.01-1.21.02-1.81.03.02-.41.04-.82.05-1.24Z"/><path class="cls-15" d="M238.27,197.41c-.18-.6-.35-1.21-.53-1.81,2.03-.44.77,1.2,1.15,1.81-.2,0-.41,0-.61,0Z"/><path class="cls-15" d="M238.86,206.43c.6-.01,1.21-.02,1.81-.03,0,.2,0,.4,0,.6-.27.18-.53.37-.8.55-.12-.05-.24-.04-.35.02-.2-.03-.4-.07-.61-.1-.01-.22-.02-.43-.03-.65-.01-.13-.02-.26-.02-.39Z"/><path class="cls-15" d="M238.86,200.43c-.39,0-.78,0-1.17,0,.15-.31.26-.85.46-.9.66-.13.64.46.71.9Z"/><path class="cls-15" d="M241.33,207.01c-.08.13-.16.26-.24.4-.14-.14-.28-.28-.43-.41.22,0,.44.01.66.02Z"/><path class="cls-15" d="M239.79,209.48c.79,0,1.6.11,2.36-.05,11.25-2.27,24.15,6.73,22.42,20.87-4.58.48-4.84.11-4.88-7.36-2.99,1.55-3.14,4.08-2.97,6.76-3.67.09-6.97-2.04-10.67-1.79,0,0-.04.03-.04.03.15-.88-.33-1.41-1-1.85-.05-.19-.11-.38-.16-.58,1.31-3.75.23-7.56.31-11.34-.33,1.16-.22,2.34-.35,3.5-.26,2.42.68,4.93-.59,7.26-1.43-4.22-2.84-8.45-4.3-12.67-.33-.95-.65-1.85-.12-2.82,0,0-.04.02-.04.02ZM253.83,215.95c-.2.2-.4.39-.61.59-.76.04-1.16.44-1.21,1.2-.04.1-.08.19-.12.29.05-.08.11-.16.16-.24.76-.04,1.15-.46,1.19-1.21.2-.2.39-.4.59-.6.04-.09.08-.17.12-.26-.05.08-.09.16-.14.24ZM250.27,220.17c.2-.2.4-.4.6-.6.08-.1.15-.19.23-.29-.09.08-.19.16-.28.24-.2.2-.4.4-.6.6-.2.2-.4.39-.6.59-.46.28-.58.72-.59,1.22-.2.2-.4.4-.59.6-.79.34-1.19.94-1.19,1.8-.05.09-.09.17-.14.26.05-.08.1-.17.14-.25.78-.34,1.19-.93,1.21-1.79.2-.2.4-.4.6-.6.47-.26.6-.69.62-1.18.2-.2.39-.4.59-.59ZM253.22,221.32c-.08.09-.16.18-.24.27.09-.08.18-.15.27-.23l.6-.58c.43-.09.92-.12.89-.76,0-.07-.12-.18-.19-.18-.63-.04-.67.44-.76.88-.19.2-.39.4-.58.6ZM248.77,225.03c.79-.69,2.36-.61,2.47-2.58-1.39.62-2.13,1.38-2.47,2.58Z"/><path class="cls-2" d="M246.06,227.92c3.7-.25,7,1.87,10.67,1.79.26.58.53,1.16.79,1.74-2.62.03-4.82-1.6-7.37-1.87-.83-.09-1.52-1.05-2.1.71-.31.93-1.72-.03-2-1.22,0-.39,0-.77.01-1.16Z"/><path class="cls-11" d="M264.62,244.07c-.47.06-.95.12-1.42.18-.14-.84-.29-1.67-.43-2.51.7-2.03,1.92-3.33,4.28-2.97-.02,2.13-1.46,3.61-2.43,5.3Z"/><path class="cls-8" d="M28.66,200.93c2.65,1.78,2.62,4.53,2.67,7.27-1.71,1.89-4.37,2.11-6.3,3.63-2.36.14-4.11,1.9-6.38,2.35-4.32.86-3.89.36-3.17-3.46.7-3.68,3.13-6.6,5.01-9.75,0,0-.04.03-.04.03,7.03-2.87,7.08,2.56,7.83,7.19,1.2-2.65.24-4.96.39-7.25Z"/><path class="cls-11" d="M24.65,197.55c-1.52-1.61-3.84-2.58-4.22-5.1-.6-4.04,4.26-7.79,8.9-6.89,1.9.37,4.28.16,3.76,3.33-.18,1.08-.82,1.75-1.56,2.41-1.91-.48-2.92,1.73-4.26,1.74-2.04.03-2.14.33-1.22,1.9.9,1.55.35,2.43-1.4,2.61Z"/><path class="cls-11" d="M20.48,200.96c-1.87,3.15-4.31,6.07-5.01,9.75-.72,3.82-1.15,4.31,3.17,3.46,2.27-.45,4.02-2.2,6.38-2.35.12.76.25,1.51.37,2.27-2.42,1.15-4.85,2.5-7.57,2.46-2.91-.05-3.77,1.14-3.13,3.79-.7.26-1.33.08-1.94-.27q-.04-4.71-3.75-4.63c-.16-.43-.33-.86-.49-1.29.54-.24,1.04-.46,1.7-.39,2.26.22,3.12-1.1,2.55-3.36-.3-1.2-1.88-.75-2.01-1.94,2.97-.5,3.83-1.43,4.79-4.25.66-1.94-1.09-2.3-1.76-3.37,2.25-1.01,4.47.28,6.71.11Z"/><path class="cls-10" d="M13.78,200.84c.67,1.07,2.42,1.44,1.76,3.37-.96,2.82-1.82,3.75-4.79,4.25.12,1.18,1.7.74,2.01,1.94.57,2.26-.29,3.58-2.55,3.36-.66-.06-1.16.15-1.7.39-.75-.88-.4-2-.66-2.99.82-2.2,1.99-4.2,2.11-6.73.09-1.93,1.7-3.29,3.82-3.6Z"/><path class="cls-5" d="M24.65,197.55c1.75-.18,2.3-1.06,1.4-2.61-.91-1.57-.82-1.87,1.22-1.9,1.33-.02,2.35-2.22,4.26-1.74,2.18,3.03,1.9,4.72-1.12,6.28-1.16.6-1.52,1.71-1.96,2.78-1.27-.66-2.53-1.33-3.8-1.99,0-.27,0-.55,0-.82Z"/><path class="cls-5" d="M25.4,214.1c-.12-.76-.25-1.52-.37-2.27,1.92-1.51,4.59-1.74,6.3-3.63.53,1.22,1.33,2.23,2.31,3.1-.24.6-.47,1.21-.71,1.82-1.29.69-2.61,1.29-4.14,1.06-1.13-.03-2.26-.05-3.4-.08Z"/><path class="cls-11" d="M24.65,198.37c1.27.66,2.53,1.33,3.8,1.99.07.19.14.38.21.57-.14,2.29.81,4.6-.39,7.25-.75-4.63-.8-10.06-7.83-7.19.47-2.38,2.47-2.28,4.21-2.62Z"/><path class="cls-16" d="M32.93,213.11c.24-.61.47-1.21.71-1.82,1.36.26,2.7.55,3.03,2.22-1.23,1.31-2.44-.54-3.67-.02-.05-.12-.07-.25-.07-.38Z"/><path class="cls-6" d="M33.01,213.5c1.22-.52,2.44,1.33,3.67.02.92.25,1.49.92,2.02,1.65-.55.17-1.16.24-1.47.84-1.38-.87-3.31-.84-4.21-2.51Z"/><path class="cls-5" d="M127.4,226.42c.99,1.04-.9,3.16,1.38,3.7,2.71.63,3.53-.34,2.93-3.39,1.62.06,1.11,1.39,1.36,2.28-.03.24-.05.48-.08.72,0,.6-.02,1.19-.03,1.79,0,0,.01-.01.01-.01-1.61-.14-2.57.06-1.47,2.03.8,1.43,1.28,3.05,1.64,4.72-2.09-1.65-2.09-4.53-3.9-6.73-1.4,4.65-.76,9.34-2.1,14.5-1.33-3.24-.1-5.91.05-8.39.17-2.68.49-5.27-.25-7.88-.18-.57-.55-.96-1.09-1.21-.02-.21-.04-.42-.06-.63,0-.19-.01-.39-.02-.58.7,0,1.19-.39,1.61-.89Z"/><path class="cls-2" d="M128.57,223.2c-.62-.7-.99-1.5-.98-2.45,1.2-1.8.34-3.82.59-5.72.15-1.14-.32-2.34.68-3.42.3,3.87,1.4,7.73-.29,11.59Z"/><path class="cls-2" d="M131.14,226.3c-1.08.2-1.79-.11-1.83-1.34,1.62-.23,1.54-1.68,1.79-2.73.66-2.71,1.15-5.46,2.06-8.12.47,4.26-1.08,8.17-2.03,12.19Z"/><path class="cls-2" d="M125.87,228.53c.54.25.91.64,1.09,1.21-4.15.25-7.88,2.36-11.95,2.97-.08-.25-.16-.51-.24-.76,3.7-1.14,7.4-2.28,11.1-3.42Z"/><path class="cls-5" d="M137.81,228.61c2.04.02,4.1-.31,6.8.38-2.64,1.12-4.77.56-6.82.68,0-.35.01-.71.02-1.06Z"/><path class="cls-2" d="M137.81,228.61c0,.35-.01.71-.02,1.06-1.6.02-3.19.04-4.79.06.03-.24.05-.48.08-.72,1.53-.72,3.14-.47,4.73-.4Z"/><path class="cls-2" d="M125.79,227.32c0,.19.01.39.02.58-.9-.46-1.95-.71-2.42-1.76l.02-.03c1.02-.05,1.92.14,2.38,1.2Z"/><path class="cls-5" d="M137.75,235.1c.94.07,1.63.51,2.1,1.66-1.15-.21-1.95-.5-2.09-1.67,0,0-.01.01-.01.01Z"/><path class="cls-5" d="M123.39,234.49c-.06.69-.24,1.33-1.02,1.52-.34.08-.56-.14-.48-.48.19-.78.83-.96,1.52-1.03,0,0-.02-.02-.02-.02Z"/><path class="cls-2" d="M121,224.4c-.44.13-.73.32-.88.24-.21-.1-.32-.41-.47-.63.17-.07.38-.23.52-.19.24.08.43.28.83.57Z"/><path class="cls-5" d="M134.77,232.7c-.88.03-1.72,0-1.79-1.2,0,0-.01.01-.01.01.85.02,1.45.42,1.8,1.19h0Z"/><path class="cls-5" d="M137.17,234.49c-.88.03-1.72,0-1.8-1.19,0,0,0,0,0,0,.85.03,1.45.42,1.79,1.2h.01Z"/><path class="cls-2" d="M137.12,223.1c.09-.44.14-.92.77-.88.07,0,.18.12.19.18.04.63-.44.68-.88.77,0,0-.07-.07-.07-.07Z"/><path class="cls-2" d="M123.39,226.14c-.49-.02-.94-.13-1.2-.6l.02-.02c.5,0,.94.12,1.19.6,0,0-.02.03-.02.03Z"/><path class="cls-5" d="M124.59,233.29c-.2.2-.4.4-.6.6,0,0,.02.02.02.02.2-.2.4-.4.6-.6,0,0-.02-.02-.02-.02Z"/><path class="cls-5" d="M123.99,233.89c-.2.2-.4.4-.6.6,0,0,.02.02.02.02.2-.2.4-.4.6-.6,0,0-.02-.02-.02-.02Z"/><path class="cls-5" d="M137.15,234.5c.2.2.4.4.6.6,0,0,.01-.01.01-.01-.2-.2-.4-.4-.6-.6,0,0-.01.01-.01.01Z"/><path class="cls-2" d="M135.38,224.94c-.05.08-.11.16-.16.25.04-.09.09-.18.13-.28,0,0,.03.03.03.03Z"/><path class="cls-2" d="M122.19,225.54c-.08-.09-.16-.17-.23-.26.09.08.17.16.26.23,0,0-.02.02-.02.02Z"/><path class="cls-2" d="M135.98,224.34c-.2.2-.4.4-.6.6,0,0-.03-.03-.03-.03.2-.2.4-.4.6-.6,0,0,.03.03.03.03Z"/><path class="cls-2" d="M136.59,223.75c-.2.2-.41.39-.61.59,0,0-.03-.03-.03-.03.2-.2.39-.41.59-.61l.05.05Z"/><path class="cls-2" d="M136.54,223.7c.19-.2.39-.4.58-.6,0,0,.07.07.07.07-.2.19-.4.39-.6.58,0,0-.05-.05-.05-.05Z"/><path class="cls-5" d="M124.6,233.31c.2-.2.4-.4.6-.6l-.02-.02c-.2.2-.4.4-.6.6,0,0,.02.02.02.02Z"/><path class="cls-5" d="M125.8,232.11c.04-.08.09-.16.13-.24-.05.08-.1.15-.15.23,0,0,.02.02.02.02Z"/><path class="cls-5" d="M125.2,232.71c.2-.2.4-.4.6-.6,0,0-.02-.02-.02-.02-.2.2-.4.4-.6.6,0,0,.02.02.02.02Z"/><path class="cls-5" d="M134.76,232.71c.2.2.4.4.6.6,0,0,0,0,0,0-.2-.2-.4-.4-.6-.6,0,0,0,0,0,0Z"/><path class="cls-10" d="M210.83,226.8c-1.17-.33-1.5.9-2.29,1.27-.88.41-1.66.81-1.8-.66,1.18-.26,1.72-1.19,2.39-2.07,3.29-4.32,6.17-8.97,9.87-12.98.62.03,1.16.21,1.49.79-3.22,4.55-6.43,9.1-9.65,13.65Z"/><path class="cls-6" d="M238.91,207.46c.2.03.4.07.61.1-.18.57-.37,1.14-.55,1.71-.43.63-.85,1.26-1.28,1.89-2.34.65-3.93,2.48-5.9,3.71-.27-.79-.55-1.57-.83-2.36.54-1,1.45-1.73,2.4-2.09,3.14-1.21,3.47-3.16,1.9-5.82.62.31,1.23.37,1.84-.01.14.21.29.42.43.63.06.66.13,1.33.64,1.83.11.39.34.54.74.4Z"/><path class="cls-8" d="M220.48,213.14c-.33-.58-.87-.76-1.49-.79.04-.17.09-.33.14-.49,1.85-1.82,3.46-3.83,4.82-6.03,1.35-1.5,2.3-3.37,4.06-4.51.45.11.9.22,1.35.34-2.58,4.13-5.61,7.9-8.89,11.49Z"/><path class="cls-11" d="M237.1,204.6c-.61.38-1.23.32-1.84.01-.51-.71-.71-1.51-.67-2.38.59.01,1.18.02,1.77.03.24.18.49.36.73.55,0,.6,0,1.19.01,1.79Z"/><path class="cls-16" d="M195.29,237.52c.21-.43.43-.85.64-1.28,1.99.07,3.98.14,5.98.2,0,0,.12.1.12.09-2.24.33-4.49.65-6.74.98Z"/><path class="cls-7" d="M66.57,237.51c-.14-2.13,2.21-3.67,1.39-5.96,1.51-.22,2.58,1.07,4,1.16,0,0-.02-.02-.02-.02.79.93,1.84,1.23,3.01,1.21,0,0-.02-.01-.02-.01.08,1.18.95,1.19,1.81,1.21,0,0-.02-.01-.02-.01.2.2.41.41.61.61,0,0,0,0,0,0-.85.95-1.98.55-3,.6-1.73.07-3.47,0-4.91,1.22-.66.46-1.39.65-2.19.6-.22-.2-.45-.39-.67-.59h0Z"/><path class="cls-5" d="M64.23,229.75c-.3,0-.6-.06-.88,0-1.05.26-2.11.66-3.01-.32-.49-.54-.36-1.27.16-1.53,1.24-.61,2.05-2.11,3.66-1.9.24.03.41.61.62.93-.36.95-.72,1.91-.27,2.94l-.18.04-.1-.16Z"/><path class="cls-5" d="M69.43,237.5c1.44-1.21,3.18-1.14,4.91-1.22,1.02-.04,2.15.35,3-.6,1.41.84,2.88,1.52,4.6,1.81h-12.51Z"/><path class="cls-10" d="M64.51,229.86c-.46-1.03-.1-1.98.27-2.94,1.34.11,1.88-2.5,3.61-1.08-.84,1.77-2.44,2.82-3.88,4.01Z"/><path class="cls-5" d="M71.96,232.71c-1.42-.08-2.49-1.38-4-1.16-.09-2.68,1.52-1.61,2.8-1.26-.73,1.36,1.56,1.23,1.19,2.42Z"/><path class="cls-5" d="M68.3,223.7c.45-1.95.91-3.9,1.36-5.85.57,2.16.1,4.11-1.36,5.85Z"/><path class="cls-5" d="M66.57,237.51c.22.2.45.39.67.59,0,2.34,0,4.69,0,7.03-.22,0-.45,0-.67.01v-7.63Z"/><path class="cls-5" d="M74.95,233.9c-1.18.02-2.22-.29-3.01-1.21,1.18-.03,2.22.29,3.01,1.21Z"/><path class="cls-5" d="M76.74,235.1c-.86-.02-1.73-.03-1.81-1.21.84.05,1.45.44,1.81,1.21Z"/><path class="cls-5" d="M77.34,235.7c-.2-.2-.41-.41-.61-.61.2.2.41.41.61.61Z"/><path class="cls-5" d="M70.08,224.93c-.03.33-.17.53-.54.48.18-.16.36-.32.54-.48Z"/><path class="cls-7" d="M89.26,187.37c1.39,4.84,3.56,9.45,4.42,14.45.15.87.24,1.75.36,2.63q-4.79,1.68-5.89-3.29c-.65-2.9-1.33-5.79-2.04-8.67-.86-3.52-.53-4.09,3.15-5.12Z"/><path class="cls-15" d="M33.01,213.5c.9,1.67,2.83,1.64,4.21,2.51,1.52,1.26,1.7,2.54-.04,3.74-.87.6-1.4,1.33-1.34,2.41.06,1.16-.63,1.52-1.64,1.55-1.26-.2-2.37.43-3.56.62-1.04-1.58-2.07-3.16-3.11-4.74.13-1.88.54-3.69,1.26-5.43,1.53.23,2.85-.36,4.14-1.06,0,.13.03.26.07.38Z"/><path class="cls-7" d="M89.58,228.19c-.29-5.03-1.77-9.4-5.04-12.95-1.53-1.67-1.54-2.74.21-4.02.8-.59,1.5-1.3,2.26-1.94.85-.72,1.4-.54,1.67.57,1.26,5.29,2.66,10.55,3.74,15.88.36,1.79-2.23,1.15-2.84,2.47Z"/><path class="cls-15" d="M73.12,224.29c2.3-2.74,4.64-5.45,6.89-8.23.9-1.11,1.53-.91,2.33.09,1.82,2.27,3.55,4.56,3.87,7.58-.79.08-1.69-.25-2.3.57-2.84.2-5.68.4-8.52.6-.8-.05-1.7.26-2.28-.61Z"/><path class="cls-7" d="M73.12,224.29c.58.88,1.48.56,2.28.61,2.93,1.04,5.79,1.1,8.52-.6.61-.82,1.5-.5,2.3-.57.22.54.51,1.07.66,1.63,1.14,4.21.61,4.82-3.72,4.31-3.45-.41-6.9-.83-10.35-1.27-.76-.1-1.81.16-2.16-.65-.34-.81.45-1.42,1.03-1.98.49-.48.96-.98,1.44-1.48Z"/><path class="cls-7" d="M94.09,205.82c2.01,3,3.54,6.1,1.55,9.71-.74,1.35.59,2.45.26,3.71-3.55-1.72-4.4-5-5.32-8.46-.66-2.46-.19-3.69,2.19-4.32.47-.12.88-.42,1.32-.64Z"/><path class="cls-7" d="M30.64,224.34c1.19-.19,2.3-.82,3.56-.62,3.03,1.49.51,3.58.59,5.39,0,0,.04-.03.04-.03-.2-.32-.44-.35-.72-.1-2.9,2.68-5.08,6.06-8.25,8.49-.5.02-.96-.05-1.2-.57.4-1.08,1.76-1.54,1.83-2.84,2.16-2.03,2.6-5.11,4.29-7.3,1.05-1.36.25-1.65-.15-2.42Z"/><path class="cls-6" d="M100.63,235.75c.54,2.43,3.79,3.59,3.1,6.6-.41-.18-.81-.4-1.25-.07l-.02-.02c.28-.61-.16-.88-.57-1.14-2.94-1.82-5.29-4.33-7.79-6.66.37-.7.91-1.15,1.74-1.16,1.54.94,2.6,2.81,4.8,2.45Z"/><path class="cls-2" d="M44.43,232.2c3.14-.13,4.69,1.96,5.63,4.43,1.15,3.03.49,5.83-2.05,8.04-.32-1.44.71-2.52,1.34-3.48.7-1.06-2.42-1.49-.06-2.31-1.29-.27-2.5-.51-3.72-.76,0,0,0,0,0,0,.97-1.64,2.32-3.4-1.15-3.64-.03-.57-.05-1.14-.08-1.72.04-.19.07-.38.08-.57Z"/><path class="cls-5" d="M45.58,238.12c1.21.25,2.43.5,3.72.76-2.37.81.76,1.24.06,2.31-.63.95-1.66,2.04-1.34,3.48-.8.91-1.87,1.35-3,1.67.39-1.58-.62-2.76-1.18-4.06.99-1.21,2.07-2.39,1.75-4.16Z"/><path class="cls-5" d="M100.63,235.75c-2.2.36-3.26-1.51-4.8-2.45-.03-.39-.06-.77-.08-1.16-.48-3.88,2.38-2.42,4.2-2.63.23,2.08.46,4.16.69,6.24Z"/><path class="cls-16" d="M44.35,232.77c.03.57.05,1.14.08,1.72-1.94.3-.5,1.45-.56,2.22-2.37,1.15-3.92-.29-5.46-1.74-.03-.12-.02-.23.04-.34.66-1.1.4-3.55,2.9-2.01.23.23.45.47.68.7l-.02-.03c.18.17.36.34.55.51,1.09.51.76-1.45,1.8-1.04Z"/><path class="cls-6" d="M103.57,242.96c-1.48,1.28-2.78.16-4.03-.42-2.72-1.27-4.69-3.5-6.79-5.55.26-.26.52-.51.79-.77.86.65,1.75,1.28,2.58,1.97,1.95,1.61,3.62,3.65,6.33,4.08,0,0,.02.02.02.02.12.63.64.6,1.1.68Z"/><path class="cls-16" d="M102.45,242.26c-2.71-.42-4.38-2.46-6.33-4.08-.83-.69-1.72-1.31-2.58-1.97-.65-.84-.69-1.5.55-1.75,2.5,2.33,4.85,4.84,7.79,6.66.41.25.85.52.57,1.14Z"/><path class="cls-5" d="M91.85,236.78c-1.32,0-2.64-.01-3.96-.02.24-1.33.31-2.7,1.15-4.06,1.23,1.19,2.69,2.13,2.81,4.07Z"/><path class="cls-7" d="M95.25,221.35c.52,1.72,1.66,3.51-.61,4.89-.51-1.96-1.01-3.91-1.52-5.87,1.26-.73,1.47.59,2.12.99Z"/><path class="cls-5" d="M33.31,234.15c-.31-.32-.62-.63-.93-.95.81-1.17,1.62-2.34,2.43-3.5.01-.21.02-.42.03-.62,0,0-.04.03-.04.03.63.28,1.2-1.07,1.79-.12.38.62.29,1.33-.25,1.91-1.01,1.08-2.01,2.17-3.02,3.26Z"/><path class="cls-5" d="M44.35,232.77c-1.04-.41-.71,1.55-1.8,1.04-.18-.17-.36-.34-.55-.51,0,0,.02.03.02.03.02-.24.05-.48.07-.72.73-.45,1.49-.68,2.34-.41-.01.19-.04.38-.08.57Z"/><path class="cls-7" d="M42.09,232.6c-.02.24-.05.48-.07.72-.23-.23-.45-.47-.68-.7.24-.49.48-.67.75-.02Z"/><path class="cls-10" d="M237.68,211.17c.43-.63.85-1.26,1.28-1.89.29.06.58.12.87.17-.53.97-.21,1.87.12,2.82,1.46,4.21,2.87,8.44,4.3,12.67.21.19.42.39.62.58.05.19.11.38.16.58-.1.85-.29,1.75,1,1.85,0,0,.04-.03.04-.03,0,.39,0,.77-.01,1.16-.4.12-.81.24-1.21.36-.07-.74-.67-.77-1.19-.91-1.17-5.75-3.99-10.94-5.69-16.51-.09-.28-.18-.56-.27-.85Z"/><path class="cls-2" d="M243.65,228.52c.52.14,1.13.17,1.19.91.19,1.56-.59,2.79-1.1,4.3-1.14-1-.1-1.66-.18-2.36-.17-1.46-.73-2.61-2.45-2.09-3.37,1.01-6.85-.22-10.22.65,4.07-2.2,8.49-1.11,12.76-1.4Z"/><path class="cls-2" d="M238.24,234.46c.42-1.75,1.65-2.67,3.74-3.65-1,2.08-1.94,3.29-3.68,3.71l-.05-.06Z"/><path class="cls-2" d="M255.01,236.18c-1.46-.25-2.06-.77-2.17-2.04,1.27.03,1.76.69,2.17,2.04Z"/><path class="cls-2" d="M250.09,231.56c.63.17,1.03.45,1.1,1,.05.34-.2.6-.53.49-.58-.18-1.08-.53-1.16-1.19-.01-.09.43-.23.59-.31Z"/><path class="cls-2" d="M243.11,235.52c-.26.2-.45.35-.65.5-.12-.19-.38-.43-.34-.58.06-.22.34-.37.53-.55.14.18.27.37.46.63Z"/><path class="cls-2" d="M241.64,226.63c.12-.11.21-.23.34-.3.04-.02.22.09.22.14,0,.17-.06.33-.09.5-.15-.11-.3-.22-.47-.33Z"/><path class="cls-2" d="M238.3,234.52c-.25.25-.49.5-.74.75-.08-.12-.16-.23-.24-.35.31-.15.62-.31.93-.46,0,0,.05.06.05.06Z"/><path class="cls-2" d="M234.71,223.11c.26.08.52.17.78.25-.05.07-.15.22-.16.21-.23-.13-.45-.28-.67-.43l.04-.04Z"/><path class="cls-2" d="M234.66,223.15c-.08-.09-.15-.18-.23-.27.09.08.18.15.27.23,0,0-.04.04-.04.04Z"/><path class="cls-6" d="M219.13,211.86c-.05.16-.09.33-.14.49-3.7,4.01-6.58,8.66-9.87,12.98-.67.88-1.21,1.82-2.39,2.07-.29-.25-.58-.5-.87-.74,1.67-3.05,3.33-6.1,5.19-9.49-3.74.57-6.85,1.65-9.81,3.18-.46-.16-.86,1.27-1.18.2-.36-1.2-1.56-1.74-1.83-2.91-.2-1.19.62-1.96,1.15-2.86,3.82-.71,6.58-3.52,9.96-5.11,1.04-.49.23-1.43-.18-2.02-1.57-2.28-3.11-4.6-5.58-6.06,0-.55-.18-1-.74-1.21-.75-1.35-1.47-2.73-2.83-3.61-2.63-1.73-4.53-3.89-4.33-7.3,5,1.7,10.06,2.18,15.22.78.44-.12.97.12,1.46.2,2,2,3.44,4.58,6.14,5.84.03.41.06.82.09,1.23,1.73,2.58,4.93,4.43,4.1,8.28-1.44,1.87-3.89,3.15-3.56,6.06Z"/><path class="cls-3" d="M218.5,196.29c-2.69-1.27-4.14-3.85-6.14-5.84.26-2.96.62-5.92.74-8.89.07-1.85.66-2.19,2.37-1.58,5.03,1.79,10,3.71,14.79,6.07.83,1.91-.68,4.13.8,5.96-4.06,1.79-8.55,2.33-12.56,4.28Z"/><path class="cls-1" d="M195.69,189.46c-.21,3.41,1.69,5.57,4.33,7.3-1.14,2.15-3.48,1.22-5.15,2-.64-1.85-1.18-3.75-1.96-5.53-1.02-2.31-.75-3.89,1.97-4.46.27.23.54.47.82.7Z"/><path class="cls-11" d="M231.06,192.01c-1.47-1.82.03-4.05-.8-5.96,2.05.46,4.09.93,6.14,1.39.02.52.05,1.04.07,1.57-.2.22-.39.44-.59.67-1.74-.18-3.35-.18-3.28,2.26-.51.02-1.03.05-1.54.07Z"/><path class="cls-5" d="M208.83,182.81c.52,2.3-.12,4.04-2.3,4.98.77-1.66,1.53-3.32,2.3-4.98Z"/><path class="cls-16" d="M205.38,168.4c-1.78-.9-1.96-1.89-2.54-3.38,1.68.76,1.83,1.79,2.54,3.38Z"/><path class="cls-16" d="M206.07,169.79c1.02.22,1.16.99,1.15,1.86l-.1.1c-.72-.37-1.14-.95-1.25-1.76l.2-.2Z"/><path class="cls-5" d="M210.72,178.57c-.09.15-.17.3-.25.44-.09-.14-.24-.29-.24-.43,0-.14.14-.29.22-.44.09.14.18.28.27.43Z"/><path class="cls-5" d="M211.13,176.31c.03.07.05.14.08.21-.1.02-.21.04-.31.06.01-.08,0-.17.05-.22.03-.04.12-.03.18-.04Z"/><path class="cls-16" d="M207.23,171.64c.08.11.16.22.24.33-.11-.08-.23-.16-.34-.24,0,0,.1-.1.1-.1Z"/><path class="cls-16" d="M205.88,169.99c-.07-.14-.13-.27-.2-.41.13.07.26.14.4.21,0,0-.2.2-.2.2Z"/><path class="cls-4" d="M117.17,186.09c-.73.89-1.88,1.53-1.73,2.94-2.18.24-4.22-.47-6.3-.88-1.12-.22-2.11-.53-2.7.8-1.87-1.43-4.34-2.19-5.26-4.69,2.29-.72,1.51-2.77,1.61-4.24.13-1.92.74-2.72,2.66-2.35,3.28,3.68,7.65,5.84,11.72,8.42Z"/><path class="cls-2" d="M117.42,197.54c1.53,1.55,1.43,2.76-.18,4.43-4.16,4.29-8.08,8.81-12.08,13.26-.81.9-1.53,1.91-2.99,1.37,2.99-4.22,6.68-7.83,10.14-11.64,1.48-1.62,3.04-3.22,3.1-5.57.04-1.44,1.44-1.13,2.01-1.84Z"/><path class="cls-1" d="M106.43,188.95c.59-1.33,1.58-1.02,2.7-.8,2.08.41,4.13,1.13,6.3.88.3.96.6,1.92.9,2.89.21.76.41,1.53.62,2.29-1.34,1.82-2.85-.09-4.26.19-2.09-1.82-4.18-3.63-6.27-5.45Z"/><path class="cls-7" d="M107.19,199.44c-5.52,2.6-5.61,2.53-5.3-3.72,1.86,1.26,3.88,1.96,5.3,3.72Z"/><path class="cls-2" d="M102.6,208.14c.55-1.88-1.91-4.46,1.53-5.68.55-.2,1.19-.52,1.68-.05.55.53,0,1.08-.24,1.57-.74,1.48-1.52,2.95-2.28,4.43l-.69-.28Z"/><path class="cls-7" d="M112.7,194.4c1.41-.28,2.92,1.63,4.26-.19.9.94.3,1.76-.21,2.59-2.01.32-3.15-.85-4.04-2.4Z"/><path class="cls-16" d="M103.57,242.96c-.46-.08-.98-.05-1.1-.68.44-.33.84-.11,1.25.07-.05.2-.1.41-.15.61Z"/><path class="cls-10" d="M143.77,208.17c2.65.19,5.29.42,7.94.54,1.36.06,1.62.83,1.57,1.95-.07,1.64.3,3.49-1.98,4.06-.92.23-2.02-.32-2.76.64-.6-.19-1.2-.38-1.79-.57-2.32.13-2.98-1.55-3.6-3.28.03-1.14-.27-2.35.63-3.33Z"/><path class="cls-13" d="M117.36,190.84c.06-.19.06-.48.19-.55,1.73-.99,3.48-1.96,5.23-2.93.05.34.09.71.6.52,0,0-.02-.03-.02-.03-.18,1.39-.35,2.79-.53,4.18-.21.2-.43.4-.64.6-1.19,0-2.39,0-3.58,0-.42-.6-.84-1.19-1.26-1.79Z"/><path class="cls-7" d="M118.62,192.63c1.19,0,2.39,0,3.58,0-.6.95-1.2,1.91-1.81,2.86-2.42.18-1.34-1.81-1.77-2.86Z"/><path class="cls-6" d="M120.39,195.5c.6-.95,1.2-1.91,1.81-2.86.21-.2.43-.4.64-.6.19.19.38.38.56.57-.48,1.77-1.45,3.17-3.02,4.14,0-.42,0-.83,0-1.25Z"/><path class="cls-6" d="M123.44,207.71c.44-.5.26-1.56,1.05-1.6.73-.04.76.75.74,1.36-.5.8-1.08.98-1.79.24Z"/><path class="cls-9" d="M123.8,187.92c2.36.87,1.46,3.02,1.83,4.67-.65-.03-1.31-.06-1.96-.08.42-1.52.52-3.05.13-4.59Z"/><path class="cls-10" d="M123.8,187.92c.38,1.54.28,3.07-.13,4.59,0,0-.27.1-.27.09-.19-.19-.38-.38-.56-.57.18-1.39.35-2.79.53-4.18.14.06.29.08.44.07Z"/><path class="cls-6" d="M177.78,243.17c-2.39-.33-3.04-2.74-4.7-3.95-1.01-1.77-2.02-3.55-3.03-5.32-1.01-3.12-2.72-5.84-5.01-8.78-1.37,4.13-3.47,7.6-2.58,11.78-.41,1.48-.09,2.98-.07,4.47-.02.28-.04.56-.07.84-1.6.02-3.2.03-4.81.05-.61-1.99-1.21-3.97-1.82-5.96,1.62-1.68.97-3.67.77-5.6,2.27-2.82,1.15-6.24,1.65-9.37.1-.2.21-.41.31-.61.11-.61.22-1.22.33-1.83,3.94,1.1,7.88.23,11.82.03.67,1.33,1.23,2.73,2.04,3.97.62.96.28,2.81,2.24,2.65.61-.04,1.23-.08,1.84-.12.03.12,0,.23-.07.33-.01.09,0,.21-.04.28q-2,2.74.74,3.93c-1.9,2.05-.82,3.53.93,4.89.11.92.25,1.82,1.27,2.23-.05.15-.01.28.11.39-.15,1.44,1.06,2.69.56,4.18-.8.51-1.6,1.01-2.41,1.52Z"/><path class="cls-7" d="M178.25,234.85c-1.74-1.36-2.82-2.85-.92-4.89,4.9.47,9.8.92,14.7,1.41,3.52.36,3.53.39,1.91,3.63-.26.52-.64.98-.96,1.47-3.06.44-6.12.5-9.2.29-1.16-1.01-2.29-2.05-3.48-3.03-1.55-1.27-1.93-.29-2.05,1.12Z"/><path class="cls-15" d="M185.73,216.63c1.14-.68,1.38-3.23,3.61-1.65,2.45,1.73,3.88,4.74,3.07,6.61-.1.24.02.57.03.85-.28.23-.56.46-.84.7-.79.37-.54,1.04-.46,1.65-.93,1.1-2.21.57-3.34.74-1.72.25-3.56-.57-5.18.6-.79,0-1.58,0-2.38-.01-.19-.37-.39-.73-.58-1.1,2.02-2.79,4.04-5.58,6.06-8.38Z"/><path class="cls-15" d="M201.24,220.34c2.97-1.53,6.08-2.61,9.81-3.18-1.86,3.4-3.52,6.45-5.19,9.49-2.37,0-5.24.75-4.79-3.31.06-1,.11-2,.16-3Z"/><path class="cls-13" d="M174.85,225.53c-1.96.16-1.62-1.69-2.24-2.65-.81-1.24-1.37-2.64-2.04-3.97,1.18-3.06-.44-5.98-.44-8.97,1.37-.19,2.74-.38,4.12-.57.19.08.39.17.58.25,0,5.3.01,10.61.02,15.91Z"/><path class="cls-15" d="M178.45,210.09c.93-.26,1.43.29,1.85,1-.15,1.07,1.19,1.45,1.16,2.46.34,1.41.19,3.12,2.14,3.56-1.72,2.41-3.43,4.81-5.15,7.22-.54.56-1.01,1.22-1.83,1.42.07-.1.1-.21.07-.33-.01-1.36-.03-2.72-.04-4.08,1.45-3.62,1.03-7.53,1.79-11.25Z"/><path class="cls-7" d="M196,217.71c-.7-1.08-1.3-2.24-2.11-3.23-1-1.21-3.08-2.26-3.08-3.38,0-1.87,2.01-3.25,3.11-4.88.22-.33.5-.62.74-.93,1.59,3.99,2.43,8.17,3.23,12.37-.63.01-1.26.03-1.89.04Z"/><path class="cls-10" d="M197.89,217.66c-.8-4.2-1.64-8.38-3.23-12.37-.07-.55-.07-1.14-.73-1.38.06-.38.12-.77.19-1.15.56-.19,1.12-.38,1.68-.58,2.35-.6,4.7-1.21,7.04-1.81.56.21.73.66.73,1.21-1.68,1.1-3.63,1.37-5.51,1.85-1.29.33-1.71.89-1.25,2.31.97,2.98,1.72,6.03,2.57,9.04-.52.9-1.35,1.67-1.15,2.86-.11.01-.23.02-.34.02Z"/><path class="cls-5" d="M182.63,226.12c1.61-1.17,3.46-.35,5.18-.6,1.13-.16,2.41.36,3.34-.74,1.13.87,2.25,1.75,3.38,2.62.08.79,2.43,1.52.06,2.37-.32-.54-.69-.7-1.18-.18-.34-.04-.68-.08-1.03-.12-1.82-.91-3.58-2.47-5.65-.49-2.54-.25-5.09-.51-7.63-.76.5-1.84,3.18-.03,3.53-2.11Z"/><path class="cls-2" d="M190.31,206.37c.47.03.95.06,1.42.1-2.24,3.66-2.61,3.9-6.57,2.14-2.11-.93-4.72-.49-6.42-2.44,3.86-.32,7.7.94,11.57.2Z"/><path class="cls-5" d="M197.89,217.66c.11,0,.23-.01.34-.02.27,1.17,1.47,1.71,1.83,2.91.32,1.07.72-.37,1.18-.2-.05,1-.11,2-.16,3-1.06-.28-2.13-.51-3.17-.84-3.05-.97-3.53-2.2-1.91-4.8.63-.02,1.26-.03,1.89-.04Z"/><path class="cls-2" d="M176.66,221.34c.01,1.36.03,2.72.04,4.08-.61.04-1.23.08-1.84.12,0-5.3-.01-10.61-.02-15.91.41-.01.81-.02,1.22-.03,0,2.84.02,5.69,0,8.53,0,1.11-.72,2.34.59,3.21,0,0,.02.02.02.02Z"/><path class="cls-5" d="M191.6,223.13c.28-.23.56-.46.84-.7,3.64,2.35,6.37,5.82,10.01,8.24-2.96-.31-4.96-2.32-7.09-4.08-1.25-1.15-2.5-2.31-3.76-3.46Z"/><path class="cls-6" d="M178.46,224.33c1.72-2.41,3.43-4.81,5.15-7.22.47-.38.95-.77,1.42-1.15.23.22.47.44.7.66-2.02,2.79-4.04,5.58-6.06,8.38-.17.02-.33.05-.49.09-.24-.26-.48-.51-.72-.77Z"/><path class="cls-7" d="M201.92,236.45c-1.99-.07-3.98-.14-5.98-.2q1.59-4.82,5.05-1.23c.41.43.95.74.92,1.43Z"/><path class="cls-15" d="M189.66,241.64c-.24.01-.49.03-.73.04-.21-1.34-1.11-1.17-2.04-.94.01-.97-.21-1.88-.7-2.72,1.77-.56,3.58-.58,5.41-.46.02.4.03.81.05,1.21-.41,1.13-1.16,2.02-1.98,2.86Z"/><path class="cls-6" d="M174.25,209.37c-1.37.19-2.74.38-4.12.57-.06-1.03-.13-2.05-.19-3.08,2.2-1.86,3.63-.7,4.86,1.23-.18.42-.37.85-.55,1.27Z"/><path class="cls-6" d="M190.31,206.37c-3.87.74-7.71-.52-11.57-.2-.1-.3-.2-.59-.31-.89,3.58-.05,7.15-.09,10.73-.14.3-.02.61-.05.91-.07.47.36.35.83.24,1.3Z"/><path class="cls-10" d="M185.02,215.96c-.47.38-.95.77-1.42,1.15-1.96-.44-1.81-2.15-2.14-3.56,2.46,1.83,2.69-.19,3.13-1.82.87.12,2.01.11,1.14,1.47-.56.88-.55,1.83-.7,2.77Z"/><path class="cls-2" d="M178.45,210.09c-.76,3.72-.34,7.64-1.79,11.25,0,0-.02-.02-.02-.02-.38-3.93.56-7.8.6-11.71.4.16.81.31,1.21.47Z"/><path class="cls-5" d="M184.59,211.73c-.44,1.64-.66,3.65-3.13,1.82.03-1.02-1.31-1.39-1.16-2.46,1.59-.89,2.98-.39,4.29.64Z"/><path class="cls-16" d="M191.6,237.56c-1.83-.11-3.64-.1-5.41.46-2.19-.19-4.38-.37-6.56-.56-.12-.11-.15-.24-.11-.39,1.42-.1,2.83-.21,4.25-.31,3.08.21,6.15.15,9.2-.29-.22.34-.44.69-.66,1.03-.24.02-.48.04-.72.07Z"/><path class="cls-15" d="M177.24,209.62c-.04,3.91-.98,7.78-.6,11.71-1.31-.87-.59-2.09-.59-3.21.02-2.84,0-5.69,0-8.53.39.01.79.02,1.18.03Z"/><path class="cls-6" d="M182.63,226.12c-.35,2.09-3.03.28-3.53,2.11-.54.26-1.36.5-1.52-.1-.32-1.15.83-1.78,1.39-2.62.23.62.69.75,1.29.59.79,0,1.58,0,2.38.01Z"/><path class="cls-16" d="M189.16,205.14c-3.58.05-7.15.09-10.73.14-.35-.19-.7-.38-1.06-.57,1.07-.04,2.13-.07,3.2-.11.78-.51,1.55-.49,2.33,0,2.08.21,4.27-.79,6.25.54Z"/><path class="cls-10" d="M186.73,228.99c2.07-1.98,3.83-.42,5.65.49-1.94.49-3.81.18-5.65-.49Z"/><path class="cls-6" d="M191.6,223.13c1.25,1.15,2.5,2.31,3.76,3.46-.28.27-.56.54-.84.81-1.13-.87-2.25-1.75-3.38-2.62-.08-.61-.33-1.28.46-1.65Z"/><path class="cls-6" d="M207.69,231.78c-.01.64-.3,1.17-.92,1.26-.58.08-.79-.4-.78-.94.01-.5.14-.96.72-1.07.58-.12.87.21.98.74Z"/><path class="cls-14" d="M180.58,204.59c-1.07.04-2.13.07-3.2.11.03-.36.05-.72.08-1.07,1.14,0,2.69-1.31,3.12.96Z"/><path class="cls-10" d="M193.41,229.6c.48-.52.86-.36,1.18.18-.48.53-.88.47-1.18-.18Z"/><path class="cls-5" d="M180.25,226.11c-.59.16-1.05.03-1.29-.59.11-.12.18-.25.21-.42.16-.04.33-.07.49-.09.19.37.39.74.58,1.1Z"/><path class="cls-7" d="M191.6,237.56c.24-.02.48-.04.72-.07-.05.52-.15,1.01-.67,1.28-.02-.4-.03-.81-.05-1.21Z"/><path class="cls-6" d="M30.64,224.34c.4.77,1.2,1.06.15,2.42-1.69,2.19-2.13,5.27-4.29,7.3-1.77-.83-4.19-.91-4.28-3.69l4.22,1.06c-2.32-1.04-2.81-4.18-5.47-4.73-2.1-2.13-4.2-4.26-6.31-6.39,4.29-.17,8.55-.99,12.86-.72,1.04,1.58,2.07,3.16,3.11,4.74Z"/><path class="cls-8" d="M27.53,219.6c-4.32-.27-8.57.55-12.86.72,0,0,.03.03.03.03-.64-2.65.22-3.84,3.13-3.79,2.72.05,5.15-1.31,7.57-2.46,1.13.02,2.27.05,3.4.08-.72,1.74-1.14,3.55-1.26,5.43Z"/><path class="cls-10" d="M9,215.45q3.71-.09,3.75,4.63c-2.65-.41-3.13-2.58-3.75-4.63Z"/><path class="cls-10" d="M77.92,160.95c0-.57,0-1.15,0-1.72,1.26.31,3.06-1.02,3.67,1.31.2.78.46.14.58-.14.76-1.78,2.35-.98,3.63-1.19,2.89-.47,3.67.75,3.58,3.58-.08,2.43-.89,3.06-3.14,2.92-2.84-.18-5.69-.09-8.54-.12-.61-1.57.12-3.08.21-4.63Z"/><path class="cls-14" d="M88.61,171.73c-1.64-.17-3.27-.06-4.94-.34-2.73-.46-3.68-1.87-3.37-4.44,1.27-.01,2.54-.04,3.81-.03q4.81.02,4.5,4.81Z"/><path class="cls-14" d="M88.1,174.52c.16-.15.31-.29.47-.44-.16.15-.31.29-.47.44Z"/><path class="cls-8" d="M98.78,154.37c.37.03.63.19.7.58-.23-.19-.47-.39-.7-.58Z"/><path class="cls-8" d="M169.94,206.86c.06,1.03.13,2.05.19,3.08,0,3,1.62,5.92.44,8.97-3.94.2-7.88,1.07-11.82-.03-.17-.06-.34-.11-.51-.13-.25-.13-.49-.25-.74-.38-.33.02-.66.04-.99.06-.44-.64-1.62-.64-1.5-1.76-.55-2.62.74-4.27,2.79-5.66.97-.66,1.72-1.64,2.57-2.47,3.32.16,6.47-.59,9.56-1.69Z"/><path class="cls-11" d="M156.51,218.44c.33-.02.66-.04.99-.06.25.13.49.25.74.38.18.02.35.07.51.13-.11.61-.22,1.22-.33,1.83-.49-.07-.77.13-.81.64-1.28,3.01-1.53,6.14-1.15,9.35.2,1.93.85,3.92-.77,5.6-2.39-6.08-1.94-12.02.82-17.86Z"/><path class="cls-16" d="M157.52,242.26c1.6-.02,3.2-.03,4.81-.05.05.21.09.42.14.63-.05.35.13.49.46.49,1.08,1.42-.29,1.68-1.05,1.8-1.42.22-2.89.13-4.34.16,0-1.01,0-2.02,0-3.02Z"/><path class="cls-5" d="M8.88,238.98c-1.44-.11-2.87-.23-4.31-.34.78-4.93,4.36-7.71,8.81-6.91,2.09.38,2.78,1.04,1.19,2.98-.85,1.03-2.13,1.38-2.91,2.41-.63-.06-1.26-.13-1.89-.19-.57,0-1.29-.16-1.53.49-.24.63.37,1.03.78,1.44,0,0-.14.12-.14.12Z"/><path class="cls-14" d="M34.8,229.7c-.81,1.17-1.62,2.34-2.43,3.5-1.11,1.1-2.1,2.37-3.35,3.27-2.01,1.45-2.54,3.56-3.08,5.72-.75.09-1.52.21-2-.59,1.41-1.42-1.05-2.29-.51-3.58,0,0-.03-.02-.03-.02.81.33,1.24,1.58,2.14,1.33.66-.18.22-1.22.32-1.87,3.17-2.42,5.34-5.81,8.25-8.49.23.24.46.48.68.72Z"/><path class="cls-5" d="M22.23,230.37c.08,2.78,2.51,2.86,4.28,3.69-.07,1.29-1.43,1.76-1.83,2.84-.9-.17-1.23.3-1.27,1.11,0,0,.03.02.03.02-2,.18-3.13-.48-2.24-2.64.66-1.6.24-3.27.6-4.88.15-.03.3-.07.44-.12h-.02Z"/><path class="cls-6" d="M23.95,241.6c.49.81,1.25.69,2,.59,0,0,0,.01,0,.01-.09.51-.19,1.02-.71,1.29-.46.03-1.03-.07-1.06.61-.06,1.55-.9,1.39-1.9.91-.61-1.71-.21-2.93,1.68-3.41Z"/><path class="cls-6" d="M11.76,237.45c.53.24,1.11.4,1.57.73.79.56.66,1.34.29,2.09-.23.47-.68.74-1.2.68-.95-.11-.81-.9-.93-1.56-.09-.45-.35-.86-.54-1.29.27-.22.54-.43.81-.65Z"/><path class="cls-5" d="M18.3,237.06c-1.33-.11-1.62-1.28-2.2-2.16.39-1.53,1.22-1.41,2.01-.39.56.73,2.41,1.55.19,2.55Z"/><path class="cls-16" d="M9.01,238.86c-.41-.4-1.02-.8-.78-1.44.25-.66.96-.5,1.53-.49.02.52.03,1.04.05,1.57-.27.12-.54.24-.8.36Z"/><path class="cls-10" d="M9.81,238.49c-.02-.52-.03-1.04-.05-1.57.63.06,1.26.13,1.89.19.04.11.07.22.1.33-.27.22-.54.43-.81.65-.3.35-.57.78-1.13.39Z"/><path class="cls-5" d="M21.12,244.83c-.02.36-.05.73-.07,1.09-1.02,0-1.8-.56-3.01-1.36,1.34.12,2.21.19,3.08.27Z"/><path class="cls-10" d="M9.28,239.52c-.09.03-.19.11-.25.09-.06-.02-.09-.15-.13-.23.08-.04.17-.08.26-.12,0,0,.13.25.13.25Z"/><path class="cls-6" d="M22.25,230.38c-.14.05-.29.09-.44.12.05-.16.09-.32.14-.48.1.12.2.24.31.35Z"/><path class="cls-8" d="M164.8,201.06c-4.89-1.08-5.85-.15-5.96,5.79-.89.76-1.78,1.51-3.2,2.72-.07-5.23.73-9.69,2.44-13.99.48-1.2,1.64-1.8,2.92-1.61,2.03.29,3.49,1.53,4.13,3.43.4,1.17.65,2.53-.34,3.66Z"/><path class="cls-7" d="M162.46,236.9c-.88-4.18,1.21-7.65,2.58-11.78,2.29,2.95,4,5.66,5.01,8.78-2.86.17-4.68,2.98-7.6,3Z"/><path class="cls-14" d="M189.16,205.14c-1.98-1.33-4.17-.33-6.25-.54,1.26-2.59,3.58-.74,5.35-1.24,1.33-.38,1.66.65,1.81,1.71-.3.02-.61.05-.91.07Z"/><path class="cls-14" d="M25.23,243.5c.53-.27.63-.78.71-1.29.7.54,1.63,1.23.83,2.09-.74.79-1.37.16-1.54-.79Z"/><path class="cls-7" d="M202.84,200.37c-2.35.6-4.7,1.21-7.04,1.81-.31-1.14-.63-2.28-.94-3.43,1.67-.78,4.01.15,5.15-2,1.36.88,2.07,2.26,2.83,3.61Z"/><path class="cls-6" d="M38.41,234.97c1.54,1.45,3.09,2.89,5.46,1.74.72.29.79,1.37,1.72,1.41,0,0,0,0,0,0,.32,1.76-.76,2.94-1.75,4.16-.8.01-1.61.03-2.41.04-2.1-2-2.93-4.52-3.02-7.35Z"/><path class="cls-10" d="M123.39,187.88c-.51.19-.55-.18-.6-.52.02-.24.04-.49.07-.73.48.29.5.77.54,1.25Z"/><path class="cls-6" d="M162.92,243.33c-.33,0-.51-.13-.46-.49.15.16.3.32.46.49Z"/><path class="cls-7" d="M179.63,237.47c2.19.19,4.38.37,6.56.56.49.84.71,1.75.7,2.72-1.43,1.74-3.33,2.19-5.47,2.04-.41-.38-.82-.76-1.23-1.14.5-1.49-.71-2.74-.56-4.18Z"/><path class="cls-5" d="M180.19,241.65c.41.38.82.76,1.23,1.14-.04,1.92-1.35,2.66-2.93,3.14-.24-.92-.47-1.85-.71-2.77.8-.51,1.6-1.01,2.41-1.52Z"/><path class="cls-5" d="M239.83,209.45c-.29-.06-.58-.11-.87-.17.18-.57.37-1.14.55-1.71.11-.06.23-.07.35-.02-.02.64-.05,1.29-.07,1.93,0,0,.04-.02.04-.02Z"/><path class="cls-15" d="M222.69,205.79c.84-3.85-2.36-5.7-4.1-8.28,3.38-.96,6.76-1.92,10.14-2.87.95-.27,2.1-.67,2.74.21.67.92-.07,1.85-.79,2.59-1.11,1.14-1.97,2.45-2.67,3.88-1.77,1.13-2.72,3-4.07,4.5-.42,0-.84-.02-1.26-.03Z"/><path class="cls-1" d="M238.17,207.07c-.51-.51-.58-1.17-.64-1.83.46-.01.92-.03,1.38-.04-.02.41-.04.82-.05,1.24,0,.13,0,.26.02.39-.24.08-.47.17-.71.25Z"/><path class="cls-5" d="M238.17,207.07c.24-.08.47-.17.71-.25.01.21.02.43.03.65-.4.15-.63,0-.74-.4Z"/><path class="cls-5" d="M244.87,225.52c-.21-.19-.42-.39-.62-.58,1.27-2.33.33-4.85.59-7.26.12-1.16.02-2.34.35-3.5-.08,3.78,1,7.59-.31,11.34Z"/><path class="cls-2" d="M248.77,225.03c.34-1.2,1.07-1.95,2.47-2.58-.11,1.97-1.68,1.89-2.47,2.58Z"/><path class="cls-5" d="M246.02,227.95c-1.29-.1-1.1-1-1-1.85.67.43,1.15.97,1,1.85Z"/><path class="cls-2" d="M253.25,216.57c-.04.75-.43,1.16-1.19,1.21l-.04-.04c.05-.75.44-1.16,1.21-1.2l.03.03Z"/><path class="cls-2" d="M253.8,220.72c.09-.44.13-.92.76-.88.07,0,.18.12.19.18.04.63-.45.67-.89.75,0,0-.06-.06-.06-.06Z"/><path class="cls-2" d="M247.25,224.33c0-.86.4-1.46,1.19-1.8,0,0,.02.02.02.02-.02.85-.42,1.45-1.21,1.79h0Z"/><path class="cls-2" d="M249.68,220.77c-.02.49-.15.93-.62,1.18l-.02-.02c0-.5.12-.94.59-1.22,0,0,.06.06.06.06Z"/><path class="cls-2" d="M247.25,224.33c-.05.08-.1.17-.14.25.05-.09.09-.17.14-.26,0,0,0,0,0,0Z"/><path class="cls-2" d="M249.06,221.95c-.2.2-.4.4-.6.6,0,0-.02-.02-.02-.02.2-.2.4-.4.59-.6,0,0,.02.02.02.02Z"/><path class="cls-2" d="M253.26,221.36c-.09.08-.18.15-.27.23.08-.09.16-.18.24-.27l.04.04Z"/><path class="cls-2" d="M252.06,217.78c-.05.08-.11.16-.16.24.04-.1.08-.19.12-.29,0,0,.04.04.04.04Z"/><path class="cls-2" d="M253.22,221.32c.19-.2.39-.4.58-.6,0,0,.06.06.06.06-.2.19-.4.39-.6.58,0,0-.04-.04-.04-.04Z"/><path class="cls-2" d="M250.81,219.52c.09-.08.19-.16.28-.24l-.23.29-.05-.05Z"/><path class="cls-2" d="M250.86,219.57c-.2.2-.4.4-.6.6,0,0-.05-.05-.05-.05.2-.2.4-.4.6-.6,0,0,.05.05.05.05Z"/><path class="cls-2" d="M253.22,216.54c.2-.2.4-.39.61-.59,0,0,.01.01.01.01-.2.2-.39.4-.59.6,0,0-.03-.03-.03-.03Z"/><path class="cls-2" d="M253.83,215.95c.05-.08.09-.16.14-.24-.04.09-.08.17-.12.26,0,0-.01-.01-.01-.01Z"/><path class="cls-2" d="M250.27,220.17c-.2.2-.39.4-.59.6,0,0-.06-.06-.06-.06.2-.2.4-.39.59-.59,0,0,.05.05.05.05Z"/><path class="cls-5" d="M222.69,205.79c.42,0,.84.02,1.26.03-1.36,2.21-2.97,4.22-4.82,6.03-.33-2.91,2.12-4.19,3.56-6.06Z"/><path class="cls-16" d="M83.92,224.3c-2.73,1.69-5.59,1.64-8.52.6,2.84-.2,5.68-.4,8.52-.6Z"/><path class="cls-6" d="M23.41,238c.04-.81.37-1.28,1.27-1.11.24.53.7.59,1.2.57-.11.65.34,1.68-.32,1.87-.9.25-1.33-1-2.14-1.33Z"/><path class="cls-11" d="M34.8,229.7c-.23-.24-.46-.48-.68-.72.28-.26.52-.22.71.1-.01.21-.02.42-.03.62Z"/><path class="cls-5" d="M45.58,238.12c-.93-.04-1-1.12-1.72-1.41.06-.77-1.38-1.93.56-2.22,3.47.23,2.13,1.99,1.15,3.64Z"/><path class="cls-7" d="M42,233.3c.18.17.37.34.55.51-.18-.17-.36-.34-.55-.51Z"/><path class="cls-15" d="M199.38,214.78c-.84-3.02-1.59-6.07-2.57-9.04-.46-1.42-.04-1.98,1.25-2.31,1.88-.48,3.84-.75,5.51-1.85,2.47,1.46,4.01,3.78,5.58,6.06.41.59,1.22,1.53.18,2.02-3.38,1.59-6.14,4.4-9.96,5.11Z"/><path class="cls-13" d="M183.77,236.76c-1.42.1-2.83.21-4.25.31-1.02-.4-1.17-1.3-1.27-2.23.12-1.41.5-2.39,2.05-1.12,1.19.98,2.32,2.02,3.48,3.03Z"/><path class="cls-5" d="M156.46,230.7c-.38-3.21-.13-6.34,1.15-9.34,0,0,.25,0,.25,0l.25-.03c-.49,3.13.62,6.55-1.65,9.37Z"/><path class="cls-16" d="M158.11,221.33l-.25.03s-.25,0-.25,0c.04-.51.32-.7.81-.64-.1.2-.21.41-.31.61Z"/><path class="cls-6" d="M158.24,218.75c-.25-.13-.49-.25-.74-.38.25.13.49.25.74.38Z"/></svg>