<?xml version="1.0" encoding="UTF-8"?><svg id="Lag_1" xmlns="http://www.w3.org/2000/svg" viewBox="0 0 291 288.6"><defs><style>.cls-1{fill:#2a3e3f;}.cls-1,.cls-2,.cls-3,.cls-4,.cls-5,.cls-6,.cls-7,.cls-8,.cls-9,.cls-10,.cls-11,.cls-12,.cls-13,.cls-14,.cls-15{stroke-width:0px;}.cls-2{fill:#fefae9;}.cls-3{fill:#fbf7e6;}.cls-4{fill:#d7bca4;}.cls-5{fill:#112e2f;}.cls-6{fill:#c68b78;}.cls-7{fill:#c67961;}.cls-8{fill:#d0b29b;}.cls-9{fill:#4f524e;}.cls-10{fill:#eedfc9;}.cls-11{fill:#956559;}.cls-12{fill:#ebdac4;}.cls-13{fill:#cc7d65;}.cls-14{fill:#183336;}.cls-15{fill:#133132;}</style></defs><path class="cls-2" d="M.07,163.18C.07,109.64.09,56.1,0,2.55,0,.28.61,0,2.65,0c95.87.06,191.74.05,287.6.05,0,61.79-.01,123.57-.02,185.36-1.95,0-3.56,1.03-5.29,1.7-3.01,1.17-5.72,3.09-8.98,3.64-1.55-19.2-3.7-38.32-7.27-57.25-1.11-5.87-2.14-11.83-5.11-17.13-2.15-3.84-5.95-3.8-8.26-.04-1.43,2.32-2.2,4.92-2.81,7.55-5.14,22.22-7.57,44.83-9.59,67.49-.08.29-.17.58-.25.88-.05.53-.11,1.05-.16,1.58-6.67-1.39-13.33-2.78-20-4.17-1.73-.36-2.29.45-2.26,2.12.07,3.28,0,6.57,0,9.85-37.88,0-75.75-.02-113.63,0-13.95,0-27.91.06-41.86.1-.02-7.38-.08-14.76-.02-22.15.01-1.81-.39-3.06-2.24-3.68-3.86-1.29-7.65-2.8-11.55-3.98-4.91-1.48-9.65-3.68-14.88-3.97-.22-1.47-.49-2.93-.65-4.4-.58-5.23-1.12-10.47-2.58-15.54-.47-1.62-1.07-3.4-3.19-3.41-2.29-.02-2.78,1.89-3.35,3.59-.22.66-.36,1.34-.51,2.02-.95,4.47-1.47,9-1.95,13.54-7.91-.7-15.81-1.86-23.77-.56ZM97.07,169.64l.18.04s.16-.1.16-.1h.17c.37.03.73.05,1.1.08,4.07.04,8.15.08,12.22.09.45,0,1.27-.14,1.31-.34.59-3.08,3.82-3.83,5.28-6.11,1.11-.88,2.42-.72,3.7-.72,13.42,0,26.85.12,40.27-.05,3.53-.04,6.64.33,9.13,3.03.2.18.4.36.6.54.17.16.34.31.51.47.49.66.97,1.33,1.46,1.99-.28,1.64.93.87,1.59.98.78.35,1.58.3,2.39.15.93.11,1.87.33,3.24-.44h-3.24c-1.77-1.48-3.53-2.95-5.3-4.43-.21-.19-.42-.38-.63-.57-.2-.18-.4-.37-.61-.55-.14-.16-.28-.33-.42-.49.12-.24.23-.49.35-.73,15.87.03,31.75.05,47.62.12,2.57.01,2-1.47,1.6-2.96.21-9.88-.41-19.74-1.01-29.59-.52-8.57-1.33-17.11-2.03-25.67-.11-1.34-.38-2.72,1.76-2.22.4.1.8.21,1.2.31,1.59.52,3.19,1.04,4.78,1.56.46.18.93.36,1.39.54.8.77,2.11.87,2.6,2.03,0,.34,0,.69,0,1.03-.33.38-.66.75-.98,1.13-2.34-.2-3.3,1.08-3.3,3.22,0,7.09.03,14.18.06,21.26,0,1.94,1.02,2.95,2.94,3.01,1.29.04,2.59.05,3.88,0,1.66-.06,2.86-1.1,2.67-2.62-1.06-8.58,2.62-17.49-2.2-25.91-1.15-2.02-2.03-3.9-3.97-5.17-.26-.58-.73-.9-1.34-1.01-2.86-2.16-6.05-3.6-9.54-4.4-.98-.74-.71-2-1.21-2.94-.31-8.23-5.29-15.16-12.12-16.65-3.69-.81-7.46-1.26-11.23-1.27-29.31-.05-58.63-.08-87.94-.02-5.86.01-11.72-.25-17.6.45-10.68,1.27-16.17,6.73-17.03,17.61.15,1.84-.81,2.55-2.51,3.03-3.77,1.06-7.17,2.93-10.24,5.4-2.93,2.36-4.99,5.85-5.34,9.06-.78,7.1-.25,14.35-.2,21.54.01,1.92,1.09,2.92,3.02,2.95,1.2.02,2.39.02,3.59,0,2.09-.05,3.07-1.21,3.07-3.24.01-6.99.01-13.98,0-20.97,0-1.65-.65-2.95-2.41-3.31-.92-.19-1.74-.27-1.76-1.54-.02-1.2.51-1.87,1.55-2.26,1.78-.65,3.52-1.4,5.34-1.93,5.33-1.54,4.93-2.37,4.41,3.57-1.54,17.81-2.69,35.63-3.19,53.5-.06,2.02.53,2.54,2.48,2.51,6.17-.11,12.35.05,18.53-.08,2.29-.05,4.3.27,5.99,1.9.24.21.48.42.72.63.28.24.56.48.84.72.03.21.15.31.36.31.89,1.02,1.79,2.05,2.68,3.07-.12.56.15.62.59.47ZM142.73,194.92c-9.97,0-19.94-.03-29.91.03-1.63.01-4.37-.78-4.37,1.63,0,2.32,2.72,1.74,4.4,1.74,20.04.04,40.09.02,60.13.01.79,0,1.6,0,2.38-.15.94-.18,1.76-.69,1.67-1.77-.07-.92-.88-1.3-1.7-1.42-.78-.11-1.59-.08-2.39-.08-10.07,0-20.14,0-30.21,0ZM143.1,189.62h0c-10.16.01-20.31,0-30.47.01-.8,0-1.6-.05-2.39.06-.9.12-1.9.42-1.98,1.48-.09,1.13.89,1.46,1.82,1.57.98.12,1.98.18,2.97.18,19.91.02,39.82.03,59.74.03.79,0,1.6-.01,2.38-.14.91-.15,1.88-.48,1.8-1.61-.08-1.04-.95-1.46-1.91-1.53-.79-.06-1.59-.04-2.39-.04-9.86,0-19.71,0-29.57,0ZM80.64,198.53c2.88,0,5.76.07,8.64-.02,2.97-.09,4.73-1.85,4.77-4.57.04-2.91-1.72-4.85-4.76-4.9-5.56-.1-11.12-.1-16.68-.01-3.16.05-5.02,2.08-4.96,5.1.06,2.63,1.9,4.32,4.95,4.39,2.68.06,5.36.01,8.04,0ZM203.84,198.52h0c3.08-.01,6.17.16,9.23-.07,2.38-.18,4.09-1.48,4.21-4.16.12-2.71-1.39-5.08-3.89-5.16-6.05-.2-12.11-.22-18.16.02-2.92.12-4.5,2.38-4.26,5.09.22,2.54,2.03,4.19,4.84,4.27,2.68.07,5.36.02,8.04.02Z"/><path class="cls-2" d="M290.24,185.41c0-61.79.01-123.57.02-185.36,1.24.54.56,1.62.56,2.4.05,18.38.04,36.76.04,55.14,0,76.12,0,152.23.05,228.35,0,2.02-.24,2.67-2.54,2.67-47.23-.09-94.47-.07-141.71-.07-.74-4.82-.56-9.68-.6-14.52-.02-2.65-1.93-2.28-3.59-2.28-1.65,0-3.52-.37-3.6,2.28-.15,4.84-.39,9.68-.59,14.52-45.27,0-90.55-.02-135.82.06-2.05,0-2.49-.4-2.46-2.46.15-8.39.06-16.79.06-25.19.95-.26,1.93-.47,2.86-.8,14.99-5.31,29.98-10.6,44.95-15.96,8.02-2.87,16.19-5.36,24.04-8.71,1.49-.05,2.98-.15,4.48-.15,31.69-.01,63.37-.03,95.06-.02,14.05,0,28.09.08,42.14.12,1.07,1,2.5,1.14,3.79,1.6,23.11,8.29,46.24,16.55,69.35,24.85,3.66,1.31,3.64,1.37,3.41-2.66.01-3.2.03-6.4.04-9.61.01-3.4.03-6.79.04-10.19,0-3.42.01-6.85.02-10.27-.03-.36-.06-.72-.1-1.09-.01-2.57-.02-5.14-.04-7.72.04-11.64.08-23.28.12-34.92ZM145.43,259.5c.21-2.32-.34-4.01-3.1-3.94-2.65.07-2.78,1.85-2.89,3.9-.13,2.4.64,3.39,3.18,3.36,2.5-.03,3.12-1.19,2.81-3.32ZM142.37,248.93c1.34.05,2.38-.25,2.46-1.88.08-1.67-.74-2.29-2.35-2.32-1.54-.02-2.19.82-2.33,2.14-.17,1.59.81,2.1,2.22,2.06ZM144.19,241.26c-.5-.8-.12-2.34-1.65-2.42-1.6-.08-1.47,1.43-1.7,2.37-.28,1.09.51,1.64,1.56,1.68,1.03.04,1.71-.42,1.79-1.63Z"/><path class="cls-12" d="M.07,228.55v-35.99c1.62-.46,3.15-.72,4.89-.11,4.4,1.55,8.33,3.99,12.43,6.12.41.22.97.61,1.02.99.38,2.52,2,2.45,3.86,1.99,1.24,3.05,2.3,6.27,6.3,6.73.05,6.76.1,13.53.16,20.29-9.55,0-19.1-.01-28.65-.02Z"/><path class="cls-10" d="M22.26,201.56c-1.86.46-3.48.54-3.86-1.99-.06-.38-.61-.77-1.02-.99-4.09-2.13-8.03-4.57-12.43-6.12-1.74-.61-3.27-.35-4.89.11v-29.39c7.96-1.3,15.86-.14,23.77.56-.73,12.6-2.91,25.13-1.58,37.81Z"/><path class="cls-3" d="M.07,228.55c9.55,0,19.1.01,28.65.02.22.07.44.14.67.22.33,3.62-.06,4.07-3.64,4.12-.97.01-1.94.04-2.9.06-2.4,1.72-5.17,1.63-7.92,1.71-.6.02-1.34-.24-2.03.88,3.48-.16,6.64.62,9.81-.26,10.8-.02,21.59-.05,32.39-.07,3.6.07,7.21.13,10.81.2-.15.86-.87,1-1.52,1.2-3.87,1.21-7.67,2.68-11.67,3.46-.89-1.22-2.2-.71-3.32-.71-16.44-.04-32.88-.03-49.33-.04v-10.8Z"/><path class="cls-12" d="M.07,239.35c16.44,0,32.88,0,49.33.04,1.12,0,2.43-.51,3.32.71-10.24,3.74-20.53,7.33-31.11,10.05-.88-.97-2.04-.58-3.09-.58-6.15-.04-12.3-.02-18.45-.02v-10.2Z"/><path class="cls-6" d="M21.61,250.14c10.57-2.72,20.86-6.31,31.11-10.05,4-.78,7.8-2.25,11.67-3.46.65-.2,1.37-.35,1.52-1.2,2-.42,4.01-.14,6.01.03-7.85,3.36-16.02,5.84-24.04,8.71-14.97,5.36-29.96,10.65-44.95,15.96-.93.33-1.91.54-2.86.8,0-1.2,0-2.4,0-3.6,7.16-2.45,14.57-4.16,21.54-7.2Z"/><path class="cls-12" d="M138.28,288.53c.2-4.84.44-9.68.59-14.52.08-2.65,1.95-2.28,3.6-2.28,1.66,0,3.56-.37,3.59,2.28.04,4.85-.14,9.7.6,14.52h-8.38Z"/><path class="cls-4" d="M21.61,250.14c-6.97,3.04-14.38,4.75-21.54,7.2v-7.8c6.15,0,12.3-.02,18.45.02,1.04,0,2.21-.39,3.09.58Z"/><path class="cls-5" d="M71.92,235.47c-2-.17-4-.45-6.01-.03-3.6-.07-7.2-.13-10.81-.2,0-.32.02-.65.02-.97h19.06c-.67-2.18-1.22-3.94-1.76-5.7.11-2.29.02-4.56-.41-6.82-.13-.69-.19-1.24-1.09-1.5-5.95-1.74-5.95-1.77-6.33-7.29.05-3.75.1-7.49.15-11.24,13.95-.03,27.91-.09,41.86-.1,37.88-.01,75.75,0,113.63,0,0,4.17.04,8.35,0,12.52-.04,3.75-1.68,5.63-5.43,6.1-1.24.15-2.08.37-2.16,1.82-.16,2.57-.39,5.14-.59,7.7-.35,1-.7,1.99-1.04,2.99-.45.22-.78.65-.59,1.06.28.57.84.59,1.36.19.83.05,1.66.1,2.48.14.06.57-.18.98-.66,1.27-14.05-.04-28.09-.11-42.14-.12-31.69-.01-63.37,0-95.06.02-1.49,0-2.98.1-4.48.15ZM108.39,233.76c10.56.04,21.13.13,31.69.11,10.76-.01,21.52-.12,32.28-.18.42.04.84.08,1.26.11.94.08,1.97.61,2.66-.55.01-.36.02-.72.03-1.08,0-3.03,0-6.06-.03-9.09,0-.63.13-1.47-.94-1.45-.49-.04-.99-.13-1.48-.13-20.99,0-41.98.01-62.97.04-.68,0-1.37.15-2.05.23-1.41,3.95-.88,7.97-.45,12ZM142.43,211.81v-.02c-3.28,0-6.56.04-9.84-.02-2-.03-2.56,1.03-2.57,2.82,0,1.81.04,3.59,2.44,3.61,6.66.06,13.32.05,19.98.03,2.34,0,2.61-1.56,2.59-3.47-.02-1.94-.65-3.01-2.76-2.97-3.28.06-6.56.02-9.84.02ZM203.06,212.47c1.6-.13,2.72-.91,2.73-2.56.02-1.81-1.18-2.75-2.9-2.66-1.56.08-2.64.98-2.57,2.69.07,1.68,1.13,2.43,2.74,2.53ZM81.89,207.19c-1.58.26-2.7,1.05-2.63,2.73.06,1.65,1.15,2.52,2.77,2.5,1.66-.02,2.63-.96,2.59-2.64-.05-1.69-1.18-2.42-2.73-2.59ZM194.87,223.74c.55,2.19-1.92,6.07-.9,10.01.3,0,.6.01.9.02v-10.03ZM89.9,227.21c.67-2.38.88-3.91-.45-5.79-.29,2.01-.4,3.53.45,5.79Z"/><path class="cls-13" d="M242.49,193.82c.05-.53.11-1.05.16-1.58.08-.29.17-.58.26-.88,2.02-22.67,4.45-45.27,9.59-67.49.61-2.63,1.39-5.22,2.81-7.55,2.31-3.76,6.1-3.8,8.26.04,2.97,5.3,4,11.26,5.11,17.13,3.58,18.93,5.72,38.06,7.27,57.25.16,3.38.43,6.75.45,10.13.07,11.15-4.86,16.73-15.9,18.11.02-1.37.04-2.74.06-4.11.33-.23.66-.46.99-.7.2-.2.4-.39.59-.59.2-.2.4-.4.59-.61.08-.09.16-.19.24-.28-.1.08-.2.16-.29.23-.2.2-.4.4-.6.6-.2.2-.4.4-.59.59l-1.09-.03c.05-.93.11-1.86.16-2.79,2.92-.99,4.41-3.42,6.23-5.51-.19-.21-.38-.43-.58-.64-1.43,1.31-2.87,2.62-4.89,4.47.53-2.69,1.8-4.31,1.37-6.26.05-.08.09-.17.14-.25-.04.08-.09.17-.13.25-1.41,1.04-.94,3.16-2.39,4.19.27-8-.77-16.02.57-24,1.18-.08,1.27-.89,1.19-1.8,1.85-.79,2.16-2.47,2.4-4.19.61-.2.62-.69.6-1.2.61-.19.61-.7.6-1.2.61-.2.61-.7.6-1.21.1-.1.2-.19.31-.29-.06.02-.16.01-.18.06-.05.08-.06.18-.09.27-.51.25-.59.7-.59,1.2-.5.25-.62.69-.6,1.2-.53.23-.61.69-.6,1.2-1.37,1.07-1.9,2.62-2.4,4.19-.74.37-1.13.98-1.2,1.8-.8-.54-.65-1.39-.66-2.16-.03-8.74-.05-17.49-.09-26.23,0-1.01.11-1.98.67-2.85.54-.17.7-.59.71-1.11.2-.2.4-.39.6-.58.2-.2.4-.41.6-.61.2-.19.41-.38.61-.58,1.45-.32,2.39-1.01,2.16-2.85-1.25.69-2.05,1.48-2.29,2.72-.19.2-.39.4-.58.61-.2.2-.4.4-.61.6-.2.2-.39.4-.59.6-.19.23-.38.46-.57.69-.76-.39-.62-1.12-.66-1.78,1.3-4.4,1.16-8.93,1.34-13.45-1,3.02-.83,6.28-2.09,9.75-.85-3.65-.84-6.9-2.37-9.8.31,4.5.66,8.97,1.75,13.36.57,8.89,0,17.76-.19,26.64-.1,4.76.63,9.53-.12,14.29-1.16-.62-1.45-1.8-1.87-2.92-1.16-3.13-2.34-6.25-3.51-9.38-.25.1-.5.2-.75.3,1.48,4.51,2.14,9.33,5.39,13.16.48,1.09.81,2.19.79,3.42-.09,7.85-.12,15.7-.17,23.55-1.53.79-2.78-.36-4.13-.67-6.9-1.53-11.77-7.5-11.92-14.6-.07-3.29.05-6.59.08-9.89ZM256.78,214.13c-.19-.2-.39-.41-.58-.61-.11-1.05-.69-1.67-1.72-1.86-.05-.98-.33-1.84-1.24-2.37-.11-.79-.51-1.39-1.21-1.78-.11-.55-.17-1.14-.84-1.29-.08-.02-.3.21-.31.33-.07.72.43.95,1.01,1.07.02.85.14,1.63,1.18,1.83,0,1,.29,1.84,1.21,2.36.18,1.04.74,1.69,1.83,1.78l.6.58c.1.08.2.16.3.24-.08-.1-.16-.2-.24-.31ZM253.75,174.58c.2.2.4.4.59.6.25.48.68.6,1.17.63.07.46.15.92.78.88.07,0,.18-.12.19-.19.02-.63-.46-.68-.91-.76-.27-.47-.71-.59-1.21-.58l-.6-.59c-.09-.04-.18-.08-.27-.13.09.05.17.09.26.14ZM267.37,172.2c-.04-.07-.08-.14-.12-.21-.06.04-.17.11-.17.12.06.11.13.21.2.32.03-.08.06-.15.09-.23Z"/><path class="cls-4" d="M69.55,94.31c.86-10.88,6.34-16.34,17.03-17.61,5.88-.7,11.74-.44,17.6-.45,29.31-.07,58.63-.03,87.94.02,3.78,0,7.54.46,11.23,1.27,6.83,1.5,11.81,8.43,12.12,16.65-.59.04-1.18.09-1.77.13-.89-.04-1.79-.13-2.68-.13-34.56,0-69.12,0-103.68.01-11.85,0-23.69.08-35.54.12-.75,0-1.5,0-2.25-.01ZM142.15,89.44c15.84,0,31.69,0,47.53,0,3.34,0,4.7-1.17,4.73-3.97.03-2.97-1.4-4.3-4.75-4.3-31.39,0-62.78,0-94.17.02-3.4,0-4.95,1.35-4.93,4.17.02,2.85,1.51,4.09,4.95,4.1,15.55,0,31.09,0,46.64,0Z"/><path class="cls-10" d="M64.74,201.72c-.05,3.75-.1,7.49-.15,11.24-3.06-.48-5.45-.29-4.99,3.93.11,1-.15,2.06.13,3.16.55,2.1-.26,3.2-2.57,3.13-3.14-.1-6.28-.05-9.41-.06,1.61-3.24,1.63-6.68,1.29-10.17.1-.38.19-.76.29-1.15.67-.94.15-2.06.47-3.05.19-.06.35-.16.47-.32.28-.19.56-.38.84-.57.77-.19,1.32-.69,1.76-1.32.15-.28.31-.56.46-.84.06-.17.08-.34.05-.51-1.24-1.78-6.46-3.68-8.34-3.03-.07.02-.09.17-.14.25-2.71,1.3-3.32,3.61-1.76,6.65.01.49.02.99.03,1.48-2.21,2.8-4.43,5.6-6.64,8.39-.3.01-.66-.08-.88.06-2.33,1.4-3.36.76-3.67-1.95-.14-1.27.38-3.26-1.9-3.51,0-.4,0-.8,0-1.2.72-.09,1.65.28,2.07-.56.44-.88-.25-1.41-.92-1.84-.57-.36-.62-.92-.63-1.5,2.93-.69,4.42-2.83,5.41-5.46,1.26-3.34,1.18-6.83,1.25-10.32.17-8.28-1.24-16.47-1.21-24.73,5.23.28,9.97,2.48,14.88,3.97,3.89,1.18,7.69,2.69,11.55,3.98,1.85.62,2.26,1.86,2.24,3.68-.06,7.38,0,14.76.02,22.15Z"/><path class="cls-10" d="M242.49,193.82c-.03,3.3-.15,6.6-.08,9.89.15,7.1,5.02,13.06,11.92,14.6,1.35.3,2.6,1.45,4.13.67-.03,2.98-.06,5.96-.09,8.94-4.51,0-9.02-.01-13.53-.02-1.95-1.41-4.35-2.33-5.63-4.47-.8-1.34-1.82-2-3.24-2.27-.33-.45-.8-.55-1.31-.53-.65-.65-1.54-.47-2.33-.65-.34-.44-.78-.49-1.28-.35-.74-.09-1.31.31-1.89.67-.47-.07-.84.1-1.12.48-1.74,1.12-3.84.88-5.72,1.56-1.21.44-1.8.73-.91,1.96-2.07,1.07-4.12,2.18-6.21,3.19-.83.4-2.1.13-2.09,1.61-.02.2,0,.39.02.59l-1.1.09c.2-2.57.44-5.13.59-7.7.09-1.44.92-1.66,2.16-1.82,3.76-.46,5.4-2.34,5.43-6.1.04-4.17,0-8.35,0-12.52,0-3.28.07-6.57,0-9.85-.03-1.67.53-2.48,2.26-2.12,6.67,1.38,13.33,2.78,20,4.17Z"/><path class="cls-14" d="M69.55,94.31c.75,0,1.5,0,2.25.01-.16.39-.32.78-.48,1.17-.22,2.17-.43,4.34-.65,6.52-.19.87-.48,1.73-.55,2.61-.79,9.72-1.68,19.44-2.28,29.18-.48,7.79-1.01,15.59-.71,24.12,1.24-1.95,2.79-2.37,4.11-3.18.76-.03,1.58.11,1.92-.88.69-1.98,2.31-3.33,3.48-4.98.22-.2.44-.41.66-.61.78-.08,1.42-.42,1.93-1.02,1.51-.5,3.03-1.01,4.54-1.51.28-.01.57-.02.85-.03,2.07,0,4.14-.02,6.2-.02.26.05.52.09.78.14,2.54,1.34,5.2,2.49,7.11,4.78.46.63,1.12,1.2,1.33,1.9.84,2.76,2.36,2.3,4.14,1.04,2.21.65,1.2,2.49,1.12,3.71-.12,1.96.53,2.77,2.4,2.76.35.79.76,1.55.67,2.46-5.19.05-10.38.09-15.56.14-.62.15-.54.61-.48,1.07-.15.26-.3.52-.45.78-1.68-1.63-3.69-1.95-5.99-1.9-6.17.13-12.35-.03-18.53.08-1.95.04-2.54-.49-2.48-2.51.49-17.87,1.64-35.7,3.19-53.5.51-5.94.91-5.11-4.41-3.57-1.81.53-3.56,1.27-5.34,1.93-1.04.38-1.57,1.06-1.55,2.26.02,1.27.84,1.35,1.76,1.54,1.76.36,2.41,1.66,2.41,3.31.02,6.99.02,13.98,0,20.97,0,2.03-.98,3.19-3.07,3.24-1.19.03-2.39.02-3.59,0-1.93-.03-3.01-1.02-3.02-2.95-.04-7.19-.58-14.44.2-21.54.35-3.21,2.41-6.7,5.34-9.06,3.07-2.47,6.47-4.34,10.24-5.4,1.7-.48,2.66-1.19,2.51-3.03ZM83.77,154.01c.47.02.95.04,1.42.05,2.1.26,4.21.27,6.31-.06,2.15-.22,4.77,1.47,6.33-.7.73-1.01-4.24-4.36-6.82-4.53-1.88-2.06-4.07-1.45-6.27-.74-.3.06-.6.11-.9.17-2.27-.15-3.96.97-5.44,2.52-1.4.26-1.98,1.48-2.8,2.41-.46.52-.78,1.24-.05,1.79.77.58,1.21-.17,1.69-.62,2.18-.1,4.36-.19,6.54-.29Z"/><path class="cls-13" d="M36.05,167.95c-.03,8.26,1.38,16.46,1.21,24.73-.07,3.49.01,6.98-1.25,10.32-.99,2.63-2.48,4.76-5.41,5.46-.15-.11-.31-.17-.49-.18-.05-4.8-.44-9.6.11-14.4,2.18-2.02,2.71-4.81,3.69-7.39-2.21,1.25-2.26,3.9-3.92,5.47-.03-6.96-.07-13.93-.1-20.89.09-2.25.35-4.51-.33-7.55-1.15,3.03-.73,5.32-.6,7.6-.23,2.63-1.16,5.68-.8,7.76.93,5.41.24,10.72.53,16.05-.42.27-.67,1.45-1.35.15-.66-1.27-1.03-2.71-2.12-3.74-.1-.08-.2-.15-.3-.23l.23.29c-.09,2.35,1.09,4.19,2.42,5.96,1.92,3.5,1.06,7.24.99,10.92-4-.46-5.06-3.68-6.3-6.73-1.33-12.68.84-25.22,1.58-37.81.47-4.54.99-9.07,1.95-13.54.14-.68.29-1.36.51-2.02.56-1.71,1.06-3.61,3.35-3.59,2.12.02,2.72,1.79,3.19,3.41,1.46,5.08,2,10.31,2.58,15.54.16,1.47.43,2.94.65,4.4Z"/><path class="cls-10" d="M260.51,218.99c11.03-1.38,15.97-6.95,15.9-18.11-.02-3.38-.29-6.75-.45-10.13,3.26-.55,5.97-2.46,8.98-3.64,1.74-.68,3.34-1.71,5.29-1.7-.04,11.64-.08,23.28-.12,34.92-.81-.1-1.3-1.12-2.25-.78-.84-.03-1.7-.1-2.4.51-.54-.09-1.02-.03-1.28.55-1.32.58-2.51,1.66-3.6,2.19-2.58,1.27-2.57,3.56-3.51,5.5-5.49.02-10.98.04-16.46.07-.03-3.13-.06-6.25-.09-9.38Z"/><path class="cls-15" d="M108.37,162.46c.09-.91-.32-1.67-.67-2.46,1.68-2.92.82-6.36,1.9-9.4,1,.24,1.76.85,2.43,1.59,0,.94-.36,1.96.64,2.65-.18.67-.48,1.34-.51,2.02-.05.99-1.35,2.22-.03,2.92,1.09.57,2.58.46,3.78-.01,1.19-.47.75-2.18,1.79-2.9,1.51,3.54,1.6,3.58,5.76,2.73.07-.05.2-.12.19-.16-.03-.15-.1-.29-.15-.43-.64-1.8-1.28-3.6-1.92-5.4.64-.69,1.27-1.37,1.91-2.06,1.02-.15,1.98-.46,2.8-1.13.2.05.4.11.59.16,1.16,1.51,2.71,2.79,3.04,4.83-.19.67-.53,1.34-.54,2.02,0,.78-1.24,2.07.66,2.27,1.13.12,2.36.13,2.25-1.54-.08-1.17,1.12-1.62,1.27-2.62,1.69-1.36,3.34-2.85,5.75-1.58.82,1,.88,2.13.47,3.29-.9,2.58.44,3.03,2.61,2.9.91-.06,1.71-.29,2.49-.68.91.43,2.01.82,2.72.03.76-.85-.09-1.85-.47-2.69-.97-2.14-2.23-4.1-4.02-5.66.02-.18,0-.35-.06-.52.59-.44.45-1.1.52-1.69,2.41-.09,4.82-.18,7.23-.27l1.29.03c.54.08,1.09.16,1.63.25-.3,1.36-.59,2.71-.89,4.07-.11,1.39.68,1.63,1.85,1.59,1.69-.05,2.91-.83,3.82-2.2.66-1.16,1.67-2.15,1.83-3.57,1.29.33,1.33,1.8,2.25,2.47.14.55.28,1.1.43,1.65-.08.59-.07,1.21-.25,1.76-.96,2.98.08,4.41,3.58,4.88,1.2.21,2.4.41,3.61.62,1.86.77,3.7,1.19,5.46-.25.36-.22.73-.42,1.14-.11,1.78,1.55,3.6,1.33,5.44.13,1.26-1.07,1.69-3.02,3.58-3.41.22-.09.45-.17.67-.26,2.99,1.4,1.32-1.22,1.75-2.03.19-.06.38-.1.58-.14.43.65,1.06.7,1.74.58.85.63,1.7,1.26,2.55,1.89.5,2.15,1.24,3.98,4.05,3.13,3.01.71,6.06.13,9.08.29.66-.08,1.31-.17,1.97-.25.93-.08,1.85-.15,2.78-.23.22-.03.43-.06.65-.09,2.14.04,4.28.09,6.42.13.65.02,1.31.05,1.96.07.41,1.49.97,2.97-1.6,2.96-15.87-.07-31.75-.08-47.62-.12-.28-.39-.66-.55-.91-.07-.23.45.14.7.57.81.14.16.28.33.42.49,0,.62-.02,1.23-.03,1.85-2.49-2.7-5.6-3.07-9.13-3.03-13.42.17-26.85.06-40.27.05-1.28,0-2.59-.16-3.7.72-.66-.23-1.31-.47-1.97-.7-2.39-.05-4.77-.09-7.16-.14Z"/><path class="cls-15" d="M216.68,97.13c3.49.8,6.68,2.24,9.54,4.4.1.8.59,1.08,1.34,1.01,1.94,1.27,2.82,3.15,3.97,5.17,4.82,8.42,1.14,17.33,2.2,25.91.19,1.53-1.01,2.56-2.67,2.62-1.29.05-2.59.04-3.88,0-1.92-.06-2.94-1.07-2.94-3.01-.03-7.09-.06-14.18-.06-21.26,0-2.14.96-3.42,3.3-3.22,1.4.56,1.04-.42.98-1.13,0-.34,0-.69,0-1.03.15-1.99-1.19-2.06-2.6-2.03-.46-.18-.93-.36-1.39-.54-1.37-1.21-2.93-1.83-4.78-1.56-.4-.1-.8-.21-1.2-.31-2.18-1.1-1.93-3.09-1.81-5.02Z"/><path class="cls-1" d="M142.73,194.92c10.07,0,20.14,0,30.21,0,.8,0,1.6-.03,2.39.08.82.11,1.63.49,1.7,1.42.08,1.09-.74,1.6-1.67,1.77-.78.15-1.58.15-2.38.15-20.04,0-40.09.02-60.13-.01-1.68,0-4.4.57-4.4-1.74,0-2.41,2.74-1.62,4.37-1.63,9.97-.07,19.94-.03,29.91-.04Z"/><path class="cls-1" d="M143.1,189.62c9.86,0,19.71,0,29.57,0,.8,0,1.6-.03,2.39.04.96.08,1.84.5,1.91,1.53.08,1.13-.89,1.47-1.8,1.61-.78.13-1.58.14-2.38.14-19.91,0-39.82,0-59.74-.03-.99,0-1.99-.06-2.97-.18-.92-.11-1.91-.44-1.82-1.57.08-1.06,1.08-1.36,1.98-1.48.78-.1,1.59-.06,2.39-.06,10.16,0,20.31,0,30.47,0h0Z"/><path class="cls-4" d="M80.64,198.53c-2.68,0-5.36.05-8.04-.01-3.05-.07-4.9-1.76-4.95-4.39-.06-3.02,1.8-5.06,4.96-5.1,5.56-.08,11.12-.08,16.68.01,3.04.05,4.8,2,4.76,4.9-.04,2.72-1.8,4.48-4.77,4.57-2.88.08-5.76.02-8.64.02ZM89.29,190.8c-1.91.27-2.86,1.57-2.87,3.24,0,1.51,1.2,2.54,2.71,2.6,1.86.07,3.01-1.05,2.96-2.92-.05-1.67-1.23-2.58-2.81-2.92ZM72.83,196.67c1.68-.35,2.69-1.35,2.54-3.11-.14-1.74-1.27-2.76-2.99-2.68-1.8.09-2.68,1.46-2.62,3.06.07,1.72,1.4,2.51,3.07,2.73ZM78.37,193.77c.02,1.61.64,2.93,2.5,2.9,1.68-.03,2.77-1.19,2.84-2.82.07-1.68-1.05-2.84-2.68-2.96-1.8-.14-2.6,1.08-2.66,2.88Z"/><path class="cls-4" d="M203.84,198.52c-2.68,0-5.36.06-8.04-.02-2.81-.08-4.62-1.73-4.84-4.27-.23-2.71,1.34-4.97,4.26-5.09,6.05-.24,12.11-.22,18.16-.02,2.5.08,4.01,2.45,3.89,5.16-.12,2.68-1.83,3.99-4.21,4.16-3.06.23-6.15.05-9.23.05h0ZM214.9,194.06c.01-1.9-.66-3.18-2.49-3.17-1.59,0-2.81.73-2.91,2.63-.11,1.98.91,3.01,2.72,3.13,1.82.12,2.6-1.07,2.69-2.6ZM204.27,196.78c1.54-.4,2.62-1.48,2.53-3.11-.09-1.57-1.05-2.85-2.87-2.82-1.88.03-2.6,1.46-2.63,3.01-.04,1.73,1.22,2.56,2.98,2.92ZM196.04,190.85c-1.66.24-2.95,1.08-3.02,2.77-.07,1.86,1.25,2.96,3.02,2.97,1.57.01,2.53-1.11,2.6-2.7.08-1.76-.95-2.72-2.61-3.04Z"/><path class="cls-1" d="M216.68,97.13c-.13,1.94-.38,3.92,1.81,5.02-2.15-.5-1.87.88-1.76,2.22.7,8.55,1.51,17.1,2.03,25.67.6,9.85,1.23,19.71,1.01,29.59-.65-.02-1.31-.05-1.96-.07.04-.5.12-.99.12-1.49-.03-14.48-1.05-28.92-2.1-43.36-.31-4.25-.42-8.56-1.51-12.73.18-2.22-.38-4.36-.66-6.53l.05-1.13c.59-.04,1.18-.09,1.77-.13.49.94.23,2.2,1.21,2.94Z"/><path class="cls-9" d="M115.52,162.6c.66.23,1.31.47,1.97.7-1.46,2.28-4.69,3.03-5.28,6.11-.04.2-.86.34-1.31.34-4.07,0-8.15-.05-12.22-.09.04-.35.07-.71.11-1.06,6.52,2.24,12.23.19,16.74-6Z"/><path class="cls-1" d="M177.15,169.69c-.81.15-1.61.19-2.39-.15-.37-.58-.88-.95-1.59-.98-.49-.66-.97-1.33-1.46-2,.05-.58.1-1.16.14-1.74,1.77,1.48,3.53,2.95,5.3,4.43,0,.15,0,.3,0,.44Z"/><path class="cls-1" d="M96.48,169.17c-.89-1.02-1.79-2.05-2.68-3.07.07-.56.14-1.12.2-1.67,1.23.69,2.21,1.65,3.06,2.76-.07.83-.05,1.64.35,2.4l-.16.1s-.18-.04-.18-.04c-.2-.16-.4-.31-.59-.47Z"/><path class="cls-1" d="M219.69,102.47c1.85-.27,3.41.35,4.78,1.56-1.59-.52-3.19-1.04-4.78-1.56Z"/><path class="cls-1" d="M225.86,104.57c1.41-.03,2.75.04,2.6,2.03-.5-1.16-1.81-1.26-2.6-2.03Z"/><path class="cls-14" d="M94,164.42c-.07.56-.14,1.12-.2,1.67-.21,0-.33-.1-.37-.3-.28-.24-.56-.48-.84-.72-.24-.21-.48-.42-.72-.63.15-.26.3-.52.44-.77.26-.03.52-.06.78-.09.3.28.6.56.91.84Z"/><path class="cls-9" d="M177.15,169.69c0-.15,0-.3,0-.44h3.24c-1.37.78-2.31.56-3.24.44Z"/><path class="cls-9" d="M173.17,168.55c.71.04,1.22.4,1.59.98-.66-.12-1.87.66-1.59-.98Z"/><path class="cls-1" d="M98.79,168.6c-.04.35-.07.7-.11,1.06-.37-.02-.73-.05-1.1-.08,0-.66,0-1.32,0-1.98.4.33.81.66,1.21,1Z"/><path class="cls-1" d="M227.57,102.55c-.76.07-1.25-.21-1.34-1.01.62.11,1.08.43,1.34,1.01Z"/><path class="cls-1" d="M228.47,107.63c.06.71.41,1.69-.98,1.13.33-.38.66-.75.98-1.13Z"/><path class="cls-1" d="M170.21,163.21c-.43-.11-.8-.36-.57-.81.25-.48.63-.31.91.07-.12.24-.23.49-.35.73Z"/><path class="cls-1" d="M170.6,165.55c0-.62.02-1.23.03-1.85.2.18.4.37.61.55-.01.61-.02,1.23-.03,1.84-.2-.18-.4-.36-.6-.54Z"/><path class="cls-15" d="M171.2,166.09c.01-.61.02-1.23.03-1.84.21.19.42.38.63.57-.05.58-.1,1.16-.14,1.74-.17-.16-.34-.31-.51-.47Z"/><path class="cls-14" d="M97.58,167.6c0,.66,0,1.32,0,1.98,0,0-.17,0-.17,0-.4-.76-.42-1.57-.35-2.4.17.14.35.28.52.42Z"/><path class="cls-1" d="M92.6,165.07c.28.24.56.48.84.72-.28-.24-.56-.48-.84-.72Z"/><path class="cls-10" d="M242.91,191.37c-.09.29-.17.58-.26.88.09-.29.17-.58.26-.88Z"/><path class="cls-9" d="M96.48,169.17c.2.16.4.31.59.47-.44.16-.71.09-.59-.47Z"/><path class="cls-2" d="M212.04,229.77c.37-.03.73-.06,1.1-.09.83.03,1.69.21,2.45-.32.32,0,.64.01.95.02,1.1.56,2.21.49,3.32.03,2.72-.08,5.44-.17,8.16-.25,2.02.06,4.03.12,6.05.18,8.12.76,16.25.56,24.37.1.68-.06,1.35-.12,2.03-.18,5.5.66,11.01.17,16.52.28,1.03.23,2.07.52,3.05-.17l.18.04.15-.11.14-.07c3.25.09,6.5.29,9.74-.11,0,3.42-.01,6.85-.02,10.27-1.65-.27-3.17-1.59-4.85-1.11-2.2.64-4.36,1.07-6.65,1.07-14.39-.02-28.78-.02-43.16.01-1.13,0-2.41-.48-3.35.64-4.44-1.33-8.89-2.64-13.32-3.99-.39-.12-1.05-.28-.51-.98,2.18-.01,4.36-.02,6.54-.03,1.9.1,3.82.4,5.67-.47-1.83-.86-3.75-.53-5.64-.49-2.2.02-4.39.04-6.59.06-1.37-.03-2.74-.42-4.11.03-.83-.05-1.66-.1-2.48-.14-.26-.42-.52-.83-.77-1.25.35-1,.7-1.99,1.04-2.99Z"/><path class="cls-12" d="M232.22,240.02c.94-1.12,2.22-.64,3.35-.64,14.39-.03,28.78-.04,43.16-.01,2.29,0,4.45-.43,6.65-1.07,1.68-.49,3.2.83,4.85,1.11-.01,3.4-.03,6.79-.04,10.19-8.21-.02-16.41-.04-24.62-.05-.78,0-1.6-.15-2.22.53-10.48-3.02-20.9-6.23-31.12-10.06Z"/><path class="cls-6" d="M232.22,240.02c10.22,3.83,20.64,7.04,31.12,10.06,8.93,3.04,17.87,6.08,26.8,9.12.23,4.03.25,3.97-3.41,2.66-23.11-8.29-46.24-16.55-69.35-24.85-1.29-.46-2.73-.6-3.79-1.6.48-.29.72-.7.66-1.27,1.37-.46,2.74-.06,4.11-.03.01.31.02.63.03.94-.54.69.11.86.51.98,4.44,1.35,8.88,2.67,13.32,3.99Z"/><path class="cls-4" d="M290.14,259.2c-8.93-3.04-17.87-6.08-26.8-9.12.62-.68,1.45-.53,2.22-.53,8.21.01,16.41.03,24.62.05-.01,3.2-.03,6.4-.04,9.61Z"/><path class="cls-12" d="M145.43,259.5c.31,2.13-.31,3.29-2.81,3.32-2.54.04-3.31-.96-3.18-3.36.11-2.05.24-3.83,2.89-3.9,2.76-.07,3.32,1.62,3.1,3.94Z"/><path class="cls-7" d="M287.86,219.55c.96-.34,1.45.68,2.25.78.01,2.57.02,5.15.04,7.72-.97-.5-1.93-1.01-2.9-1.51.28-2.32.86-4.62.61-6.99Z"/><path class="cls-10" d="M142.38,248.93c-1.41.04-2.39-.47-2.23-2.06.14-1.32.79-2.17,2.33-2.14,1.61.02,2.43.64,2.35,2.32-.08,1.63-1.12,1.94-2.46,1.88Z"/><path class="cls-14" d="M287.25,226.54c.97.5,1.93,1.01,2.9,1.51.03.36.06.72.1,1.09-3.24.39-6.49.19-9.74.11.05-.22.09-.45.14-.67,1.32-.85,3.14-.46,4.29-1.72.32.04.63.08.95.12.46-.14.91-.28,1.37-.42Z"/><path class="cls-10" d="M144.19,241.26c-.08,1.21-.76,1.66-1.79,1.63-1.05-.04-1.84-.59-1.56-1.68.24-.94.11-2.45,1.7-2.37,1.52.08,1.14,1.62,1.65,2.42Z"/><path class="cls-9" d="M28.56,208.29c.08-3.68.93-7.42-.99-10.92,1.7-.21,1.14-1.44,1.11-2.44-.3-5.33.4-10.64-.53-16.05-.36-2.08.57-5.13.8-7.76.31-.02.62-.03.93-.05.03,6.96.07,13.93.1,20.89.08.64.15,1.28.23,1.92-.55,4.8-.16,9.6-.11,14.4-.01,1.36-.02,2.72-.03,4.08,0,.4,0,.8,0,1.2,0,4.61,0,9.22,0,13.82-.23.47-.45.94-.68,1.41-.22-.07-.44-.14-.67-.22-.05-6.76-.1-13.53-.16-20.29Z"/><path class="cls-7" d="M29.39,228.79c.23-.47.45-.94.68-1.41.27-.07.54-.13.81-.2.7.05,1.4.11,2.09.16,1.49-.18,2.23-1.31,3-2.39h0c1,0,2,0,3,0v.02c-.21,1.39-.43,2.77-.64,4.16-.2.4-.4.8-.6,1.2-.44.28-.57.71-.59,1.21-.07.09-.15.19-.22.28.1-.07.19-.14.29-.22.21-.39.42-.78.63-1.18.2-.4.4-.8.6-1.2,1.04-.51,1.14-1.5,1.28-2.47,1.2.45,1.94-1.14,3.16-.83-.15,1.26-.28,2.39-.41,3.52-1.37,1.23-1.58,3.13-2.6,4.56-5.28.86-10.59.28-15.89.39-.37-.47-1.14-.62-1.1-1.4.97-.02,1.94-.05,2.9-.06,3.58-.05,3.97-.5,3.64-4.12Z"/><path class="cls-1" d="M23.95,234.38c5.3-.1,10.61.47,15.89-.39,1.11.45,2.21.43,3.32,0l.61-.05c1.23.71,2.13.64,2.36-1.02.54.27.68,1.16,1.51.99,2.5.11,4.99.23,7.49.34,0,.32-.02.65-.02.97-10.8.02-21.59.05-32.39.07.19-.6.75-.73,1.24-.93Z"/><path class="cls-6" d="M23.95,234.38c-.49.2-1.05.33-1.24.93-3.17.89-6.33.1-9.81.26.68-1.12,1.43-.87,2.03-.88,2.75-.08,5.53,0,7.92-1.71-.03.79.74.93,1.1,1.4Z"/><path class="cls-12" d="M108.84,221.77c.68-.08,1.37-.23,2.05-.23,20.99-.02,41.98-.03,62.97-.04.49,0,.99.08,1.48.13.03,2.29.06,4.59.09,6.88h-14.82c0,.21-.02.42-.03.63,5.03.99,10.07,1.99,15.1,2.98.21.02.42.04.63.06-.01.36-.02.72-.03,1.08-.92.02-1.89-.22-2.66.55-.42-.04-.84-.08-1.26-.11-5.88-2.82-12.33-4.55-18.56-4.85-10.53-.51-21.21-1.4-31.72.89-.63-.81-1.54-.42-2.33-.56-3.53-1.32-7.19-.25-10.77-.6-.05-2.26-.09-4.53-.14-6.79Z"/><path class="cls-2" d="M122.07,229.72c10.51-2.29,21.19-1.4,31.72-.89,6.24.3,12.69,2.03,18.56,4.85-10.76.07-21.52.17-32.28.18-10.56.01-21.13-.07-31.69-.11.24-1.37,1.48-1.12,2.33-1.34,3.77-.96,7.57-1.81,11.36-2.7Z"/><path class="cls-12" d="M47.75,223.12c3.14.01,6.28-.04,9.42.06,2.32.07,3.12-1.03,2.57-3.13-.29-1.09-.03-2.16-.13-3.16-.46-4.23,1.93-4.41,4.99-3.93.39,5.52.38,5.55,6.33,7.29.9.26.96.81,1.09,1.5.43,2.26.52,4.53.41,6.82-8.33,0-16.67.01-25,.02-.01-1.83-1.24-3.73.33-5.47Z"/><path class="cls-3" d="M142.43,211.81c3.28,0,6.56.04,9.84-.02,2.11-.04,2.74,1.03,2.76,2.97.02,1.91-.26,3.46-2.59,3.47-6.66.02-13.32.03-19.98-.03-2.4-.02-2.44-1.8-2.44-3.61,0-1.78.57-2.85,2.57-2.82,3.28.06,6.56.02,9.84.02v.02Z"/><path class="cls-3" d="M47.42,228.58c8.33,0,16.67-.01,25-.02.54,1.76,1.08,3.52,1.76,5.7h-19.06c-2.5-.11-4.99-.23-7.49-.34-.35-1.77-.42-3.55-.22-5.34Z"/><path class="cls-8" d="M122.07,229.72c-3.79.89-7.59,1.74-11.36,2.7-.85.22-2.09-.03-2.33,1.34-.43-4.02-.95-8.04.45-12,.05,2.26.09,4.53.14,6.79-.44,2.04.4,2.79,2.39,2.38,2.79-.59,5.59-1.18,8.38-1.78.79.15,1.7-.25,2.33.56Z"/><path class="cls-10" d="M203.06,212.47c-1.6-.1-2.67-.85-2.74-2.53-.07-1.71,1.02-2.61,2.57-2.69,1.72-.09,2.92.85,2.9,2.66-.02,1.65-1.13,2.43-2.73,2.56Z"/><path class="cls-10" d="M81.89,207.19c1.55.18,2.68.91,2.73,2.59.05,1.67-.93,2.62-2.59,2.64-1.62.02-2.71-.85-2.77-2.5-.06-1.68,1.05-2.47,2.63-2.73Z"/><path class="cls-6" d="M194.87,223.74v10.03c-.3,0-.6-.01-.9-.02-1.01-3.94,1.45-7.82.9-10.01Z"/><path class="cls-8" d="M175.42,228.51c-.03-2.29-.06-4.59-.09-6.88,1.07-.02.94.82.94,1.45.04,3.03.03,6.06.03,9.09-.21-.02-.42-.04-.63-.06-.6-1.17-.24-2.4-.25-3.61Z"/><path class="cls-9" d="M89.9,227.21c-.85-2.26-.74-3.78-.45-5.79,1.33,1.88,1.12,3.41.45,5.79Z"/><path class="cls-6" d="M210.99,232.76c.26.42.52.83.77,1.25-.52.4-1.08.38-1.36-.19-.2-.41.14-.84.59-1.06Z"/><path class="cls-8" d="M173.62,233.8c.77-.77,1.74-.53,2.66-.55-.68,1.16-1.72.63-2.66.55Z"/><path class="cls-9" d="M260.47,229.27c-.68.06-1.35.12-2.03.18-.02-.51-.05-1.02-.07-1.53.03-2.98.06-5.96.09-8.94.05-7.85.08-15.7.17-23.55.01-1.24-.31-2.33-.79-3.42.25-.39.49-.78.74-1.17.74-4.76.01-9.53.12-14.29.19-8.88.76-17.76.19-26.64.46.05.92.09,1.37.14.04.66-.1,1.39.66,1.78-.04.17-.05.34-.05.51-.56.87-.67,1.84-.67,2.85.04,8.74.06,17.49.09,26.23,0,.78-.15,1.62.66,2.16l-.03-.03c-1.35,7.97-.31,16-.57,24,.08,1.25.16,2.5.24,3.75-.05.93-.11,1.86-.16,2.8.05.26.1.52.15.79-.02,1.37-.04,2.74-.06,4.11.03,3.13.06,6.25.09,9.38-.04.3-.08.6-.13.9Z"/><path class="cls-11" d="M260.26,150.05c-.46-.05-.91-.09-1.37-.14-1.1-4.38-1.44-8.86-1.75-13.36,1.54,2.9,1.53,6.15,2.37,9.8,1.26-3.47,1.09-6.73,2.09-9.75-.18,4.52-.04,9.05-1.34,13.45Z"/><path class="cls-11" d="M260.59,211.3c-.08-1.25-.16-2.5-.24-3.75,1.45-1.02.98-3.14,2.39-4.19h0c.43,1.95-.84,3.57-1.37,6.26,2.02-1.85,3.45-3.16,4.89-4.47.19.21.38.43.58.64-1.83,2.09-3.31,4.52-6.23,5.51Z"/><path class="cls-11" d="M258.58,190.84c-.25.39-.49.78-.74,1.17-3.25-3.83-3.91-8.65-5.39-13.16.25-.1.5-.2.75-.3,1.17,3.13,2.35,6.25,3.51,9.38.41,1.11.7,2.29,1.87,2.92Z"/><path class="cls-9" d="M264.51,177.56c-.24,1.72-.55,3.4-2.4,4.19,0,0,.04.03.04.03.49-1.57,1.03-3.12,2.4-4.19l-.03-.03Z"/><path class="cls-11" d="M263.27,149.33c.25-1.24,1.04-2.03,2.29-2.72.23,1.84-.72,2.53-2.16,2.85l-.13-.13Z"/><path class="cls-11" d="M256.11,213.61c-1.1-.09-1.65-.75-1.83-1.78l.21-.18c1.03.2,1.61.82,1.71,1.87,0,0-.09.09-.09.09Z"/><path class="cls-11" d="M254.27,211.83c-.92-.52-1.22-1.36-1.21-2.37,0,0,.17-.18.17-.18.91.53,1.19,1.39,1.24,2.37,0,0-.21.18-.21.18Z"/><path class="cls-11" d="M251.88,207.64c-.58-.13-1.08-.36-1.01-1.08.01-.13.23-.35.31-.33.68.15.74.74.84,1.29l-.14.12Z"/><path class="cls-11" d="M252.02,207.51c.71.38,1.1.98,1.21,1.77,0,0-.17.17-.17.18-1.03-.19-1.16-.98-1.18-1.83,0,0,.14-.12.14-.12Z"/><path class="cls-9" d="M260.95,183.59c.07-.82.45-1.43,1.2-1.8,0,0-.03-.03-.04-.03.08.92-.01,1.72-1.19,1.8,0,0,.03.03.03.03Z"/><path class="cls-11" d="M255.57,175.75c.45.08.93.13.91.76,0,.07-.12.18-.19.19-.63.04-.7-.42-.78-.88,0,0,.06-.07.06-.07Z"/><path class="cls-11" d="M260.57,214.88c-.05-.26-.1-.52-.15-.79.36.01.73.02,1.09.03,0,0,.06.06.06.06-.33.23-.66.46-1,.7Z"/><path class="cls-11" d="M260.87,152.34c0-.17,0-.34.05-.51.19-.23.38-.46.57-.69l.09.09c-.02.51-.17.93-.71,1.11Z"/><path class="cls-9" d="M264.54,177.59c-.01-.51.07-.96.6-1.2,0,0-.04-.03-.04-.03.02.51.01,1-.6,1.2,0,0,.03.03.03.03Z"/><path class="cls-9" d="M265.71,175.17c0,.5.02,1.01-.6,1.2,0,0,.04.03.04.03-.02-.51.1-.95.6-1.2l-.04-.03Z"/><path class="cls-11" d="M254.37,175.16c.5,0,.94.12,1.21.58,0,0-.06.06-.06.07-.49-.03-.93-.15-1.17-.63l.02-.02Z"/><path class="cls-9" d="M265.75,175.2c0-.5.08-.96.59-1.2l-.04-.04c.01.51.01,1.01-.6,1.21,0,0,.04.03.04.03Z"/><path class="cls-9" d="M267.37,172.2c-.03.08-.06.15-.09.23-.07-.1-.14-.21-.2-.32,0,0,.11-.08.17-.12.04.07.08.14.12.21Z"/><path class="cls-11" d="M262.08,150.54c.2-.2.4-.4.61-.6,0,0,.1.1.1.1-.2.2-.4.41-.6.61,0,0-.11-.11-.11-.11Z"/><path class="cls-11" d="M262.71,212.94c.1-.08.2-.16.29-.23-.08.09-.16.19-.24.28,0,0-.05-.05-.05-.05Z"/><path class="cls-11" d="M262.76,212.99c-.2.2-.4.4-.59.61,0,0-.06-.06-.06-.06.2-.2.4-.4.6-.6,0,0,.05.05.05.05Z"/><path class="cls-11" d="M253.75,174.58c-.09-.05-.17-.09-.26-.14.09.04.18.08.27.13,0,0-.01.01-.01.01Z"/><path class="cls-11" d="M254.34,175.19c-.2-.2-.4-.4-.59-.6,0,0,.01-.01.01-.01.2.2.4.4.6.59,0,0-.02.02-.02.02Z"/><path class="cls-11" d="M261.49,151.14c.2-.2.39-.4.59-.6,0,0,.1.1.11.11-.2.2-.4.39-.6.58,0,0-.09-.09-.09-.09Z"/><path class="cls-11" d="M262.73,203.37c.04-.08.09-.17.13-.25-.05.08-.09.17-.14.25,0,0,0,0,0,0Z"/><path class="cls-11" d="M256.78,214.13c.08.1.16.2.24.31-.1-.08-.2-.16-.3-.24l.07-.07Z"/><path class="cls-9" d="M266.34,174c.03-.09.04-.19.09-.27.03-.04.12-.04.18-.06-.1.1-.2.19-.31.29,0,0,.04.04.04.04Z"/><path class="cls-11" d="M262.16,213.6c-.2.2-.4.39-.59.59,0,0-.06-.05-.06-.05.2-.2.4-.4.59-.6,0,0,.06.06.06.06Z"/><path class="cls-11" d="M256.71,214.19c-.2-.19-.4-.39-.6-.58,0,0,.09-.09.09-.09.19.2.39.4.58.61,0,0-.07.07-.07.07Z"/><path class="cls-11" d="M263.4,149.46c-.2.19-.41.38-.61.58,0,0-.1-.1-.1-.1.19-.2.39-.4.58-.61,0,0,.13.13.13.13Z"/><path class="cls-15" d="M142.15,89.44c-15.55,0-31.09,0-46.64,0-3.44,0-4.93-1.24-4.95-4.1-.02-2.82,1.53-4.17,4.93-4.17,31.39-.01,62.78-.02,94.17-.02,3.35,0,4.78,1.33,4.75,4.3-.03,2.8-1.39,3.97-4.73,3.97-15.84,0-31.69,0-47.53,0Z"/><path class="cls-9" d="M213.7,94.32c-.02.38-.03.75-.05,1.13-26.41-.01-52.82-.04-79.24-.04-21.03,0-42.06.05-63.09.08.16-.39.32-.78.48-1.17,11.85-.04,23.69-.11,35.54-.12,34.56-.02,69.12-.01,103.68-.01.89,0,1.79.08,2.68.13Z"/><path class="cls-13" d="M47.42,228.58c-.2,1.79-.13,3.57.22,5.34-.83.17-.97-.72-1.51-.99-1.28-1.28.01-3.25-1.4-5.06-.3,2.35-1.13,4.11-.95,6.07-.2.02-.41.03-.61.05-.9-1.42-.51-3.04-.71-4.56.13-1.13.27-2.26.41-3.52-1.22-.31-1.96,1.28-3.16.83-.16-.63.06-1.41-.73-1.78,0,0-.01-.02-.01-.02-1-2.1-2-1.21-3,0,0,0,0,0,0,0-1.68-.05-2.68.73-3,2.39-.7-.05-1.4-.11-2.09-.16.76-3.52,4.29-5.12,5.64-8.23,2.21-2.8,4.43-5.6,6.64-8.39.16,0,.31,0,.47,0,1.52,1.44,3.26,2.38,5.41,2.38.34,3.49.32,6.93-1.29,10.17-1.57,1.73-.34,3.64-.33,5.47Z"/><path class="cls-7" d="M43.63,210.57c-.16,0-.31,0-.47,0-.01-.5-.02-.99-.03-1.48,1.34-.14,1.81-.97,1.78-2.23-.03-1.47-.02-2.95-.02-4.42.05-.09.07-.23.14-.25,1.89-.65,7.1,1.25,8.34,3.03-.58-.11-1.17-.17-1.74-.32-2.33-.6.03,2.52-1.82,2.28.1.84.95.32,1.29.71-.28.19-.56.38-.84.57-.16.11-.31.21-.47.32-.32.99.2,2.11-.47,3.05-1.95-.2-3.47-2.33-5.7-1.24Z"/><path class="cls-12" d="M36.52,218.96c-1.36,3.1-4.89,4.71-5.64,8.23-.27.06-.54.13-.81.2,0-4.61,0-9.22,0-13.82,2.28.25,1.75,2.24,1.9,3.51.31,2.71,1.35,3.34,3.67,1.95.23-.14.59-.04.88-.06Z"/><path class="cls-14" d="M44.89,202.42c0,1.47,0,2.95.02,4.42.03,1.26-.44,2.09-1.78,2.23-1.56-3.05-.95-5.35,1.76-6.65Z"/><path class="cls-1" d="M43.63,210.57c2.23-1.1,3.75,1.04,5.7,1.24-.1.38-.19.76-.29,1.15-2.15,0-3.89-.94-5.41-2.38Z"/><path class="cls-9" d="M51.11,207.86c-.35-.39-1.19.13-1.29-.71,1.85.24-.51-2.89,1.82-2.28.57.15,1.16.22,1.74.32.02.18,0,.35-.05.51-.15.28-.31.56-.46.84-.44.63-.99,1.13-1.76,1.32Z"/><path class="cls-12" d="M30.08,212.36c.01-1.36.02-2.72.03-4.08.18.01.34.07.49.18,0,.59.06,1.14.63,1.5.67.43,1.36.96.92,1.84-.42.84-1.35.47-2.07.56Z"/><path class="cls-7" d="M52.87,206.55c.15-.28.31-.56.46-.84-.15.28-.31.56-.46.84Z"/><path class="cls-12" d="M49.8,208.75c.16-.11.31-.21.47-.32-.12.16-.28.26-.47.32Z"/><path class="cls-13" d="M235.98,221.16c1.41.28,2.44.93,3.24,2.27,1.28,2.14,3.68,3.06,5.63,4.47-.04.18-.05.35-.05.53-3.81.43-7.56-.78-11.37-.49-.06-.14-.1-.29-.13-.44-.09-2.54,1.34-4.42,2.68-6.35Z"/><path class="cls-13" d="M221.41,224.3c-.89-1.23-.29-1.52.91-1.96,1.88-.68,3.98-.44,5.72-1.56-.71,2.2-.64,4.45-.48,6.71-1.44.13-2.88.27-4.32.4.16-1.6-.84-2.59-1.84-3.59Z"/><path class="cls-8" d="M244.8,228.44c0-.18,0-.36.05-.53,4.51,0,9.02.01,13.53.02.02.51.05,1.02.07,1.53-8.13.46-16.25.66-24.38-.1,0,0-.24-.09-.24-.09l.03-.26c3.65-.02,7.37,1.05,10.94-.56Z"/><path class="cls-7" d="M221.41,224.3c1,1,2,2,1.84,3.59-1.23.39-2.46.79-3.69,1.18-1.01.1-2.01.21-3.02.31-.32,0-.64-.01-.95-.02-.83-.09-1.65-.18-2.48-.27-.01-1.47,1.26-1.21,2.09-1.61,2.09-1.02,4.14-2.12,6.21-3.19Z"/><path class="cls-13" d="M232.34,219.97c.78.18,1.67,0,2.33.65-1.02,2.23-2.04,4.47-3.06,6.7-.19.05-.38.04-.57-.03-1.08-2.71.83-4.89,1.3-7.33Z"/><path class="cls-13" d="M229.17,220.29c.58-.36,1.15-.76,1.89-.67-.41,2.54-1.63,4.95-1.27,7.62-.38.01-.76.02-1.13.04-.38-2.37.4-4.66.52-6.99Z"/><path class="cls-11" d="M229.17,220.29c-.12,2.33-.9,4.62-.52,6.99-.18.08-.36.16-.53.24-.18-.03-.37-.04-.55-.04-.17-2.26-.24-4.51.48-6.71.28-.38.65-.56,1.12-.48Z"/><path class="cls-11" d="M231.61,227.33c1.02-2.23,2.04-4.47,3.06-6.7.52-.02.99.08,1.31.53-1.35,1.92-2.78,3.81-2.68,6.35-.56-.06-1.13-.12-1.69-.18Z"/><path class="cls-11" d="M229.79,227.25c-.36-2.67.87-5.08,1.27-7.62.5-.15.94-.1,1.28.35-.47,2.44-2.37,4.61-1.3,7.33-.42-.02-.84-.03-1.26-.05Z"/><path class="cls-8" d="M213.11,229.1c.83.09,1.65.18,2.48.27-.76.53-1.62.34-2.45.32-.03-.19-.04-.39-.02-.59Z"/><path class="cls-4" d="M71.32,95.49c21.03-.03,42.06-.07,63.09-.08,26.41,0,52.82.02,79.24.04.28,2.17.84,4.31.66,6.53-.8.02-1.6.1-2.39.04-2.16-.16-3.16.39-2.53,2.9.52,2.1.54,4.34.68,6.52.61,9.34,1.28,18.67,1.71,28.01.19,4.17.51,8.37-.16,12.55-.5-.11-1-.22-1.5-.32-.13-.21-.27-.42-.41-.62-.39-2.29-2.66-2.76-4-4.12,3.06-4.49,2.62-7.6-1.58-11.24.03-10.86-.46-21.7-1.2-32.53-.31-4.55-.3-4.7-4.81-4.7-36.14,0-72.28,0-108.42,0-1.59,0-3.19-.07-4.78.06-1.8.14-2.84,1.01-2.88,3.06-.11,4.98-.39,9.95-.6,14.92-1,1.84-1.95,3.67,1.18,4.4-1.39,1.34-1.96,2.91-1.77,4.9.17,1.83,0,3.69-.02,5.54-3.97,1.97-6.51,4.93-6.72,9.57-.01.29-.48.56-.74.84-.09-.59-.3-1.19-.24-1.76,1.13-10.77.99-21.63,2.23-32.4.64-5.55.47-5.57-4.69-5.59.22-2.17.43-4.34.65-6.52Z"/><path class="cls-3" d="M70.68,102.01c5.17.02,5.33.04,4.69,5.59-1.24,10.77-1.1,21.63-2.23,32.4-.06.57.16,1.17.24,1.76-.06.72-.12,1.44-.18,2.16-.03.23-.07.47-.1.7-.34,1.86-.55,3.76-1.79,5.31-.91,1.59-.31,3.2-.07,4.81-1.32.8-2.87,1.23-4.11,3.18-.3-8.53.23-16.33.71-24.12.6-9.73,1.49-19.45,2.28-29.18.07-.88.36-1.74.55-2.61Z"/><path class="cls-7" d="M98.71,150.59c-1.91-2.29-4.57-3.44-7.11-4.78.01-2.58,0-5.17.05-7.75.01-.68.04-1.86.32-1.94,2.75-.8,1.93-3.01,2.07-4.85,3.39,1.27,6.85,2.52,7.62,6.7.67,3.61,1.04,7.27.81,10.95-1.46.09-3.1-.23-3.75,1.67ZM94.81,140.12c-.83,2.97,2.66,4.26,1.93,6.07-.39-1.87,2.45-3.76,1.77-6.82-1.17,1.03-1.77,3.99-3.7.75Z"/><path class="cls-7" d="M73.2,143.92c.06-.72.12-1.44.18-2.16.26-.28.73-.55.74-.84.21-4.64,2.74-7.61,6.72-9.57.48,0,.96,0,1.43,0,1.28.08,1.56.9,1.54,2-.02,1.17.05,2.33.07,3.5-.04,2.96-.08,5.92-.12,8.88-1.51.5-3.03,1.01-4.54,1.51-1.01-1.09-1.01-2.53-1.3-3.86-.11-.53.18-1.01.77-1.05.59-.04.84.34.88.93.03.53-.68,1.08.05,1.58,1.8-2.42,1.72-2.85-.71-3.31-.93-.17-.94-.8-1.07-1.51-.14-.76.47-1.79-.66-2.3-.95,3.56-.29,7.04.11,10.53-.22.2-.44.41-.66.61-2.06-1.06-3.43,1.32-5.33,1.06,1.25-1.55,1.46-3.45,1.79-5.31.07-.06.21-.13.21-.19,0-.17-.07-.34-.11-.52ZM82.81,135.3c-.17-.09-.33-.24-.48-.24-.15,0-.3.15-.45.24.15.09.3.24.45.24.15,0,.31-.14.48-.24Z"/><path class="cls-3" d="M97.58,167.6c-.17-.14-.35-.28-.52-.42-.85-1.11-1.83-2.07-3.06-2.76-.3-.28-.6-.56-.91-.84-.1-.33-.19-.65-.29-.98,5.19-.05,10.38-.09,15.56-.14,2.39.05,4.77.09,7.16.14-4.5,6.19-10.21,8.24-16.74,6-.4-.33-.81-.66-1.21-1Z"/><path class="cls-3" d="M90.82,145.67c-2.07,0-4.14.02-6.2.02-.03-2.96-.07-5.91-.1-8.87.12-1.84.25-3.67.37-5.51,2.02.04,4.03.07,6.05.11-.04,4.75-.08,9.5-.12,14.24Z"/><path class="cls-11" d="M109.6,150.6c-1.08,3.04-.22,6.48-1.9,9.4-1.87,0-2.53-.8-2.4-2.76.08-1.22,1.09-3.06-1.12-3.71.16-.42.32-.85.48-1.27,1.44-2.63.08-5.47.59-8.17.41,0,.81,0,1.22,0,0,1.31-.05,2.66,1.93,2.3.38.19.77.37,1.15.56l.05,3.65Z"/><path class="cls-3" d="M84.73,148.03c2.2-.71,4.39-1.32,6.27.74-.06,1.76-.46,3.56.5,5.23-2.1.33-4.2.32-6.31.06-.15-2.01-.31-4.02-.46-6.03Z"/><path class="cls-7" d="M78.39,150.72c1.49-1.55,3.17-2.67,5.44-2.52-.02,1.94-.04,3.87-.06,5.81-2.18.1-4.36.19-6.54.29.39-1.19.77-2.39,1.16-3.58Z"/><path class="cls-7" d="M91.5,154c-.96-1.67-.55-3.47-.5-5.23,2.58.18,7.55,3.52,6.82,4.53-1.56,2.17-4.18.48-6.33.7Z"/><path class="cls-11" d="M90.82,145.67c.04-4.75.08-9.5.12-14.24.32-.83-1.2-1.66.01-2.49.96.7,1.89,1.44,3.18,1.37-.03.32-.06.64-.1.95-.13,1.84.68,4.05-2.07,4.85-.27.08-.3,1.27-.32,1.94-.05,2.58-.04,5.17-.05,7.75-.26-.05-.52-.09-.78-.14Z"/><path class="cls-10" d="M104.66,152.26c-.16.42-.32.85-.48,1.27-1.78,1.26-3.3,1.72-4.14-1.04-.21-.7-.88-1.27-1.33-1.9.66-1.9,2.3-1.57,3.75-1.67.73,1.11,1.47,2.23,2.2,3.34Z"/><path class="cls-11" d="M77.3,148.26c-.4-3.49-1.07-6.97-.11-10.53,1.13.51.52,1.54.66,2.3.13.71.14,1.34,1.07,1.51,2.44.46,2.52.89.71,3.31-.73-.5-.02-1.06-.05-1.58-.03-.59-.28-.98-.88-.93-.59.04-.89.53-.77,1.05.29,1.33.3,2.77,1.3,3.86-.51.59-1.15.94-1.93,1.02Z"/><path class="cls-12" d="M71.31,149.93c1.9.25,3.27-2.13,5.33-1.06-1.16,1.66-2.79,3-3.48,4.99-.35,1-1.16.86-1.92.88-.24-1.61-.84-3.22.07-4.81Z"/><path class="cls-8" d="M78.39,150.72c-.39,1.19-.77,2.38-1.16,3.58-.48.45-.92,1.2-1.69.62-.73-.54-.41-1.27.05-1.79.82-.93,1.4-2.15,2.8-2.41Z"/><path class="cls-11" d="M83.77,154.01c.02-1.94.04-3.87.06-5.81.3-.06.6-.11.9-.17.15,2.01.31,4.02.46,6.03-.47-.02-.95-.04-1.42-.05Z"/><path class="cls-9" d="M84.52,136.82c.03,2.96.07,5.91.1,8.87-.28.01-.57.02-.85.03.04-2.96.08-5.92.12-8.88.21,0,.42-.02.63-.03Z"/><path class="cls-9" d="M92.8,162.59c.1.33.19.65.29.98-.26.03-.52.06-.78.09-.05-.46-.14-.92.49-1.07Z"/><path class="cls-11" d="M30.22,193.88c-.08-.64-.15-1.28-.23-1.92,1.67-1.57,1.72-4.22,3.92-5.47-.99,2.58-1.51,5.38-3.69,7.39Z"/><path class="cls-11" d="M29.89,171.07c-.31.02-.62.03-.93.05-.13-2.28-.55-4.57.6-7.6.69,3.04.42,5.3.33,7.55Z"/><path class="cls-11" d="M28.69,194.93c.03,1,.59,2.23-1.11,2.44-1.33-1.77-2.51-3.61-2.42-5.96l.07-.07c1.08,1.03,1.45,2.47,2.11,3.74.68,1.3.93.12,1.35-.15Z"/><path class="cls-11" d="M25.16,191.4l-.23-.29c.1.08.2.15.3.23,0,0-.07.07-.07.07Z"/><path class="cls-7" d="M284.94,226.85c-1.15,1.27-2.97.87-4.29,1.72-.29.17-.44.4-.28.74l-.15.11s-.18-.04-.18-.04c-.96-.11-1.92-.21-2.87-.32-.03-.25-.07-.5-.1-.76.95-1.94.93-4.23,3.51-5.5,1.09-.54,2.28-1.62,3.6-2.19,1.18,1.96.42,4.17.76,6.23Z"/><path class="cls-11" d="M277.07,228.31c.03.25.07.5.1.76-.1.15-.16.31-.17.49-5.51-.12-11.02.38-16.52-.28.04-.3.08-.6.13-.9,5.49-.02,10.98-.04,16.46-.07Z"/><path class="cls-13" d="M287.25,226.54c-.46.14-.91.28-1.36.42-.14-2.3-.29-4.6-.43-6.9.71-.61,1.56-.54,2.4-.51.25,2.37-.33,4.66-.61,6.99Z"/><path class="cls-11" d="M285.46,220.06c.14,2.3.29,4.6.43,6.9-.32-.04-.63-.08-.95-.11-.34-2.07.42-4.27-.76-6.23.25-.59.73-.64,1.28-.56Z"/><path class="cls-3" d="M82.27,131.34c-.48,0-.96,0-1.43,0,.02-1.85.19-3.71.02-5.54-.18-1.98.39-3.55,1.77-4.9,2.24.34,4.85-.85,6.56,1.63,2.19,2.19,3.05.86,3.58-1.36-.05-3.63-3.85-6.33-6.91-5.24-1.45.52-2.92.48-4.4.57.21-4.97.49-9.95.6-14.92.04-2.05,1.08-2.92,2.88-3.06,1.58-.12,3.18-.06,4.78-.06,36.14,0,72.28,0,108.42,0,4.5,0,4.5.15,4.81,4.7.74,10.83,1.23,21.67,1.2,32.53-4.86-1.29-6.64-.18-7.45,4.65-1.2,1.79-3.31.84-5.07,1.62,1.73,2.53,1.25,5.13.44,7.71-.53,1.69-1.17,3.35-1.76,5.02-.69.12-1.31.07-1.74-.58-.3-4.32-.59-8.63-.89-12.95-.05-.54-.1-1.08-.16-1.63,0,0,0-.07,0-.07-.06-1.85-.12-3.71-.17-5.56,1.6,1,1.41,3.24,2.9,4.52.31-1.34.09-2.41-.17-3.48-1.04-4.28-3.93-7.74-5.25-11.9-.7-3.75-2.36-5.79-4.84-5.95-2.55-.16-5.19,1.95-6.2,5.13-.45,1.41-.69,2.9-.92,4.37-.31,1.95-.36,3.91-3.13,4.15-1.19.11-1.93,1.34-2.15,2.61-.26,1.57-.47,3.15-.7,4.72-.53-.1-1.05-.19-1.58-.29-.6-2.3-1.24-4.59-1.78-6.9-1.53-6.49-6.63-9.2-12.09-11.54-.05-1.01.36-2.09-.5-2.95-1.54-.63-2.78,1.03-4.3.57-1.98-1.75-3.15-1.26-3.59,1.29-.94.29-1.62.9-2.14,1.71-4.24,2.33-9.23,3.75-10.98,9.09-1.64-1.53-4.16-1.72-5.49-3.71.39-1,.39-2.06-.49-2.68-.91-.63-1.12.75-1.79.96-1.13-.01-2.26-.02-3.4-.03-.37-.37-.71-1.18-1.24-.84-1.12.7-1.61,1.82-1.35,3.19-.04.19-.06.38-.07.58-4.3,1.09-6.28,4.14-7.23,8.25-.32,1.39-.27,3.46-2.73,3.14-.04-2.08-.12-4.15-.12-6.23,0-2.13-1.33-3.59-3.08-3.68-3.92-.19-7.88-.55-11.79.28-.33-.75.26-1.77-.65-2.4-1.86,1.29-3.69,2.56-5.51,3.83-1.41-.28-2.2.46-2.72,1.65ZM118.82,113.8c1.06,1.18,1.88,2.48,3.33,2.7,2.01.31,2.69,2.05,3.25,3.39.35.84.32,1.61,1.37,1.67,1.06.07,1.95-.4,2.55-1.28.59-.86,1.04-2,.19-2.73-1.66-1.43-2.28-3.45-3.39-5.18-1.14-1.79-2.86-2.68-5.03-2.66-3.35.04-7.37,3.82-7.56,7.21-.12,2.06.95,3.13,3.19,3.31-.58-2.49.77-4.33,2.11-6.43ZM142.72,111.34c1.33-1.55-.85-5.05,3.09-4.83,2.67.14,5.86-.75,5.78,3.97,2.24-3.85,2.15-5.61-.72-7.74-2.2-1.63-4.46-1.35-6.68.52-3.37,2.85-3.66,3.73-1.47,8.08Z"/><path class="cls-8" d="M106.15,137.88c2.45.32,2.41-1.75,2.73-3.14.94-4.1,2.92-7.16,7.23-8.25.61.48,1.17,1.05,1.83,1.43,2.29,1.34,4.89.11,5.38-2.5.38-.03.75-.07,1.13-.1,1.33,1.99,3.85,2.18,5.49,3.71.79,2.74.71,5.81,3.08,7.93.01.97-.51,2.04.49,2.84-1.08,3.38-.01,6.49,1.19,9.58.21.43.41.86.62,1.29,2.28,1.83,4.73,1.2,7.18.47,0,0-.05.03-.05.03.22-.02.44-.04.66-.06,1.8,1.56,3.06,3.52,4.02,5.66.38.84,1.23,1.84.47,2.69-.71.79-1.8.4-2.71-.02-2.01-1.69-2.8-4.61-5.57-5.51-2.41-1.28-4.06.22-5.75,1.58-1.15-1.95-2.44.35-3.64-.12-.33-2.04-1.87-3.31-3.04-4.83.76-1.1,1.66-2.13,1.9-3.51,1.12-.86,1.68-1.82.58-3.1-1.41-.82-2.2-1.77-1.94-3.69.35-2.55-.05-5.19.28-7.79-1.72,2.67-1.15,5.67-1.41,8.56-.22,2.38.63,3.31,2.94,3.02-.21.94-.43,1.89-.64,2.83-1.42.26-1.27,2.01-2.41,2.54-.52-.85-1.6-1.31-1.69-2.46-.73-1.81-.99-4.17-2.31-5.32-2.36-2.06-1.98-4.31-1.68-6.77.52.46.39,1.09.42,1.67.06,1.12.87,1.5,1.75,1.75.63.18,1.22-.09,1.53-.65.52-.95.16-1.81-.68-2.31-.67-.4-.7-1.1-1.06-1.57-1.53-2.02-2.98-4.42-6.15-3.76-2.33.49-3.16,2.18-3.25,4.38-.39.03-.79.07-1.18.1h-.03v-3c-.1-.01-.2-.03-.3-.04-.24,1-.49,1.99-.73,2.99.66,1.92,2.02,1.87,3.57,1.26-.04.59-.08,1.18-.12,1.77q-2.99,1.9-1.04,3.01c-1.13,1.83-2.25,3.66-3.38,5.48-1.49-2.1-.37-4.78-1.54-7.73-.88,3.23-.72,5.69.1,8.14-1.98.36-1.93-.99-1.93-2.3.1-1.66.38-3.34-.52-4.9l.2-1.31Z"/><path class="cls-3" d="M211.62,152c.67-4.17.35-8.38.16-12.55-.43-9.34-1.1-18.68-1.71-28.01-.14-2.18-.16-4.42-.68-6.52-.62-2.51.37-3.06,2.53-2.9.79.06,1.59-.02,2.39-.04,1.09,4.17,1.2,8.48,1.51,12.73,1.06,14.43,2.07,28.87,2.1,43.36,0,.5-.08.99-.12,1.49-2.14-.04-4.28-.09-6.42-.13.04-.12.03-.24-.01-.35.03-.39.06-.78.09-1.18,1.1-1.94.26-3.93.16-5.9Z"/><path class="cls-7" d="M151.44,119.33c5.46,2.34,10.56,5.05,12.09,11.54.55,2.31,1.19,4.6,1.78,6.9-.05,2.5-.1,4.99-.15,7.49-.07.04-.19.11-.19.12.06.12.13.23.2.34-.25,2.14.08,4.54-2.59,5.54-.92-.67-.96-2.14-2.25-2.47-2.25-2.47-4.44-1.46-6.62.11-.54-.08-1.09-.16-1.64-.25-1.01-6.51-.46-13.07-.62-19.61-.02-.87.21-1.82-.62-2.49-.06-1.3-.12-2.59-.18-3.89.03-.17.06-.33.1-.49,1.07-.75.4-1.92.67-2.86ZM163.58,145.02c-1.56-1.62-3.21-.64-4.32-.69v-14.86c-2.05,5.78-.59,11.21-1.9,17.17,2.21-2,4.2-1.25,6.21-1.62Z"/><path class="cls-13" d="M150.67,122.68c.06,1.3.12,2.59.18,3.89-.02,7.36-.04,14.71-.05,22.06-2.41.09-4.82.18-7.23.27-.51-.57-.76-1.44-.09-1.75,1.79-.84,1.17-2.46,1.49-3.77.64-.05,1.47.11,1.57-.8.12-1.07-.63-1.48-1.57-1.59.09-1.72-1.21-2.84-1.81-4.27.84-.93.39-2.07.49-3.12.36-3.84-1.14-7.61-.4-11.46,2.36,1.84,4.84,1.97,7.43.54Z"/><path class="cls-3" d="M114.26,137.48c.04-.59.08-1.18.12-1.77.86-.5,1.94-.81,2.53-1.53,1.75-2.13,2.78-1.57,3.59.69-.3,2.46-.68,4.71,1.68,6.77,1.31,1.15,1.57,3.51,2.31,5.32-1.62-.03-3.38-.24-2.96,2.33-1.18.41-2.36.83-3.53,1.24-.04-2.46-.09-4.92-.12-7.38,0-.79.16-1.64-1.02-1.71-.14-.06-.27-.12-.41-.18.07.13.14.25.21.38.35,2.97-.42,5.99.48,8.93.09.17.14.34.13.53-1.47.21-2.48,1.83-4.18,1.36-.36-.1-.72-.19-1.08-.29-.67-.74-1.44-1.35-2.43-1.59-.02-1.22-.03-2.44-.05-3.65.1-.32.2-.65.29-.97,1.13-1.83,2.25-3.66,3.38-5.48,1.31-.67,2.41-1.41,1.04-3.01Z"/><path class="cls-3" d="M144.96,143.38c-.32,1.32.3,2.93-1.49,3.77-.67.31-.42,1.18.09,1.75-.08.6.06,1.26-.52,1.69-.2.19-.4.39-.6.58,0,0,.05-.03.05-.03-2.33-1.07-4.78-.47-7.18-.47-.21-.43-.41-.86-.62-1.29.72-3.6.56-7.33,1.67-10.87.43.03.85.06,1.28.09,2.09,1.05.71,3.3,1.81,5.34.22-2.43-.21-4.54,1.53-5.96,1.02-.09,1.42-.81,1.68-1.67.17.14.34.28.5.41.6,1.43,1.9,2.55,1.81,4.27,0,.8,0,1.59,0,2.39Z"/><path class="cls-8" d="M176.55,159.82c-.41-.31-.78-.11-1.14.11-1.7-.6-3.68.54-5.26-.83.42-.62.84-1.24,1.26-1.86.64-.39.95-1.01,1.18-1.69.58-.25.95-.68,1.07-1.31.23-.37.46-.73.69-1.1.16-.24.32-.47.47-.71.59-.44.58-1.11.68-1.74.75-.42,1.49-.84,2.24-1.26,1.54-.04,3.07-.08,4.61-.12.71,1.71.8,3.74,2.58,4.88h0c.21.79.43,1.57.64,2.35-1.9.4-2.33,2.34-3.58,3.41-1.81-.04-3.63-.09-5.44-.13ZM176.67,159.28c1.28-1.85,2.2-3.12,3.05-4.43.37-.57.24-1.16-.43-1.48-.27-.13-.69-.13-.69.25.04,1.89-2,2.94-1.93,5.66Z"/><path class="cls-13" d="M187.34,133.9c.06,1.85.12,3.71.17,5.56,0,0,0,.07,0,.07.05.54.1,1.08.16,1.63-.48,4.38-.72,8.75.31,13.09-.43.81,1.24,3.43-1.75,2.03-.03-.95-.26-1.77-1.31-2.08,0,0,0,0,0,0-1.29-5.31-1.85-10.64-1.28-16.13.2-1.97,1.15-4.42-1.07-6.1-.21-.19-.42-.38-.63-.56.03-.24.07-.48.1-.73,2.65-.39,4.08,1.25,5.29,3.23Z"/><path class="cls-10" d="M207.95,159.75c-.66.08-1.31.17-1.97.25-.06-1.23,0-2.54-1.63-2.87-1.18-2.09.01-4.34-.44-6.48.41-3.5-2.15-1.33-3.35-1.76-.15-.42-.29-.84-.44-1.27-.67-1.41-1.33-2.82-2-4.24.82-1.67-.05-5.15,3.96-3.24,3.26,1.55,3.67,1.95,2.91,5.87-.05.26.15.56.23.84-.42.82-.79,1.57.51,2.02,1.11.38,2.09,1.01,2.43,2.26-2.44,3.27-2.48,5.01-.22,8.61Z"/><path class="cls-8" d="M113.11,152.47c1.69.48,2.71-1.14,4.18-1.36-.39,4.01,2.6,2.11,4.3,2.47.64,1.8,1.28,3.6,1.92,5.4-.08.19-.1.39-.04.59-4.17.85-4.25.81-5.76-2.73-1.04.72-.6,2.44-1.79,2.9-1.2.47-2.7.59-3.78.01-1.32-.7-.01-1.92.03-2.92.03-.68.33-1.34.51-2.02.71-.68,1.09-1.43.43-2.36Z"/><path class="cls-4" d="M190.31,154.69c.59-1.67,1.22-3.33,1.76-5.02.82-2.58,1.3-5.18-.44-7.71,1.76-.78,3.87.16,5.07-1.62.22,1,.13,2.08.77,2.96-.87,1.88.93,3.02,1.25,4.57-2.84,2.31-4.18,5.62-5.86,8.71l-2.55-1.89Z"/><path class="cls-7" d="M204.36,157.13c1.63.34,1.57,1.64,1.63,2.87-3.03-.16-6.07.43-9.08-.29.29-.98-.65-2.61.57-2.92,2.22-.55,1.69-2.1,1.75-3.47.08-1.61.3-3.14,1.34-4.44,1.2.43,3.76-1.75,3.35,1.76-1.68,2.49-1.48,5.48.44,6.48Z"/><path class="cls-3" d="M200.57,148.89c-1.04,1.3-1.26,2.83-1.34,4.44-.07,1.37.47,2.92-1.75,3.47-1.22.3-.28,1.93-.57,2.92-2.81.85-3.55-.99-4.05-3.13,1.68-3.09,3.02-6.4,5.86-8.71.47-.08.94-.16,1.42-.24.15.42.29.84.44,1.27Z"/><path class="cls-7" d="M207.95,159.75c-2.26-3.6-2.22-5.34.22-8.61.53.17,1.07.69,1.55-.09.13.21.27.42.4.63.91,1.98-.11,4.37,1.34,6.22-.03.39-.06.78-.09,1.18-.21.15-.42.29-.64.44-.93.08-1.85.15-2.78.23Z"/><path class="cls-10" d="M153.72,148.92c2.18-1.57,4.37-2.57,6.62-.11-.16,1.42-1.16,2.41-1.83,3.57-1.92-.03-3.72.97-5.67.6.3-1.36.59-2.71.89-4.07Z"/><path class="cls-5" d="M171.41,157.24c-.42.62-.84,1.24-1.26,1.86-.07.36-.13.72-.2,1.08-1.2-.21-2.4-.41-3.61-.62-.22-2.21.68-4.43-.11-6.63.07-.98.15-1.95.22-2.93.68,0,1.37,0,2.05,0-.1.99-.1,2.01-.31,2.98-.45,2.11.62,2.62,2.42,2.46.19.19.38.37.56.56l.14-.09c.03.45.06.89.09,1.34Z"/><path class="cls-6" d="M166.45,150c-.07.98-.15,1.95-.22,2.93-1.07,0-2.14,0-3.22-.01-.14-.55-.28-1.1-.43-1.65,2.67-1,2.34-3.41,2.59-5.54,0-.15,0-.31-.01-.46.05-2.5.1-4.99.15-7.49.53.1,1.05.19,1.58.29.01.77.02,1.55.04,2.32-.67,2.77-.44,5.58-.44,8.38l-.04,1.23Z"/><path class="cls-11" d="M163.01,152.92c1.07,0,2.14,0,3.22.01.79,2.2-.11,4.43.11,6.63-3.5-.47-4.54-1.9-3.58-4.88.18-.56.17-1.17.25-1.76Z"/><path class="cls-11" d="M139.31,153.93c2.77.91,3.56,3.83,5.57,5.51-.79.39-1.59.62-2.49.68-2.17.13-3.51-.32-2.61-2.9.41-1.17.35-2.29-.47-3.29Z"/><path class="cls-6" d="M121.58,153.59c-1.69-.37-4.69,1.54-4.3-2.47,0-.19-.04-.37-.13-.53.28-.01.56-.02.84-.04,1.18-.41,2.36-.83,3.53-1.24.34,1.02.75,1.97,1.96,2.23-.64.69-1.27,1.37-1.91,2.06Z"/><path class="cls-10" d="M123.49,151.53c-1.21-.25-1.62-1.21-1.96-2.23-.42-2.57,1.33-2.37,2.96-2.33.09,1.14,1.17,1.61,1.69,2.45.04.33.07.65.11.98-.82.67-1.78.98-2.8,1.13Z"/><path class="cls-11" d="M150.79,148.64c.02-7.35.04-14.71.05-22.06.83.68.59,1.62.62,2.49.16,6.54-.38,13.1.62,19.61-.43-.01-.86-.02-1.29-.03Z"/><path class="cls-11" d="M129.92,155.39c1.2.48,2.49-1.82,3.64.12-.15,1-1.35,1.45-1.27,2.62.11,1.67-1.12,1.66-2.25,1.54-1.9-.2-.66-1.49-.66-2.27,0-.67.34-1.34.54-2.02Z"/><path class="cls-11" d="M187.99,154.25c-1.03-4.34-.79-8.71-.31-13.09.3,4.32.59,8.63.89,12.95-.19.04-.39.08-.58.14Z"/><path class="cls-4" d="M152.83,152.98c1.95.36,3.76-.64,5.67-.6-.91,1.36-2.13,2.15-3.82,2.2-1.17.04-1.96-.21-1.85-1.59Z"/><path class="cls-1" d="M169.95,160.18c.07-.36.13-.72.2-1.08,1.58,1.37,3.56.23,5.26.83-1.76,1.44-3.6,1.02-5.46.25Z"/><path class="cls-1" d="M176.55,159.82c1.81.04,3.63.09,5.44.13-1.84,1.2-3.66,1.42-5.44-.13Z"/><path class="cls-6" d="M126.29,150.4c-.04-.33-.07-.65-.11-.98,1.14-.53.99-2.28,2.41-2.54,0,0,.2.16.2.16-.24,1.39-1.15,2.41-1.9,3.51-.2-.05-.4-.11-.59-.16Z"/><path class="cls-14" d="M113.11,152.47c.66.93.28,1.68-.43,2.36-1-.69-.65-1.71-.64-2.65.36.1.72.19,1.08.29Z"/><path class="cls-11" d="M184.93,154.2c1.05.31,1.28,1.13,1.31,2.08-.22.09-.45.17-.67.26-.21-.78-.43-1.56-.64-2.34Z"/><path class="cls-11" d="M142.43,151.18c.2-.19.4-.39.6-.58.06.17.08.34.06.52-.22.02-.44.04-.66.06Z"/><path class="cls-1" d="M123.46,159.58c-.06-.2-.04-.4.04-.59.05.14.13.28.15.43,0,.04-.12.1-.19.16Z"/><path class="cls-4" d="M210.74,159.52c.21-.15.42-.29.64-.44.04.12.05.24.01.36-.22.03-.43.06-.65.09Z"/><path class="cls-3" d="M89.29,190.8c1.58.35,2.76,1.25,2.81,2.92.05,1.86-1.1,2.99-2.96,2.92-1.51-.06-2.72-1.09-2.71-2.6,0-1.67.96-2.97,2.87-3.24Z"/><path class="cls-3" d="M72.83,196.67c-1.67-.22-3.01-1.02-3.07-2.73-.06-1.6.82-2.97,2.62-3.06,1.73-.08,2.85.94,2.99,2.68.14,1.76-.86,2.77-2.54,3.11Z"/><path class="cls-3" d="M78.37,193.77c.06-1.81.86-3.02,2.66-2.88,1.63.12,2.75,1.29,2.68,2.96-.07,1.63-1.16,2.79-2.84,2.82-1.86.03-2.48-1.28-2.5-2.9Z"/><path class="cls-3" d="M214.9,194.06c-.09,1.53-.87,2.72-2.69,2.6-1.8-.12-2.83-1.15-2.72-3.13.11-1.9,1.33-2.63,2.91-2.63,1.83,0,2.5,1.27,2.49,3.17Z"/><path class="cls-3" d="M204.27,196.78c-1.75-.35-3.02-1.19-2.98-2.92.03-1.55.75-2.98,2.63-3.01,1.82-.03,2.78,1.25,2.87,2.82.09,1.63-.99,2.7-2.53,3.11Z"/><path class="cls-3" d="M196.04,190.85c1.66.33,2.69,1.28,2.61,3.04-.07,1.59-1.03,2.71-2.6,2.7-1.77-.01-3.09-1.11-3.02-2.97.06-1.69,1.36-2.53,3.02-2.77Z"/><path class="cls-9" d="M227.57,227.49c.18,0,.37,0,.55.04-.03.55-.06,1.1-.1,1.65-2.72.08-5.44.17-8.16.25-.03-.18-.13-.29-.3-.35,1.23-.39,2.46-.79,3.69-1.18,1.44-.14,2.88-.27,4.32-.41Z"/><path class="cls-5" d="M228.02,229.17c.03-.55.06-1.1.1-1.65.18-.08.36-.16.53-.24.38-.01.76-.02,1.13-.04.42.02.84.03,1.26.05.19.07.37.08.57.03.56.06,1.13.12,1.69.18.03.15.08.3.13.44.14.35.29.7.43,1.05l-.03.26s.24.09.24.09c-2.02-.06-4.03-.12-6.05-.18Z"/><path class="cls-4" d="M218.39,235.05c0-.31-.02-.63-.03-.94,2.2-.02,4.39-.04,6.59-.06,0,.32-.02.64-.02.97-2.18.01-4.36.02-6.54.03Z"/><path class="cls-10" d="M224.93,235.02c0-.32.02-.64.02-.97,1.89-.04,3.81-.37,5.64.49-1.85.87-3.77.58-5.67.47Z"/><path class="cls-8" d="M277,229.55c.02-.18.08-.34.17-.49.96.1,1.92.21,2.87.32-.98.69-2.02.41-3.05.17Z"/><path class="cls-8" d="M219.56,229.07c.17.05.27.17.3.35-1.11.46-2.22.52-3.32-.03,1.01-.1,2.01-.21,3.02-.31Z"/><path class="cls-8" d="M280.37,229.31c-.16-.34-.02-.57.28-.74-.05.22-.09.45-.14.67,0,0-.14.07-.14.07Z"/><path class="cls-3" d="M42.44,229.43c.21,1.53-.19,3.15.71,4.56-1.11.43-2.21.45-3.32,0,1.02-1.43,1.23-3.33,2.6-4.56Z"/><path class="cls-11" d="M32.97,227.34c.31-1.66,1.32-2.45,3-2.39-.77,1.09-1.5,2.22-3,2.39Z"/><path class="cls-11" d="M38.97,224.96c.79.37.57,1.15.73,1.78-.13.98-.24,1.97-1.28,2.47l-.11-.09c.22-1.39.44-2.77.66-4.16Z"/><path class="cls-11" d="M35.96,224.95c1-1.22,1.99-2.11,3,0-1,0-2,0-3,0Z"/><path class="cls-11" d="M38.42,229.21c-.2.4-.4.8-.6,1.2,0,0-.11-.1-.11-.1.2-.4.4-.8.6-1.2,0,0,.11.09.11.09Z"/><path class="cls-11" d="M37.12,231.52c.01-.49.14-.92.59-1.21,0,0,.11.09.11.1-.21.39-.42.78-.63,1.18,0,0-.07-.07-.07-.07Z"/><path class="cls-11" d="M37.19,231.59c-.1.07-.19.14-.29.22.07-.09.15-.19.22-.28,0,0,.07.07.07.07Z"/><path class="cls-4" d="M43.77,233.95c-.17-1.96.65-3.72.95-6.07,1.42,1.81.13,3.78,1.4,5.06-.22,1.65-1.12,1.72-2.36,1.02Z"/><path class="cls-3" d="M175.42,228.51c.02,1.21-.35,2.44.25,3.61-5.03-.99-10.07-1.99-15.1-2.98,0-.21.02-.42.03-.63h14.82Z"/><path class="cls-3" d="M119.74,229.16c-2.79.59-5.59,1.19-8.38,1.78-1.99.42-2.82-.34-2.39-2.38,3.58.35,7.24-.71,10.77.6Z"/><path class="cls-11" d="M233.86,229c-.14-.35-.29-.7-.43-1.05,3.81-.29,7.55.92,11.37.49-3.57,1.62-7.28.55-10.94.56Z"/><path class="cls-1" d="M197.46,143.3c-.64-.89-.54-1.97-.77-2.96.81-4.82,2.59-5.94,7.45-4.65,4.2,3.65,4.64,6.75,1.58,11.24-.16-.1-.32-.12-.49-.07-.08-.28-.28-.58-.23-.84.76-3.92.35-4.32-2.91-5.87-4.01-1.91-3.14,1.57-3.96,3.24-.22-.03-.44-.06-.67-.09Z"/><path class="cls-14" d="M81.45,116.51c1.48-.09,2.95-.06,4.4-.57,3.06-1.09,6.87,1.62,6.91,5.24-1.3.16-2.62.29-3.58,1.36-1.7-2.48-4.32-1.29-6.56-1.63-3.13-.73-2.18-2.55-1.18-4.4Z"/><path class="cls-11" d="M205.23,146.86c.17-.05.33-.03.49.07,1.34,1.37,3.61,1.83,4,4.12-.47.78-1.02.26-1.55.09-.35-1.25-1.32-1.88-2.43-2.26-1.3-.45-.93-1.2-.51-2.02Z"/><path class="cls-11" d="M211.46,157.9c-1.45-1.86-.43-4.25-1.34-6.22.5.11,1,.21,1.5.32.1,1.97.94,3.96-.16,5.9Z"/><path class="cls-4" d="M73.2,143.92c.04.17.1.34.11.52,0,.06-.14.12-.21.19.03-.23.07-.47.1-.7Z"/><path class="cls-14" d="M104.66,152.26c-.73-1.12-1.47-2.23-2.2-3.34.23-3.69-.14-7.34-.81-10.95-.77-4.18-4.23-5.44-7.62-6.7.03-.32.06-.64.1-.95,1.58-.03,3.16-.09,4.74-.07,3.7.04,4.83,1.14,5.26,4.91.15,1.37.46,2.72.69,4.07,0,.71-.1,1.44.45,2.02-.56.43-.46.86,0,1.29,0,.52-.02,1.04-.03,1.55-.51,2.7.85,5.54-.59,8.17Z"/><path class="cls-11" d="M94.81,140.12c1.94,3.23,2.54.28,3.7-.75.68,3.07-2.16,4.95-1.77,6.82.73-1.81-2.76-3.1-1.93-6.07Z"/><path class="cls-11" d="M82.27,131.34c.52-1.2,1.31-1.93,2.72-1.65-.04.54-.07,1.08-.11,1.62-.12,1.84-.25,3.67-.37,5.51-.21,0-.42.02-.63.03-.03-1.17-.09-2.33-.07-3.5.02-1.11-.26-1.93-1.54-2Z"/><path class="cls-11" d="M82.81,135.3c-.17.09-.33.24-.48.24-.15,0-.3-.15-.45-.24.15-.08.3-.24.45-.24.15,0,.31.15.48.24Z"/><path class="cls-12" d="M84.89,131.31c.04-.54.07-1.08.11-1.62,1.83-1.27,3.66-2.54,5.51-3.83.91.63.32,1.64.65,2.4-.07.22-.14.45-.2.68-1.21.82.31,1.66-.01,2.49-2.02-.04-4.03-.07-6.05-.11Z"/><path class="cls-6" d="M109.84,145.97c-.1.32-.2.65-.29.97-.38-.19-.77-.37-1.15-.56-.82-2.45-.98-4.91-.1-8.14,1.18,2.95.05,5.62,1.54,7.73Z"/><path class="cls-6" d="M105.25,144.09c0-.52.02-1.04.03-1.55,0-.43,0-.86,0-1.29-.56-.58-.46-1.31-.45-2.02.38-.01.75-.02,1.13-.03.9,1.56.61,3.24.52,4.9-.41,0-.81,0-1.22,0Z"/><path class="cls-7" d="M105.95,139.19c-.38.01-.75.02-1.13.03-.24-1.36-.54-2.71-.69-4.08-.43-3.78-1.56-4.88-5.26-4.91-1.58-.02-3.16.05-4.74.07-1.29.07-2.22-.67-3.18-1.37.07-.23.14-.45.2-.68,3.91-.83,7.87-.48,11.79-.28,1.75.09,3.09,1.54,3.08,3.68,0,2.08.08,4.15.12,6.23-.07.44-.13.87-.2,1.31Z"/><path class="cls-14" d="M166.93,140.39c-.01-.77-.02-1.55-.04-2.32.23-1.57.43-3.15.7-4.72.21-1.27.95-2.5,2.15-2.61,2.77-.25,2.82-2.2,3.13-4.15.24-1.47.48-2.95.92-4.37,1.01-3.18,3.64-5.29,6.2-5.13,2.48.16,4.14,2.2,4.84,5.95-.35.38-.71.75-1.06,1.13-1.82.3-2.13-1.42-3.05-2.32-.37-.36-.37-1.13-1.25-.85-4.4,1.4-5.47,4.55-2.79,8.47.29.43.59.76.4,1.29-3.38-.24-4.31,2.14-5.04,4.73-.11-1.4-.69-1.28-1.31-.34-1.05,1.6-1.1,3.54-1.62,5.32-.73-.03-1.45-.06-2.18-.09Z"/><path class="cls-14" d="M118.82,113.8c-1.33,2.1-2.69,3.94-2.11,6.43-2.23-.18-3.3-1.26-3.19-3.31.19-3.39,4.22-7.17,7.56-7.21,2.17-.02,3.89.86,5.03,2.66,1.11,1.74,1.73,3.75,3.39,5.18.85.73.4,1.87-.19,2.73-.6.87-1.49,1.34-2.55,1.28-1.05-.06-1.02-.83-1.37-1.67-.57-1.35-1.25-3.08-3.25-3.39-1.45-.22-2.27-1.52-3.33-2.7Z"/><path class="cls-7" d="M133.01,136.97c-2.36-2.12-2.29-5.19-3.08-7.93,1.76-5.34,6.74-6.77,10.98-9.09,2.98,1.94,1.39,4.44.82,6.81-2.19-1.56-4.64-2.31-6.82-.44-1.91,1.65-2.75,3.92-.73,6.27,1.9,2.08.06,3.14-1.18,4.37Z"/><path class="cls-1" d="M142.72,111.34c-2.19-4.35-1.9-5.24,1.47-8.08,2.22-1.88,4.48-2.16,6.68-.52,2.87,2.13,2.96,3.89.72,7.74.09-4.72-3.1-3.83-5.78-3.97-3.94-.21-1.76,3.28-3.09,4.83Z"/><path class="cls-1" d="M183.76,124.16c.35-.38.71-.75,1.06-1.13,1.32,4.16,4.21,7.62,5.25,11.9.26,1.07.48,2.14.17,3.48-1.5-1.28-1.3-3.52-2.9-4.52-1.21-1.99-2.64-3.62-5.29-3.23-.56-1.38.72-2.16,1.05-3.25.33-1.07,1.55-1.94.65-3.26Z"/><path class="cls-12" d="M151.44,119.33c-.27.94.4,2.1-.67,2.86.02-.9-.04-1.61-1.31-1.22-2.21.67-4.28.16-6.25-.93-.05-.6-.1-1.2-.15-1.8.43-2.55,1.61-3.05,3.59-1.29,1.85,2.11,2.58,2.02,4.3-.57.86.87.45,1.95.5,2.95Z"/><path class="cls-10" d="M123.32,125.43c-.49,2.61-3.09,3.84-5.38,2.5-.66-.39-1.22-.95-1.83-1.43.01-.19.03-.39.07-.58,1.08-.54,2.63-.57,2.59-2.35,1.13.01,2.26.02,3.4.03.09.79.62,1.31,1.16,1.82Z"/><path class="cls-11" d="M143.06,118.24c.05.6.1,1.2.15,1.8,0,.7.02,1.41.03,2.11-.75,3.85.75,7.63.4,11.46-.1,1.05.35,2.18-.49,3.12-.17-.14-.34-.28-.5-.41.27-1.02-1.24-1.88-.27-2.97.03-.45.06-.89.09-1.33,0-1.78.11-3.58-.72-5.24.57-2.37,2.15-4.87-.82-6.82.52-.81,1.2-1.42,2.14-1.71Z"/><path class="cls-14" d="M150.94,116.38c-1.72,2.59-2.45,2.68-4.3.57,1.52.46,2.76-1.2,4.3-.57Z"/><path class="cls-4" d="M89.19,122.54c.96-1.07,2.27-1.2,3.58-1.36-.52,2.22-1.38,3.55-3.58,1.36Z"/><path class="cls-1" d="M123.32,125.43c-.53-.51-1.06-1.03-1.16-1.82.68-.21.89-1.59,1.79-.96.88.62.88,1.68.49,2.68-.38.03-.75.07-1.13.1Z"/><path class="cls-1" d="M118.76,123.57c.04,1.78-1.51,1.8-2.59,2.35-.26-1.37.23-2.5,1.35-3.19.54-.34.88.47,1.24.84Z"/><path class="cls-11" d="M187.52,139.53s0-.08,0-.07c0,0,0,.07,0,.07Z"/><path class="cls-10" d="M142.38,133.34c-.97,1.09.54,1.95.27,2.97-.26.86-.66,1.58-1.68,1.67-1.1.28-2.35-.25-3.33.62-.43-.03-.85-.06-1.28-.09.14-.52.68-1.09-.03-1.53-.49-.3-.97-.01-1.26.39-.56.78-1.05,1.62-1.57,2.44-.99-.8-.48-1.87-.49-2.84,1.24-1.23,3.08-2.29,1.18-4.37.97-.05,1.15-.92,1.58-1.53,1.47-2.07,3.41-.15,5.11-.59,1.25-.32.85.95,1.06,1.59-.01.48-.03.96.44,1.27Z"/><path class="cls-1" d="M120.5,134.88c-.8-2.26-1.83-2.83-3.59-.69-.59.72-1.67,1.03-2.53,1.53-1.55.6-2.91.66-3.57-1.26.34.01.69.03,1.03.04,0,0,.03,0,.03,0,.45.66.87.94,1.18-.1.09-2.2.92-3.9,3.25-4.38,3.17-.66,4.61,1.74,6.15,3.76.36.47.39,1.17,1.06,1.57.83.5,1.2,1.36.68,2.31-.31.56-.9.83-1.53.65-.88-.25-1.69-.63-1.75-1.75-.03-.58.09-1.21-.42-1.67Z"/><path class="cls-7" d="M133.5,139.81c.52-.82,1.01-1.65,1.57-2.44.29-.4.77-.69,1.26-.39.72.45.17,1.01.03,1.53-1.1,3.54-.94,7.28-1.67,10.87-1.21-3.09-2.27-6.2-1.19-9.58Z"/><path class="cls-6" d="M129.23,144.06c-2.31.29-3.16-.64-2.94-3.02.27-2.89-.3-5.89,1.41-8.56-.33,2.6.07,5.23-.28,7.79-.26,1.92.53,2.86,1.94,3.69l-.13.1Z"/><path class="cls-11" d="M135.31,150.68c2.4,0,4.84-.59,7.18.47-2.45.73-4.89,1.36-7.18-.47Z"/><path class="cls-11" d="M114.26,137.48c1.37,1.6.26,2.34-1.04,3.01q-1.94-1.11,1.04-3.01Z"/><path class="cls-6" d="M111.85,134.49c-.35-.01-.69-.03-1.03-.04.24-1,.49-2,.73-2.99.1.01.2.03.3.04v2.99Z"/><path class="cls-6" d="M129.36,143.95c1.1,1.27.54,2.24-.58,3.1,0,0-.2-.16-.2-.16.21-.95.43-1.89.64-2.83,0,0,.13-.1.13-.1Z"/><path class="cls-6" d="M113.06,134.39c-.31,1.04-.73.76-1.18.1.39-.03.79-.07,1.18-.1Z"/><path class="cls-11" d="M163.58,145.02c-2.02.36-4.01-.38-6.21,1.62,1.31-5.95-.16-11.39,1.9-17.17v14.86c1.11.05,2.76-.93,4.32.69Z"/><path class="cls-3" d="M143.24,122.15c0-.7-.02-1.41-.03-2.11,1.97,1.1,4.04,1.61,6.25.93,1.27-.39,1.33.32,1.31,1.22-.04.16-.08.33-.1.49-2.59,1.43-5.07,1.3-7.43-.54Z"/><path class="cls-11" d="M165.16,145.27c.01.15.02.31.01.46-.07-.11-.14-.22-.2-.34,0,0,.12-.08.19-.12Z"/><path class="cls-7" d="M144.96,143.38c0-.8,0-1.59,0-2.39.95.11,1.69.52,1.57,1.59-.1.91-.93.74-1.57.8Z"/><path class="cls-8" d="M118,150.54c-.28.01-.56.03-.84.04-.9-2.94-.14-5.96-.49-8.93l.2-.2c1.17.08,1.01.93,1.01,1.72.02,2.46.07,4.92.12,7.38Z"/><path class="cls-8" d="M116.67,141.65c-.07-.13-.14-.25-.21-.38.14.06.27.12.41.18,0,0-.2.2-.2.2Z"/><path class="cls-6" d="M137.63,138.6c.99-.87,2.24-.34,3.33-.62-1.74,1.42-1.31,3.53-1.52,5.96-1.1-2.03.28-4.29-1.81-5.34Z"/><path class="cls-3" d="M182.35,149.31c-1.54.04-3.07.08-4.61.12-1.88.07-1.78-1.24-1.74-2.51.73-.96.43-2.08.5-3.14.21-3.33-.16-6.71.72-9.99,1.72,0,3.44,0,5.17,0-.01,5.17-.02,10.35-.04,15.52Z"/><path class="cls-11" d="M182.35,149.31c.01-5.17.02-10.35.04-15.52.06-.61.13-1.22.19-1.83,2.22,1.69,1.27,4.13,1.07,6.1-.57,5.49,0,10.82,1.28,16.13-1.78-1.14-1.87-3.17-2.58-4.88Z"/><path class="cls-11" d="M176.67,159.28c-.07-2.72,1.97-3.77,1.93-5.66,0-.38.41-.38.69-.25.67.32.8.9.43,1.48-.85,1.31-1.77,2.58-3.05,4.43Z"/><path class="cls-11" d="M176,146.92c-.05,1.27-.14,2.58,1.74,2.51-.75.42-1.49.84-2.24,1.26,0,0-.2-.15-.2-.15.17-1.22-.32-2.56.7-3.62Z"/><path class="cls-11" d="M173.65,154.25c-.12.63-.48,1.06-1.07,1.31-.09-.07-.18-.15-.26-.22.1-.71.47-1.14,1.21-1.2l.13.11Z"/><path class="cls-11" d="M171.41,157.24c-.03-.45-.06-.89-.09-1.34.34-.19.67-.38,1.01-.57.09.08.17.15.26.22-.23.68-.54,1.3-1.18,1.69Z"/><path class="cls-11" d="M175.5,150.69c-.1.63-.09,1.3-.68,1.74,0,0-.12-.1-.12-.1.04-.65-.04-1.34.59-1.79l.2.15Z"/><path class="cls-11" d="M174.35,153.15c-.23.37-.46.73-.7,1.1,0,0-.13-.11-.12-.11.2-.4.4-.8.59-1.2.08.07.15.14.23.21Z"/><path class="cls-11" d="M174.82,152.43c-.16.24-.32.47-.47.71-.07-.07-.15-.14-.23-.21.2-.2.39-.4.58-.6l.12.1Z"/><path class="cls-10" d="M183.76,124.16c.9,1.32-.33,2.19-.65,3.26-.33,1.09-1.62,1.87-1.05,3.25-.03.24-.07.48-.1.73-1.56,0-3.13.02-4.69.02-.06-.22-.13-.44-.19-.66.19-.54-.11-.86-.4-1.29-2.68-3.92-1.61-7.07,2.79-8.47.88-.28.89.49,1.25.85.92.9,1.23,2.61,3.05,2.32Z"/><path class="cls-2" d="M177.26,131.42c1.56,0,3.13-.02,4.69-.02.21.19.42.38.63.56-.06.61-.13,1.22-.19,1.83-1.72,0-3.44,0-5.17,0-.27-.79-.22-1.58.04-2.37Z"/><path class="cls-11" d="M204.36,157.13c-1.92-1-2.12-3.99-.44-6.48.45,2.14-.74,4.39.44,6.48Z"/><path class="cls-9" d="M197.46,143.3c.22.03.44.06.67.09.67,1.41,1.33,2.82,2,4.24-.47.08-.94.16-1.41.24-.32-1.55-2.12-2.69-1.25-4.57Z"/><path class="cls-7" d="M177.26,131.42c-.26.79-.31,1.58-.04,2.37-.89,3.28-.51,6.66-.72,9.99-.07,1.06.23,2.18-.5,3.14-1.02,1.05-.53,2.4-.7,3.62-.63.45-.56,1.14-.59,1.79-.2.2-.39.4-.59.6-.2.4-.4.8-.59,1.2-.74.06-1.11.49-1.21,1.2-.34.19-.67.38-1.01.57,0,0-.14.09-.14.09-.02-.36-.15-.6-.56-.56-1.8.16-2.86-.35-2.42-2.46.2-.97.21-1.98.31-2.97.02-.6.03-1.19.05-1.79.14-.39.27-.78.41-1.17,1.17-.17,1.13-1,1-1.87v-.04c1.52,1.56-.47,4.12,1.94,6.05-.46-3.19.69-5.93-.79-8.54.09-2.41,1.23-4.68.92-7.14.73-2.59,1.66-4.98,5.04-4.73.06.22.13.44.19.66Z"/><path class="cls-1" d="M168.55,148.2c-.02.6-.04,1.2-.05,1.79-.68,0-1.37,0-2.05,0,.01-.41.03-.82.04-1.23.78.14,1.45-.1,2.06-.57Z"/><path class="cls-1" d="M170.61,155.43c.41-.04.55.2.56.56-.19-.19-.38-.37-.56-.56Z"/><path class="cls-5" d="M168.55,148.2c-.61.47-1.29.7-2.06.57,0-2.8-.23-5.62.44-8.38.73.03,1.45.06,2.18.09-.2,1.38-.4,2.77-.6,4.15-.1.18-.21.35-.31.53,0,.54-.07,1.1.62,1.3.02.2.07.39.15.57-.14.39-.27.78-.41,1.17Z"/><path class="cls-7" d="M105.27,141.24c0,.43,0,.86,0,1.29-.46-.43-.56-.86,0-1.29Z"/><path class="cls-10" d="M168.81,146.46c-.69-.2-.63-.76-.62-1.3.1-.18.21-.35.31-.53.2-1.38.4-2.77.6-4.15.52-1.78.56-3.72,1.62-5.32.62-.94,1.2-1.07,1.31.34.31,2.46-.84,4.73-.92,7.14-1.41.35-1.22,1.45-1.15,2.49,0,0,0,.04,0,.04-.38.43-.76.86-1.14,1.3Z"/><path class="cls-4" d="M141.94,132.07c-.21-.64.18-1.91-1.06-1.59-1.7.44-3.64-1.48-5.11.59-.43.61-.6,1.49-1.58,1.53-2.03-2.35-1.19-4.62.73-6.27,2.18-1.88,4.63-1.12,6.82.44.84,1.67.73,3.46.72,5.25-.18-.04-.36-.02-.52.06Z"/><path class="cls-13" d="M141.94,132.07c.17-.08.34-.1.52-.06-.03.44-.06.89-.09,1.33-.46-.31-.45-.79-.44-1.27Z"/><path class="cls-11" d="M169.95,145.12c-.06-1.04-.26-2.14,1.15-2.49,1.47,2.61.33,5.35.79,8.54-2.41-1.93-.42-4.49-1.94-6.05Z"/><path class="cls-11" d="M168.81,146.46c.38-.43.76-.86,1.14-1.3.13.87.17,1.69-1,1.87-.07-.18-.12-.37-.15-.57Z"/><path class="cls-14" d="M168.5,144.63c-.1.18-.21.36-.31.53.1-.18.21-.35.31-.53Z"/></svg>