<?xml version="1.0" encoding="UTF-8"?><svg id="Lag_1" xmlns="http://www.w3.org/2000/svg" viewBox="0 0 338.59 338.59"><defs><style>.cls-1{fill:#e1cdba;}.cls-1,.cls-2,.cls-3,.cls-4,.cls-5,.cls-6,.cls-7,.cls-8,.cls-9,.cls-10,.cls-11,.cls-12,.cls-13,.cls-14,.cls-15,.cls-16{stroke-width:0px;}.cls-2{fill:#efe2d0;}.cls-3{fill:#eadbc7;}.cls-4{fill:#63413c;}.cls-5{fill:#fdfcf8;}.cls-6{fill:#e1cbb4;}.cls-7{fill:#e1ccb5;}.cls-8{fill:#593833;}.cls-9{fill:#e7d8c8;}.cls-10{fill:#6d4b46;}.cls-11{fill:#ecdcc8;}.cls-12{fill:#d8c2ac;}.cls-13{fill:#e7dbcb;}.cls-14{fill:#5b3c36;}.cls-15{fill:#654542;}.cls-16{fill:#fefefe;}</style></defs><path class="cls-2" d="M338.52.86c0,111.52-.01,223.03.06,334.55,0,2.59-.58,3.18-3.18,3.18-111.52-.08-223.03-.06-334.55-.06,0-110.82,0-221.64,0-332.46q0-5.2,5.2-5.2c110.82,0,221.64,0,332.46,0ZM142.68,295.59c-.57.37-1.22.7-.99,1.57.02.08.2.2.28.18.92-.26.68-1.05.77-1.7.04-.1.08-.2.11-.3-.06.08-.11.16-.17.24ZM144.77,292.15c-.54.34-1.17.63-1.04,1.43.02.11.35.3.45.26.78-.32.53-1.06.61-1.66.04-.09.08-.18.12-.27-.05.08-.1.16-.16.24ZM197.35,297.03c.1.04.19.08.29.12-.08-.05-.16-.11-.24-.16.05-1.18-.22-2.19-1.38-2.77-.22-.98-.32-2.05-1.87-2.51.15,1.36.4,2.32,1.8,2.57-.04,1.17.23,2.19,1.4,2.76ZM218.57,271.66c1.72-.08,3.45-.24,5.17-.24,15.21-.02,30.42.04,45.62-.08,1.55-.01,4.53,1.31,4.45-1.39-.07-2.43-3.01-1.21-4.62-1.25-6.79-.14-13.59-.08-20.39-.05-11.06.05-22.11.13-33.17.2-.65-.42-1.31-.85-1.96-1.27,1.83-.11,3.67-.32,5.51-.32,16.24-.02,32.47,0,48.71-.04,1.12,0,2.99.54,2.94-1.31-.04-1.2-1.71-.71-2.65-.71-17.73-.03-35.47-.02-53.2,0-1.12,0-2.35-.25-3.15.9-1.59-.72-3.03-1.68-4.22-2.97.28-.02.57-.03.85-.05,8.21-.09,16.42-.17,24.63-.26.4,0,.8-.02,1.2-.03,4.29.3,8.58.73,12.84-.19.71-.07,1.42-.13,2.13-.2,4.9,1.49,9.93.31,14.89.65.83.06,2.16.25,2.1-1.04-.06-1.23-1.37-.94-2.22-.95-4.91-.04-9.82-.03-14.73-.04-.03-4.85-.05-9.69-.08-14.54.24-.24.49-.47.73-.71,5.13-1.32,6.18-3.14,5.36-8.81-1.41-9.73-2.74-19.48-4.1-29.22,2.37-.06,4.6-1.19,5.24-3.18.72-2.22,2.38-3.56,3.38-5.44,2.72-5.08,6.74-9.85,3.96-16.28,2.25.26,3.26-.71,3.67-3,1.55-8.64,2.27-17.31,1.81-26.08l-.06-4.14c.11-.78.13-1.53-.59-2.07,0-6.49-1.49-12.8-3.09-18.97-4.31-16.56-12.23-31.43-22.99-44.7-5.15-6.35-11.86-11.18-18.22-16.26-4.87-3.88-10.71-6.21-16.31-8.91-12.1-5.84-24.85-8.98-38.23-8.6-9.93.28-19.78,1.29-29.23,5.27-10.6,4.46-21.27,8.37-30.14,16.19-7.38,6.51-14.27,13.31-19.75,21.51-5.64,8.45-10.43,17.24-13.58,26.99-3.49,10.78-5.89,21.69-6.32,33.01-.74,1.26-.68,2.64-.68,4.02-.03,7.58.86,15.09,2.11,22.55,1.85,11.04,5.34,21.57,10.55,31.5,3.7,7.04,8.62,13.23,13.63,19.36,0,.25-.02.5-.03.74-7.26,2.51-14.42,5.05-21.02,9.26-5.21,3.33-10.79,6.09-15.56,10.1-.42.35-1.05.83-1.04,1.24.02.92.93.82,1.59.85,2.55.09,2.26,1.25,1.16,2.87-.58.85-1.06,1.8-1.42,2.76-.7,1.87-.23,3.54,1.98,3.3,7.05-.77,13.78,2.01,20.81,1.54,5.16-.34,10.37-.09,15.55-.06,11.29.06,22.58.15,33.87.23-1,.7-1.99,1.4-2.99,2.1-19.23-.08-38.46-.16-57.69-.24-.12,0-.23,0-.35.01-.55.07-1.27-.05-1.4.68-.16.9.58,1.19,1.26,1.27,1.03.12,2.07.1,3.1.1,14.4,0,28.8-.01,43.19.02,2.99,0,5.98.19,8.96.3-.64.43-1.28.86-1.92,1.29-.57-.06-1.14-.18-1.71-.19-17.74-.02-35.47-.02-53.21-.02-.57,0-1.15.03-1.72.11-.65.09-1.01.51-1.07,1.15-.07.83.38,1.33,1.17,1.41.91.09,1.84.09,2.76.09,14.97,0,29.94-.01,44.92.02,1.83,0,3.66.27,5.49.42-3.82,3.16-7.88,6-12.03,8.71-3.75-.4-7.52-.31-11.29-.66-4.4-.4-8.92-.64-13.35.28-.61.13-1.53.17-1.47,1.1.05.82.81,1.04,1.51,1.09.91.07,1.83.05,2.75.06,6.3.08,12.6.16,18.91.24-5.72,5.54-12.54,9.69-18.67,14.71-.8.65-1.65,1.26-2.36,2.01-.49.52-.67,1.28.04,1.81.57.42,1.04,0,1.48-.41,7.34-6.97,16-12.25,23.86-18.57,8.76-7.03,18.18-13.25,26.8-20.49,3.63.08,7.27.15,10.9.23-3.75,3.54-7.42,7.16-11.28,10.58-6.02,5.34-11.79,10.93-17.45,16.64-.73.74-1.81,1.4-.66,2.51,1.03.99,1.89.2,2.66-.54.25-.24.49-.48.74-.73,6.45-6.55,13-13.01,19.52-19.49,2.94-2.93,6.53-5.4,8.59-9.2,3.86-.09,7.72-.18,11.58-.27.78.76.38,2.7,2.32,2.29.03.52.05,1.04.08,1.57.03.43.05.86.08,1.29-.79,1.54-.39,3.2-.49,4.81-.29,2.42-1.21,5.02,1.94,6.4,1.42,1.72,3.2-.88,4.65.4,0,.96,0,1.91,0,2.87-1.02,1.71-2.69.89-4.06.96-3.16.16-6.4-.26-9.79,1.36,1.72,1.23,3.21,1.64,4.84,1.65,6.78.01,13.56.02,20.35.04,1.18,0,2.51.12,2.57-1.48.07-1.86-1.51-1.24-2.54-1.41-1.67-.26-3.85.82-4.64-1.75.02-1.7-.33-3.32-1.03-4.86-.28-.92-1.34-1.79-.15-2.79,1.38-.74,1.07-2.13,1.23-3.3.36-2.58.63-5.17.94-7.76,3.7,0,7.4.02,11.1.03,9.05,10.51,19.8,19.35,29.12,29.6.75.83,1.8,1.36,2.63.22.91-1.24-.43-1.84-1.1-2.48-9.14-8.85-18.3-17.66-27.46-26.49,3.33-1.9,6.94-.46,10.39-.89,10.31,8.92,21.82,16.29,32.29,25.02,5.88,4.91,12.69,8.67,18.14,14.16.39.39.96.79,1.52.36.66-.5.64-1.26.14-1.82-.61-.67-1.36-1.22-2.07-1.79-6.64-5.27-13.96-9.67-19.96-15.75,8.48-1.17,17.12,2.06,25.53-1.32h-27.39c-4.32-2.73-8.43-5.75-12.41-8.94ZM185.84,274.37c-.29.17-.57.34-.86.51,2,3.36,4,6.72,6,10.08l.86-.52c-1.1-3.9-3.86-6.81-6-10.08ZM148.15,284.81c2.66-3,4.36-6.54,6.38-10.8-2.6,2.05-6.04,7.87-6.38,10.8ZM171.1,299.31c-.27-.93.57-2.58-1.12-2.68-1.22-.08-1.02,1.32-.96,2.16.07,1.01-.6,2.63,1.07,2.74,1.22.08.87-1.32,1.01-2.21ZM155.4,272.32c2.41-2.2,2.99-4.41,3.9-7.43-2.57,2.15-3.53,4.16-3.9,7.43ZM183.73,271.59c-1.09-1.95-.87-4.68-4.13-6.38,1.63,2.74,1.75,5.23,4.13,6.38ZM171.03,289.07c-.02-.71-.11-1.49-.99-1.5-.88,0-.99.79-.99,1.49,0,.71.11,1.48.99,1.49.88,0,.99-.77.99-1.48Z"/><path class="cls-16" d="M338.52.86c-110.82,0-221.64,0-332.46,0q-5.2,0-5.2,5.2c0,110.82,0,221.64,0,332.46-1.43-.62-.65-1.87-.65-2.77-.06-19.71-.04-39.42-.04-59.13C.17,185.45.18,94.28.1,3.11.1.62.61.1,3.11.1c110.88.08,221.77.06,332.65.11.9,0,2.14-.78,2.77.65Z"/><path class="cls-16" d="M269.21,149.63c.02,1.38.04,2.76.06,4.14-1.74-.29-2.83,1.43-4.53,1.4-10.81-.21-21.57.51-32.35,1.23-9.91.66-19.9-.26-29.83-.29-5.29-.02-10.67-.86-16.03.36-5.16,1.18-10.18-1.42-15.35-1.28-2.51.07-5.15,1.03-7.5.52-7.31-1.57-14.66,1.05-21.92-.52-1.01-.22-2.07.07-3.01.58-1.38.76-2.8.56-4.33.54-6.12-.11-12.26.04-18.38.18-11.5.26-22.99.1-34.43-1.11-1.4-.15-2.41.07-3.45.98-2.15,1.88-3.96,2-4.64-1.31-.33-1.61-1.35-1.99-2.75-1.96.44-11.32,2.83-22.23,6.32-33.01,3.16-9.75,7.94-18.55,13.58-26.99,5.48-8.2,12.37-15,19.75-21.51,8.87-7.81,19.54-11.73,30.14-16.19,9.45-3.98,19.3-4.99,29.23-5.27,13.38-.38,26.13,2.76,38.23,8.6,5.6,2.7,11.45,5.03,16.31,8.91,6.36,5.07,13.07,9.9,18.22,16.26,10.75,13.26,18.68,28.13,22.99,44.7,1.6,6.17,3.08,12.48,3.09,18.97-.97,1.02-.75,1.71.59,2.07Z"/><path class="cls-5" d="M70.76,153.08c1.41-.03,2.42.35,2.75,1.96.68,3.31,2.49,3.19,4.64,1.31,1.04-.91,2.04-1.13,3.45-.98,11.45,1.2,22.93,1.36,34.43,1.11,6.13-.14,12.26-.28,18.38-.18,1.52.03,2.95.22,4.33-.54.94-.52,1.99-.8,3.01-.58,7.27,1.57,14.61-1.05,21.92.52,2.35.5,4.99-.46,7.5-.52,5.17-.14,10.19,2.46,15.35,1.28,5.36-1.22,10.74-.38,16.03-.36,9.94.03,19.93.95,29.83.29,10.79-.72,21.54-1.44,32.35-1.23,1.71.03,2.8-1.68,4.53-1.4.47,8.77-.26,17.45-1.81,26.08-.41,2.29-1.42,3.25-3.67,3-4.01.18-8.05-.47-12.05.43-9.26,2.07-17.27,6.4-24.73,12.3-7.72,6.11-14.88,13.01-23.4,18.05-5.11,3.02-9.99,6.61-15.95,7.97-.19-.89-.48-1.81.2-2.6,4.04-4.75,2.22-9.73.6-14.7-.09-.44-.18-.88-.27-1.32-.14-.48-.29-.96-.43-1.45.13-.73.02-1.39-.57-1.91.1-1.07-.15-2.05-.75-2.93.14-.75,0-1.41-.6-1.93.05-1.04-.19-2-.7-2.91-.35-1.82-1.19-3.28-2.99-4.02-.6-.59-1.33-.74-2.13-.65-2.27-2.68-5.39-4.23-8.31-6.08,4.78-4.48,6.16-10.21,3.25-13.26-2.28-2.39-6.59-2.32-9.42.11-1.23,1.05-1.73,2.36-1.77,3.94-.1,4.04,1.62,7.18,5.31,9.8-5.28.74-7.96,4.94-12.12,6.59-.66.17-1.06.57-1.17,1.26-1.67,1.57-1.79,3.71-2.12,5.77-.65.87-.87,1.86-.78,2.93-.6.51-.67,1.18-.56,1.91-.96,2.23-1.53,4.56-1.91,6.95l-.12,1.35c-.43.73-.71,1.5-.6,2.36-.25.06-.51.11-.76.17.01-.07.02-.15.03-.22.23.12.46.25.69.37-.8,2.58.37,4.78,1.64,6.78.96,1.51,1.15,2.92.75,4.54-.92-.08-1.85-.1-2.75-.26-9.14-1.66-18.27-1.32-27.39.16-1.13.18-2.26.48-3.35.83-7.4,2.43-14.8,4.89-22.19,7.34-5.01-6.13-9.93-12.32-13.63-19.36-5.21-9.93-8.7-20.46-10.55-31.5-1.25-7.45-2.14-14.96-2.11-22.55,0-1.38-.06-2.77.68-4.02Z"/><path class="cls-3" d="M187.66,221.6c5.96-1.36,10.84-4.95,15.95-7.97,8.52-5.03,15.68-11.94,23.4-18.05,7.46-5.9,15.47-10.24,24.73-12.3,4-.89,8.03-.24,12.05-.43,2.78,6.42-1.24,11.19-3.96,16.28-1,1.87-2.66,3.21-3.38,5.44-.64,1.99-2.87,3.12-5.24,3.18-.52-2.81-1.02-5.63-1.58-8.43-.16-.8-.53-1.65-1.47-1.69-.92-.04-1.43.7-1.64,1.52-.26,1-.44,2.02-.59,3.04-1,6.7-1.98,13.4-2.97,20.1-2.81-.04-5.73-2.83-8.42.33-2.22-.61-2.12,1.21-2.35,2.41-.57,3-.97,6.03-1.45,9.05-4.94,1.77-9.83,3.83-14.8,5.31-11.75,3.5-23.88,5.27-36.16,5.8.26-4.02.5-8.04.78-12.06.06-.88-.12-2.04,1.04-2.32,4.92-1.19,5.89-4.93,6.06-9.21Z"/><path class="cls-7" d="M132.27,263.33c-11.29-.08-22.58-.17-33.87-.23-5.19-.03-10.39-.28-15.55.06-7.03.47-13.76-2.3-20.81-1.54-2.21.24-2.68-1.43-1.98-3.3.36-.96.84-1.91,1.42-2.76,1.1-1.61,1.39-2.77-1.16-2.87-.66-.02-1.57.08-1.59-.85,0-.41.62-.88,1.04-1.24,4.77-4.01,10.35-6.77,15.56-10.1,6.59-4.22,13.76-6.76,21.02-9.26,1.69-.16,3.14.51,4.59,1.27,6.01,3.12,12.47,5.32,18.8,7.51,12.53,4.34,25.77,5.42,39.01,5.79.01,5.42,1.51,10.54,3.12,15.64-3.86.09-7.72.18-11.58.27-.71.08-1.41.15-2.12.23-3.63-.08-7.27-.15-10.9-.23-2.24-1.26-3.34,1.03-4.99,1.6Z"/><path class="cls-8" d="M161.85,261.46c-1.61-5.1-3.11-10.22-3.12-15.64.04-4.23.06-8.46.13-12.69.02-1.15-.28-2-1.45-2.42-3.9-1.39-5.29-4.41-5.37-8.28.4-1.62.21-3.02-.75-4.54-1.27-2-2.44-4.2-1.64-6.78,0,0,.04-.32.04-.32-.11-.87.17-1.63.6-2.36.7-.39.8-.84.12-1.35.38-2.39.95-4.72,1.91-6.95.76-.47.76-1.16.56-1.91-.09-1.07.13-2.06.78-2.93,1.47-1.64,1.69-3.74,2.12-5.77.11-.68.51-1.09,1.17-1.26,4.26-.69,5.03-.11,6.52,4.92-2.29,1.52-4.89,2.78-4.88,6.12,0,2.42.02,4.84,0,7.26-.01,1.29.24,2.23,1.85,2.3,1.67.07,1.87-.89,1.85-2.19-.03-2.07-.05-4.15.02-6.22.03-.94-.41-2.52,1.03-2.45,1.37.07.83,1.64.87,2.58.09,2.07.02,4.15.06,6.22.01.77-.16,1.89.92,1.92,3.1.11,6.42.69,9.24-.21,1.89-.61.49-3.73.78-5.71.12-.79-.05-1.62.04-2.41.1-.92-.47-2.44,1.08-2.4,1.16.03.9,1.4.92,2.27.04,2.3.04,4.61.03,6.91,0,1.08.33,1.73,1.57,1.73,1.22,0,2.02-.31,2.02-1.7,0-2.07-.12-4.16.06-6.22.32-3.56-1.03-6.02-4.32-7.42.52-2.47,1.44-4.72,3.42-6.41.8-.09,1.54.06,2.13.65.61,1.63,1.29,3.2,2.99,4.02.51.9.75,1.87.7,2.91-.22.78-.21,1.48.6,1.93.6.89.85,1.87.75,2.94-.19.75-.19,1.44.57,1.91.14.48.29.96.43,1.45-.64.59-.39,1,.27,1.32,1.62,4.97,3.43,9.95-.6,14.7-.67.79-.38,1.71-.2,2.6-.17,4.28-1.14,8.02-6.06,9.21-1.16.28-.98,1.44-1.04,2.32-.28,4.02-.52,8.04-.78,12.06-.55,5.52-1.1,11.04-1.65,16.56-.31,2.59-.57,5.18-.94,7.76-.16,1.17.14,2.57-1.23,3.3-.46.15-.93.29-1.39.44-.48,0-.96,0-1.44,0-.58-.68-1.32-1.61-2.14-.74-.74.79.56,1.23.94,1.81.2.31.75.4,1.14.58.54,0,1.07,0,1.61.01.48.23.96.45,1.44.68.7,1.55,1.05,3.17,1.03,4.86-1.03,1.9.11,2.51,1.7,2.66,1.24.12,2.5.02,3.75.02-1.27.69-2.52.77-3.75.67-1.18-.09-2.98.63-3.35-.88-.85-3.44-2.99-2.33-5.06-1.84,0-.96,0-1.91,0-2.87-1.38-2.19-3.13.07-4.65-.4-3.15-1.37-2.23-3.98-1.94-6.4,1.79-1.44,1.11-3.13.49-4.81-.03-.43-.05-.86-.08-1.29.17-.06.34-.12.51-.19,1.99.67,3.69.85,3.54-2.1,1.87.47,1.9,2.08,2.04,3.51.14,1.4.03,2.82.03,4.23.02-.02.04-.04.07-.05v-37.43c-2.05,4.23-2.36,8.73-2.84,13.2-.41.42-.44.92-.26,1.44-.41.87-.41,1.76-.14,2.67.35,2.71.68,5.42,1.05,8.12.21,1.49.14,2.72-1.75,3.03-.59.1-1.4.34-.99,1.33l.02-.02c-.76-.27-1.02-.06-.71.72l.03-.03c-.23,0-.46,0-.68-.01-1.94.41-1.54-1.53-2.32-2.29ZM169.61,227.83c1.96,0,3.92.08,5.87-.02,3.52-.18,5.23-1.85,5.38-5.4.13-2.99.01-5.98.05-8.97.02-1.48-.67-2.03-2.1-2.03-1.58,0-1.54,1.02-1.54,2.09,0,2.42,0,4.83-.02,7.25,0,.77.17,1.9-.88,1.95-1.35.06-1.09-1.2-1.11-2.06-.04-2.3,0-4.6-.03-6.9-.08-4.29-3.46-2.29-5.11-2.17-1.95.14-5.45-2.29-5.82,2.18-.16,1.94.1,3.92-.07,5.86-.09,1.08.86,3.03-.99,3.05-1.39.01-.9-1.84-.94-2.91-.08-2.18-.04-4.37-.05-6.56,0-1.03-.24-1.8-1.52-1.79-1.16.01-2.07.22-2.07,1.66,0,1.27-.02,2.53-.02,3.8,0,10.87.14,11,10.97,10.98Z"/><path class="cls-6" d="M178.13,261.74c.55-5.52,1.1-11.04,1.65-16.56,12.28-.53,24.42-2.3,36.16-5.8,4.97-1.48,9.86-3.54,14.8-5.31-.35,3.78-.59,7.57-1.07,11.33-.36,2.84-.79,5.55,2.32,7.25.83.45.74,1.37.72,2.17-.04,2.3-.12,4.59-.18,6.89-6.9-.93-13.8-.88-20.7.01-1.24.16-2.88-.62-3.39,1.36-.28.02-.57.03-.85.05-1.62-.39-2.68-2.69-4.8-1.4-3.45.42-7.06-1.02-10.39.89-.98-.59-1.95-1.22-3.18-.85-3.7,0-7.4-.02-11.1-.03Z"/><path class="cls-11" d="M152.05,222.44c.08,3.87,1.47,6.89,5.37,8.28,1.16.41,1.46,1.27,1.45,2.42-.07,4.23-.09,8.46-.13,12.69-13.24-.37-26.48-1.45-39.01-5.79-6.32-2.19-12.78-4.39-18.8-7.51-1.45-.75-2.9-1.43-4.59-1.27,0-.25.02-.5.03-.74,7.4-2.45,14.79-4.91,22.2-7.34,1.09-.36,2.22-.65,3.35-.83,9.12-1.48,18.24-1.82,27.39-.16.9.16,1.83.18,2.75.26Z"/><path class="cls-8" d="M242.96,222.28c.99-6.7,1.97-13.4,2.97-20.1.15-1.02.33-2.04.59-3.04.21-.81.72-1.56,1.64-1.52.94.04,1.31.89,1.47,1.69.56,2.8,1.06,5.62,1.58,8.43,1.36,9.74,2.69,19.49,4.1,29.22.82,5.67-.23,7.49-5.36,8.81-.51-.03-.78.17-.73.71.03,4.85.05,9.69.08,14.54-.01.46-.02.92-.03,1.38-.71.07-1.42.13-2.13.2-.09-.54-.18-1.08-.28-1.62,0-4.46.02-8.92.02-13.37,0-.93-.13-1.57-1.25-2.09-4.63-2.13-5.05-3.18-4.44-8.27.6-4.99,1.76-9.91,1.77-14.97Z"/><path class="cls-14" d="M232.54,261.71c.06-2.3.14-4.59.18-6.89.02-.8.11-1.72-.72-2.17-3.11-1.69-2.68-4.4-2.32-7.25.48-3.76.72-7.55,1.07-11.33.47-3.02.87-6.05,1.45-9.05.23-1.19.13-3.02,2.35-2.41,1.12,7.96,2.26,15.92,3.37,23.88.24,1.74.53,3.92-.93,4.86-2.86,1.84-2.47,4.29-2.2,6.9-.17,1.52-.33,3.03-.5,4.55-.4,0-.8.02-1.2.03-.18-.37-.36-.74-.54-1.12Z"/><path class="cls-10" d="M132.27,263.33c1.65-.57,2.75-2.86,4.99-1.6-8.62,7.24-18.04,13.46-26.8,20.49-7.86,6.31-16.52,11.6-23.86,18.57-.44.42-.91.82-1.48.41-.72-.52-.53-1.29-.04-1.81.71-.75,1.56-1.36,2.36-2.01,6.14-5.01,12.95-9.16,18.67-14.71.98-.71,1.96-1.41,2.94-2.12,4.15-2.71,8.21-5.55,12.03-8.71,1.28-.82,2.97-1.18,3.38-2.99.64-.43,1.28-.86,1.92-1.29.97-.71,1.94-1.42,2.91-2.14,1-.7,1.99-1.4,2.99-2.1Z"/><path class="cls-10" d="M202.8,261.73c2.11-1.29,3.18,1.01,4.8,1.4,1.2,1.29,2.63,2.24,4.22,2.97.62.49,1.24.98,1.85,1.48.65.42,1.31.85,1.96,1.27.26,1.69,1.86,1.97,2.94,2.81,3.98,3.19,8.1,6.21,12.41,8.94.47.66,1.05,1.15,1.86,1.32,6,6.08,13.32,10.48,19.96,15.75.72.57,1.47,1.12,2.07,1.79.51.56.52,1.32-.14,1.82-.56.42-1.13.03-1.52-.36-5.45-5.49-12.25-9.25-18.14-14.16-10.46-8.73-21.97-16.1-32.29-25.02Z"/><path class="cls-1" d="M218.57,271.66c-1.08-.84-2.68-1.12-2.94-2.81,11.06-.07,22.11-.15,33.17-.2,6.8-.03,13.6-.09,20.39.05,1.62.03,4.55-1.19,4.62,1.25.08,2.7-2.9,1.38-4.45,1.39-15.21.11-30.42.06-45.62.08-1.72,0-3.45.16-5.17.24Z"/><path class="cls-1" d="M124.45,268.85c-.41,1.81-2.1,2.17-3.38,2.99-1.83-.15-3.66-.41-5.49-.42-14.97-.03-29.94-.02-44.92-.02-.92,0-1.84,0-2.76-.09-.79-.08-1.23-.58-1.17-1.41.05-.64.42-1.06,1.07-1.15.57-.08,1.15-.11,1.72-.11,17.74,0,35.47,0,53.21.02.57,0,1.14.12,1.71.19Z"/><path class="cls-15" d="M148.15,261.96c.71-.08,1.41-.15,2.12-.23-2.05,3.81-5.65,6.28-8.59,9.2-6.52,6.48-13.07,12.94-19.52,19.49-.24.25-.49.49-.74.73-.78.74-1.64,1.53-2.66.54-1.15-1.11-.07-1.77.66-2.51,5.65-5.72,11.43-11.3,17.45-16.64,3.86-3.42,7.53-7.05,11.28-10.58Z"/><path class="cls-15" d="M189.23,261.77c1.24-.38,2.2.26,3.18.85,9.16,8.82,18.32,17.64,27.46,26.49.67.65,2.01,1.24,1.1,2.48-.83,1.14-1.88.61-2.63-.22-9.31-10.25-20.06-19.1-29.12-29.6Z"/><path class="cls-1" d="M213.67,267.58c-.62-.49-1.24-.98-1.85-1.48.8-1.16,2.03-.9,3.15-.9,17.73-.01,35.47-.02,53.2,0,.94,0,2.61-.49,2.65.71.06,1.84-1.82,1.31-2.94,1.31-16.24.04-32.47.01-48.71.04-1.84,0-3.67.21-5.51.32Z"/><path class="cls-7" d="M129.28,265.43c-.97.71-1.94,1.42-2.91,2.14-2.99-.1-5.97-.29-8.96-.3-14.4-.03-28.8-.02-43.19-.02-1.04,0-2.08.01-3.1-.1-.68-.08-1.43-.36-1.26-1.27.13-.73.86-.6,1.4-.68.11-.02.23-.01.35-.01,19.23.08,38.46.16,57.69.24Z"/><path class="cls-4" d="M170.42,281.09c2.07-.48,4.22-1.59,5.06,1.84.37,1.51,2.18.78,3.35.88,1.24.1,2.49.02,3.75-.67-1.25,0-2.51.1-3.75-.02-1.59-.16-2.72-.76-1.7-2.66.79,2.58,2.97,1.49,4.64,1.75,1.03.16,2.61-.45,2.54,1.41-.06,1.6-1.39,1.49-2.57,1.48-6.78-.03-13.56-.03-20.35-.04-1.63,0-3.12-.41-4.84-1.65,3.4-1.62,6.63-1.19,9.79-1.36,1.38-.07,3.05.74,4.06-.96Z"/><path class="cls-12" d="M109.04,280.56c-.98.71-1.96,1.41-2.94,2.12-6.3-.08-12.6-.16-18.91-.24-.92-.01-1.84,0-2.75-.06-.7-.05-1.46-.27-1.51-1.09-.06-.93.87-.98,1.47-1.1,4.42-.92,8.95-.68,13.35-.28,3.77.35,7.54.25,11.29.66Z"/><path class="cls-12" d="M232.85,281.91c-.81-.17-1.4-.66-1.86-1.32,9.13,0,18.26,0,27.39,0-8.41,3.37-17.05.15-25.53,1.32Z"/><path class="cls-12" d="M234.28,262.8c.17-1.52.33-3.03.5-4.55,1.53.52,3.81-1.46,4.4-.06,1.7,4.03,4.85,2.66,7.67,2.8.09.54.18,1.08.28,1.62-4.27.93-8.56.49-12.84.19Z"/><path class="cls-12" d="M232.54,261.71c.18.37.36.75.54,1.12-8.21.08-16.42.17-24.63.26.52-1.98,2.15-1.2,3.39-1.36,6.9-.9,13.8-.95,20.7-.01Z"/><path class="cls-12" d="M249.26,262.4c.01-.46.02-.92.03-1.38,4.91,0,9.82,0,14.73.04.85,0,2.16-.28,2.22.95.06,1.29-1.27,1.1-2.1,1.04-4.96-.34-9.98.85-14.89-.65Z"/><path class="cls-1" d="M185.84,274.37c2.15,3.27,4.9,6.18,6,10.08l-.86.52c-2-3.36-4-6.72-6-10.08.29-.17.57-.34.86-.51Z"/><path class="cls-1" d="M148.15,284.81c.34-2.93,3.77-8.75,6.38-10.8-2.02,4.26-3.72,7.8-6.38,10.8Z"/><path class="cls-6" d="M171.1,299.31c-.14.89.21,2.29-1.01,2.21-1.67-.11-1-1.73-1.07-2.74-.06-.84-.26-2.23.96-2.16,1.69.11.85,1.75,1.12,2.68Z"/><path class="cls-1" d="M155.4,272.32c.37-3.27,1.33-5.28,3.9-7.43-.91,3.02-1.49,5.23-3.9,7.43Z"/><path class="cls-1" d="M183.73,271.59c-2.38-1.15-2.5-3.64-4.13-6.38,3.26,1.7,3.05,4.43,4.13,6.38Z"/><path class="cls-1" d="M171.03,289.06c-.01.71-.11,1.48-1,1.48-.88,0-1-.78-.99-1.49,0-.7.11-1.49.99-1.49.87,0,.97.79.99,1.5Z"/><path class="cls-4" d="M164.32,266.61c.62,1.68,1.3,3.38-.49,4.81.11-1.61-.3-3.27.49-4.81Z"/><path class="cls-4" d="M165.77,277.82c1.52.47,3.28-1.79,4.65.4-1.45-1.28-3.24,1.32-4.65-.4Z"/><path class="cls-4" d="M174.56,273.24c.46-.15.93-.29,1.39-.44-1.19,1-.13,1.87.15,2.79-.48-.23-.96-.45-1.44-.68.95-.62.58-1.15-.11-1.67Z"/><path class="cls-7" d="M195.95,294.27c-1.4-.25-1.65-1.21-1.8-2.57,1.55.47,1.64,1.53,1.87,2.51,0,0-.06.05-.06.05Z"/><path class="cls-5" d="M269.21,149.63c-1.34-.37-1.56-1.05-.59-2.07.72.54.7,1.29.59,2.07Z"/><path class="cls-7" d="M197.35,297.03c-1.17-.57-1.43-1.59-1.4-2.76,0,0,.06-.05.06-.05,1.16.57,1.43,1.59,1.38,2.77l-.05.05Z"/><path class="cls-1" d="M144.8,292.18c-.09.6.17,1.34-.61,1.66-.11.04-.43-.14-.45-.26-.13-.8.49-1.09,1.04-1.43l.03.03Z"/><path class="cls-1" d="M142.74,295.65c-.1.64.15,1.44-.77,1.7-.07.02-.25-.1-.28-.18-.23-.87.42-1.2.99-1.57l.06.06Z"/><path class="cls-12" d="M164.76,265.14c-.17.07-.34.13-.51.19-.03-.52-.05-1.04-.08-1.57.23,0,.46,0,.68.01-.03.46-.06.91-.09,1.37Z"/><path class="cls-12" d="M249.21,246.48c-.05-.54.23-.74.73-.71-.24.24-.49.47-.73.71Z"/><path class="cls-1" d="M144.77,292.15c.05-.08.1-.16.16-.24-.04.09-.08.18-.12.27,0,0-.03-.03-.03-.03Z"/><path class="cls-1" d="M142.68,295.59c.06-.08.11-.16.17-.24-.04.1-.08.2-.11.3,0,0-.06-.06-.06-.06Z"/><path class="cls-7" d="M197.4,296.99c.08.05.16.11.24.16-.1-.04-.19-.08-.29-.12,0,0,.05-.04.05-.04Z"/><path class="cls-14" d="M180.01,187.18c-1.98,1.68-2.9,3.94-3.42,6.41-4.37-.13-8.75-.26-13.12-.39-1.49-5.03-2.26-5.61-6.52-4.92,4.16-1.65,6.83-5.84,12.12-6.59-3.69-2.61-5.41-5.76-5.31-9.8.04-1.58.54-2.89,1.77-3.94,2.83-2.43,7.14-2.5,9.42-.11,2.91,3.05,1.53,8.78-3.25,13.26,2.92,1.84,6.04,3.4,8.31,6.08Z"/><path class="cls-14" d="M185.13,191.85c-1.7-.82-2.38-2.39-2.99-4.02,1.8.74,2.64,2.2,2.99,4.02Z"/><path class="cls-14" d="M155.77,189.53c-.43,2.02-.65,4.12-2.12,5.77.33-2.06.45-4.2,2.12-5.77Z"/><path class="cls-14" d="M188.46,204.3c-.66-.32-.91-.73-.27-1.32.09.44.18.88.27,1.32Z"/><path class="cls-14" d="M187.76,201.53c-.76-.47-.76-1.16-.57-1.91.59.52.69,1.18.57,1.91Z"/><path class="cls-14" d="M152.88,198.23c.2.75.2,1.44-.56,1.91-.12-.72-.04-1.39.56-1.91Z"/><path class="cls-14" d="M186.44,196.68c-.81-.45-.82-1.15-.6-1.93.6.52.74,1.18.6,1.93Z"/><path class="cls-14" d="M150.41,207.09c.68.51.58.96-.12,1.35l.12-1.35Z"/><path class="cls-14" d="M149.7,210.8s-.04.32-.04.32c-.23-.12-.46-.25-.69-.37-.01.07-.02.15-.03.22.25-.06.51-.11.76-.17Z"/><path class="cls-11" d="M246.85,260.98c-2.82-.14-5.98,1.23-7.67-2.8-.59-1.39-2.86.58-4.4.06-.27-2.61-.66-5.06,2.2-6.9,1.46-.94,1.17-3.13.93-4.86-1.11-7.96-2.24-15.92-3.37-23.88,2.69-3.15,5.61-.37,8.42-.33,0,5.06-1.18,9.98-1.77,14.97-.61,5.09-.19,6.14,4.44,8.27,1.11.51,1.25,1.16,1.25,2.09,0,4.46-.01,8.92-.02,13.37Z"/><path class="cls-13" d="M169.61,227.83c-10.83.02-10.97-.11-10.97-10.98,0-1.27.02-2.53.02-3.8,0-1.43.91-1.65,2.07-1.66,1.27-.01,1.52.76,1.52,1.79,0,2.19-.03,4.37.05,6.56.04,1.07-.45,2.92.94,2.91,1.85-.02.9-1.97.99-3.05.16-1.94-.1-3.92.07-5.86.37-4.47,3.88-2.04,5.82-2.18,1.65-.12,5.03-2.12,5.11,2.17.04,2.3-.01,4.6.03,6.9.02.85-.24,2.12,1.11,2.06,1.05-.05.87-1.18.88-1.95.03-2.42.02-4.83.02-7.25,0-1.07-.04-2.1,1.54-2.09,1.43,0,2.12.55,2.1,2.03-.04,2.99.07,5.99-.05,8.97-.15,3.55-1.86,5.22-5.38,5.4-1.95.1-3.91.02-5.87.02Z"/><path class="cls-9" d="M163.46,193.2c4.37.13,8.75.26,13.12.39,3.29,1.4,4.64,3.86,4.32,7.42-.18,2.06-.07,4.14-.06,6.22,0,1.39-.8,1.7-2.02,1.7-1.24,0-1.58-.65-1.57-1.73.01-2.3.01-4.61-.03-6.91-.01-.88.24-2.24-.92-2.27-1.55-.04-.98,1.48-1.08,2.4-.09.8.08,1.63-.04,2.41-.29,1.98,1.12,5.1-.78,5.71-2.82.9-6.14.32-9.24.21-1.09-.04-.91-1.15-.92-1.92-.03-2.07.03-4.15-.06-6.22-.04-.94.5-2.52-.87-2.58-1.44-.07-1,1.51-1.03,2.45-.06,2.07-.05,4.15-.02,6.22.02,1.29-.18,2.25-1.85,2.19-1.6-.07-1.86-1-1.85-2.3.02-2.42.01-4.84,0-7.26,0-3.34,2.59-4.61,4.88-6.12ZM174.79,204.24c-3.1-1.08-5.37-.6-7.61-.66-.42,0-.94.06-.98.67-.05.57.34.87.82.87,2.3-.02,4.67.6,7.78-.88Z"/><path class="cls-12" d="M165.51,263.09c-.41-.99.4-1.23.99-1.33,1.89-.31,1.96-1.54,1.75-3.03-.37-2.7-.7-5.42-1.05-8.12,1.08,0,2.16.02,3.24.03v20.09s-.04.04-.07.05c0-1.41.11-2.84-.03-4.23-.15-1.42-.17-3.04-2.04-3.51-.93.02-1.86.03-2.79.05Z"/><path class="cls-3" d="M170.44,250.63c-1.08,0-2.16-.02-3.24-.03-.27-.91-.28-1.8.14-2.67.83-.35,1.08-.8.26-1.44.48-4.47.79-8.97,2.84-13.2v17.34Z"/><path class="cls-4" d="M165.51,263.09c.93-.02,1.86-.03,2.79-.05.15,2.95-1.55,2.77-3.54,2.1.03-.46.06-.91.09-1.37,0,0-.03.03-.03.03.51.03.84-.12.71-.72l-.02.02Z"/><path class="cls-4" d="M173.06,274.9c-.39-.19-.94-.27-1.14-.58-.38-.58-1.68-1.01-.94-1.81.82-.88,1.56.06,2.14.74-.64.53-.63,1.08-.06,1.65Z"/><path class="cls-2" d="M173.06,274.9c-.56-.57-.58-1.12.06-1.65.48,0,.96,0,1.44,0,.69.51,1.06,1.05.11,1.67-.54,0-1.07,0-1.61-.01Z"/><path class="cls-12" d="M167.6,246.49c.82.64.58,1.1-.26,1.44-.18-.53-.15-1.02.26-1.44Z"/><path class="cls-12" d="M165.53,263.07c.13.6-.2.75-.71.72-.31-.78-.05-1,.71-.72Z"/><path class="cls-8" d="M174.79,204.24c-3.1,1.48-5.48.86-7.78.88-.48,0-.86-.3-.82-.87.05-.61.56-.68.98-.67,2.24.05,4.51-.42,7.61.66Z"/></svg>