<?xml version="1.0" encoding="UTF-8"?><svg id="Lag_1" xmlns="http://www.w3.org/2000/svg" viewBox="0 0 294 286.8"><defs><style>.cls-1{fill:#3d3b2c;}.cls-1,.cls-2,.cls-3,.cls-4,.cls-5,.cls-6,.cls-7,.cls-8,.cls-9,.cls-10,.cls-11,.cls-12,.cls-13,.cls-14,.cls-15,.cls-16{stroke-width:0px;}.cls-2{fill:#f8f0de;}.cls-3{fill:#e3cfb4;}.cls-4{fill:#403d2e;}.cls-5{fill:#4f4638;}.cls-6{fill:#fefdf7;}.cls-7{fill:#3b3a2c;}.cls-8{fill:#cfbca3;}.cls-9{fill:#fbf2e0;}.cls-10{fill:#64594b;}.cls-11{fill:#a99176;}.cls-12{fill:#e5d2b7;}.cls-13{fill:#f9f9f2;}.cls-14{fill:#fcf3e0;}.cls-15{fill:#e9d9c3;}.cls-16{fill:#f5edda;}</style></defs><path class="cls-14" d="M293.95.75v211.81c-.17-.07-.34-.14-.52-.19-.02-2.67-.06-5.34-.07-8.01,0-1.26-.22-2.33-1.85-1.63-7.96,3.43-16.38,3.41-24.81,3.36-.48-2.63-.87-5.27-1.97-7.74-.74-1.65-1.52-3.54-3.53-3.64-2.12-.1-2.84,1.91-3.6,3.5-1.64,3.37-1.55,7.13-2.26,10.71-1.17.23-2.34.43-3.49.69-5.4,1.22-11.09.87-16.33,2.94-6.1,2.41-12.26,4.63-18.7,5.96-.73.15-1.37.31-1.45,1.2-3.74.27-7.48.53-11.71.83,1.44,1.18,2.57.84,3.6.84,27.96.02,55.92.02,83.89,0,.93,0,2,.44,2.81-.45v8.97h-95.54c0,.4,0,.8,0,1.2h95.54c0,17.85-.03,35.7.05,53.55,0,1.79-.36,2.14-2.15,2.14-96.57-.05-193.13-.05-289.7,0-1.79,0-2.16-.36-2.15-2.14.08-17.65.05-35.3.05-52.95,18.98-.01,37.96-.03,56.94-.04,13.98,0,27.97-.02,41.95.03,1.21,0,3.04-.76,3.05,1.64-.78.42-1.53.92-2.34,1.26-2.7,1.12-2.47,2.59-.93,4.69,1.35,1.82,2.9,3.63,3.4,5.93-1.28.49-2.67-.25-4.27,1.49h9.26c.99.02,2,.07,2.33-1.2.43,0,.86,0,1.3,0,.47,1.39,1.72,1.46,2.71,1.16,4.19-1.28,8.33-.4,12.5.02.96.09,1.95-.17,2.93-.27.77.11,1.55.22,2.32.34,9.77-.03,19.54-.04,29.32-.14.96-.01,2.49.78,2.8-1.11h-.27c0,1.65,1.32,1.09,2.12,1.13,2.43.12,4.87.11,7.31.15,2.2,0,4.4,0,6.6,0,1.48-.4,3.14.37,4.52-.57-.23-1.73-3.05-2-2.27-3.92,1.11-2.77,1.57-5.7,2.46-8.51.49-1.55,1.94-1.94,2.77-1.09,2.67,2.72,7.6,2.53,8.9,6.95.17.57.77,1.01,1.43.77.74-.26.52-.96.44-1.53-.31-2.34-1.8-3.89-3.51-5.32-1.75-1.46-2.4-2.94-.53-4.96,1.77-1.93,2.65-4.46,3.14-7,.7-3.58,1.32-7.07,5.79-7.82.24-.04.43-.4.64-.61.49-.08,1.05-.02,1.45-.25,5.02-2.88,9.74-6.19,13.98-10.14,6.42-5.99,12.48-12.37,16.9-19.98,3.73-6.43,7.36-13,8.96-20.4h14.58c0-.43,0-.86,0-1.3h-13.96c3.25-10.93,4.59-22.01,3.72-33.46-.68-8.89-2.12-17.58-5.13-25.89-4.56-12.57-11.02-24.14-19.66-34.52-9.76-11.71-21.72-20.48-35.47-26.62-15.86-7.08-32.56-10.03-50.07-8.25-10.07,1.03-19.77,3.11-29.15,6.83-13.14,5.21-24.82,12.73-34.8,22.67-4.77,4.75-8.87,10.15-12.59,15.82-8.82,13.43-14.57,27.97-16.56,43.94-8.49,0-16.97,0-25.46.03-.91,0-2.39-.29-2.29,1.1.08,1.11,1.48.63,2.29.64,8.49.04,16.97.03,25.46.03-.2,1.07-.53,2.13-.58,3.21-.54,13.8.83,27.26,5.77,40.35,4.42,11.7,10.72,22.04,19.42,31.02,3.39,3.51,7.28,6.43,10.79,9.78-1.53.31-3.7-.9-4.21,1.78-1.5-.12-2.72-1.03-4.24-1.24-9.34-1.28-18.45-3.43-26.94-7.71-.19-.01-.38-.02-.56-.02-.47-1.05-1.57-1.27-2.41-1.84-3.12-3.09-6.93-5.3-10.4-7.93-1.94-1.47-4.33-2.74-6.69-3.22-8.27-1.66-16.61-2.92-24.92-4.34V.75h293.9ZM264.87,246.4c.36-.46.35-.78-.32-.84-.38-.04-.83-.03-.74.47.1.6.62.49,1.06.38ZM28.21,246.47c.42.09.81-.05.83-.46.02-.41-.36-.57-.79-.47-.83.27-.84.58-.04.93ZM228.57,246.52c1.17.12,2.36.35,4.08-.51-1.72-.79-2.9-.62-4.07-.5h-15.11c0,.34,0,.67,0,1.01h15.11ZM59.5,246.39c-1.55-1.04-3.16-1.36-4.69,0h4.69Z"/><path class="cls-9" d="M.05,229.91c0-2.79,0-5.58,0-8.38,1.1-.02,2.19-.07,3.29-.07,33.04,0,66.08.02,99.11-.02,1.1,0,2.72.86,3.23-1.11,1.69.22,3.24-.93,4.95-.52-1.63,3.83-4.48,6.81-6.95,10.06-34.54,0-69.09.02-103.63.03Z"/><path class="cls-12" d="M44.47,200.57c.19,0,.38,0,.56.02,1.46,4.07,4.08,7.42,7.73,9.53,3.73,2.15,6.06,5.87,9.83,7.89.34.18.3,1.08.43,1.64-1.82-.14-3.64-.28-5.47-.42-.21-.2-.38-.51-.63-.58-9.79-2.74-19.11-6.72-28.42-10.72-9.41-4.04-18.45-8.96-28.46-11.52v-13.16c8.31,1.42,16.66,2.69,24.92,4.34,2.36.47,4.75,1.74,6.69,3.22,3.47,2.63,7.28,4.84,10.4,7.93-.02,1.69.32,2.91,2.41,1.84Z"/><path class="cls-11" d="M.05,196.4c10.01,2.56,19.05,7.48,28.46,11.52,9.31,4,18.63,7.98,28.42,10.72.24.07.42.38.63.58-.99.62-2.1.52-3.19.52-18.11,0-36.21,0-54.32,0v-23.33Z"/><path class="cls-4" d="M255.34,208.92c.71-3.58.63-7.34,2.26-10.71.77-1.58,1.49-3.6,3.6-3.5,2.01.1,2.79,1.99,3.53,3.64,1.11,2.46,1.5,5.11,1.97,7.74,0,4.43.73,9.13-4.48,11.57-.59.28-.74.91-.57,1.55.2.77.88.73,1.44.71,1.89-.07,3.77-.21,5.66-.32.98,1.06,2.26.56,3.39.57,7.27.1,14.53.12,21.8.17v.6c-.81.89-1.88.45-2.81.45-27.96.03-55.92.03-83.89,0-1.03,0-2.16.34-3.6-.84,4.23-.3,7.97-.57,11.71-.83.68.08,1.37.24,2.05.24,13.35.04,26.7.07,40.05.1.6,0,1.21.03,1.79-.09,1.61-.34,1.72-1.77.68-2.28-3.76-1.87-4.22-5.24-4.59-8.75Z"/><path class="cls-10" d="M.05,219.74c18.11,0,36.21,0,54.32,0,1.09,0,2.2.1,3.19-.52,1.82.14,3.64.28,5.47.42,5.8.41,11.6.19,17.41.14,6.61.16,13.23.32,19.84-.17,1.8.24,3.61.48,5.41.72-.51,1.97-2.13,1.11-3.23,1.11-33.04.04-66.08.02-99.11.02-1.1,0-2.19.04-3.29.07,0-.6,0-1.2,0-1.79Z"/><path class="cls-3" d="M.05,229.91c34.54,0,69.09-.02,103.63-.03-1.88,2.66.48,3.72,1.95,5.12-.13.68-.6.89-1.22.9-.8-.86-1.61-1.71-2.41-2.57-.01-2.4-1.85-1.63-3.05-1.64-13.98-.04-27.97-.03-41.95-.03-18.98,0-37.96.03-56.94.04v-1.79Z"/><path class="cls-6" d="M293.95.75H.05C.59-.49,1.67.19,2.45.19c16.89-.05,33.79-.04,50.68-.04,79.37,0,158.74,0,238.12.04.88,0,2.03-.69,2.7.56Z"/><path class="cls-11" d="M293.95,220.34c-7.27-.05-14.54-.07-21.8-.17-1.13-.01-2.41.49-3.39-.57.05-.93.81-1,1.46-1.19,7.67-2.28,15.41-4.26,23.21-6.04.18.05.35.12.52.19v7.78Z"/><path class="cls-12" d="M293.95,231.11h-95.54c0-.4,0-.8,0-1.2h95.54v1.2Z"/><path class="cls-6" d="M244.14,162.39c-1.6,7.4-5.23,13.97-8.96,20.4-4.42,7.62-10.47,13.99-16.9,19.98-4.24,3.95-8.96,7.26-13.98,10.14-.4.23-.97.17-1.45.25.24-1.63-.91-1.87-2.09-2.31-2.32-.87-4.71-1.83-4.03-5.5-2.57,1.92-5.05,3.25-6.19,5.76-3.46,7.62-9.92,8.79-17.2,8.22-7.29-.57-13.96-3.07-20.15-6.89-5.53-4.54-10.71-9.31-12.05-16.84-.35-1.26-1.48-1.41-2.48-1.75-.49-.73-1.02-1.44-1.47-2.2-1.98-3.35-5.26-6.03-5.44-10.33.11-1.18.27-2.36-.34-3.47-.16-2.75.23-5.61-1.66-8-.28-.94-1.03-1.36-1.87-1.68.09-1.27-.07-2.7,1.29-3.4,4.01-2.07,4.41-2.86,3.39-7.31,1.62-1.23,2.49-2.31-.42-2.94-.76-.17-1.45-.66-2.2-.94-2.45-.91-4.77-.73-6.6,1.28-1.88,2.05-1.64,4.39-.36,6.64.53.93,1.34,1.71,2.02,2.55-.84,1.37-2.5,2.2-2.69,4.01-2.39,0-4.84.36-7.14-.06-2.61-.47-4.1,2.02-6.68,1.77-1.75-.17-2.93,1.67-2.75,3.59.17,1.89,1.37,3.02,3.34,3.19.86.07,2.14-.61,1.97,1.21-.11,1.23-.42,2.11-1.93,2.01-1.32-.09-2.38.31-2.52,1.88-.15,1.68-.31,3.36-.43,5.04-.07,1.05.23,2.44,1.27,2.37,3.11-.22,2.34,1.74,2.27,3.42-.03.62.18,1.17.66,1.59,1.82,2.8,4.28,1.84,6.7,1.15-.75,5.81-1.47,11.63-2.26,17.44-.2,1.43.17,3.04-1.13,4.19-.22-.72-.72-1.17-1.35-1.52-5.58-3.07-11.14-6.17-16.76-9.17-1.11-.59-2.32-.68-3.72-.37-3.76.84-7.6,1.33-11.41,1.97-3.52-3.35-7.4-6.27-10.79-9.78-8.7-8.98-15-19.32-19.42-31.02-4.94-13.09-6.31-26.56-5.77-40.35.04-1.07.38-2.14.58-3.21,18.48,0,36.97,0,55.45-.05.9,0,2.46.49,2.47-.85,0-1.34-1.56-.79-2.46-.85-1.29-.09-2.6-.02-3.9-.02-17.18-.01-34.37-.02-51.55-.03,2-15.97,7.74-30.51,16.56-43.94,3.72-5.67,7.83-11.07,12.59-15.82,9.98-9.94,21.66-17.46,34.8-22.67,9.38-3.72,19.08-5.8,29.15-6.83,17.51-1.79,34.21,1.16,50.07,8.25,13.75,6.14,25.71,14.91,35.47,26.62,8.64,10.38,15.1,21.94,19.66,34.52,3.01,8.3,4.46,17,5.13,25.89.87,11.45-.47,22.53-3.72,33.46-18.43,0-36.86,0-55.29,0,0,.43,0,.86,0,1.3h54.66Z"/><path class="cls-7" d="M153.18,212.44c6.19,3.82,12.86,6.32,20.15,6.89,7.28.56,13.74-.6,17.2-8.22,1.14-2.5,3.62-3.84,6.19-5.76-.68,3.67,1.71,4.63,4.03,5.5,1.18.45,2.33.68,2.09,2.31-.21.21-.4.56-.64.61-4.47.75-5.09,4.24-5.79,7.82-.5,2.54-1.37,5.07-3.14,7-1.87,2.03-1.22,3.51.53,4.96,1.71,1.43,3.2,2.98,3.51,5.32.08.57.3,1.27-.44,1.53-.65.23-1.26-.2-1.43-.77-1.3-4.42-6.23-4.22-8.9-6.95-.83-.85-2.28-.47-2.77,1.09-.89,2.81-1.34,5.74-2.46,8.51-.77,1.92,2.04,2.19,2.27,3.92-1.38.94-3.04.16-4.52.57.57-3.37.2-6.76.27-10.14.11-4.67.1-4.7-4.52-6-1.09-.31-2.62-1.42-3.31-.32-1.64,2.61-3.37,5.07-5.63,7.17-.19.18-.04.76,0,1.15.36,3,2.99,5.99,6.06,6.81.88.24,1.32.49.52,1.31-2.44-.04-4.88-.03-7.31-.15-.8-.04-2.12.52-2.12-1.13,1.13-.26,2.86.56,3.3-.53.4-.98-.6-2.34-1.42-3.35-.3-.37-.37-1-.73-1.23-2.02-1.32-2.14-3.06-.89-5.24-1.8.66-3.15,1.47-4.57,1.61-3.96.38-5.57,3.17-7.09,6.21-.87,1.73-.59,2.54,1.54,2.49,3.37-.07,6.75.01,10.13.03-.31,1.89-1.84,1.1-2.8,1.11-9.77.1-19.54.11-29.32.14-1.02-2.64.32-5.49,2.83-5.8,3.03-.38,5.07,1.87,7.16,3.35,2.4,1.7,4.76,1,7.13,1.05,1.84.04.43-1.88,1.19-2.81,2.41-2.94,2.25-7.57,6.57-9.31-1.67-.32-3.06-.34-4.42-.53-3.31-.46-6.62-3.33-6.99-6.1-.14-1.06-.23-2.66,1.54-1.71,5.7,3.06,10.31.78,14.78-2.64,1.83-.72,3.53-1.78,6.08-2.14-5.3-2.26-10.5-3.56-14.68-6.91.27-.25.53-.5.8-.74Z"/><path class="cls-16" d="M160.99,222.23c-4.46,3.43-9.08,5.71-14.78,2.64-1.77-.95-1.68.65-1.54,1.71.38,2.76,3.68,5.64,6.99,6.1,1.36.19,2.75.2,4.42.53-4.32,1.74-4.17,6.38-6.57,9.31-.76.92.65,2.85-1.19,2.81-2.36-.05-4.73.65-7.13-1.05-2.08-1.48-4.13-3.73-7.16-3.35-2.51.31-3.84,3.16-2.83,5.8-.77-.11-1.55-.22-2.32-.34.49-2.35-.16-3.87-2.84-4.03-.88-.05-1.73-.34-2.61-.48-2.1-.33-3.35-2.83-1.74-4.02,2.6-1.92,1.71-4.35,1.9-6.69,1.8-.02,3.61-.04,5.41-.07.12.39.25.77.37,1.16-.41.07-.83.27-.69.69.08.25.59.36.9.54.35,1.34.74,2.68,1.03,4.04.26,1.18-.09,2.91,2,2.42,1.41-.33,3.19.12,3.18-2.68-.02-5.5-1.34-10.85-1.49-16.31,8.85,1.29,17.84-.14,26.68,1.28Z"/><path class="cls-2" d="M123.6,231.17c-.19,2.33.7,4.77-1.9,6.69-1.61,1.18-.36,3.69,1.74,4.02.87.14,1.73.43,2.61.48,2.68.16,3.33,1.68,2.84,4.03-.98.1-1.97.36-2.93.27-4.17-.41-8.3-1.3-12.5-.02-.98.3-2.24.23-2.71-1.16.24-.96-.06-2.05-.98-1.95-.98.11-.43,1.24-.32,1.95-.33,1.27-1.34,1.22-2.33,1.2.13-.15.39-.41.38-.42-2.71-2.96-3.06-6.62-3.1-10.37.62,0,1.1-.22,1.22-.9.22-.1.43-.19.65-.29.18-.15.36-.3.54-.46,6.52-7.54,15.55-13.31,16.94-24.5,2.26,6.73,3.89,13.37,5.04,20.13h-13.18c.01.43.03.86.04,1.28h7.94ZM114.92,239.87c.81-.71,2.07-1.17,1.8-2.46-.18-.85-.98-1.57-2.01-1.38-.92.17-1.81.81-1.62,1.78.17.86.68,1.83,1.84,2.07Z"/><path class="cls-3" d="M80.43,219.79c-5.8.04-11.61.26-17.41-.14-.14-.56-.09-1.46-.43-1.64-3.77-2.01-6.1-5.74-9.83-7.89-3.65-2.1-6.26-5.45-7.73-9.53,8.49,4.27,17.6,6.43,26.94,7.71,1.52.21,2.75,1.12,4.24,1.24,3.59,1.62,7.45,2.65,10.8,4.8-.31,2.3-1.66,3.45-3.94,3.63-1.21.1-2.4.3-2.65,1.82Z"/><path class="cls-12" d="M293.43,212.37c-7.8,1.78-15.55,3.75-23.21,6.04-.65.19-1.41.26-1.46,1.19-1.88.11-3.77.25-5.66.32-.56.02-1.24.07-1.44-.71-.16-.64-.02-1.27.57-1.55,5.2-2.44,4.47-7.15,4.48-11.57,8.43.05,16.85.07,24.81-3.36,1.63-.7,1.84.37,1.85,1.63.01,2.67.04,5.34.07,8.01Z"/><path class="cls-3" d="M255.34,208.92c.37,3.51.84,6.88,4.59,8.75,1.04.52.93,1.94-.68,2.28-.58.12-1.19.1-1.79.09-13.35-.03-26.7-.05-40.05-.1-.69,0-1.37-.16-2.05-.24.08-.89.71-1.04,1.45-1.2,6.44-1.33,12.61-3.55,18.7-5.96,5.25-2.08,10.93-1.73,16.33-2.94,1.16-.26,2.33-.46,3.49-.69Z"/><path class="cls-16" d="M87.02,214.34c-3.36-2.15-7.21-3.17-10.8-4.8.52-2.68,2.69-1.47,4.21-1.78,3.81-.63,7.65-1.12,11.41-1.97,1.4-.31,2.61-.22,3.72.37,5.61,3,11.18,6.11,16.76,9.17.63.35,1.14.8,1.35,1.51-.87,1.14-1.36,2.67-3.05,2.96-1.71-.41-3.26.74-4.95.52-1.8-.24-3.61-.48-5.41-.72-4.08-2.6-8.73-3.78-13.25-5.28Z"/><path class="cls-16" d="M172.48,246.75c.8-.82.36-1.08-.52-1.31-3.06-.82-5.7-3.82-6.06-6.81-.05-.39-.2-.97,0-1.15,2.26-2.1,3.99-4.56,5.63-7.17.69-1.11,2.22.01,3.31.32,4.61,1.3,4.62,1.33,4.52,6-.08,3.38.3,6.77-.27,10.14-2.2,0-4.4,0-6.6,0Z"/><path class="cls-15" d="M45.04,121.61c17.18.01,34.37.02,51.55.03,1.3,0,2.6-.06,3.9.02.9.06,2.47-.49,2.46.85,0,1.33-1.57.84-2.47.85-18.48.04-36.97.04-55.45.05-8.49,0-16.97,0-25.46-.03-.81,0-2.2.47-2.29-.64-.1-1.4,1.38-1.1,2.29-1.1,8.49-.03,16.97-.02,25.46-.03Z"/><path class="cls-16" d="M163.32,245.47c-3.38-.02-6.75-.1-10.13-.03-2.13.05-2.41-.76-1.54-2.49,1.52-3.04,3.13-5.83,7.09-6.21,1.42-.13,2.77-.95,4.57-1.61-1.25,2.18-1.13,3.92.89,5.24.36.23.43.86.73,1.23.81,1.01,1.81,2.36,1.42,3.35-.44,1.09-2.17.27-3.3.53,0,0,.27,0,.27,0Z"/><path class="cls-12" d="M244.14,162.39h-54.66c0-.43,0-.86,0-1.3,18.43,0,36.86,0,55.29,0,4.65,0,9.3,0,13.96,0,0,.43,0,.86,0,1.3h-14.58Z"/><path class="cls-4" d="M104.4,235.9c.04,3.75.39,7.41,3.1,10.37.01.01-.25.27-.38.42-2.82,0-5.64,0-9.26,0,1.6-1.74,2.98-1,4.27-1.49-.5-2.3-2.06-4.11-3.4-5.93-1.54-2.09-1.77-3.56.93-4.69.81-.34,1.56-.83,2.34-1.26.8.86,1.61,1.71,2.41,2.57Z"/><path class="cls-7" d="M228.57,246.52h-15.11c0-.34,0-.67,0-1.01h15.11c0,.34,0,.67,0,1.01Z"/><path class="cls-3" d="M44.47,200.57c-2.09,1.07-2.43-.15-2.41-1.84.84.57,1.94.79,2.41,1.84Z"/><path class="cls-16" d="M109.46,245.49c-.11-.72-.66-1.84.32-1.95.92-.1,1.22.99.98,1.95-.43,0-.86,0-1.3,0Z"/><path class="cls-4" d="M228.57,246.52c0-.34,0-.67,0-1.01,1.17-.12,2.36-.29,4.07.5-1.72.85-2.91.62-4.08.51Z"/><path class="cls-7" d="M59.5,246.39h-4.69c1.53-1.36,3.14-1.04,4.69,0Z"/><path class="cls-5" d="M28.21,246.47c-.8-.35-.79-.66.04-.93-.01.31-.03.62-.04.93Z"/><path class="cls-7" d="M28.21,246.47c.01-.31.03-.62.04-.93.42-.1.8.06.79.47-.02.41-.41.55-.83.46Z"/><path class="cls-4" d="M264.87,246.4c-.45.12-.96.22-1.06-.38-.09-.5.37-.51.74-.47.11.28.22.56.32.84Z"/><path class="cls-5" d="M264.87,246.4c-.11-.28-.22-.56-.32-.84.67.07.68.38.32.84Z"/><path class="cls-1" d="M110.64,219.82c1.69-.3,2.18-1.83,3.05-2.96,1.3-1.14.94-2.76,1.13-4.19.8-5.81,1.52-11.63,2.26-17.44,3.28,0,6.57-.01,9.85.01.77,0,1.85-.37,2.23.4,1.13,2.25,1.98.31,2.94-.07,1.4,1.62,3.45,2.86,3.12,5.45-.13.99-.24,2.14-1.44,2.32-1.13.17-1.04-.92-1.22-1.65-.15-.61-.44-1.21-1.16-1.09-1.06.19-.71,1.16-.56,1.68,1.83,6.1,2.02,12.5,3.46,18.67.15,5.46,1.46,10.81,1.49,16.31.01,2.8-1.77,2.35-3.18,2.68-2.08.49-1.74-1.23-2-2.42-.29-1.36-.68-2.69-1.03-4.04-.07-.41-.14-.82-.21-1.23-.12-.39-.25-.77-.37-1.16-.07-.41-.15-.81-.22-1.22-1.15-6.76-2.78-13.4-5.04-20.13-1.38,11.19-10.42,16.96-16.94,24.5-.42-.13-.55.08-.54.46-.22.1-.43.19-.65.29-1.47-1.4-3.82-2.46-1.95-5.12,2.47-3.25,5.33-6.23,6.95-10.06Z"/><path class="cls-8" d="M87.02,214.34c4.52,1.5,9.17,2.67,13.25,5.28-6.61.49-13.22.34-19.84.17.24-1.53,1.44-1.72,2.65-1.82,2.28-.18,3.64-1.33,3.94-3.63Z"/><path class="cls-8" d="M132.1,195.57c-.96.38-1.81,2.32-2.94.07-.39-.77-1.47-.39-2.23-.4-3.28-.03-6.57-.01-9.85-.01-2.42.69-4.89,1.65-6.7-1.15,3.02-.41,6.82,1.38,8.47-2.96,1.16-1.05,2.57-3.17,3.43-2.97,2.88.68,1.77-1.27,2.03-2.36,2.21.62.75,3.54,2.94,4.39.04-2.1-.55-3.95-1.31-5.77.45-1.59-1.74-1.8-1.68-3.23.06-1.39,0-2.78,0-4.17,0-1.17,0-2.34,0-3.5-.27-.02-.54-.04-.81-.06-1.4,5.47,1.38,12.23-4.67,16.27-1.31-.44-.72-1.5-.62-2.26.55-4.43,1.12-8.87,1.84-13.28.25-1.54-.05-3.75,2.11-4.13,2.5-.44,5.3-1.91,7.4,1,.34,2.19.68,4.38,1.02,6.57,0,1.36-.34,2.84,1.21,3.7.18,4.3,3.46,6.97,5.44,10.33.45.76.98,1.47,1.47,2.2-1.07-.02-1.58.75-2.12,1.49-.78.03-1.18-.58-1.7-1-.65-.54-1.17-1.64-2.08-1.33-1.22.41-.4,1.7-.66,2.56Z"/><path class="cls-1" d="M118.85,191.12c-1.65,4.33-5.45,2.54-8.47,2.96-.48-.42-.68-.97-.66-1.59.07-1.68.84-3.64-2.27-3.42-1.04.07-1.34-1.31-1.27-2.37.12-1.68.28-3.36.43-5.04.14-1.56,1.19-1.96,2.52-1.88,1.51.1,1.82-.78,1.93-2.01.17-1.82-1.11-1.14-1.97-1.21-1.97-.17-3.17-1.3-3.34-3.19-.17-1.92,1-3.76,2.75-3.59,2.58.26,4.07-2.24,6.68-1.77,2.31.42,4.76.07,7.14.06,1.85.04,3.7.07,5.55.11.84.32,1.59.74,1.87,1.68-.08.4-.15.8-.23,1.2-2.1-2.91-4.9-1.44-7.4-1-2.16.38-1.86,2.58-2.11,4.13-.72,4.41-1.29,8.84-1.84,13.28-.1.76-.69,1.82.62,2.26.02.46.05.93.07,1.39Z"/><path class="cls-4" d="M125,164.05c-.68-.85-1.49-1.62-2.02-2.55-1.28-2.25-1.52-4.58.36-6.64,1.83-2,4.15-2.19,6.6-1.28.75.28,1.43.77,2.2.94,2.91.63,2.04,1.71.42,2.94-1.2.82-2.44,1.65-2.96,3.07-.79,2.18-2.37,3.24-4.58,3.51Z"/><path class="cls-8" d="M125,164.05c2.22-.28,3.79-1.34,4.58-3.51.52-1.42,1.77-2.25,2.96-3.07,1.02,4.45.62,5.24-3.39,7.31-1.36.7-1.21,2.13-1.29,3.4-1.85-.04-3.7-.07-5.55-.11.18-1.81,1.85-2.64,2.69-4.01Z"/><path class="cls-10" d="M153.18,212.44c-.27.25-.53.5-.8.74-5.61-3.44-9.39-8.43-12.14-14.28,1.21-.86.53-2.22.9-3.3,1.33,7.52,6.52,12.3,12.05,16.84Z"/><path class="cls-4" d="M141.13,195.6c-.36,1.08.31,2.45-.9,3.3-2.75.37-2.9-1.93-3.7-3.57.54-.74,1.05-1.51,2.12-1.49.99.35,2.13.49,2.48,1.75Z"/><path class="cls-10" d="M129.5,171.05c.08-.4.15-.8.23-1.2,1.89,2.39,1.5,5.25,1.66,8-.29-.08-.58-.15-.87-.23-.34-2.19-.68-4.38-1.02-6.57Z"/><path class="cls-11" d="M130.53,177.62c.29.08.58.15.87.23.62,1.11.45,2.29.34,3.47-1.55-.86-1.2-2.34-1.21-3.7Z"/><path class="cls-13" d="M136.54,195.34c.8,1.64.95,3.94,3.7,3.57,2.76,5.85,6.53,10.84,12.14,14.28,4.19,3.35,9.38,4.64,14.68,6.91-2.55.36-4.25,1.42-6.08,2.14-8.85-1.42-17.83,0-26.68-1.28-1.44-6.17-1.63-12.57-3.46-18.67-.16-.52-.5-1.49.56-1.68.72-.13,1.01.47,1.16,1.09.18.73.09,1.83,1.22,1.65,1.2-.18,1.32-1.33,1.44-2.32.33-2.59-1.73-3.83-3.12-5.45.26-.86-.57-2.15.66-2.56.91-.31,1.43.8,2.08,1.33.52.42.92,1.03,1.7,1Z"/><path class="cls-3" d="M128.79,229.89c.07.41.15.81.22,1.22-1.8.02-3.61.04-5.41.07-2.65,0-5.3,0-7.94,0-.01-.43-.03-.86-.04-1.28h13.18Z"/><path class="cls-3" d="M129.38,232.26c.07.41.14.82.21,1.23-.32-.17-.82-.29-.9-.54-.14-.42.29-.62.69-.69Z"/><path class="cls-16" d="M114.92,239.87c-1.16-.23-1.67-1.2-1.84-2.07-.19-.97.7-1.61,1.62-1.78,1.03-.19,1.83.53,2.01,1.38.27,1.29-.99,1.76-1.8,2.46Z"/><path class="cls-3" d="M106.28,234.71c0-.37.12-.59.54-.46-.18.15-.36.3-.54.46Z"/><path class="cls-4" d="M118.85,191.12c-.02-.46-.05-.93-.07-1.39,6.05-4.03,3.26-10.8,4.67-16.27.27.02.54.04.81.06,0,1.17,0,2.34,0,3.5,0,1.39.05,2.78,0,4.17-.06,1.43,2.13,1.64,1.68,3.23-.92,0-1.82.05-1.63,1.38-.26,1.09.85,3.04-2.03,2.36-.86-.2-2.27,1.91-3.43,2.97Z"/><path class="cls-10" d="M124.31,185.79c-.2-1.33.7-1.37,1.63-1.38.76,1.82,1.34,3.67,1.31,5.77-2.19-.86-.72-3.78-2.94-4.39Z"/></svg>