<?xml version="1.0" encoding="UTF-8"?><svg id="Lag_1" xmlns="http://www.w3.org/2000/svg" viewBox="0 0 417 414.6"><defs><style>.cls-1{fill:#e6b494;}.cls-1,.cls-2,.cls-3,.cls-4,.cls-5,.cls-6,.cls-7,.cls-8,.cls-9,.cls-10,.cls-11,.cls-12,.cls-13,.cls-14,.cls-15,.cls-16{stroke-width:0px;}.cls-2{fill:#d29074;}.cls-3{fill:#c08d72;}.cls-4{fill:#fdfdf7;}.cls-5{fill:#e5cfaf;}.cls-6{fill:#fdfcf5;}.cls-7{fill:#827b61;}.cls-8{fill:#4c4634;}.cls-9{fill:#9e3a27;}.cls-10{fill:#e9d2b2;}.cls-11{fill:#b7ad9b;}.cls-12{fill:#ac836a;}.cls-13{fill:#fcfcf5;}.cls-14{fill:#e8d2b3;}.cls-15{fill:#baa48a;}.cls-16{fill:#2d3124;}</style></defs><path class="cls-4" d="M208.5.06C277.18.06,345.87.07,414.55,0c2.05,0,2.45.4,2.45,2.46-.06,136.56-.06,273.13,0,409.69,0,2.05-.4,2.46-2.45,2.46-137.37-.06-274.73-.06-412.1,0-2.05,0-2.45-.4-2.45-2.46C.06,275.58.06,139.02,0,2.46,0,.4.4,0,2.45,0c68.68.07,137.37.06,206.05.06ZM43.54,248.44c-.5.45-.36,1.07-.41,1.63-3.53,3.71-3.01,7.66,1.45,10.91-.56,1.93-1.75,3.54-2.86,5.14-1.11,1.58-1.03,2.61.71,3.53,2.34,1.25,4.63,2.59,6.94,3.89-.75,1.61-2.28,2.45-3.53,3.55-4.21,3.73-7.21,8.35-9.79,13.28-1.04.44-2.07.88-3.11,1.31-3.44.64-6.78,1.47-8.87,4.67.71,7.22,3.74,13.05,10.08,16.91-.82.85-1.87.45-2.82.47-3.27.05-6.55,0-9.82.05-.78.01-2.1-.43-2.05.94.04,1.08,1.24.72,1.96.73,3.97.04,7.94.03,11.91.02.77,0,1.63.12,2.08-.78,1.31.15,2.63.29,3.94.44.38.11.76.32,1.14.32,13.32,0,26.65-.03,39.97-.05,4.95.12,9.91.41,14.84-.34.66.65,1.49.44,2.26.44,16.78,0,33.56,0,50.35-.03.85,0,1.81.29,2.51-.52,6.59.56,13.17.57,19.76-.04,5.19.98,10.38.94,15.58.05,6.13.8,12.27.82,18.42.42.89.05,1.79.14,2.68.14,27.82,0,55.64-.01,83.46-.03,1.29,0,2.58-.11,3.88-.16,12.02.05,24.05.12,36.07.13,1.77,0,3.58.29,5.33-.28,1.13.27,2.27.27,3.41.02,3.83.58,7.69.17,11.54.24.99.02,2.21.56,2.96-.67.58,0,1.16-.01,1.73-.02.34.87,1.12.7,1.78.7,3.18.02,6.37.02,9.56.02,7.37,0,14.73.03,22.1,0,.81,0,2.2.44,2.23-.76.05-1.52-1.45-.84-2.31-.97-.58-.09-1.19-.01-1.79-.01-9.75-.03-19.51-.07-29.26-.1,4.13-2.08,8.24-4.19,11.79-7.22,1.58,1.34,2.37,3.49,4.47,4.32.93.37,1.69.44,2.41-.39.62-.72.59-1.43.16-2.2-.63-1.13-1.27-2.25-1.91-3.37,1.92-1.33,3.65-2.9,5.08-4.74.41-.53,1.78-1.27.32-2.21-.42-1.19-.88-2.35-1.87-3.21-.93-1.82-2.39-1.37-3.77-.8-1.71.71-3.33,1.63-5.18,1.97-.29-.4-.58-.8-.86-1.2-2.71-3.78-2.76-6.53.04-10.12,1.43-1.83,2.37-3.85,3.31-5.94,1.51-3.36,2.19-6.98,3.48-10.41.47-1.3.93-2.6,1.4-3.89.72-.53.72-1.27.6-2.04,1.61-.04,2.95-.52,3.46-2.23.33-1.1.87-1.38,2-.95,3.37,1.28,6.64.19,9.85-.71,2.33-.65,2.66-2.94,2.83-4.84.15-1.68-1.79-1.5-2.87-2.04-1.87-.94-4.22-.92-5.18-3.5-2.68-7.18-11.23-8.94-16.73-3.57-2.57,2.51-5.13,5.02-7.7,7.52-1.42-.29-2.78.07-4.11.45-4.17,1.19-8.39,1.11-12.61.55-8.64-1.14-14.73-5.98-18.98-13.38-1.95-3.39-4.11-6.57-7.6-8.59-.63-1.97-1.24-3.95-1.89-5.91-2.22-6.64-3.97-13.44-6.74-19.9.03-.3.06-.6.08-.9,3.73-.85,4.38-3.19,3.21-6.5-.19-.54-.02-1.19-.07-1.79-.43-5.85-.8-11.71-1.33-17.55-.91-9.99-1.91-19.98-2.89-29.96-.61-6.24-1.39-12.48-3.59-18.39-.98-2.64-2.21-5.3-5.2-6.41-.5-2.02.07-3.96.43-5.92.45-1.38.91-2.75,1.36-4.13.39,0,.8-.07,1.18,0,3.89.79,4.35.11,5.97-3.3,1.27-2.68,2.82-4.92,1.12-7.92-.18-.32.38-1.07.6-1.62,3.91-2.46,4.23-7.2.56-10.87-3.49-3.5-7.81-5.4-12.7-6.08-3.26-.45-5.51,1.42-8.12,2.92-3.13,1.8-5.03,4.09-4.89,7.54.23,5.48,1.64,10.64,5.94,14.52-.08,3.65-1.73,6.81-3.1,10.06-3.24,1.5-5.64,3.97-7.76,6.76-4.21,5.53-5.76,12.15-7.73,18.62-5.69,18.69-9.17,37.81-11.31,57.19-.29,2.63-1.34,5.49.53,8.05-.42.75-.75,1.51-.48,2.4-.68.4-.6,1.13-.77,1.76-1.55-1.54-2.84-3.2-3.68-5.3-1.74-4.37-2.89-8.9-4.12-13.42-1.97-7.29-3.1-14.86-6.64-21.66-.78-1.49-1.54-3.07-3.5-3.38-.03-.07-.04-.15-.08-.21-.03-.03-.1-.03-.15-.05.08.08.16.17.24.25,1.93,5.46,5.33,10.52,4.43,16.74-.05.31.34.69.53,1.01-.6,6.09-1.2,12.18-1.79,18.26-3.35,1.32-6.87.22-10.28.71-.22-.04-.44-.08-.66-.11,0-.8.03-1.6.01-2.4-.18-8.07.46-16.16-.62-24.21-.53-3.95-1.12-7.79-3.65-11.17-1.35-1.8-2.37-1.6-3.88-.62-3.85,2.48-6.37,6.1-7.91,10.25-3.15,8.5-4.25,17.59-6.9,26.2-2.08,6.74-1.46,13.13-.41,19.72.23,1.43.27,3.04,1.9,3.81.02.76.04,1.51.06,2.27-.04.45-.08.91-.12,1.36.08,2.19-1.7,3.18-2.89,4.59-2.79,3.31-4.17,3.12-7.12.1-3.17-3.24-4.33-7.26-5.65-11.31-.98-6.12-4.36-10.32-10.07-12.68l-.13.07c.02-.81.03-1.62.05-2.43.68-.45,1.41-.58,2.23-.6,3.79-.09,7.42-5.6,5.96-9.14-.52-1.26-.41-2.5-.56-3.76l.17-.19c.57-.05,1.07-.18,1.04-.91,1.92-2.69,1.77-5.3-.66-8.37-3.24-4.08-7.92-5.1-12.72-5.67-3.76-.44-6.33,1.24-8.86,4.21-5.28,6.17-3.53,16.94,3.87,20.76.19,2.07-.05,4.09-.68,6.07-5.22,3.09-8.79,7.53-10.05,13.47-1.27,6.01-2.26,12.1-3.06,18.19-.77,5.81-1.09,11.66,3.5,16.38.19.42.39.83.58,1.25.19.38.38.76.57,1.13.78,3.3,1.51,6.64,5.38,7.79-.54,5.04,1.06,10.72-4.22,14.37-2.67,1.42-5.7,2.36-7.13,5.41-.66-.06-1.3-.07-1.71.59-2.49.08-4.18,1.68-5.97,3.1-1.27-1.45-1.96-3.2-2.57-4.99,2.57-1.63,2.53-4.27-.11-6.55l-.15-.21c-1.77-7.87-3.58-15.74-5.31-23.62-1.95-8.86-4.35-17.62-5.81-26.58.09-.68.18-1.36.27-2.04,1.02-.75.78-1.94.99-2.95,1.08-5.18,2.11-10.37,3.16-15.56,1.46,2.06,1.3,5.37,4.63,6,.05,1.41.79,2.42,1.84,3.27-.15,1.76-.84,3.54-.26,5.29.74,2.23,2.29,4.2,4.53,4.47,2.23.27,3.1-1.94,3.92-3.84,1.38-3.21-.28-5.48-2.05-7.78.33-1.92-1.33-3.42-1.12-5.32,1.76-1.56,2.77-3.4,2.08-5.82-2.77-9.67-5.55-19.33-8.33-28.99-.16-.88-.23-1.78-.5-2.62-2.7-8.33-4.54-16.87-6.29-25.43-.84-4.11-1.93-7.92-5.6-10.44-2.77-1.47-4.38-3.54-3.54-6.87l1.17-3.8c1.02-.29,1.92.15,2.88.37,1.7.39,3.7-.08,4.01-1.65.63-3.2,3.55-5.98,1.91-9.61,1.64-2.08,1.62-4.41.98-6.82-2.63-9.8-15.29-13.65-23.61-7.11-1.31,1.03-2.39,1.24-4.02,1.06-6.95-.75-13.48.71-19.4,4.49-1.89,1.21-3.34,2.92-3.58,5.27-.13,1.27-.19,3.02,1.51,3.09,2.22.09,3.03,1.45,4.05,2.99,2.5,3.78,7.5,3.31,9.5-.79,1.18-2.42,2.34-4.85,3.69-7.17.89-1.53,1.78-3.25,4.13-3.73-.51,1.92-1.17,3.51-1.32,5.15-.65,6.67,3.14,11,10.8,12.53-.51,2.65-1.35,5.22-2.63,7.59-.53.98-.68,1.45.39,2.09,3.32,1.98,6.47,4.52,10.73,3.36.98-.27,1.18.45,1.72.79,1.58,5.12,2.92,10.29,3.79,15.58.93,5.66,1.93,11.3,2.89,16.95.19,4.42,2.08,8.62,1.75,13.11-.39.41-.78.83-1.17,1.24-4.61-.57-9.23-.78-13.87-.66-1.06-10.83-.96-21.75-2.43-32.54-.7-5.11-1.07-10.37-4.13-14.84-1.99-2.92-3.1-3.16-6.15-1.27-3.55,2.2-5.91,5.3-7.01,9.35-1.15,4.24-2.39,8.45-3.4,12.72-1.78,7.6-5.52,14.59-7,22.24-1.48,7.65-3.34,15.19-5.3,22.71-.91,3.5-1.06,6.67,1.97,9.25-.12.94-.25,1.88-.37,2.81-.64,2.43.01,5.11-1.49,7.36-1.19.05-2.08.79-3.09,1.27l-1.11-.11c-.68-.84-1.64-.57-2.5-.56-4.05.08-6.9-1.18-8.21-5.56-1.21-4.03-2.9-8.02-6.53-10.69-.21-.62-.14-1.37-.8-1.79.29-.96.58-1.92.86-2.88.59-.04,1.18-.1,1.78-.11,3.76-.03,7.71-3.6,6.71-7.07-.8-2.77-.35-5.2-.28-7.79,3.21-1.42,1.7-3.88.81-5.61-2.65-5.18-7.32-7.45-12.94-7.66-5.42-.2-9.2,2.74-11.21,7.45-2.29,5.38-7.14,6.92-11.76,8.77-1.81.73-2.81,1.01-1.42,2.91.3.41.36.74.3,1.3-.41,4.17,1.17,6.09,5.2,7.26,4.74,1.37,9.45,1.01,14.2.36-.05.38-.11.77-.16,1.15-1.38.39-2.46,1.24-3.46,2.23-10.05,9.91-16.21,22.11-20.7,35.29-.39,1.15-.35,2.16.88,2.79-.05.62-.1,1.24-.14,1.85ZM241.56,163.98c.37-.83.74-1.67,1.12-2.5,2.5.56,5.07,1.1,6.22-2.08.44-1.22.75-2.42,1.67-3.4.6-.64.66-1.41.15-2.18-1.46-2.22-1.08-4.5-.26-6.81,2.07-2.04,1.35-4.24.09-6.22-3.16-4.95-7.74-7.64-13.66-7.8-4.03-.11-7.48,1.27-9.86,4.63-3.57,5.02-5.82,10.64-7.02,16.66-.25,1.28-.42,2.73,1.02,3.54,1.07-.65.13-2.05,1.39-2.61.6,1.54.68,3.53,2.38,3.99,3.09.84,6.13,2.56,9.5,1.11.74,1.21-.32,2.03-.65,3-.25.72-.85,1.36-.35,2.22.7,1.22,5.73,3.32,7.24,2.92,2.87-.76.3-2.88,1.01-4.19.04-.08,0-.2,0-.29ZM182.11,374.15c-.34-1.74.1-3.08.79-4.27,1.25-2.17,4.93-2.44,5.98-.22,1.41,2.98,4.1,2.1,5.52,1.42,1.71-.82.25-2.97-.41-4.43-.63-1.4-1.76-2.36-3.15-3.06-6.83-3.43-14.48,1.2-15.16,9.36-.28,3.37-.28,6.79-.04,10.16.56,7.76,8.78,12.19,15.36,8.4,4.31-2.49,6.05-8.29,3.92-13.1-2.13-4.81-6.7-6.37-12.81-4.26ZM212.62,383.84h-.01c0,1.8-.07,3.59.02,5.38.05,1.08-.78,2.7,1.59,2.62,2.38-.08,1.4-1.73,1.46-2.77.16-2.48,0-4.99.2-7.47.13-1.61,1.02-2.89,2.92-2.69,1.72.17,2.27,1.42,2.28,2.97.02,2.69.06,5.39.02,8.08-.02,1.16.14,1.83,1.59,1.83,1.52,0,1.51-.84,1.51-1.9,0-2.69-.04-5.39.09-8.08.08-1.68.92-2.83,2.82-2.8,1.97.03,2.52,1.22,2.49,2.96-.03,2.69,0,5.39-.03,8.08-.01,1.03.15,1.7,1.43,1.7,1.21,0,1.86-.29,1.83-1.66-.09-3.29.04-6.59-.16-9.87-.16-2.71-2.29-4.76-4.83-4.02-2.9.84-5.38,1.26-8.28-.02-1.6-.7-3.53,1.36-5.59.07-1.02-.63-1.37.59-1.36,1.58.02,1.99,0,3.99,0,5.98ZM211.44,391.51c-.78-1.32-1.43-2.43-2.09-3.54q-3.45-5.81,1.2-10.63c.29-.3.49-.59.32-1-3.94-1.32-5.02,3.23-8.23,4.11,0-2.91,0-5.59,0-8.28,0-1.04.08-1.97-1.48-1.96-1.37.01-1.66.59-1.66,1.81.05,5.99.06,11.99.02,17.98,0,1.22.27,1.78,1.64,1.79,1.51.01,1.46-.83,1.53-1.9.11-1.71-.53-3.57.92-5.46,1.13,1.78,2.24,3.28,3.07,4.91.98,1.93,2.2,3.03,4.74,2.16Z"/><path class="cls-10" d="M300.92,123.59c2.99,1.11,4.21,3.77,5.2,6.41,2.2,5.91,2.97,12.15,3.59,18.39.98,9.99,1.99,19.97,2.89,29.96.53,5.84.9,11.7,1.33,17.55.04.6-.12,1.25.07,1.79,1.18,3.3.53,5.65-3.21,6.5-1.07-.45-2.13-.17-3.19.02-4.46.78-8.93,1.54-13.39,2.31-3.41.33-6.83.66-10.24.99-1.54.08-3.09.16-4.63.24-1.39-2.02-1.44-4.32-1.41-6.64,1.68-3.67,2.3-7.62,2.96-11.55.23-1.15.38-2.32.71-3.44,3.43-11.73,7.14-23.38,9.43-35.41,1.13-5.94,1.7-11.91,1.01-17.96-.41,13.13-3.41,25.77-6.97,38.31-1.76,6.22-4.18,12.24-5.54,18.57-.13.37-.26.73-.39,1.1l-.03.03c-1.23,2.5-2.53,4.98-1.81,7.92-1.57-.09-1.53,1.23-1.94,2.19-1.19,2.82-2.39,5.64-3.64,8.44-.39.88-.72,1.91-1.99,1.92-2.45.18-4.33-1.76-6.72-1.81-1.87-2.56-.82-5.42-.53-8.05,2.14-19.38,5.62-38.5,11.31-57.19,1.97-6.47,3.52-13.09,7.73-18.62,2.12-2.79,4.52-5.26,7.76-6.76,1,.6,2.02,1.18,3.01,1.8,2.65,1.68,5.22,3.53,8.63,2.99Z"/><path class="cls-14" d="M374.97,268.14c-1.29,3.43-1.97,7.05-3.48,10.41-.94,2.09-1.88,4.11-3.31,5.94-2.8,3.59-2.74,6.34-.04,10.12.29.4.58.8.86,1.2-.22.21-.44.41-.66.62-1.48,0-2.96-1.18-4.43.36-1.78,1.86-3.53,1.81-4.97-.6-.5-.84-1.36-1.45-1.91-2.26-1.63-2.42-3.67-3.54-6.57-2.37-1.67-.04-3.47.31-4.96-.21-2.29-.81-3.03.16-3.56,2.04-.18.64-.6,1.22-.92,1.82-2.16-.73-2.15-3.65-4.27-4.36-3.48-1.15-6.97-2.43-10.71-1.09-3.22.23-5.87,1.91-8.13,3.91-2.88,2.55-6.22,4.14-9.6,5.75-4.17-.63-7.04,1.78-9.89,4.25-.54-1.88-2.26-2.02-3.73-2.52.06-3.01,2.24-4.52,4.35-6.03,2.79-2,4.37-4.51,4.11-8.09-.15-1.98-.15-4.01.08-5.98.52-4.51.6-4.5-3.54-5.74-8.89-2.65-14.64-11.38-13.28-20.43.27-1.79.46-4.54,2.17-4.88,2.01-.39,1.82,2.61,2.9,3.91.18.22.17.58.31.83,3.45,6.23,7.96,11.22,15.34,12.6,1.78.33,3.8.95,5.16-1.09.58,0,1.23.15,1.74-.05,4.95-1.94,10.19-1.89,15.37-2.26,7.61.1,15.04-.79,22.21-3.62,3.96-1.56,6.96-4.54,10.57-6.6,3.43.92,6.14,3.07,8.87,5.19.76,3.3,1.99,6.4,3.92,9.2Z"/><path class="cls-2" d="M98.97,215.44c-3.03-2.58-2.89-5.75-1.97-9.25,1.96-7.52,3.82-15.07,5.3-22.71,1.48-7.65,5.22-14.64,7-22.24,1-4.27,2.25-8.48,3.4-12.72,1.1-4.05,3.46-7.15,7.01-9.35,3.05-1.89,4.16-1.65,6.15,1.27,3.06,4.48,3.43,9.74,4.13,14.84,1.47,10.79,1.37,21.71,2.43,32.54.02.8.03,1.6.05,2.41.02.37.05.74.07,1.11-.03,7.93-.12,15.86-.05,23.79.01,1.62-.44,2.61-1.89,3.19-4.94,1.22-10,.46-14.99.93-.41-.07-.81-.13-1.22-.2-2.55.41-3.36-.8-2.98-3.16.21-1.34.37-2.7.56-4.05,2.73-6.17,5.02-12.48,5.82-19.25-2.07,6.38-4.15,12.77-6.22,19.15-1.19,2.59-3.38,4.32-5.32,6.26-2.03-1.97-4.69-2.17-7.27-2.57ZM118.92,189.2c2.27-4.54,4.16-16.65,3.04-19.18-.57,6.68-2.09,12.88-3.04,19.18ZM123.86,155.24c-.26.02-.52.03-.78.05-.19,4.17-.38,8.35-.58,12.52.25,0,.5,0,.74.01.2-4.19.41-8.39.61-12.58Z"/><path class="cls-7" d="M130.6,218.32c1.44-.58,1.9-1.57,1.89-3.19-.07-7.93.02-15.86.05-23.79,1.55-.1,2.88.19,3.5,1.85,0,1-.18,2.02.01,2.98,1.51,7.68,3.13,15.34,3.69,23.18.11,1.56.72,3.09,1,4.65.27,1.52-.25,3.23,1.5,4.83-1.25-7.63-3.51-14.93.81-22.09-.32-.05-.63-.11-.95-.16-.65,1.37-1.31,2.75-2.12,4.44-.19-.6-.28-.83-.34-1.06-1.39-5.54-1.71-11.32-3.63-16.75-.06-1.13.26-1.88,1.61-1.8,1.06.06,2.13,0,3.2,0,2.33-.29,3.34.49,3.89,3.05.92,4.23.8,8.44.87,12.68.02,1.63.22,3.13,1.29,4.42-1.05,5.19-2.08,10.38-3.16,15.56-.21,1.01.03,2.2-.99,2.95-.5.63-1.02,1.25-.27,2.04,1.46,8.96,3.87,17.72,5.81,26.58,1.73,7.88,3.54,15.75,5.31,23.62-3.81-.26-7.56,1.89-11.07.8.18.11-1.42,1.87.59,1.55,3.57-.57,7.09-1.41,10.63-2.13,2.64,2.28,2.69,4.92.11,6.55-3.17-.05-6,1.35-8.96,2.17-5.1,1.32-6.72.37-6.94-4.36-.07-1.55-.52-2.9-1.05-4.28-2.62-6.75-5.19-13.51-7.89-20.22-1.02-2.54-1.54-5.32-3.25-7.57.05-.79,0-1.53-.26-2.32-2.05-6.2-4.08-12.41-6-18.65-1.01-3.29-2.44-6.48-2.61-9.99,1.68.09,3.25-.37,4.8-.96,1.42-.54,2.62-.46,3.48.96.11.45.23.9.34,1.35.08-.06.21-.1.23-.18.16-.53,0-.96-.45-1.28-.16-1.42.4-2.12,1.88-2.44,1.32-.28,2.58-.97,3.78-1.64,1.24-.7.74-1.15-.35-1.36ZM134.85,257.96c-.09-.46-.19-.92-.28-1.38-.08.06-.21.1-.24.17-.17.53-.02.96.48,1.24.09.44.19.88.28,1.32.08-.06.2-.1.22-.17.15-.51.03-.92-.46-1.18ZM132.44,249.58c.08-1.15.02-2.26-1.15-3.32-.09,1.46.15,2.52,1.14,3.34-.09,2.01.33,3.87,1.77,6.07-.09-2.59-.77-4.38-1.75-6.08ZM128.64,236.77c.33-1.51.18-2.59-.81-3.71-.42,1.48.29,2.42.81,3.71ZM128.98,237.95c-.33,1.19.08,1.98.9,3.01.23-1.4.06-2.28-.9-3.01ZM130.22,242.08c-.37,1.24-.02,2.08.87,3.14.28-1.39-.07-2.24-.87-3.14ZM141.99,280.45c-.08-.16-.16-.31-.24-.47-.1.12-.3.27-.28.37.04.2.2.38.31.57.07-.16.15-.31.22-.48ZM127.6,231.31c-.08-.16-.16-.33-.25-.5-.09.16-.25.32-.26.48,0,.17.14.34.22.51.09-.16.19-.32.28-.49ZM126.44,227.36c-.09-.25-.17-.49-.25-.73-.1.11-.26.22-.28.34-.03.16.06.34.09.51.12-.03.25-.07.44-.12ZM142.32,203.82c-.1.17-.25.32-.25.47,0,.16.13.32.21.48.09-.15.24-.29.25-.45,0-.16-.13-.32-.21-.51ZM126.94,229.34c-.06-.16-.12-.32-.19-.48-.07.06-.21.13-.2.18.03.17.11.32.17.48.07-.06.14-.12.21-.18ZM141.09,285.31c-.04-.07-.07-.18-.14-.2-.08-.03-.18.02-.27.03.06.1.12.21.18.31.08-.05.15-.09.23-.14Z"/><path class="cls-10" d="M170.06,262.81c-.19-.38-.38-.76-.57-1.13,1.55-.22,3.09-.64,4.64-.62,1.86.02,2.11-1,2.07-2.42,1.44-.25,1.38-1.58,1.6-2.51.56-2.35.88-4.77,1.29-7.16,1.36-5.89,2.24-11.82,1.48-17.9-.71,5.98-1.42,11.96-2.13,17.94-.78,3.18-1.55,6.37-2.33,9.55-2.33.92-4.98.6-7.21,1.87-4.59-4.73-4.27-10.57-3.49-16.38.81-6.09,1.79-12.18,3.06-18.19,1.25-5.94,4.83-10.38,10.05-13.47,1.06,1.13,2.49,1.66,3.87,2.15,3.05,1.09,5.22.26,6.42-2.2,5.71,2.36,9.09,6.56,10.07,12.68-.17-.01-.33-.03-.5-.05-2.11-.63-1.05,1.12-1,1.6.27,2.62,1.09,5.17,1.08,7.83-.22,1.19.66,2.11.91,3.2,1.01,4.37.04,8.91,1.35,13.21,0,3.08-.02,6.17-.03,9.25q-.02,5.21-5.34,5.14c-5.17.72-10.34,1.47-15.57,1.55-1.23-1.74-1.95-4.39-4.49-4.28-1.72.07-3.49.16-5.23.33Z"/><path class="cls-10" d="M43.68,246.59c-1.23-.64-1.27-1.64-.88-2.79,4.49-13.18,10.65-25.38,20.7-35.29,1-.99,2.08-1.84,3.46-2.23,2.24,2.79,5.25,3.75,8.7,3.7,3.62,2.67,5.32,6.65,6.53,10.69,1.31,4.38,4.16,5.63,8.21,5.56.85-.02,1.81-.29,2.5.56-.66,3.22-.69,6.48-.63,9.74-3.7,2.41-7.45,4.72-11.98,5.25.14-2.83.28-5.66.42-8.5h-.92c.62,3.21-1.6,6.25-.2,9.53-.46,4.38-.92,8.75-1.38,13.13-5.08.69-10.16,1.38-15.24,2.07-3.89-.7-7.78-1.38-11.41-3.04,1.59-2.09,4.54-3.28,4.29-6.57.07-.31.14-.63.22-.94.83-.41,1.45-.93,1.21-2.1-.89.37-1.41.91-1.65,1.72-.54.33-1.03.71-1.11,1.4,0,.12,0,.25.05.36-2.55,1.38-4.81.94-7.1-.8-1.03-.79-2.51-.98-3.79-1.44ZM66.51,227.97c-1.21.87-1.54,2.21-1.85,3.55-.73.62-1.22,1.31-.85,2.44.78-.66,1.03-1.39,1.18-2.18.79-1.14,1.65-2.25,1.6-3.75.69-.41,1.23-.88.88-1.86-.83.43-.96,1.08-.96,1.8ZM61.17,239.68c-.24-.11-.47-.22-.71-.32-.98,1.73-1.96,3.47-2.94,5.2,1.92-1.25,2.87-3.01,3.65-4.88ZM68.68,224.31c.36-.58,1.22-.93,1.04-1.97-.72.5-1.11,1.07-1.04,1.97ZM61.34,238.76c.3-.27.57-.42.7-.65.18-.34.62-.97-.11-1-.53-.02-.82.66-.59,1.65ZM62.65,236.3c.6-.58,1.21-.99.59-1.85-.48.48-1.05.87-.59,1.85ZM68.2,225.31c-.05-.07-.09-.14-.14-.21-.06.06-.15.12-.16.18,0,.06.08.14.13.2.06-.06.11-.12.17-.18Z"/><path class="cls-7" d="M236.07,206.42c.22.04.44.08.66.11.11.7.55,1.02,1.22.94,2.38-.29,3.12.96,2.96,3.09-.23,6.02-.15,12.03,1.17,18,0-3.18,0-6.36,0-9.54.75-.41.59-1.13.62-1.79.48-.29.59-.72.45-1.23-.02-.07-.15-.12-.22-.18-.11.44-.21.89-.32,1.33-.68.45-.58,1.15-.58,1.82-1.25-2.72-.14-5.62-.63-8.4.31-1.07-.65-2.75,1.5-2.92,1.78-.14,1.73,1.3,2.06,2.34.75,2.34,1.24,4.74,1.36,7.22.04.86-.47,2.11,1.06,2.35-.27,6.32-1.26,12.54-2.58,18.71-1.43.09-2.29.49-2.14,2.28.15,1.87.14,3.72,1.13,5.39.66,3.31,1.32,6.61,1.98,9.92,1.96,9.83,3.8,19.68,5.98,29.46.49,2.18-.06,2.9-1.88,3.36-.21-.03-.42-.06-.64-.1-.82.11-1.77-.29-2.37.63l.04-.02c-3.34,1.22-4.67-.36-5.41-3.48-1.01-4.24-2.43-8.38-3.56-12.59-1.68-6.29-3.26-12.61-4.88-18.92-.52.55-.62,1.04-.51,1.47,2.8,10.33,4.95,20.85,8.38,31,.83,2.45.38,3.49-2,4.08-1.18.29-2.71-.18-3.41,1.35-.46-.12-.52-.5-.64-.88-1.52-4.82-3.05-9.64-4.58-14.46-1.3-6.02-2.46-12.08-3.95-18.06-1-4.02-1.32-8.25-3.28-12.01-.43-1.84-.87-3.69-1.3-5.53,1.37-.99,2.75-1.97,4.1-2.98,1.25-.93,1.95-1.36,2.54.82.79,2.92,1.02,6.07,2.67,8.97.47-1.4-.09-2.4-.37-3.45-1.12-4.16-3.66-8.61,2.37-11.27,1.4-1.22,1.59-3,1.71-4.6.53-7.4.89-14.82,1.31-22.23ZM232.3,252.97c.31-1.5.13-2.56-.85-3.63-.42,1.44.21,2.38.85,3.63Z"/><path class="cls-10" d="M236.07,206.42c-.42,7.41-.78,14.83-1.31,22.23-.12,1.61-.3,3.38-1.71,4.6-3.77.13-7.54.26-11.32.38-.13-1.56-1.28-1.4-2.35-1.44-1.62-.07-3.3.33-4.84-.55.04-.45.08-.91.11-1.36,1.34-.14,2.6-.36,4.03-.11,1.65.28,3.62.16,4.24-2.12,1.07-1.15,1.29-2.66,1.71-4.08,1.84-6.31,2.87-12.8,3.98-19.26.42-2.42.5-4.9.73-7.35-.25-.02-.49-.05-.74-.07-1.4,10.39-2.91,20.77-6.39,30.71-2.54,0-5.07.01-7.61.02-1.62-.77-1.67-2.39-1.9-3.81-1.05-6.59-1.67-12.98.41-19.72,2.66-8.61,3.76-17.7,6.9-26.2,1.54-4.15,4.06-7.77,7.91-10.25,1.51-.97,2.54-1.18,3.88.62,2.53,3.38,3.12,7.22,3.65,11.17,1.08,8.05.43,16.14.62,24.21.02.8,0,1.6-.01,2.4ZM229.08,195.31c1.37-2.17,1.8-9.43.73-11.58-.58,4.05-.06,7.85-.73,11.58Z"/><path class="cls-7" d="M329.41,263.96c-5.18.36-10.41.32-15.37,2.26-.51.2-1.16.04-1.74.05-.21-.76-.32-1.57-.63-2.29-2.92-6.74-5.81-13.5-8.84-20.18-1.99-4.39-3.75-8.93-6.83-12.74-.23-1.53-1.18-2.72-1.88-4.03-2.13-4.03-4.26-8.05-6.39-12.08,2.99-.49,5.43-2.38,8.28-3.22.42.48.34,1.41,1.52,1.45-.52-1.33-.75-2.71.74-3.35,4.07-1.75,7.84-4.34,12.43-4.73,2.76,6.46,4.52,13.26,6.74,19.9.65,1.96,1.26,3.94,1.89,5.91.11,1.02.49,1.9,1.28,2.58-.29.84.16,1.52.41,2.27,3.09,9.31,6.06,18.66,8.39,28.21ZM312.76,250.16c-.06-.26-.13-.51-.19-.77-.11.07-.21.14-.32.21.15.21.3.41.45.62.07.25.13.51.2.76.1-.07.21-.15.31-.22-.15-.2-.3-.4-.45-.6ZM304.88,230.44c.08.25.15.5.23.75.1-.08.3-.21.29-.22-.12-.22-.27-.42-.41-.63-.11-.31-.23-.61-.34-.92-.07.05-.21.14-.2.16.13.29.28.57.43.86ZM310.89,245.42c.06.27.12.54.19.81.11-.07.23-.15.34-.22-.16-.22-.31-.43-.47-.65.03-2.16-.97-3.9-2.14-5.57.15,2.09.75,4,2.08,5.62ZM302.87,225.29c-.08,1.62.24,2.41,1.24,3.06.31-1.15-.2-1.82-1.24-3.06ZM312.02,247.9c-.06-.14-.12-.28-.18-.43-.06.05-.19.12-.18.16.03.15.1.29.15.44.06-.05.13-.11.2-.17ZM308.23,237.92c-.06.06-.19.12-.18.17.03.15.1.3.16.45.06-.06.19-.12.18-.17-.03-.15-.1-.3-.16-.45ZM314.42,254.48c-.06-.15-.12-.3-.18-.45-.07.06-.2.13-.19.17.03.16.11.3.17.45.07-.06.13-.11.2-.17ZM306.62,234.11c-.06-.15-.11-.3-.17-.45-.06.06-.19.12-.18.17.03.15.1.3.16.45.07-.06.13-.11.2-.17ZM313.65,252.28c-.08.06-.2.12-.2.16.03.15.09.3.15.44.07-.05.19-.11.19-.16-.02-.15-.09-.3-.14-.45ZM305.7,232.48l.17.13.02-.22-.19.09Z"/><path class="cls-16" d="M128.82,127.77c-7.66-1.54-11.45-5.86-10.8-12.53.16-1.64.81-3.23,1.32-5.15-2.34.48-3.23,2.2-4.13,3.73-1.35,2.32-2.51,4.75-3.69,7.17-2,4.1-7,4.57-9.5.79-1.02-1.54-1.83-2.9-4.05-2.99-1.7-.07-1.64-1.81-1.51-3.09.24-2.36,1.68-4.06,3.58-5.27,5.92-3.78,12.46-5.24,19.4-4.49,1.63.18,2.72-.03,4.02-1.06,8.32-6.54,20.98-2.69,23.61,7.11.65,2.41.67,4.74-.98,6.82-2.17-.04-1.22-1.64-1.2-2.62.05-2.8-.3-5.41-2.94-7.87.2,5.81-3.09,8.94-6.76,11.86-.65.52-1.08.76-1.68-.05-1.03-1.39-2.43-2.13-3.67-.5-1.19,1.56-.83,3.42.89,4.36,1.31.72.9,1.13.33,1.93-.6.83-1.37,1.41-2.26,1.86Z"/><path class="cls-16" d="M67.13,205.13c-4.75.65-9.46,1.01-14.2-.36-4.03-1.17-5.62-3.09-5.2-7.26.06-.56,0-.89-.3-1.3-1.39-1.9-.39-2.18,1.42-2.91,4.62-1.85,9.47-3.4,11.76-8.77,2.01-4.71,5.79-7.65,11.21-7.45,5.63.21,10.3,2.48,12.94,7.66.89,1.73,2.39,4.19-.81,5.61-1.26.53-2.51,1.12-3.8,1.58-2.55.91-5.62.36-7.65,2.78-.52.62-.84-.1-1.11-.39-1.17-1.28-2.51-1.91-3.77-.34-1.24,1.55-.8,3.14.58,4.52.41.41,1.48.35,1.01,1.45-.73,1.72-1.4,3.47-2.09,5.2Z"/><path class="cls-16" d="M234.3,160.32c-3.37,1.45-6.42-.27-9.5-1.11-1.7-.46-1.78-2.45-2.38-3.99-1.27.56-.32,1.95-1.39,2.61-1.44-.81-1.28-2.26-1.02-3.54,1.2-6.03,3.45-11.65,7.02-16.66,2.39-3.35,5.84-4.73,9.86-4.63,5.92.16,10.49,2.85,13.66,7.8,1.26,1.98,1.99,4.18-.09,6.22-.44-1.85.14-3.99-1.87-5.89.37,7.14-6.72,7.43-9.62,11.48-.05.07-.53-.11-.77-.25-1.12-.64-2.39-1.14-3.08.3-.73,1.52-.26,3.11,1.38,3.75,1.58.61,1.11,1.22.41,2.11-.69.88-1.42,1.67-2.6,1.83Z"/><path class="cls-16" d="M292.38,108.74c-4.3-3.88-5.71-9.04-5.94-14.52-.15-3.45,1.76-5.74,4.89-7.54,2.61-1.5,4.86-3.37,8.12-2.92,4.89.68,9.21,2.58,12.7,6.08,3.66,3.68,3.34,8.41-.56,10.87.07-1.68,1.07-3.42-.43-5.1-.59,2.52-1.59,4.69-4.59,4.02-2.35-.53-3.97-.08-5.32,1.98-.68,1.03-1.83,2.23-2.84.04-.62-1.35-1.62-2.55-3.22-1.73-1.64.85-1.6,2.62-.79,3.94,1.69,2.75.06,3.85-2.02,4.89Z"/><path class="cls-9" d="M182.11,374.15c6.11-2.11,10.68-.55,12.81,4.26,2.13,4.81.39,10.62-3.92,13.1-6.57,3.79-14.8-.63-15.36-8.4-.24-3.37-.24-6.8.04-10.16.68-8.16,8.34-12.79,15.16-9.36,1.39.7,2.52,1.66,3.15,3.06.66,1.46,2.12,3.61.41,4.43-1.42.68-4.11,1.56-5.52-1.42-1.05-2.22-4.73-1.96-5.98.22-.69,1.2-1.13,2.53-.79,4.27ZM185.68,378.44c-2.36,0-3.57,1.44-3.52,4.19.05,2.7,1.37,4.29,3.61,4.13,2.57-.18,3.63-1.8,3.66-4.22.03-2.48-1.49-4.11-3.75-4.1Z"/><path class="cls-16" d="M196.54,196.29s-.17.19-.17.19c-2.04.35-4.2,1.71-6.06-.28-1.83-1.96-2.62-1.26-3.48.89-.61,1.53-1.47,3.8-3.58,1.03-.69-.91-1.65-1.07-2.6-.3-.99.8-1.3,2.11-.58,2.92,2.09,2.35.34,3.87-.87,5.57-7.41-3.82-9.16-14.59-3.87-20.76,2.54-2.96,5.1-4.65,8.86-4.21,4.79.56,9.48,1.59,12.72,5.67,2.43,3.07,2.58,5.68.66,8.37-.61,0-1.04.21-1.04.91Z"/><path class="cls-7" d="M51.56,254.96c3.63,1.67,7.52,2.34,11.41,3.04,1.13.95,2.51.64,3.73.53,2.82-.27,2.94.91,1.99,3.05-1.95,4.37-3.83,8.77-5.74,13.15-.65,1.77-2.13,1.39-3.48,1.35-3-.97-6.22-1.11-9.1-2.5.02-.2.02-.4,0-.6.15-.2.29-.4.44-.6-.1-.06-.2-.11-.31-.17-.05.25-.1.51-.14.76-.17.19-.34.37-.52.55-.16,0-.32,0-.48.02-2.31-1.3-4.6-2.64-6.94-3.89-1.74-.93-1.82-1.95-.71-3.53,1.12-1.6,2.3-3.21,2.86-5.14.68-1.31,1.42-2.59,2.02-3.93,1.03-2.26,2.34-3.68,4.96-2.09ZM52.58,268.5l-.14-.1-.02.17.16-.06ZM51.29,270.77l-.1.15.14.02-.05-.17ZM53.64,266.2l.1-.15-.14-.02.05.17Z"/><path class="cls-5" d="M362.62,251.87c2.57-2.51,5.14-5.01,7.7-7.52,5.5-5.37,14.04-3.61,16.73,3.57.96,2.58,3.31,2.56,5.18,3.5,1.09.55,3.03.37,2.87,2.04-.17,1.9-.5,4.19-2.83,4.84-3.21.9-6.48,1.99-9.85.71-1.13-.43-1.67-.15-2,.95-.51,1.71-1.85,2.19-3.46,2.23-1.63-.78-2.64-2.25-3.83-3.51v-9.06c-.12-.01-.24-.03-.36-.04-.46,2.58-.92,5.15-1.38,7.73-2.91-1.84-6.15-3.15-8.78-5.44Z"/><path class="cls-1" d="M292.38,108.74c2.09-1.04,3.71-2.14,2.02-4.89-.81-1.32-.85-3.09.79-3.94,1.6-.82,2.6.37,3.22,1.73,1.01,2.19,2.16.99,2.84-.04,1.36-2.06,2.98-2.51,5.32-1.98,3,.67,3.99-1.49,4.59-4.02,1.5,1.68.5,3.43.43,5.1-.22.55-.79,1.3-.6,1.62,1.71,3,.15,5.24-1.12,7.92-1.61,3.41-2.08,4.09-5.97,3.3-.38-.08-.79,0-1.18,0-1.35-.95-2.71-1.9-4.72-3.31.92,3.13,1.25,5.65,3.36,7.44-.36,1.96-.94,3.9-.43,5.92-3.41.54-5.98-1.32-8.63-2.99-.99-.63-2-1.2-3.01-1.8,1.37-3.25,3.01-6.41,3.1-10.06Z"/><path class="cls-1" d="M128.82,127.77c.89-.46,1.66-1.03,2.26-1.86.57-.8.99-1.22-.33-1.93-1.72-.94-2.08-2.8-.89-4.36,1.24-1.63,2.64-.89,3.67.5.6.81,1.02.57,1.68.05,3.67-2.92,6.96-6.05,6.76-11.86,2.64,2.47,2.99,5.07,2.94,7.87-.02.98-.97,2.58,1.2,2.62,1.65,3.63-1.28,6.41-1.91,9.61-.31,1.57-2.31,2.03-4.01,1.65-.96-.22-1.87-.66-2.88-.37-.5-1.77-2.13-1.94-3.81-2.96.75,2.7,1.03,4.98,2.64,6.76-.84,3.33.77,5.4,3.54,6.87-.51.26-.61.74-.65,1.24-.53-.34-.74-1.05-1.72-.79-4.25,1.16-7.4-1.38-10.73-3.36-1.08-.64-.92-1.11-.39-2.09,1.27-2.37,2.11-4.93,2.63-7.59Z"/><path class="cls-5" d="M248.8,187.59c-.18-.35-.57-.72-.52-1.04.9-6.22-2.5-11.29-4.43-16.74h0c1.96.31,2.72,1.89,3.5,3.39,3.54,6.81,4.67,14.37,6.64,21.66,1.22,4.52,2.38,9.05,4.12,13.42.83,2.1,2.13,3.76,3.68,5.3,0,0,.26.11.26.11-1.8,2.94-2.66,6.2-3.15,9.57-3.11-2.84-5.13-6.46-7.27-10.01-1.27-2.1-1.32-4.97-3.88-6.28.04-.38.08-.76.12-1.15,1.1-6.04,1.29-12.13.96-18.24Z"/><path class="cls-1" d="M214.54,231.64c1.53.88,3.21.48,4.84.55,1.07.05,2.22-.11,2.35,1.44-.96,1.63-.19,3.47-.64,5.17-1.23,1.86-3.32,2.95-4.17,5.24-1.51,4.08-2.9,4.28-6.37,1.45-1.56-1.28-3.49-.95-5.06-.39-1.14.41-.4,1.91-.21,2.95.61,3.35,0,3.88-3.41,2.97-.38-.1-.77-.14-1.16-.21-1.31-4.3-.34-8.84-1.35-13.21-.25-1.09-1.13-2-.91-3.2,1.17.15.93-.57.85-1.29-.33-2.71-.61-5.43-.92-8.15.16.02.33.04.5.05,1.32,4.05,2.48,8.07,5.65,11.31,2.96,3.02,4.33,3.22,7.12-.1,1.19-1.41,2.96-2.4,2.89-4.59Z"/><path class="cls-3" d="M152.07,178.84c2.78,9.66,5.56,19.32,8.33,28.99.69,2.42-.32,4.26-2.08,5.82-2.17.35-4.24,1.95-6.56.57l-.06-1.83c.52-.43.48-.82-.08-1.18-1.04-7.98-2.08-15.96-3.12-23.94.59-2.94-1.01-5.61-1.03-8.48,1.53.84,3.05,1.39,4.6.04Z"/><path class="cls-1" d="M179.21,206.31c1.21-1.7,2.96-3.22.87-5.57-.72-.81-.4-2.12.58-2.92.94-.77,1.9-.61,2.6.3,2.11,2.77,2.96.5,3.58-1.03.86-2.14,1.65-2.85,3.48-.89,1.86,1.99,4.01.63,6.06.28.15,1.25.04,2.5.56,3.76,1.46,3.54-2.18,9.04-5.96,9.14-.82.02-1.56.14-2.23.6-.62-.6-1.25-1.17-2.35-.81.61,1.32.55,2.9,2.3,3.24,0,0,.13-.07.13-.07-1.19,2.46-3.37,3.29-6.42,2.2-1.38-.49-2.81-1.03-3.87-2.15.63-1.98.87-4,.68-6.07Z"/><path class="cls-1" d="M234.3,160.32c1.18-.16,1.91-.95,2.6-1.83.7-.89,1.17-1.49-.41-2.11-1.64-.64-2.11-2.23-1.38-3.75.69-1.44,1.97-.94,3.08-.3.24.14.72.32.77.25,2.89-4.06,9.99-4.34,9.62-11.48,2.01,1.9,1.43,4.05,1.87,5.89-.81,2.3-1.19,4.59.26,6.81.51.77.45,1.54-.15,2.18-.92.98-1.23,2.18-1.67,3.4-1.15,3.19-3.72,2.65-6.22,2.08-.98-.45-1.96-.9-2.95-1.35-.12-.07-.24-.15-.37-.22.07.12.14.25.21.37.52,1.31.54,2.89,1.98,3.71,0,.1.03.22-.01.29-.71,1.31,1.86,3.44-1.01,4.19-1.51.4-6.54-1.71-7.24-2.92-.5-.86.1-1.5.35-2.22.34-.97,1.4-1.79.65-3Z"/><path class="cls-11" d="M294.18,315.35c-1.29.06-2.58.16-3.88.16-27.82.02-55.64.03-83.46.03-.89,0-1.79-.09-2.68-.14-.02-.28-.03-.55-.05-.83,1.63-.91,3.19-1.18,5.19-.94,2.64.32,5.47.77,8.13-.35,5.04.79,10.06,1.89,15.17.48,5.32-.02,10.64-.05,15.95-.07.26.04.51.08.77.13,1.51.91,2.79-.14,4.13-.5,2-.54,3.93-1.42,6.08-1.21,7.3.7,14.64.73,21.96.99,2.4,1.36,4.98.42,7.47.57,1.3.08,1.25-1.17,1.25-1.97,0-3.06,1.57-5.4,3.28-7.69.24,1.8,1.9,2.22,3.04,3.15-.96,2.13-2.43,4.11-1.8,6.66-.19.51-.37,1.02-.56,1.53Z"/><path class="cls-15" d="M350.48,291.56c2.9-1.18,4.94-.05,6.57,2.37.55.81,1.41,1.43,1.91,2.26,1.44,2.41,3.19,2.45,4.97.6,1.48-1.54,2.95-.37,4.43-.36,1.92,1.54,2.54,4.25,4.87,5.41.25.68.5,1.37.75,2.05-.05.41.02.75.46.91.64,1.12,1.27,2.25,1.91,3.37.43.77.46,1.49-.16,2.2-.72.82-1.47.76-2.41.39-2.1-.83-2.89-2.98-4.47-4.32-.28-.13-.57-.27-.85-.4-.74-3.78-1.9-4.84-5.4-4.23-4.77.83-9.43,2.39-14.37,1.75,1.05-2.1-.63-3.56-1.24-5.27-.04-2.71,2.06-4.46,3.03-6.72Z"/><path class="cls-3" d="M50.38,273.59c2.88,1.39,6.1,1.53,9.1,2.5-4.43,7.59-11.67,12.38-18.03,18.04-2.12-.78-3.54-2.59-5.4-3.74,2.59-4.93,5.58-9.55,9.79-13.28,1.25-1.11,2.79-1.94,3.53-3.55.16-.01.32-.02.48-.02,0,0,.26.08.26.08l.27-.02Z"/><path class="cls-1" d="M67.13,205.13c.69-1.73,1.36-3.48,2.09-5.2.47-1.09-.6-1.04-1.01-1.45-1.38-1.37-1.82-2.96-.58-4.52,1.25-1.56,2.59-.94,3.77.34.27.29.59,1.01,1.11.39,2.03-2.42,5.1-1.87,7.65-2.78,1.29-.46,2.53-1.05,3.8-1.58-.08,2.59-.52,5.02.27,7.79,1,3.47-2.96,7.04-6.71,7.07-.59,0-1.18.07-1.78.11-.89-.75-1.83-1.31-3.14-1.07.34,1.71,1.27,2.85,2.28,3.95.66.42.58,1.17.8,1.79-3.44.05-6.46-.91-8.7-3.7.05-.38.11-.77.16-1.15Z"/><path class="cls-15" d="M24.06,296.38c2.09-3.21,5.43-4.04,8.87-4.68.02.59.05,1.19.05,1.78.03,3.59.55,4.1,4.16,4.1.59,0,1.19.02,1.78.03,0,.88.88,1.54.49,2.56-1.42,3.64-1.15,7.17.8,10.57-.02.49.08.93.52,1.22.06.59.12,1.18.18,1.76-.55.05-1.06.17-1.35.71-1.7-.02-2.98-1.6-4.77-1.27h.02c-2.55-3.02-6.22-5.08-7.6-9.14-.88-2.6-2.08-5.1-3.14-7.65Z"/><path class="cls-9" d="M212.62,383.84c0-1.99.02-3.99,0-5.98-.01-1,.34-2.22,1.36-1.58,2.06,1.28,3.99-.78,5.59-.07,2.9,1.27,5.38.86,8.28.02,2.54-.74,4.66,1.31,4.83,4.02.2,3.28.08,6.58.16,9.87.04,1.36-.61,1.66-1.83,1.66-1.28,0-1.45-.67-1.43-1.7.03-2.69,0-5.39.03-8.08.02-1.74-.52-2.93-2.49-2.96-1.9-.03-2.74,1.12-2.82,2.8-.13,2.69-.09,5.38-.09,8.08,0,1.07.02,1.9-1.51,1.9-1.44,0-1.6-.68-1.59-1.83.04-2.69,0-5.39-.02-8.08-.01-1.55-.56-2.8-2.28-2.97-1.9-.19-2.79,1.09-2.92,2.69-.21,2.48-.04,4.98-.2,7.47-.07,1.04.91,2.69-1.46,2.77-2.37.08-1.54-1.53-1.59-2.62-.09-1.79-.02-3.59-.02-5.38h.01Z"/><path class="cls-2" d="M152.07,178.84c-1.54,1.35-3.07.81-4.6-.04-1.04-1.39-.3-3.45-1.77-4.67-.97-5.65-1.96-11.3-2.9-16.95-.87-5.29-2.21-10.46-3.79-15.58.04-.51.14-.98.65-1.24,3.67,2.51,4.77,6.33,5.6,10.44,1.75,8.56,3.59,17.1,6.29,25.43.27.84.34,1.75.5,2.62Z"/><path class="cls-12" d="M350.48,291.56c-.97,2.26-3.07,4-3.03,6.72-.72-.28-1.1.14-1.43.69-1.82,3.08-3.67,6.13-5.44,9.23-.98,1.71-1.15,3.57-.6,5.48-.76.23-.91.87-.99,1.54-1.14.25-2.27.25-3.41-.02-.27-1.28.28-2.67-.56-3.87.14-2.81,1.08-5.31,2.54-7.72,1.57-2.6,2.94-5.34,3.48-8.4.31-.61.73-1.18.92-1.82.53-1.88,1.26-2.85,3.56-2.04,1.5.53,3.3.17,4.96.21Z"/><path class="cls-9" d="M211.44,391.51c-2.54.87-3.76-.23-4.74-2.16-.83-1.64-1.94-3.13-3.07-4.91-1.45,1.89-.81,3.75-.92,5.46-.07,1.07-.02,1.91-1.53,1.9-1.37-.01-1.65-.57-1.64-1.79.03-5.99.02-11.99-.02-17.98,0-1.22.28-1.8,1.66-1.81,1.56-.01,1.48.92,1.48,1.96-.01,2.69,0,5.37,0,8.28,3.21-.88,4.29-5.43,8.23-4.11.17.41-.03.7-.32,1q-4.65,4.82-1.2,10.63c.66,1.11,1.31,2.22,2.09,3.54Z"/><path class="cls-16" d="M148.5,187.27c1.04,7.98,2.08,15.96,3.12,23.94.03.39.05.78.08,1.18.02.61.04,1.22.06,1.83-.09,1.11-.19,2.22-.28,3.34-3.32-.62-3.16-3.94-4.62-6-1.07-1.29-1.26-2.79-1.29-4.42-.06-4.23.05-8.45-.87-12.68-.55-2.56-1.57-3.34-3.89-3.05-.19-.37-.38-.73-.57-1.1,2.07-.41,4.54.5,6.04-1.83.39-.41.78-.83,1.17-1.24.35.01.7.02,1.05.03Z"/><path class="cls-16" d="M171.23,284.96c5.28-3.65,3.67-9.32,4.22-14.37.18-1.73,1.03-1.06,1.85-.52-.12,2.66,1.32,4.91,1.97,7.36,1.03,3.88,3.24,7.41,3.39,11.55-1.16.48-2.3,1.03-3.49,1.41-1.59.5-2.78,2.25-4.76,1.52-.72-2.47-3.32-4.09-3.18-6.95Z"/><path class="cls-8" d="M373.14,258.69c1.19,1.26,2.2,2.73,3.83,3.51.12.78.12,1.52-.6,2.04-1.49-2.05-3.17-3.92-5.31-5.31-2.73-2.11-5.44-4.26-8.87-5.19-2.24-1.26-4.45-.03-6.58.28-12.27,1.77-22.13-1.71-28.99-12.47-1.8-2.82-3.2-5.98-6-8.07-.8-.68-1.17-1.56-1.28-2.58,3.49,2.02,5.65,5.2,7.6,8.59,4.25,7.4,10.34,12.24,18.98,13.38,4.22.56,8.44.63,12.61-.55,1.33-.38,2.69-.73,4.11-.45,2.63,2.29,5.87,3.6,8.78,5.44.58.46,1.16.92,1.74,1.37Z"/><path class="cls-11" d="M150.4,314.96c-.7.81-1.66.52-2.51.52-16.78.03-33.56.03-50.35.03-.77,0-1.61.21-2.26-.44.49-.46.98-.92,1.47-1.38,2.74,0,5.48,0,8.22,0,13.8,0,27.61.02,41.41,0,.97,0,1.93-.29,2.9-.44-.35,1.05.73,1.15,1.12,1.7Z"/><path class="cls-3" d="M159.45,218.97c1.78,2.3,3.44,4.57,2.05,7.78-.82,1.91-1.69,4.11-3.92,3.84-2.24-.27-3.79-2.24-4.53-4.47-.58-1.76.11-3.53.26-5.29,2.16-.21,3.91-1.81,6.13-1.85Z"/><path class="cls-1" d="M97.1,225.61c1.5-2.25.85-4.94,1.49-7.36,1.02,3.21,4.08,2.25,6.26,3.07.22.02.43.05.65.07.19.4.37.8.56,1.2-2.12,2.18-2.87,4.56-1.08,7.32-.19.36-.39.72-.58,1.08l-.74.62c-.17.09-.34.1-.52.03-.98-.68-1.96-1.4-3.02-.12-1.44.07-2.86.23-4.2.79.4-2.23.79-4.47,1.19-6.7Z"/><path class="cls-15" d="M335.02,311.34c.84,1.19.29,2.59.56,3.87-1.75.57-3.55.28-5.33.28-12.02-.02-24.05-.08-36.07-.13.19-.51.37-1.02.56-1.53,7.04-.01,14.07-.02,21.11-.03,1.58-.32,3.36.67,4.77-.73,3.84,1.52,7.84.28,11.74.73,1.95.22,2.7-.62,2.66-2.45Z"/><path class="cls-1" d="M261.77,213.58c.17-.63.09-1.36.77-1.76,2.45-.26,4.32,1.55,6.61,1.86.18,1.54.27,3.11.56,4.63.9,4.82-1.08,6.92-6.16,6.46.65-1.46,2.07-2.85.63-4.55-1.19-1.41-1.27-3.02-1.18-4.71.04-.78.16-1.64-.97-1.81l-.26-.11Z"/><path class="cls-11" d="M39.56,314.43c.29-.54.81-.66,1.35-.71,10.92-.05,21.85-.09,32.77-.14.99,1.3,2.27.89,3.49.52,1.15-.34,2.27-.82,3.2.4.02.3.05.61.07.91-13.32.02-26.65.05-39.97.05-.38,0-.76-.21-1.14-.32.07-.24.15-.48.22-.72Z"/><path class="cls-1" d="M144.89,291.24c2.96-.82,5.78-2.22,8.96-2.17.62,1.79,1.3,3.54,2.57,4.99,0,.54,0,1.08-.01,1.63-6.39,3.59-6.89,3.47-10.6-2.61-.35-.58-.62-1.22-.92-1.83Z"/><path class="cls-1" d="M51.56,254.96c-2.61-1.58-3.93-.17-4.96,2.09-.61,1.34-1.35,2.62-2.02,3.93-4.46-3.25-4.98-7.2-1.45-10.91,1.67.95,3.28,2.05,5.04,2.79,1.12.47,2.66,1.12,3.37-.81,1.03-1.05,2.75-1.44,3.02-3.21-.04-.12-.05-.24-.05-.37.44-.03.89-.05,1.33-.08.24,3.29-2.7,4.48-4.29,6.57Z"/><path class="cls-15" d="M357.52,313.65c9.75.03,19.51.07,29.26.1.6,0,1.2-.07,1.79.01.86.13,2.36-.55,2.31.97-.04,1.2-1.43.76-2.23.76-7.37.03-14.73.01-22.1,0-3.19,0-6.37,0-9.56-.02-.66,0-1.44.17-1.78-.7.15-1.64,1.43-.97,2.3-1.13Z"/><path class="cls-3" d="M171.23,284.96c-.13,2.87,2.46,4.48,3.18,6.95-1.71,1.65-3.97,2.38-5.99,3.51-2.2-1.04-2.73-3.51-4.33-5.06,1.44-3.05,4.47-3.99,7.13-5.41Z"/><path class="cls-15" d="M156.41,295.69c0-.54,0-1.08.01-1.63,1.79-1.42,3.48-3.03,5.97-3.1-1.12,4.67-.32,6.37,3.67,7.79-.31,1.35-.61,2.71-.91,4.06-1.86-.98-3.72-1.96-5.58-2.94-1.05-1.4-2.1-2.79-3.15-4.19Z"/><path class="cls-1" d="M177.3,270.08c-.82-.54-1.67-1.22-1.85.52-3.88-1.15-4.61-4.48-5.38-7.79,1.74-.17,3.51-.26,5.23-.33,2.54-.11,3.26,2.54,4.49,4.28-2.57.12-2.08,1.57-1.34,3.12-.38.07-.76.13-1.14.2Z"/><path class="cls-16" d="M310.7,205.1c-4.59.4-8.35,2.99-12.43,4.73-1.49.64-1.27,2.02-.74,3.35-1.19-.04-1.11-.97-1.53-1.45-.02-1.94,1.83-4.52-1.8-5.21,4.46-.77,8.93-1.53,13.39-2.31,1.07-.19,2.13-.47,3.19-.02-.03.3-.06.6-.08.9Z"/><path class="cls-5" d="M38.93,297.61c-.59-.01-1.19-.03-1.78-.03-3.61,0-4.13-.51-4.16-4.1,0-.59-.03-1.19-.05-1.78,1.04-.44,2.07-.88,3.11-1.31,1.87,1.15,3.28,2.96,5.4,3.74-.76,1.22-2.32,1.86-2.52,3.49Z"/><path class="cls-12" d="M159.45,218.97c-2.21.05-3.96,1.64-6.13,1.85-1.05-.84-1.78-1.86-1.84-3.27.09-1.11.19-2.23.28-3.34,2.32,1.38,4.39-.22,6.56-.57-.21,1.9,1.46,3.4,1.12,5.32Z"/><path class="cls-5" d="M373.23,301.84c-2.33-1.17-2.95-3.87-4.87-5.41.22-.21.44-.41.65-.62,1.85-.34,3.47-1.26,5.18-1.97,1.39-.58,2.85-1.03,3.78.8-2.33,1.91-2.97,4.93-4.74,7.2Z"/><path class="cls-16" d="M247.84,205.83c-.04.38-.08.76-.12,1.15-.08.61-.15,1.22-.23,1.83v4.18c.02,1.82.04,3.64.06,5.45l-.19,1.12c-1.53-.24-1.02-1.49-1.06-2.35-.12-2.48-.61-4.87-1.36-7.22-.33-1.03-.29-2.47-2.06-2.34-2.15.17-1.19,1.85-1.5,2.92-.16.01-.32.01-.48,0,.16-2.13-.58-3.38-2.96-3.09-.67.08-1.11-.25-1.22-.94,3.41-.49,6.93.61,10.28-.71.28,0,.55,0,.83,0Z"/><path class="cls-5" d="M166.06,298.75c-3.99-1.42-4.79-3.12-3.67-7.79.41-.66,1.05-.65,1.71-.59,1.6,1.55,2.13,4.02,4.33,5.06-1.29.75-1.96,1.95-2.37,3.33Z"/><path class="cls-12" d="M104.85,221.32c-2.18-.83-5.24.14-6.26-3.07.12-.94.25-1.88.37-2.81,2.58.4,5.24.6,7.27,2.57-.26.93-.53,1.86-.79,2.79-.2.18-.4.35-.59.53Z"/><path class="cls-8" d="M150.4,314.96c-.39-.55-1.47-.65-1.12-1.7,0,0-.05-.05-.05-.05,1.27.21,2.53.44,3.8.62,6.73.98,13.41.15,20.09-.63-.39,1.6-2.24.67-2.96,1.72-6.58.61-13.17.6-19.76.04Z"/><path class="cls-14" d="M146.29,188.48c-1.49,2.33-3.96,1.41-6.04,1.83-2.6-.03-5.19-.05-7.79-.08-.02-.8-.03-1.6-.05-2.41,4.64-.12,9.26.09,13.87.66Z"/><path class="cls-15" d="M35.4,314.71c-.45.9-1.31.78-2.08.78-3.97.02-7.94.02-11.91-.02-.72,0-1.91.35-1.96-.73-.05-1.37,1.27-.93,2.05-.94,3.27-.05,6.55,0,9.82-.05.94-.02,2,.39,2.82-.47.22-.03.44-.07.66-.1,0,0-.02-.01-.02-.01.2.52.41,1.03.61,1.55Z"/><path class="cls-11" d="M170.16,314.92c.71-1.04,2.57-.11,2.96-1.72,1.16-1.76,1.27.34,1.89.52,3.37,0,6.74.01,10.11.02.21.41.41.81.62,1.22-5.2.89-10.39.94-15.58-.05Z"/><path class="cls-11" d="M373.23,301.84c1.77-2.28,2.41-5.3,4.74-7.2.99.86,1.45,2.02,1.87,3.21-1.19,2.75-3.63,4.3-5.86,6.05-.25-.68-.5-1.37-.75-2.05Z"/><path class="cls-8" d="M34.81,313.18c-.22.03-.44.07-.66.1-6.34-3.86-9.37-9.69-10.08-16.91,1.06,2.55,2.26,5.04,3.14,7.65,1.38,4.06,5.05,6.13,7.6,9.16Z"/><path class="cls-15" d="M338.99,315.22c.08-.67.23-1.31.99-1.54,4.53.09,9.06.17,13.6.26-.03.29-.06.57-.09.86-.75,1.22-1.97.68-2.96.67-3.85-.07-7.7.34-11.54-.24Z"/><path class="cls-8" d="M247.84,205.83c-.28,0-.55,0-.83,0,.6-6.09,1.2-12.18,1.79-18.25.33,6.13.14,12.22-.96,18.26Z"/><path class="cls-8" d="M353.49,314.8c.03-.29.06-.57.09-.86.1-.22.2-.44.3-.66,1.06.55,1.87-.22,2.72-.57,4.23-1.72,8.04-4.21,11.86-6.68.28.13.57.27.85.4-3.55,3.03-7.66,5.14-11.79,7.22-.87.16-2.16-.52-2.3,1.13-.58,0-1.16.01-1.73.02Z"/><path class="cls-8" d="M185.74,314.97c-.21-.41-.41-.81-.62-1.22.23-.13.46-.26.68-.38,6.02,1.73,12.18,1.19,18.31,1.2l.05.83c-6.15.39-12.3.37-18.42-.42Z"/><path class="cls-5" d="M97.1,225.61c-.4,2.23-.79,4.47-1.19,6.7-.78,1.17.1,3.38-2.23,3.59-.76-3.04.76-5.99.33-9.02,1.01-.48,1.91-1.23,3.09-1.27Z"/><path class="cls-15" d="M371.05,258.94c2.15,1.39,3.82,3.26,5.31,5.31-.47,1.3-.93,2.6-1.4,3.89-1.93-2.8-3.16-5.9-3.92-9.2Z"/><path class="cls-3" d="M54.57,248.84c-.27,1.77-2,2.16-3.02,3.21-1.06.11-1.77-.51-2.57-1.1-1.62-1.21-3.32-2.33-5.44-2.5.05-.62.1-1.24.14-1.85,1.28.46,2.76.66,3.79,1.44,2.29,1.74,4.54,2.18,7.1.8Z"/><path class="cls-8" d="M80.44,315.42c-.02-.3-.05-.61-.07-.91,5.47-.1,10.94-.04,16.38-.81-.49.46-.98.92-1.47,1.38-4.93.75-9.89.46-14.84.34Z"/><path class="cls-5" d="M43.54,248.44c2.12.17,3.82,1.29,5.44,2.5.8.6,1.5,1.21,2.57,1.1-.71,1.93-2.25,1.28-3.37.82-1.76-.73-3.37-1.84-5.04-2.79.04-.57-.1-1.18.41-1.63Z"/><path class="cls-15" d="M269.15,213.68c-2.29-.3-4.16-2.12-6.61-1.86-.27-.89.06-1.65.48-2.4,2.39.05,4.27,1.98,6.72,1.81-.07.85.23,1.78-.59,2.45Z"/><path class="cls-15" d="M214.6,228.01c2.54,0,5.07-.01,7.61-.02.24.02.48.04.71.05-.62,2.28-2.6,2.4-4.24,2.12-1.42-.24-2.69-.03-4.03.11-.02-.76-.04-1.51-.06-2.27Z"/><path class="cls-12" d="M301.35,117.67c-2.1-1.79-2.43-4.32-3.36-7.44,2.01,1.41,3.36,2.36,4.72,3.31-.45,1.38-.91,2.75-1.36,4.13Z"/><path class="cls-15" d="M176.2,258.63c.03,1.43-.21,2.45-2.07,2.42-1.54-.02-3.09.4-4.64.62-.19-.42-.39-.83-.58-1.25,2.23-1.28,4.88-.95,7.21-1.87,0,0,.08.08.08.08Z"/><path class="cls-7" d="M148.5,187.27c-.35-.01-.7-.02-1.05-.03.33-4.49-1.56-8.69-1.75-13.11,1.46,1.23.73,3.28,1.77,4.67.01,2.87,1.61,5.54,1.03,8.48Z"/><path class="cls-12" d="M136.14,133.48c-1.61-1.78-1.89-4.06-2.64-6.76,1.68,1.02,3.31,1.19,3.81,2.96-.39,1.27-.78,2.53-1.17,3.8Z"/><path class="cls-3" d="M94.01,226.89c.43,3.03-1.09,5.98-.33,9.02-.47.2-.94.41-1.41.61-.06-3.26-.03-6.52.63-9.74.37.04.74.07,1.11.11Z"/><path class="cls-8" d="M373.98,303.89c2.23-1.75,4.66-3.29,5.86-6.05,1.46.94.09,1.69-.32,2.21-1.43,1.84-3.15,3.41-5.08,4.74-.44-.16-.51-.5-.46-.91Z"/><path class="cls-12" d="M74.87,208.19c-1.01-1.1-1.94-2.24-2.28-3.95,1.31-.24,2.25.32,3.14,1.07-.29.96-.57,1.92-.86,2.88Z"/><path class="cls-7" d="M239.73,160.12c.98.45,1.96.9,2.95,1.36-.37.83-.74,1.67-1.12,2.5-1.44-.82-1.47-2.39-1.98-3.71l.15-.15Z"/><path class="cls-12" d="M188.69,212.41c-1.75-.34-1.69-1.92-2.3-3.24,1.1-.36,1.73.21,2.35.81-.02.81-.03,1.62-.05,2.43Z"/><path class="cls-8" d="M35.4,314.71c-.2-.52-.41-1.03-.61-1.55,1.79-.33,3.08,1.24,4.77,1.27-.07.24-.15.48-.22.72-1.31-.15-2.63-.29-3.94-.44Z"/><path class="cls-8" d="M142.45,232.11c-.74-.79-.22-1.41.27-2.04-.09.68-.18,1.36-.27,2.04Z"/><path class="cls-1" d="M196.54,196.29c0-.7.43-.91,1.04-.91.03.73-.47.86-1.04.91Z"/><path class="cls-5" d="M243.84,169.81c-.08-.08-.16-.17-.24-.25.05.02.13.01.15.05.04.06.06.14.08.21,0,0,0,0,0,0Z"/><path class="cls-13" d="M269.15,213.68c.82-.67.52-1.6.59-2.45,1.27,0,1.6-1.04,1.99-1.92,1.24-2.8,2.44-5.62,3.64-8.44.41-.96.37-2.27,1.94-2.19.19.81-.15,1.76.62,2.42-.03,2.32.02,4.62,1.41,6.64-1.73,7.98-4.03,15.8-6.46,23.58-4.32,13.86-8.11,27.9-13.82,41.29-1.99,4.67-2.03,4.65,1.66,7.52-1.89,2.92-1.96,6.37-2.83,9.59-.3.45-.61.91-.91,1.36-2.77,1.29-2.79,4.09-3.55,6.48-1.24.58-1.12,1.69-1.19,2.81-.18,2.83-1.92,4.17-4.38,2.89-2.74-1.42-2.21.26-2.2,1.77,0,1.26.7,2.26,1.19,3.34.77,1.71,1.81,3.33,1.75,5.31-5.32.02-10.64.05-15.95.07-.04-.2-.09-.4-.13-.6.24-2.93-1.12-4.76-3.94-5.34-3.68-.76-6.59-2.44-8.29-5.95-.27-.56-1-.9-1.51-1.35.03-.71.06-1.42.08-2.12.94-2.31,1.88-4.63,2.83-6.94,2.38,1.19,3.41.16,4.15-2.16,1.34-4.22,2.96-8.36,4.47-12.53,1.53,4.82,3.06,9.64,4.58,14.46.12.38.18.77.64.88,1.86.59,3.52-.76,5.35-.53,2.52,6.62,3.13,6.93,8.1,4.93,2.01-.81,2.54-1.82,1.6-3.81-.58-1.23-.97-2.6-.69-4.03,1.82-.45,2.37-1.17,1.88-3.36-2.18-9.78-4.02-19.64-5.98-29.46-.66-3.31-1.32-6.61-1.98-9.92,0-2.6.49-5.14,1.02-7.68,1.32-6.17,2.31-12.39,2.58-18.71.06-.37.13-.74.19-1.12,1.05.58,1.26,1.76,1.86,2.65,1.17,1.74,2.25,3.56,4.19,4.58,2.61,1.38,4.5.72,5.22-1.79,1.74-.63,2.89,1.96,4.72.88,5.08.47,7.06-1.63,6.16-6.45-.28-1.53-.38-3.09-.56-4.63Z"/><path class="cls-16" d="M260.7,280.14c-3.7-2.87-3.65-2.85-1.66-7.52,5.72-13.39,9.5-27.43,13.82-41.29,2.43-7.78,4.72-15.61,6.46-23.58,1.54-.08,3.09-.16,4.63-.24.75,2.74,2.15,5.14,3.77,7.44,2.13,4.03,4.26,8.05,6.39,12.08.69,1.31,1.65,2.5,1.88,4.03-3.22,6.17-6.85,12.16-9.55,18.54-4.37,10.33-8.16,20.9-12.1,31.4-.89,2.37-2.01,3.78-4.72,2.68-2.75-1.73-5.78-2.77-8.92-3.54Z"/><path class="cls-8" d="M287.72,214.95c-1.62-2.3-3.02-4.7-3.77-7.44,3.41-.33,6.83-.66,10.24-.99,3.63.69,1.79,3.27,1.8,5.21-2.85.83-5.29,2.73-8.28,3.21Z"/><path class="cls-12" d="M279.52,189.63c1.35-6.34,3.77-12.36,5.54-18.57,3.56-12.54,6.56-25.18,6.97-38.31.69,6.05.12,12.01-1.01,17.96-2.29,12.04-6,23.68-9.43,35.41-.33,1.12-.48,2.29-.71,3.44-.45.02-.9.05-1.36.07Z"/><path class="cls-15" d="M279.52,189.63c.45-.02.9-.05,1.36-.07-.66,3.93-1.28,7.88-2.96,11.55-.76-.67-.43-1.61-.62-2.42-.72-2.94.58-5.42,1.81-7.92.1.08.19.17.29.25l-.26-.28c.13-.37.26-.73.39-1.1Z"/><path class="cls-13" d="M269.62,283.67c2.7,1.1,3.83-.31,4.72-2.68,3.94-10.5,7.73-21.07,12.1-31.4,2.7-6.39,6.34-12.38,9.55-18.54,3.08,3.81,4.84,8.35,6.83,12.74,3.04,6.69,5.92,13.44,8.84,20.18.31.72.43,1.52.63,2.29-1.36,2.03-3.38,1.42-5.16,1.09-7.38-1.38-11.89-6.37-15.34-12.6-.14-.26-.13-.62-.31-.83-1.08-1.3-.89-4.31-2.9-3.91-1.71.33-1.9,3.08-2.17,4.88-1.36,9.05,4.39,17.78,13.28,20.43,4.14,1.23,4.07,1.23,3.54,5.74-.23,1.97-.22,4-.08,5.98.26,3.58-1.32,6.08-4.11,8.09-2.1,1.51-4.29,3.02-4.35,6.03-.41.95-.82,1.9-1.22,2.84-1.71,2.3-3.29,4.63-3.28,7.69,0,.79.05,2.05-1.25,1.97-2.49-.15-5.07.79-7.47-.57.23-.17.47-.34.7-.5.19-.32.51-.63.54-.96.28-3.5-1.22-5.6-5.25-6.87-2.62-.82-4.7-1.89-5.26-4.91-.14-.75-.4-2.42-1.79-1.8-3.79,1.69-3.18-.74-2.94-2.93.29-.98.58-1.97.87-2.96.57-2.8,1.39-5.57,1.26-8.48Z"/><path class="cls-6" d="M335.02,311.34c.04,1.83-.71,2.67-2.66,2.45-3.9-.45-7.9.79-11.74-.73-2.03-2.58-3.93-5.19-5.01-8.38-1.33-3.89-.92-5.51,2.61-7.75,3.04-1.93,5.89-4.04,7.84-7.16,3.74-1.35,7.23-.06,10.71,1.09,2.13.7,2.11,3.62,4.27,4.36-.54,3.06-1.91,5.8-3.48,8.4-1.46,2.42-2.4,4.91-2.54,7.72Z"/><path class="cls-13" d="M320.61,233.48c2.8,2.09,4.2,5.25,6,8.07,6.86,10.76,16.72,14.25,28.99,12.47,2.13-.31,4.34-1.54,6.58-.28-3.61,2.05-6.61,5.03-10.57,6.6-7.16,2.82-14.59,3.71-22.21,3.62-2.33-9.54-5.3-18.89-8.39-28.21-.25-.75-.7-1.44-.41-2.27Z"/><path class="cls-13" d="M315.85,313.79c-7.04.01-14.07.02-21.11.03-.63-2.56.84-4.54,1.8-6.66.96-.98,1.45-2.22,1.91-3.48,2.85-2.47,5.71-4.88,9.89-4.25,1.45,5.34,4.41,9.89,7.51,14.36Z"/><path class="cls-12" d="M315.85,313.79c-3.11-4.47-6.06-9.02-7.51-14.36,3.38-1.6,6.72-3.19,9.6-5.75,2.25-2,4.9-3.68,8.13-3.91-1.95,3.12-4.8,5.23-7.84,7.16-3.53,2.23-3.94,3.86-2.61,7.75,1.08,3.18,2.98,5.8,5.01,8.38-1.41,1.4-3.19.42-4.77.73Z"/><path class="cls-1" d="M298.45,303.68c-.46,1.26-.95,2.5-1.91,3.48-1.14-.93-2.81-1.35-3.04-3.15.41-.95.82-1.9,1.22-2.84,1.47.5,3.19.64,3.73,2.52Z"/><path class="cls-6" d="M92.27,236.52c.47-.2.94-.41,1.41-.61,2.33-.21,1.45-2.42,2.24-3.59,1.34-.56,2.76-.73,4.2-.79,1.01.02,1.98.83,3.02.12.18.07.35.07.52-.03.25-.21.5-.41.74-.62.19-.36.39-.72.58-1.08,1.89-2.21,3.19-4.52,1.08-7.32-.19-.4-.37-.8-.56-1.2-.02-.2-.04-.4-.06-.6.26-.93.53-1.86.79-2.79,1.94-1.94,4.14-3.67,5.32-6.26.13.05.26.08.4.1-.18,1.35-.34,2.7-.56,4.05-.38,2.37.44,3.58,2.98,3.16.76,2.37.82,4.76.08,7.15-.22.42-.52.82-.65,1.26-1.94,6.47-3.8,12.96-5.78,19.42-2.47,8.06-7.59,14.83-11.1,22.39-1.31,2.82-2.33,5.82-4.91,7.98-1.24,1.04-2.04,2.92.29,4.13.02,2-1.27,3.5-2.05,5.18-.45.98-.64,1.77.21,2.68,4,4.36,6.02,4.21,8.92-.76.25-.42.43-.88.64-1.33,3.87,1.39,5.18,1.08,6.34-2.68.71-2.31,2.13-3.92,3.41-5.74,3.13-4.47,6.9-8.49,9.5-13.34,2.65-3.23,4.3-7.07,6.47-10.59,1.71,2.25,2.23,5.02,3.25,7.57,2.7,6.71,5.27,13.48,7.89,20.22.54,1.38.98,2.73,1.05,4.28.21,4.73,1.83,5.69,6.94,4.36.31.61.57,1.25.92,1.83,3.7,6.09,4.21,6.21,10.6,2.61,1.05,1.4,2.1,2.79,3.15,4.19-.83,1.12-1.67,2.23-2.5,3.35-1.54,2.07-3.6,2.21-5.43.31-.48-.49-.78-1.29-1.64-.85-.71.36-.77,1.11-.77,1.83,0,2.9.01,5.8.02,8.69,0,0,.05.05.05.05-.97.15-1.93.44-2.9.44-13.8.03-27.61.01-41.41,0,1.56-3.41.94-5.12-2.56-5.88-2.64-.57-4.06-2.05-5.17-4.38-.81-1.7-.84-3.49-1.12-5.21-.32-2.05-.92-2.7-3.03-2.31-2.6.48-4.61-1.19-5.01-3.74-.08-.54.29-1.3-.5-1.53-.67-.2-1,.49-1.48.8-1.32.84-1.45,2.97-3.39,3.12-.4-7.01-.94-14.02-1.83-20.99.15-.35.48-.73.42-1.04-1.04-5.08-1.31-10.32-2.99-15.27-.03-.45-.07-.9-.1-1.35.46-4.38.92-8.75,1.38-13.13.23-.34.47-.69.7-1.03,4.53-.53,8.27-2.84,11.98-5.25Z"/><path class="cls-16" d="M125.76,254.82c-2.18,3.52-3.82,7.36-6.47,10.59-1.74-9.08-3.06-18.2-3.79-27.43-.31-3.91.22-7.93-1.03-11.77.74-2.39.68-4.77-.08-7.15.41.07.81.13,1.22.2.43,1.53.86,3.06,1.29,4.6.17,3.51,1.6,6.7,2.61,9.99,1.92,6.24,3.95,12.45,6,18.65.26.79.31,1.53.26,2.32Z"/><path class="cls-8" d="M116.9,223.85c-.43-1.53-.86-3.06-1.29-4.6,4.99-.47,10.05.29,14.99-.93,1.09.2,1.6.66.35,1.36-1.2.67-2.46,1.35-3.78,1.64-1.48.32-2.04,1.01-1.88,2.44l-.12.1c-.85-1.42-2.06-1.5-3.48-.97-1.54.59-3.12,1.05-4.8.96Z"/><path class="cls-8" d="M111.96,211.85c-.14-.01-.27-.05-.4-.1,2.07-6.38,4.15-12.77,6.22-19.15-.8,6.77-3.09,13.08-5.82,19.25Z"/><path class="cls-9" d="M118.92,189.2c.95-6.31,2.47-12.51,3.04-19.18,1.12,2.53-.76,14.64-3.04,19.18Z"/><path class="cls-9" d="M123.86,155.24c-.2,4.19-.41,8.39-.61,12.58-.25,0-.5,0-.74-.01.19-4.17.38-8.35.58-12.52.26-.02.52-.03.78-.05Z"/><path class="cls-8" d="M132.46,190.23c2.6.03,5.19.05,7.79.08.19.37.38.73.57,1.1-1.07,0-2.13.06-3.2,0-1.35-.08-1.67.67-1.61,1.8l.03-.02c-.62-1.65-1.95-1.95-3.5-1.85-.02-.37-.05-.74-.07-1.11Z"/><path class="cls-8" d="M136.01,193.21c1.91,5.43,2.24,11.2,3.63,16.75.06.23.15.46.34,1.06.81-1.69,1.46-3.07,2.12-4.44.32.05.63.11.95.16-4.32,7.16-2.05,14.45-.81,22.09-1.75-1.6-1.22-3.31-1.5-4.83-.28-1.56-.89-3.08-1-4.65-.56-7.84-2.18-15.5-3.69-23.18-.19-.96-.02-1.98-.01-2.98,0,0-.03.02-.03.02Z"/><path class="cls-8" d="M153.73,282.52c-3.54.73-7.06,1.56-10.63,2.13-2.01.32-.42-1.44-.59-1.55,3.51,1.09,7.26-1.06,11.07-.8,0,0,.16.21.16.21Z"/><path class="cls-8" d="M132.44,249.58c.98,1.7,1.67,3.49,1.75,6.08-1.44-2.2-1.86-4.06-1.77-6.07h.02Z"/><path class="cls-8" d="M128.64,236.77c-.52-1.29-1.23-2.24-.81-3.71.99,1.12,1.14,2.21.81,3.71Z"/><path class="cls-8" d="M128.98,237.95c.96.72,1.13,1.6.9,3.01-.83-1.02-1.23-1.82-.9-3.01Z"/><path class="cls-8" d="M132.42,249.59c-.99-.82-1.23-1.87-1.14-3.34,1.18,1.06,1.23,2.17,1.15,3.32,0,0-.02.01-.02.01Z"/><path class="cls-8" d="M130.22,242.08c.8.91,1.15,1.76.87,3.14-.89-1.06-1.25-1.91-.87-3.14Z"/><path class="cls-8" d="M134.85,257.96c.49.26.61.68.46,1.18-.02.07-.15.11-.22.17-.09-.44-.19-.88-.28-1.32,0,0,.04-.04.04-.04Z"/><path class="cls-8" d="M134.81,258c-.5-.28-.65-.71-.48-1.24.02-.07.15-.12.24-.17.09.46.19.92.28,1.38,0,0-.04.04-.04.04Z"/><path class="cls-8" d="M141.99,280.45c-.07.16-.15.32-.22.47-.11-.19-.27-.37-.31-.57-.02-.1.18-.25.28-.37.08.16.16.31.24.47Z"/><path class="cls-8" d="M127.6,231.31c-.1.17-.19.33-.28.49-.08-.17-.23-.34-.22-.51,0-.16.17-.32.26-.48.08.17.17.34.25.5Z"/><path class="cls-8" d="M126.44,227.36c-.19.05-.32.09-.44.12-.04-.17-.12-.35-.09-.51.02-.13.18-.23.28-.34.08.24.17.49.25.73Z"/><path class="cls-8" d="M125.29,223.76c.45.32.61.75.45,1.28-.02.08-.15.12-.23.18-.11-.45-.22-.9-.34-1.35,0,0,.12-.1.12-.1Z"/><path class="cls-8" d="M142.32,203.82c.08.18.21.35.21.51,0,.15-.16.3-.25.45-.08-.16-.21-.32-.21-.48,0-.15.15-.3.25-.47Z"/><path class="cls-8" d="M126.94,229.34c-.07.06-.14.12-.21.18-.06-.16-.14-.32-.17-.48,0-.05.13-.12.2-.18.06.16.12.32.19.48Z"/><path class="cls-8" d="M141.09,285.31c-.08.05-.15.09-.23.14-.06-.1-.12-.21-.18-.31.09-.01.19-.06.27-.03.06.02.09.13.14.2Z"/><path class="cls-13" d="M185.81,313.37c-.23.13-.46.26-.68.38-3.37,0-6.74-.01-10.11-.02,1.42-1.3,1.07-2.78.42-4.28-1.17-2.66-3.52-3.48-6.11-4.03-1.69-.36-3.63-.39-4.18-2.61.3-1.35.61-2.71.91-4.06.41-1.38,1.08-2.58,2.37-3.33,2.02-1.13,4.28-1.86,5.99-3.51,1.97.72,3.17-1.02,4.76-1.52,1.19-.38,2.33-.93,3.49-1.41.41.08.82.16,1.22.25h0c.2.53.7.56,1.13.69.24,1.85.54,3.7.69,5.56.2,2.55,1.33,3.67,4.01,3.26,2.4-.37,4.46-.71,3.87-4.01-.29-1.63-.13-3.35-.17-5.03,1.36-1.46,4.66-.83,4.36-4.09-.55-6.04-1.1-12.07-2.27-18.03-.06-.79-.11-1.59-.17-2.38q5.33.07,5.34-5.14c0-3.08.02-6.17.03-9.25.39.07.78.11,1.16.21,3.4.91,4.02.37,3.41-2.97-.19-1.04-.93-2.54.21-2.95,1.57-.57,3.5-.89,5.06.39,3.47,2.83,4.85,2.62,6.37-1.45.85-2.29,2.94-3.38,4.17-5.24.22.79.43,1.57.65,2.36.43,1.84.87,3.69,1.3,5.53-3.11,12.65-6.22,25.3-11.07,37.44-.83,2.08-.46,3.39,1.48,4.36-.5,2.89-2.12,5.5-2.07,8.52-.62.39-.56,1-.51,1.61-1.31.23-2.12,1.06-2.46,2.28-.73,2.64-1.93,5.18-1.78,8.02-.14.22-.28.43-.42.65-3.82-.57-7.36-1.71-10.02-4.75-.92-1.05-1.69-1.57-2.74.05-2.09,3.22-2.35,3.16-4.92-.03-.35-.44-.54-1.21-1.31-.94-.62.22-.79.84-.83,1.47-.2,2.67-.39,5.34-.59,8.01Z"/><path class="cls-8" d="M195.35,265.21c.06.79.11,1.59.17,2.38-5.01.71-9.58,3.22-14.66,3.64-1.33.11-.69,1.06-.64,1.81.12,1.87,1.46,3.48,1.15,6-1.6-3.23-2.19-6.22-2.93-9.15-.73-1.55-1.23-3,1.34-3.12,5.23-.08,10.4-.83,15.57-1.55Z"/><path class="cls-12" d="M178.45,249c.71-5.98,1.42-11.96,2.13-17.94.76,6.08-.12,12.01-1.48,17.9-.22.01-.43.03-.65.04Z"/><path class="cls-7" d="M198.39,224.97c.3,2.72.59,5.44.92,8.15.09.72.32,1.44-.85,1.29.02-2.67-.81-5.22-1.07-7.84-.05-.49-1.11-2.23,1-1.6Z"/><path class="cls-15" d="M178.45,249c.22-.01.43-.03.65-.04-.42,2.39-.74,4.8-1.3,7.16-.22.93-.16,2.27-1.6,2.51,0,0-.08-.08-.08-.08.78-3.18,1.55-6.37,2.33-9.55Z"/><path class="cls-16" d="M78.21,255.93c.03.45.07.9.1,1.35-2.02.42-4.04.9-6.07,1.22-1.15.18-1.45.62-1.3,1.77.67,4.99.03,10.07.94,15.05l-.64.29c-2.68-1.04-5.47-1.03-8.28-.88,1.91-4.39,3.79-8.79,5.74-13.15.96-2.14.84-3.32-1.99-3.05-1.22.12-2.6.43-3.73-.53,5.08-.69,10.16-1.38,15.24-2.07Z"/><path class="cls-12" d="M80.29,241.77c-.23.34-.47.69-.7,1.03-1.4-3.28.82-6.32.2-9.54h.92c-.14,2.85-.28,5.68-.42,8.51Z"/><path class="cls-7" d="M61.17,239.68c-.78,1.86-1.74,3.63-3.65,4.88.98-1.73,1.96-3.47,2.94-5.2.24.11.47.22.71.32Z"/><path class="cls-7" d="M66.59,228.03c.05,1.5-.82,2.61-1.6,3.75-.11-.08-.22-.17-.33-.26.32-1.34.64-2.68,1.86-3.55l.08.07Z"/><path class="cls-7" d="M68.68,224.31c-.07-.89.33-1.47,1.04-1.97.17,1.03-.69,1.39-1.04,1.97Z"/><path class="cls-7" d="M55.63,247.07c.24-.81.76-1.35,1.65-1.72.25,1.16-.37,1.69-1.21,2.1-.15-.13-.29-.25-.44-.38Z"/><path class="cls-7" d="M64.99,231.78c-.15.78-.41,1.52-1.18,2.18-.37-1.13.13-1.82.85-2.44.11.09.22.18.33.26Z"/><path class="cls-7" d="M61.34,238.76c-.23-.99.06-1.67.59-1.65.72.03.29.65.11,1-.12.23-.39.38-.7.65Z"/><path class="cls-7" d="M66.51,227.97c0-.72.12-1.37.96-1.8.34.98-.19,1.46-.88,1.87,0,0-.07-.07-.07-.07Z"/><path class="cls-7" d="M62.65,236.3c-.46-.98.11-1.37.59-1.85.62.86,0,1.27-.59,1.85Z"/><path class="cls-7" d="M55.85,248.39c-.44.03-.89.05-1.33.08.09-.69.57-1.07,1.11-1.4.14.13.29.25.44.38-.07.32-.14.63-.22.94Z"/><path class="cls-7" d="M68.2,225.31c-.06.06-.11.12-.17.18-.05-.07-.13-.14-.13-.2,0-.06.1-.12.16-.18.05.07.09.14.14.21Z"/><path class="cls-16" d="M213.45,288.48c-1.94-.96-2.31-2.27-1.48-4.36,4.84-12.13,7.96-24.78,11.07-37.44,1.96,3.76,2.28,7.99,3.28,12.01,1.49,5.98,2.65,12.03,3.95,18.06-1.5,4.17-3.12,8.31-4.47,12.54-.74,2.32-1.77,3.35-4.15,2.16-2.6-1.34-5.44-2.05-8.2-2.97Z"/><path class="cls-1" d="M249.84,288.68c-.28,1.43.11,2.8.69,4.03.94,1.99.42,3-1.6,3.81-4.97,2-5.58,1.68-8.1-4.93,1.9-1.08,4.39-.68,6.04-2.39,0,0-.04.02-.04.02.91.25,1.73.16,2.37-.63.21.03.42.06.64.1Z"/><path class="cls-8" d="M221.74,241.16c-.22-.79-.43-1.57-.65-2.36.45-1.69-.32-3.54.64-5.17,3.77-.13,7.54-.26,11.32-.38-6.02,2.65-3.48,7.11-2.37,11.27.28,1.04.85,2.05.37,3.45-1.65-2.9-1.88-6.04-2.67-8.97-.59-2.18-1.29-1.75-2.54-.82-1.35,1.01-2.74,1.99-4.1,2.98Z"/><path class="cls-8" d="M246.87,289.19c-1.65,1.71-4.14,1.31-6.04,2.39-1.82-.23-3.49,1.12-5.35.53.7-1.53,2.23-1.06,3.41-1.35,2.37-.58,2.83-1.62,2-4.08-3.43-10.15-5.58-20.67-8.38-31-.12-.43-.01-.92.51-1.47,1.62,6.31,3.2,12.63,4.88,18.92,1.13,4.21,2.56,8.35,3.56,12.59.74,3.11,2.07,4.7,5.41,3.48Z"/><path class="cls-8" d="M240.91,210.57c.16.01.32.01.48,0,.5,2.78-.62,5.68.63,8.4l.06.05v9.54c-1.32-5.96-1.4-11.97-1.17-18Z"/><path class="cls-8" d="M244.78,238.27c-.53,2.53-1.02,5.07-1.02,7.68-.98-1.67-.97-3.52-1.13-5.39-.15-1.8.72-2.19,2.14-2.28Z"/><path class="cls-8" d="M232.3,252.97c-.64-1.25-1.27-2.19-.85-3.63.98,1.07,1.16,2.13.85,3.63Z"/><path class="cls-8" d="M249.2,288.59c-.64.78-1.46.88-2.37.63.6-.92,1.55-.52,2.37-.63Z"/><path class="cls-8" d="M242.01,218.97c0-.67-.1-1.37.58-1.82l.09.08c-.02.66.14,1.38-.62,1.79,0,0-.06-.05-.06-.05Z"/><path class="cls-8" d="M242.6,217.16c.11-.44.21-.89.32-1.33.08.06.2.1.22.18.14.51.03.94-.45,1.23,0,0-.09-.08-.09-.08Z"/><path class="cls-12" d="M222.93,228.04c-.24-.02-.48-.04-.71-.05,3.48-9.94,4.99-20.32,6.39-30.71.25.02.49.05.74.07-.23,2.45-.32,4.93-.73,7.35-1.11,6.46-2.14,12.95-3.98,19.26-.41,1.42-.64,2.93-1.71,4.08Z"/><path class="cls-12" d="M229.08,195.31c.68-3.73.15-7.53.73-11.58,1.07,2.15.63,9.41-.73,11.58Z"/><path class="cls-8" d="M310.89,245.42c-1.33-1.62-1.92-3.54-2.08-5.63,1.17,1.67,2.17,3.41,2.14,5.57l-.06.05Z"/><path class="cls-8" d="M302.87,225.29c1.05,1.24,1.55,1.91,1.24,3.06-1-.65-1.32-1.44-1.24-3.06Z"/><path class="cls-8" d="M312.02,247.9c-.07.06-.14.12-.2.17-.05-.14-.13-.29-.15-.44,0-.04.12-.11.18-.16.06.14.12.29.18.43Z"/><path class="cls-8" d="M304.88,230.44c-.15-.28-.3-.57-.43-.86,0-.02.13-.11.2-.16.11.31.23.61.34.92l-.11.1Z"/><path class="cls-8" d="M305,230.35c.14.21.29.41.41.63,0,.02-.19.15-.29.22-.08-.25-.15-.5-.23-.75,0,0,.11-.1.11-.1Z"/><path class="cls-8" d="M312.76,250.15c.15.2.3.4.45.6-.1.07-.21.15-.31.22-.07-.25-.13-.51-.2-.76l.06-.06Z"/><path class="cls-8" d="M310.95,245.37c.16.22.31.43.47.65-.11.07-.23.15-.34.22-.06-.27-.12-.54-.19-.81,0,0,.06-.05.06-.05Z"/><path class="cls-8" d="M308.23,237.92c.06.15.13.29.16.45,0,.04-.12.11-.18.17-.06-.15-.13-.29-.16-.45,0-.04.12-.11.18-.17Z"/><path class="cls-8" d="M314.42,254.48c-.07.06-.13.11-.2.17-.06-.15-.14-.3-.17-.45,0-.04.12-.11.19-.17.06.15.12.3.18.45Z"/><path class="cls-8" d="M306.62,234.11c-.07.06-.13.11-.2.17-.06-.15-.13-.29-.16-.45,0-.04.12-.11.18-.17.06.15.11.3.17.45Z"/><path class="cls-8" d="M312.69,250.21c-.15-.21-.3-.41-.45-.62.11-.07.21-.14.32-.21.06.26.13.51.2.77,0,0-.06.06-.06.06Z"/><path class="cls-8" d="M313.65,252.28c.05.15.12.3.14.45,0,.04-.12.1-.19.16-.05-.15-.12-.29-.15-.44,0-.04.12-.1.2-.16Z"/><polygon class="cls-8" points="305.7 232.48 305.89 232.39 305.87 232.61 305.7 232.48"/><path class="cls-13" d="M185.68,378.44c2.26,0,3.77,1.62,3.75,4.1-.03,2.42-1.09,4.04-3.66,4.22-2.24.15-3.57-1.43-3.61-4.13-.05-2.74,1.16-4.18,3.52-4.19Z"/><path class="cls-6" d="M62.96,274.74c2.81-.15,5.6-.16,8.28.88.25.85.46,1.71.75,2.54,1.91,5.56,1.68,11.5,2.95,17.17.8,3.55,1.23,3.85,4.84,3.17,1.15-.22,2.35-.19,3.52-.28.2,1.26.41,2.51.58,3.78.23,1.69-.57,2.9-1.96,3.67-1.41.78-2.38-.15-3.35-1.07-1.74-1.66-2.82-1.34-3.43,1.19-.63,2.57-.99,5.2-1.46,7.81-10.92.05-21.85.09-32.77.14-.06-.59-.12-1.18-.18-1.76.07-.51-.09-.92-.52-1.22-1.94-3.4-2.22-6.93-.8-10.57.4-1.02-.48-1.68-.49-2.56.2-1.63,1.76-2.27,2.52-3.49,6.36-5.66,13.59-10.45,18.03-18.04,1.35.03,2.83.42,3.48-1.35Z"/><path class="cls-8" d="M50.36,272.97c.05-.25.1-.51.14-.76.1.06.2.11.31.17-.15.2-.29.4-.44.6,0,0-.02-.01-.02-.01Z"/><polygon class="cls-8" points="52.58 268.5 52.42 268.56 52.44 268.39 52.58 268.5"/><path class="cls-8" d="M50.38,273.59l-.27.02s-.26-.08-.26-.08c.17-.19.34-.37.52-.55,0,0,.02.01.02.01.02.2.02.4,0,.6Z"/><polygon class="cls-8" points="51.29 270.77 51.34 270.95 51.19 270.92 51.29 270.77"/><polygon class="cls-8" points="53.64 266.2 53.6 266.03 53.74 266.05 53.64 266.2"/><path class="cls-15" d="M373.14,258.69c-.58-.46-1.16-.92-1.74-1.37.46-2.58.92-5.15,1.38-7.73.12.01.24.03.36.04v9.06Z"/><path class="cls-1" d="M258.83,223.89c-.73,2.51-2.61,3.17-5.22,1.79-1.94-1.02-3.02-2.84-4.19-4.58-.6-.9-.81-2.07-1.86-2.65-.02-1.82-.04-3.64-.07-5.45.86-1.39.86-2.78,0-4.18.08-.61.15-1.22.23-1.83,2.56,1.31,2.61,4.17,3.88,6.28,2.14,3.54,4.17,7.17,7.27,10-.02.21-.03.41-.05.62Z"/><path class="cls-2" d="M258.83,223.89c.02-.21.03-.42.05-.62.49-3.37,1.35-6.63,3.15-9.57,1.13.17,1.02,1.03.98,1.81-.09,1.7-.02,3.31,1.18,4.71,1.44,1.7.02,3.09-.63,4.55-1.83,1.08-2.97-1.51-4.72-.88Z"/><path class="cls-12" d="M151.71,212.38c-.03-.39-.05-.78-.08-1.18.56.36.6.75.08,1.18Z"/><path class="cls-7" d="M239.58,160.27c-.07-.12-.14-.25-.21-.37.12.07.24.15.37.22,0,0-.15.15-.15.15Z"/><path class="cls-14" d="M248.57,313.69c.06-1.98-.98-3.6-1.75-5.31-.49-1.08-1.18-2.09-1.19-3.34,0-1.51-.54-3.19,2.2-1.77,2.47,1.28,4.2-.05,4.38-2.89.07-1.11-.05-2.23,1.19-2.81,1.25,1.01,2.7,1.61,4.19,2.2,3.37,1.34,6.88.67,10.33.84,1.3.06,2.71-.1,2.87,1.78-1.88,2.83-4.72,4.42-7.64,5.92-4.43,2.27-9.24,3.59-13.81,5.51l-.77-.13Z"/><path class="cls-14" d="M185.81,313.37c.2-2.67.39-5.34.59-8.01.05-.63.21-1.25.83-1.47.77-.27.96.5,1.31.94,2.58,3.19,2.83,3.24,4.92.03,1.06-1.62,1.83-1.1,2.74-.05,2.66,3.04,6.2,4.19,10.02,4.75,3.45,2.11,7.42,2.67,11.22,3.72-2.66,1.12-5.49.67-8.13.35-2-.24-3.57.03-5.19.94-6.13-.01-12.29.54-18.31-1.2Z"/><path class="cls-8" d="M249.33,313.81c4.57-1.92,9.38-3.24,13.81-5.51,2.92-1.5,5.76-3.08,7.64-5.92.19,1.81-.79,2.82-2.18,3.86-2.43,1.8-5.31,2.81-8.31,4.91.99.12,1.34.22,1.68.2,6.05-.4,12.04.96,18.09.63.74-.04,1.62-.28,2.14.6-.23.17-.47.34-.7.5-7.32-.26-14.66-.3-21.96-.99-2.15-.2-4.08.67-6.08,1.21-1.34.36-2.63,1.42-4.13.5Z"/><path class="cls-8" d="M217.44,313.28c-3.8-1.05-7.76-1.62-11.22-3.72.14-.22.28-.43.42-.65,8.32,3.21,16.86,5.09,25.84,4.25.04.2.09.4.13.6-5.11,1.41-10.13.31-15.17-.48Z"/><path class="cls-5" d="M368.46,306.03c-3.82,2.47-7.63,4.96-11.86,6.68-.86.35-1.66,1.13-2.73.57-2.58-2.79-4.5-5.93-5.18-9.73,4.94.64,9.6-.92,14.37-1.75,3.5-.61,4.66.45,5.4,4.23Z"/><path class="cls-13" d="M348.69,303.55c.68,3.8,2.59,6.94,5.18,9.73-.1.22-.2.44-.3.66-4.53-.09-9.07-.17-13.6-.26-.55-1.91-.37-3.77.6-5.48,1.77-3.1,3.62-6.16,5.44-9.23.32-.55.71-.97,1.43-.69.61,1.71,2.29,3.17,1.24,5.27Z"/><path class="cls-11" d="M40.21,310.74c.43.3.59.71.52,1.22-.45-.29-.54-.73-.52-1.22Z"/><path class="cls-7" d="M178.44,269.88c.75,2.93,1.33,5.92,2.93,9.15.31-2.52-1.03-4.13-1.15-6-.05-.74-.69-1.7.64-1.81,5.09-.42,9.65-2.93,14.66-3.64,1.16,5.96,1.71,12,2.27,18.03.3,3.26-3,2.63-4.36,4.09-2.77,1.17-5.62-.43-8.4.22-.44-.13-.93-.16-1.13-.69.75-.6.85-1.22.03-1.85-.04-.65.16-1.39-.59-1.8-.03-.84.27-1.76-.6-2.39-.05-.65.15-1.38-.6-1.8-.08-.46-.15-.93-.23-1.39-.08.05-.22.09-.24.16-.18.54,0,.94.49,1.21.03.66-.14,1.38.6,1.8,0,.85-.3,1.77.6,2.4,0,.67-.13,1.38.61,1.79-.02.62-.05,1.25-.07,1.87-.41-.08-.82-.16-1.22-.25-.16-4.14-2.37-7.67-3.39-11.55-.65-2.46-2.1-4.7-1.97-7.36.38-.07.76-.13,1.14-.2Z"/><path class="cls-14" d="M73.68,313.59c.48-2.61.83-5.24,1.46-7.81.62-2.53,1.69-2.84,3.43-1.19.97.92,1.94,1.85,3.35,1.07,1.39-.77,2.19-1.98,1.96-3.67-.17-1.26-.39-2.52-.58-3.78-.2-1.21-.4-2.42-.6-3.63,1.94-.15,2.07-2.28,3.39-3.12.48-.31.81-1,1.48-.8.78.23.41.99.5,1.53.39,2.55,2.41,4.22,5.01,3.74,2.12-.39,2.71.26,3.03,2.31.27,1.72.31,3.51,1.12,5.21,1.11,2.34,2.53,3.81,5.17,4.38,3.5.75,4.12,2.47,2.56,5.88-2.74,0-5.48,0-8.22,0-5.44.76-10.91.7-16.38.81-.94-1.21-2.06-.74-3.2-.4-1.22.37-2.49.78-3.49-.52Z"/><path class="cls-2" d="M106.06,222.6c2.11,2.81.81,5.11-1.08,7.32-1.79-2.76-1.04-5.14,1.08-7.32Z"/><path class="cls-2" d="M103.13,231.64c-1.04.72-2.01-.1-3.02-.12,1.06-1.28,2.04-.56,3.02.12Z"/><path class="cls-2" d="M104.4,231c-.25.21-.5.41-.74.62.25-.21.5-.41.74-.62Z"/><path class="cls-2" d="M105.45,220.8c.02.2.04.4.06.6-.22-.02-.43-.05-.65-.07.2-.18.4-.35.59-.53Z"/><path class="cls-14" d="M165.14,302.82c.55,2.22,2.5,2.25,4.18,2.61,2.58.54,4.94,1.37,6.11,4.03.66,1.5,1,2.98-.42,4.28-.63-.19-.73-2.28-1.89-.52-6.68.78-13.35,1.61-20.09.63-1.27-.18-2.53-.41-3.8-.62,0-2.9-.01-5.8-.02-8.69,0-.72.05-1.47.77-1.83.86-.43,1.17.36,1.64.85,1.83,1.9,3.9,1.76,5.43-.31.83-1.12,1.67-2.24,2.5-3.35,1.86.98,3.72,1.96,5.58,2.94Z"/><path class="cls-5" d="M247.49,208.81c.85,1.39.85,2.79,0,4.18,0-1.39,0-2.78,0-4.18Z"/><path class="cls-15" d="M232.48,313.16c-8.98.85-17.52-1.04-25.84-4.25-.16-2.84,1.04-5.38,1.78-8.02.34-1.22,1.15-2.05,2.46-2.28.17,2.01,1.44,2.69,3.23,2.54,1.55-.13,3.08-.42,4.62-.64.51.44,1.24.79,1.51,1.35,1.7,3.51,4.61,5.2,8.29,5.95,2.82.58,4.18,2.41,3.94,5.34Z"/><path class="cls-15" d="M282.21,312.58c-.52-.88-1.4-.64-2.14-.6-6.05.33-12.04-1.03-18.09-.63-.34.02-.69-.08-1.68-.2,3-2.1,5.88-3.11,8.31-4.91,1.39-1.03,2.37-2.04,2.18-3.86-.16-1.88-1.57-1.72-2.87-1.78-3.45-.17-6.95.5-10.33-.84-1.48-.59-2.94-1.18-4.19-2.2.77-2.39.78-5.19,3.55-6.48.32,1.14.52,2.33.98,3.42,1.31,3.07,3.72,3.7,6.23,1.54,1.04-.9,2.14-.89,3.32-.94-.24,2.19-.85,4.62,2.94,2.93,1.39-.62,1.65,1.06,1.79,1.8.57,3.02,2.65,4.09,5.26,4.91,4.03,1.27,5.53,3.37,5.25,6.87-.03.33-.35.64-.54.96Z"/><path class="cls-3" d="M269.62,283.67c.13,2.91-.69,5.68-1.26,8.48-.59.01-1.23.18-1.76,0-2.88-.92-6.27,0-8.72-2.44.86-3.22.94-6.67,2.83-9.59,3.14.77,6.16,1.8,8.92,3.54Z"/><path class="cls-3" d="M213.45,288.48c2.76.93,5.59,1.63,8.2,2.97-.94,2.31-1.89,4.63-2.83,6.94-2.45-.63-4.87-1.41-7.44-1.39-.05-3.02,1.57-5.63,2.07-8.52Z"/><path class="cls-5" d="M257.88,289.73c2.45,2.43,5.84,1.51,8.72,2.44.53.17,1.17,0,1.76,0-.29.99-.58,1.97-.87,2.96-1.18.05-2.27.04-3.32.94-2.51,2.16-4.92,1.53-6.23-1.54-.46-1.08-.66-2.28-.98-3.42.3-.45.61-.91.91-1.36Z"/><path class="cls-5" d="M211.38,297c2.57-.02,4.99.76,7.44,1.39-.03.71-.06,1.42-.08,2.12-1.54.22-3.08.52-4.62.64-1.8.15-3.07-.53-3.23-2.54-.06-.61-.11-1.22.51-1.61Z"/><path class="cls-12" d="M279.13,190.73l.26.28c-.1-.08-.19-.17-.29-.25,0,0,.02-.03.02-.03Z"/><path class="cls-7" d="M114.47,226.2c1.25,3.83.72,7.85,1.03,11.77.73,9.23,2.04,18.36,3.79,27.43-2.6,4.85-6.36,8.87-9.5,13.34-1.28,1.82-2.7,3.43-3.41,5.74-1.16,3.76-2.47,4.07-6.34,2.68-2.34-2.24-4.96-4.11-7.72-5.79-2.33-1.21-1.54-3.09-.29-4.13,2.58-2.17,3.6-5.17,4.91-7.98,3.51-7.56,8.62-14.33,11.1-22.39,1.98-6.46,3.85-12.95,5.78-19.42.13-.45.43-.84.65-1.26Z"/><path class="cls-1" d="M82.71,294.58c.2,1.21.4,2.42.6,3.63-1.18.09-2.37.06-3.52.28-3.61.68-4.04.37-4.84-3.17-1.28-5.68-1.04-11.61-2.95-17.17-.29-.83-.5-1.69-.75-2.54.21-.1.43-.19.64-.29,3.15.19,5.99-1.22,9-1.72.89,6.97,1.43,13.97,1.83,20.99Z"/><path class="cls-7" d="M80.88,273.6c-3.01.5-5.86,1.91-9,1.72-.9-4.98-.26-10.06-.94-15.05-.15-1.15.15-1.59,1.3-1.77,2.04-.32,4.05-.81,6.07-1.22,1.68,4.96,1.95,10.19,2.99,15.27.06.31-.27.69-.42,1.04Z"/><path class="cls-2" d="M92.32,281.38c2.76,1.68,5.38,3.55,7.72,5.79-.21.44-.39.9-.64,1.33-2.91,4.96-4.93,5.11-8.92.76-.84-.92-.66-1.71-.21-2.68.78-1.69,2.07-3.18,2.05-5.18Z"/><path class="cls-1" d="M185.03,289.92c2.79-.65,5.63.95,8.4-.22.04,1.68-.12,3.39.17,5.03.59,3.3-1.47,3.64-3.87,4.01-2.68.41-3.81-.71-4.01-3.26-.15-1.86-.46-3.71-.69-5.56Z"/><path class="cls-8" d="M183.35,285.57c-.89-.63-.59-1.55-.6-2.4,0,0-.03.02-.03.02.88.63.58,1.55.6,2.39l.02-.02Z"/><path class="cls-8" d="M182.13,281.39c.75.42.55,1.15.6,1.8,0,0,.03-.02.03-.02-.74-.42-.57-1.14-.6-1.8l-.02.02Z"/><path class="cls-8" d="M183.33,285.58c.75.42.56,1.15.59,1.8,0,0,.03-.02.03-.02-.74-.42-.61-1.12-.61-1.79,0,0-.02.02-.02.02Z"/><path class="cls-8" d="M183.89,289.23c.02-.62.05-1.25.07-1.87,0,0-.03.02-.03.02.82.63.72,1.25-.03,1.85,0,0,0,0,0,0Z"/><path class="cls-8" d="M182.16,281.37c-.49-.27-.68-.67-.49-1.21.02-.07.16-.11.24-.16.08.46.15.93.23,1.39,0,0,.02-.02.02-.02Z"/></svg>